<svg id="Layer_1" data-name="Layer 1" xmlns="http://www.w3.org/2000/svg" viewBox="0 0 900 1366"><title>alldivs</title><g id="Path_1568" data-name="Path 1568"><path d="M501.82,836.1l-3.22-3.18-4.82-3.21-1.55-1.58L489,824.91l-8-8-3.18-3.2-1.62-3.21-1.6-3.19,1.6-3.21,3.19,1.6,1.61,1.61,1.62,1.59,3.18,1.6,1.64,3.21,3.18,3.2,3.17,3.22,3.22,1.58v3.19l3.24,3.22,1.57,3.21Z" style="fill:#ffceb6;stroke:#ed1c24;stroke-miterlimit:10;stroke-width:3px"/><path d="M502.89,838.65l-5-5-4.67-3.09-16.33-16.41-3.47-6.87,2.31-4.64,4.42,2.28,3.1,3.08,3.34,1.68,1.73,3.36,6.11,6.19,3.65,1.79v3.41l3.13,3.2,1.68,3.66Zm-24.22-25.58L494.54,829l4.65,3.08,1.56,1.53v-2l-1.39-2.83-3.42-3.41v-3L493,820.88l-6.53-6.69-1.49-2.9-3.13-1.63-3.11-3.09-2.09-1.05-.9,1.79Z" style="fill:#ffceb6;stroke:#ed1c24;stroke-miterlimit:10;stroke-width:3px"/></g><g id="Path_1570" data-name="Path 1570"><path d="M509.79,826.52l-3.19-3.18L505,818.53,503.38,817v-1.62l-1.58-3.21,1.58-1.58H501.8l1.58-3.21H505l3.18,1.6,1.59,3.18v1.6l1.61,3.23v1.59h-1.61l-1.59,1.6v3.21Z" style="fill:#ffceb6;stroke:#ed1c24;stroke-miterlimit:10;stroke-width:3px"/><path d="M513.66,831.87l-8.06-8.19-1.5-4.57-1.78-1.71v-1.82l-1.8-3.68.29-.3h-.71l2.61-5.34,2.79.12,3.49,1.76,1.86,4v1.35l1.61,3.48v2.65h-2.23l-1,1v2.51Zm-9.22-15.37,1.59,1.7,1.11,3.38V819.7l2.21-2.23h1v-.28l-1.61-3.48v-1.35l-1.32-2.64-2.64-1.33H504l-.54,1.09h2.44l-2.85,2.85,1.35,3Z" style="fill:#ffceb6;stroke:#ed1c24;stroke-miterlimit:10;stroke-width:3px"/></g><g id="Path_1566" data-name="Path 1566"><path d="M455.42,805.73l-4.84-1.59h-8l-1.6-1.6,1.6-3.18,1.61-3.2,3.17,1.57,6.43,1.63,3.19,1.57,3.17,3.21Z" style="fill:#ffceb6;stroke:#ed1c24;stroke-miterlimit:10;stroke-width:3px"/><path d="M455.42,806.84l-5-1.64h-8.24l-2.45-2.46,4-8,4.12,2,6.22,1.55,3.68,1.86,4.37,4.41Zm-12.37-3.77,7.87.06,4.49,1.48,2.81-.94-1.84-1.86-3-1.5-6.23-1.55-2.43-1.19-2.38,4.76Z" style="fill:#ffceb6;stroke:#ed1c24;stroke-miterlimit:10;stroke-width:3px"/></g><path d="M366.38,667.7c2.35,1.54,2,4,2.15,6.29C366,672.53,366.4,670,366.38,667.7Z" style="fill:#ffceb6;stroke:#ed1c24;stroke-miterlimit:10;stroke-width:3px"/><path d="M362.33,657.5c2.19,1.57,2.32,3.84,2.11,6.22C361.91,662.27,362.28,659.83,362.33,657.5Z" style="fill:#ffceb6;stroke:#ed1c24;stroke-miterlimit:10;stroke-width:3px"/><path d="M360.28,653.4c1.7.9,2.16,2.43,2.12,4.2C360.57,656.77,360.25,655.18,360.28,653.4Z" style="fill:#ffceb6;stroke:#ed1c24;stroke-miterlimit:10;stroke-width:3px"/><path d="M364.41,663.63l1.62,2.19c-.55,0-1.1,0-1.66,0C364.39,665.07,364.4,664.35,364.41,663.63Z" style="fill:#ffceb6;stroke:#ed1c24;stroke-miterlimit:10;stroke-width:3px"/><path d="M364.37,665.79c.56,0,1.11,0,1.66,0,.15.67.31,1.35.46,2Z" style="fill:#ffceb6;stroke:#ed1c24;stroke-miterlimit:10;stroke-width:3px"/><path d="M360.34,400c-2.62-.95-3.58-2.58-2.17-5.21C359.54,396.29,361.51,397.5,360.34,400Z" style="fill:#ffceb6;stroke:#ed1c24;stroke-miterlimit:10;stroke-width:3px"/><path d="M362.24,403.93c-2.11-.62-2.45-2.11-1.95-4C363.1,400.2,362,402.42,362.24,403.93Z" style="fill:#ffceb6;stroke:#ed1c24;stroke-miterlimit:10;stroke-width:3px"/><path d="M302.88,402.05c1.35.1,2.18.7,2.14,2.17C303.19,404.6,302.73,403.63,302.88,402.05Z" style="fill:#ffceb6;stroke:#ed1c24;stroke-miterlimit:10;stroke-width:3px"/><path d="M423.26,487.43c1.1-4.19-1.07-7.89-1.77-11.81,11.92-2.38,6.49,4.77,5.28,9.62Z" style="fill:#ffceb6;stroke:#ed1c24;stroke-miterlimit:10;stroke-width:3px"/><path d="M227.28,419.28c3.18,1,4.21,3.28,4,6.27s-1.71,5.51-5,5c-3.63-.55-3.19-3.85-3.1-6.52S224.44,419.56,227.28,419.28Z" style="fill:#ffceb6;stroke:#ed1c24;stroke-miterlimit:10;stroke-width:3px"/><path d="M194.11,425.49c-.63,2.69-1.38,5.42-5,5-3-.39-3.36-3.06-3.44-5.35-.1-2.86,1.09-5.8,4.28-5.63S193.91,422.62,194.11,425.49Z" style="fill:#ffceb6;stroke:#ed1c24;stroke-miterlimit:10;stroke-width:3px"/><path d="M348.14,491.33c0-3,.87-5.5,4.31-5.55,3,0,3.74,2.36,3.76,4.87,0,2.8-.34,5.68-4.07,5.54C349.32,496.09,348.31,493.93,348.14,491.33Z" style="fill:#ffceb6;stroke:#ed1c24;stroke-miterlimit:10;stroke-width:3px"/><path d="M302.88,402.05v0l.14.05Z" style="fill:#ffceb6;stroke:#ed1c24;stroke-miterlimit:10;stroke-width:3px"/><path d="M304.92,404.14v.09H305Z" style="fill:#ffceb6;stroke:#ed1c24;stroke-miterlimit:10;stroke-width:3px"/><path d="M304.93,404.23c-1.74.32-2.19-.61-2.05-2.14-20.24-6.62-44.88,1.76-61.27-18-11.54,0-15.48-9.75-21.63-16.7-3.52-4-5.82-10-12.19-9.9-10.1.18-10.54-6.31-8.49-12.85,5-16.05-4.88-24.9-14.72-35-1.88,2.81-3.48,4.62-4.43,6.73-3.3,7.25-7.63,10.86-16.47,8.36-7.1-2-14.81-1.91-22.26-2.6-2.59-.24-6-1.27-7.09,2.18-2.39,7.31-6.57,14.93-6,22.11,1.25,15.75-1.92,31.23-1,46.83.31,5.07-2.23,7.17-6.52,8.76-8.62,3.18-17,7.11-25.67,10-6.2,2.07-7.83,5.53-6.07,11.48a29.35,29.35,0,0,1,1.22,8.05c0,5.71,2.58,7.58,8.21,7.44a66.42,66.42,0,0,1,24,4.11c8.31,3,13.47,7.84,13.74,17.83.56,21.07,1.52,42.25,11,61.77,3.39,6.95,2.75,13-2.79,18.51-5.28,5.19-5.23,10.59-2.5,17.44,5.14,12.89,6.13,26.72,7.53,42-17-11.57-31.39-24.57-51.62-32.22,12.84,18.38,24.23,34.67,35.34,50.56-12.65,5.85-24.51,11.87-25.88,26-1.34,13.77-2,28,1.62,41.66,2.7,10.19.39,19.1-5.41,26.94C93.7,726.93,88.43,741.39,90,758.14a17.94,17.94,0,0,1-.71,5c-1,5-.27,9.46,3.35,13.23,11,11.5,15,25.26,14.63,41-.23,10.46,2.31,11.85,12.43,9.07,15.41-4.24,26.73-14.5,37.23-25.88,2.46-2.67,4.3-6.86,8.8-5.94,13.74,2.8,18.11-6.55,22.67-16.45,6.27-13.63,12.27-27.31,15.55-42,.81-3.62.54-7.88,2.42-10.78,8.15-12.55,3.35-24.63.56-37.32-12.48,6.12-18.14,2.51-18.4-10.63-.13-6.71,1.49-13.47,5.6-18.25,12.14-14.14,13.39-29.17,6.32-45.7-.88-2.07-2.3-4.73.12-6.59s4.24.92,6.21,1.91c5.06,2.53,9.14,9.6,14.73,7.78C230.27,613.8,238,610.48,246,618c.76.71,3.31,0,4.79-.64,10.08-4.27,17.84-11,22.56-21.12,2.68-5.74,1.29-8.77-5.15-10-10.68-2.06-21.24-4.74-31.91-6.86-5.15-1-7.19-3.35-7-8.9a324.42,324.42,0,0,0-.34-34.73c-.72-9.66,1.56-14.42,12.37-14.16,6.44.16,14.34-.21,17.1-8.33,2.44-7.17-2.2-12.18-6.47-17.18-13.82-16.22-13.94-16.6,6.4-25.16,7.78-3.28,12.48-7.26,12.31-16.23-.12-6.15,2.84-10.29,9.06-13.12,8-3.65,15.46-8.79,16.82-18.92.21-1.54,1.3-3.93,2.42-4.23C307.34,416.21,305.73,410.1,304.93,404.23Zm-103,39.06a.91.91,0,0,1-.27-.28H206l-.27.13C204.57,443.6,202.79,443.87,201.93,443.29Zm75.56-23.54c-6.37,1.9-4.89,7.11-5.15,11.59-.11,1.75-.43,3.32-2.64,3.54a3.49,3.49,0,0,1-2.13-.35V415.39c1.16-.91,2.9-1,5.3,0,2.72-.63,4.6-1.52,5.24.75C278.43,417.24,278,419.58,277.49,419.75Z" style="fill:#ffceb6;stroke:#ed1c24;stroke-miterlimit:10;stroke-width:3px"/><path d="M305,404.22s0,0,0,0l-.09-.05Z" style="fill:#ffceb6;stroke:#ed1c24;stroke-miterlimit:10;stroke-width:3px"/><path d="M395.08,520.67h0v.07Z" style="fill:#ffceb6;stroke:#ed1c24;stroke-miterlimit:10;stroke-width:3px"/><path d="M360.29,399.92s0,.05,0,.08l.07,0Z" style="fill:#ffceb6;stroke:#ed1c24;stroke-miterlimit:10;stroke-width:3px"/><path d="M432.62,465.65c-2-3.6-6.13-2.07-9.33-2.64-7-1.23-14.05-2.8-21.14-3.19-6.26-.34-11.32-2.14-14.85-7.28-4.21-6.13-10.81-6.8-17.14-7.31-9.1-.74-11.5-5.49-10-13.71.94-5.07,2.2-10,5-14.34,2-3,3.37-5.8,1.31-9.24l-4.27-4c-2.09-.61-2.43-2.08-2-3.93-2.56-.95-3.5-2.58-2.1-5.18v-.11c-6.48-1.16-12.59-2-19.28.88-5.81,2.51-11.63-.7-14.55-6.28-3-5.77-6.17-6.11-11-2.57a35.75,35.75,0,0,1-8.73,5.1c-7.29,2.6-4.61,6.29-1.64,10.23,1.28.11,2.08.71,2,2.12,8.12,4.45,7.81,11.26,1.41,18-9,9.44-15.46,21.39-28.73,26.32-1.21.45-1.58,4.31-1.61,6.6-.1,7.62-2.92,12.79-8,16.61h-3.58V474a42.31,42.31,0,0,1-4.16,2c-13.23,5.42-13,6-3.52,16.14,2.51,2.68,4.9,5.48,7.35,8.22.12-.05.21-.11.33-.17v6.8h.87c1.12,13.49-3.27,18.18-19.08,21.71-5,1.12-7,2.72-6.75,7.83.46,8.49.51,17,.66,25.52.14,8.23,2.41,14.21,12.15,15.31,6,.67,11.91,2.86,17.62,5,4.1,1.52,10.73.6,10.86,7.19.12,6.34,0,13.14-5.9,17.68-6.19,4.79-12.37,9.59-18.67,14.22-5.34,3.93-10.62,6.27-15.88-.53-2.32-3-6.83-4-9.14-1.42-8.11,9.12-15.69,9.38-23.43-1.91-2,8.26.9,13.55,2.65,18.9,2.4,7.32,2.34,13.14-4.29,18.86-6.82,5.88-10.27,14.3-11.22,23.42-.24,2.33-.52,5,1.5,6.71,2.48,2.11,4.69,0,6.28-1.43,6.19-5.52,12.76-4.5,20.07-2.69,8.15,2,16.06,5.91,24.86,4.63v.25c10.19-16.12,16.43-35.25,34.51-45.36,3.89-2.18,5.53-5.64,6.21-9.95,1.93-12.4,4.62-24.71,5.95-37.17.89-8.24,5.1-12.82,11.95-16.23,13.38-6.68,26.39-14.18,40.07-20.13,10.76-4.68,17.61-11.77,20.91-22.88,2.33-7.82,4.76-15.81,16.21-11.69,3.85,1.39,7.25-3.72,11.57-2.09,1.23-6.07,1.52-12.56,10.62-5.73,11.11,8.33,13.94,7.28,20.07-4.51,1.39-2.66,2.83-5.3,4.25-8-6.36-4.75-.26-11.83-3.21-17.22l-3.51,2.19V475.25l4.26-1.41C426.29,469.23,435.58,471,432.62,465.65Zm-97.71,6,.08,0h-.49C334.64,471.68,334.75,471.65,334.91,471.66Zm88.35,28v-1.22A1.56,1.56,0,0,1,423.26,499.69Z" style="fill:#ffceb6;stroke:#ed1c24;stroke-miterlimit:10;stroke-width:3px"/><path d="M303,402.14l0-.07-.09,0Z" style="fill:#ffceb6;stroke:#ed1c24;stroke-miterlimit:10;stroke-width:3px"/><path d="M360.34,400a.32.32,0,0,0,0-.09l-.08,0Z" style="fill:#ffceb6;stroke:#ed1c24;stroke-miterlimit:10;stroke-width:3px"/><path d="M395,520.73h0l0-.06Z" style="fill:#ffceb6;stroke:#ed1c24;stroke-miterlimit:10;stroke-width:3px"/><path d="M636.37,339.3c-9.41-23.78-24.11-42.14-48.55-52.08-26.1-10.63-52.39-21-73.46-41-5.83-5.53-13.32-9.45-20.41-13.47-16-9.08-33.06-15-51.67-12.66-14.25,1.79-28.5,4.51-33.1,21.84-1.87,7-6,8.2-11.88,3-3.11-2.74-5.73-7.2-12-2.92-21.33,14.62-42.42,10.48-63.06-2.36-4.37-2.72-5.55-6.24-5.38-11.09.51-15,.89-30,.95-44.93,0-4.13,1.42-9.9-4-11.44-4.49-1.27-6.91,3.59-9.59,6.48-3.53,3.81-5.26,8.28-12.77,7.47-21.3-2.29-21.77-1.65-22.67,20.08-.32,7.73-3,9.83-10.29,9.84-5.05,0-12.12-2.52-14.84,3.61-3.5,7.89-9.82,11.67-16.61,15.58-4.17,2.4-8.31,5.6-9.69,10.19-3.11,10.42-11.13,16.81-18.06,24.18-9.82,10.44-12.15,32.14-3.53,43.69,6.84,9.16,11.35,18.28,9.17,30-1.31,7,1.87,10.19,9,9.4,5.65-.63,9,1.56,11.94,6.95,4.37,8.09,6.11,19.53,19.3,19.25,2.2-.05,2.88,2.7,3.47,4.63.9,3,2.71,4.1,5.83,4.59,21.49,3.36,43.18,8.67,61.6-9,.72-.69,1.76-1,2.56-1.67,2.79-2.18,4.77-1.58,6.54,1.43,4.92,8.43,13.31,10.24,22,10.36,4.91.07,8.67.91,11,5.44v.11c1.36,1.45,3.28,2.66,2.2,5.12,2.69.32,1.59,2.49,1.87,4l4.27,4c6.8,4,14.39,7.55,3.47,15.78a12.1,12.1,0,0,0-4.27,12c1.14,5.34,6.74,3.21,10.25,4.61,3.07,1.22,7.65-.68,9.55,2.48,10,16.58,26.81,12.79,41.8,14.56,2.34.28,5,.05,6.95,1.1,4.4,2.37,7.64,6.17,6.74,11.51s-5.35,5.39-9.64,5.05c-2,4.9,3.91,8.16,2.69,12.91,7.48,1.65,17.28-.6,18.5,11.4.65,6.44-1,11-8.39,10.52-7.94-.56-12.93,2.16-14.67,10.35-1.11,5.23-3.93,7-9.54,4.6a53,53,0,0,0-24.89-4.11c-1.23,5.08-4.43,7.27-9.61,6.36-6.89-1.2-11.2,1.47-12.46,8.41-2.77,15.18-12.16,23.74-26.33,29-11.05,4.11-21.35,10.19-34.33,16.54,8.09,1.08,13.83,2.52,19.54,2.43,7.26-.1,9.76,3.31,9.26,9.78-.53,6.82,2.52,7.19,7.8,5,9.08-3.7,17.9-5.75,23.71-16.32,7.85-14.27,16.69-14.68,31-6.15l3.65,1.56c15.26,4.06,30.18,10,46.47,8.48,1-27.64,16.78-41.29,42.72-45.46,3.35-.54,6.65-1.49,10-1.9,6.62-.82,8.78-3.28,5.45-10-6.42-13-6.18-26.42-.37-39.5,2.66-6,2-10.74-1.46-16.12-4.42-6.82-13-17-10.86-20.7,3.67-6.53,15.12-3.89,23.28-5.05,5.42-.77,7.92-2.67,7.48-8.39-.49-6.24.33-12.14,5.85-16.53,26.35-20.93,52-42.82,82.76-57.44a47.89,47.89,0,0,0,14.8-10.73C637.45,349.67,638.76,345.34,636.37,339.3Z" style="fill:#ffceb6;stroke:#ed1c24;stroke-miterlimit:10;stroke-width:3px"/><path d="M362.33,657.5v.06l.07,0Z" style="fill:#ffceb6;stroke:#ed1c24;stroke-miterlimit:10;stroke-width:3px"/><path d="M447.26,776c5.89-6.75-.37-12.75-1.24-19-.65-4.77-4.55-6-8.49-5.15-12.11,2.52-24.54.57-36.51,2.65-6.67,1.16-12.14,1-17-3.35-8.72-7.87-17.38-6.47-25.86-.07-9.75,7.35-19.76,14.49-28.64,22.81-7.18,6.72-11.41,3.58-15.42-2.48-7.58-11.44-5.84-24.11-3.62-36.52,1.22-6.88,1.33-15.57,8.08-19.09,10.76-5.61,22-10.94,34.14-13,13-2.2,15.7-4.78,15.75-17.66,0-3.71,0-7.42,0-11.13-2.47-1.46-2.07-3.9-2.08-6.2l-2-2c0-.69,0-1.39,0-2.09-2.47-1.44-2.14-3.84-2.08-6.14-1.75-.83-2.07-2.38-2.05-4.1-4.19-3.26-1-5.92,1-8.44,7-9.1,14.22-18.12,21.38-27.14,2.91-3.67,6.52-5.22,11.42-5.44,12.83-.58,23.67-13,22.58-25.37-.5-5.6-8.52-4.23-9.34-9.69l-3.65-1.55c-13.51-.69-24.16,3.54-29.08,17.22-1.16,3.22-4,3.56-6.45,4.31-8.43,2.57-17,4.59-25.41,7.35-5.86,1.93-7.73-.28-6.88-5.61,1.52-9.49-3-12.24-11.54-11a18.58,18.58,0,0,1-4.08-.07c-17.8-1.59-17.62-1.58-19.24,16.19-1,11.45-2.89,22.83-4,34.28a11.66,11.66,0,0,1-5.66,9.19c-15.45,9.67-27.81,22.55-39.09,36.65-.89,1.11-3,1.26-4.51,1.85v-.25c0,3-1.68,3.83-4.36,4.55-6.42,1.71-12.7.37-19.08,0-13.37-.76-13.68-.49-10.06,12.12,3.38,11.79,4.58,23.11-1.31,34.61-10.23,20-20.1,40.19-29.9,60.41-2.43,5-5.32,5.19-9.73,2.82-3.57-1.92-8.57-4.11-10.75.64-8.21,17.89-24.59,24.49-41,31.26-5,2.07-7.92,5.16-8.94,11.13-3.43,20.09-1.32,39.89,1.45,59.76,2.79,20.06,16.29,34.8,25.55,51.62,1.47,2.67,3.71,9.47,7.34,5.72,4.5-4.66,14.89-10.17,11.06-16.11-6.7-10.37-2.59-19.52-2.22-29.32.21-5.51,2.4-8,8-8.18,7.31-.21,11.65-4.42,14.24-11.09,1.6-4.11,3.9-7.94,5.91-11.88,1-1.93,2.09-3.52,4.67-2.09,7.86,4.37,11.59,21,4.54,27-12.69,10.82-12.71,25.33-14.56,39.59-.63,4.84.78,7.73,6.5,7.69,13.34-.1,25.18,5,36.61,11.3,2.35,1.29,5.28,2.29,5.4,5.54.14,3.47-3.16,4-5.37,5.39-9.28,5.73-20.15,5.6-30.29,8.14-13.38,3.36-17.91,10.72-14.22,24.14a67.14,67.14,0,0,0,13.09,25.2c4.38,5.27,5.35,9.38,1.31,15.31-3.73,5.48-3,10,5.08,11.17,7.7,1.12,15.33,2.85,22.93,4.6,8.59,2,17,4,23.16,11.53,9,10.93,21,15.35,35.31,17.23,9.91,1.3,16.86-.67,24.23-6.24,9.91-7.49,21.48-12.09,33.36-14.83,11.26-2.61,15-9.37,12.06-19-5.69-18.73,2.06-31.84,15-44,13.43-12.57,21.8-27.36,18.29-46.88-.95-5.28-.1-10.87-.15-16.32A28.42,28.42,0,0,1,387.83,929c15.19-18.32,29.26-37.25,33.24-61.93,3.18-19.7,3.9-19.59-13.41-28.44-10-5.09-10-5.91-2.57-14.34C419.23,808.29,433.2,792.09,447.26,776Z" style="fill:#ffceb6;stroke:#ed1c24;stroke-miterlimit:10;stroke-width:3px"/><path d="M360.28,653.4v.06l.09.07Z" style="fill:#ffceb6;stroke:#ed1c24;stroke-miterlimit:10;stroke-width:3px"/><path d="M364.41,663.63v.07l0,0Z" style="fill:#ffceb6;stroke:#ed1c24;stroke-miterlimit:10;stroke-width:3px"/><path d="M368.46,673.83v.11s0,0,.07,0Z" style="fill:#ffceb6;stroke:#ed1c24;stroke-miterlimit:10;stroke-width:3px"/><path d="M366.38,667.7v0l.11.11Z" style="fill:#ffceb6;stroke:#ed1c24;stroke-miterlimit:10;stroke-width:3px"/><path d="M377,1067.53c4.23-19.17,7-37.76,18.28-53.46,2.22-3.1,2.33-6.46,1.91-9.75-2.74-21.57,3.52-40.74,14.31-59.15,6.52-11.12,11.82-23,17.29-34.7,2.22-4.75,4.77-5.63,9.55-3.68,13.32,5.41,26,11.8,37.06,21.14,12.48,10.54,11.73,24.34,9.4,38.47-2.28,13.81-5.06,27.52-13.73,39-8.14,10.83-15.28,12.4-27.32,6.71-7.35-3.46-15.83-10.66-21.89-9-6.53,1.75-6.77,13.63-10,21-3.51,8.11-7.66,16.15-9.68,24.65C399.06,1062,390.4,1066.59,377,1067.53Z" style="fill:#ffceb6;stroke:#ed1c24;stroke-miterlimit:10;stroke-width:3px"/><path d="M507.45,972.85c0-16.86.05-33.72-.05-50.58,0-3.49,1.47-5.62,4.38-7.34,4.08-2.41,8-5.14,12-7.72,12.57-8.15,18.44-6.09,20.31,9,1.49,12,1.43,24.06-9.85,33.36-8.81,7.26-16,16.53-23.86,24.9Z" style="fill:#ffceb6;stroke:#ed1c24;stroke-miterlimit:10;stroke-width:3px"/><path d="M543.35,984.56c1.11,16.38-.84,31,4.81,44.85,2.07,5.08-3.32,8.44-6.38,11.89C529.67,1055,522.91,1055.38,508,1044c-2.61-2-3.51-4.18-2.51-7,3.85-10.69,5.38-22.33,15.1-30.38C528.28,1000.29,535,992.77,543.35,984.56Z" style="fill:#ffceb6;stroke:#ed1c24;stroke-miterlimit:10;stroke-width:3px"/><path d="M364.44,663.72v-.05l0,0Z" style="fill:#ffceb6;stroke:#ed1c24;stroke-miterlimit:10;stroke-width:3px"/><path d="M366.49,667.85l0-.07a.34.34,0,0,0-.09-.08Z" style="fill:#ffceb6;stroke:#ed1c24;stroke-miterlimit:10;stroke-width:3px"/><path d="M368.53,674v0l-.07-.11Z" style="fill:#ffceb6;stroke:#ed1c24;stroke-miterlimit:10;stroke-width:3px"/><path d="M603.61,660.31a156.31,156.31,0,0,1-8.17-26.26c-2-8.92-7-13.62-15.31-17-19.73-8-19.57-8.41-16.68-29.88.36-2.69.67-5.39,1-8.08a15,15,0,0,0-3.91-12.22c-11-12.51-22-25.07-33.08-37.51-1.43-1.61-2.63-4.59-5.52-3.44-2.09.83-2.22,3.38-2.16,5.38.36,12.55-6.33,18.17-18.19,19.05-2.34.18-4.61,1.31-6.95,1.53-21.25,2-34.81,12.56-38.79,34.11-1,7.43-6.55,6-11.6,6.15-7.35.15-15.87-5.44-21.55-.37-4.78,4.28-6.12,12.52-8.69,19.12-1.87,4.78-4.16,8.07-10.15,7.92-11.06-.27-19.95,3.37-26.24,13.6-4.7,7.67-11.4,14.1-17.22,21.09a4.14,4.14,0,0,1,2,4.06c2.1,1.55,2.25,3.78,2.05,6.11.52.72,1.05,1.43,1.58,2.15.15.65.3,1.3.44,2,2.22,1.53,1.95,3.91,2.06,6.16,11,16.14,4.41,33-14.48,37.36-9.27,2.11-18.49,4.49-27.8,6.43-5.23,1.08-7.73,3.62-6.65,9.08,1.94,9.75,1.94,19.66,1.76,29.5-.14,7.81,2.7,7.54,8.35,4.55,10.23-5.41,21.13-9.65,31-15.67,8.89-5.44,16.71-6.14,25.19,0,6.49,4.67,13.91,4.8,21.52,4,5.73-.62,11.49-1.22,17.25-1.35,23.35-.54,23.07-.41,27.88,22.28,1.35,6.37.53,10.55-4.21,15.27C436,797.6,424.61,810.73,412.45,823.1c-4.93,5-6.41,8.89,1.1,11.91,16.05,6.43,16.34,19.09,13.64,33.11-.39,2-.67,4-1.15,6-1.4,5.84.94,8.63,6.77,9.93,31.83,7.14,63.62,15.12,94.45-3.61a11,11,0,0,1,1.94-.62c17.47-6.09,18.24-6.29,13.64-24.33-5.56-21.79-3.36-42,6.82-62,5.87-11.49,10.48-23.62,15.68-35.46,8.55-19.5,20.29-38,18.69-60.66-.67-9.5,4-15.9,13-19.29S607.17,668.88,603.61,660.31Z" style="fill:#ffceb6;stroke:#ed1c24;stroke-miterlimit:10;stroke-width:3px"/><path d="M360.37,653.53l0,0s-.07-.07-.12-.1Z" style="fill:#ffceb6;stroke:#ed1c24;stroke-miterlimit:10;stroke-width:3px"/><path d="M362.4,657.6v0l-.07-.06Z" style="fill:#ffceb6;stroke:#ed1c24;stroke-miterlimit:10;stroke-width:3px"/><path d="M617.2,1000.42c-6.12,8-8.82,12.33-12.32,15.86-3,3.05-5.45-.66-7.92-2-2.66-1.47-5-3.49-7.78-4.78-8.23-3.87-9.27-8.75-2.39-14.89,3.36-3,5-10.87,9.52-8.9C603.91,989,610.22,995.28,617.2,1000.42Z" style="fill:#ffceb6;stroke:#ed1c24;stroke-miterlimit:10;stroke-width:3px"/><path d="M654,975l-28.58,1.59c-.28-1.29-.73-2.06-.52-2.52,2.91-6.39,4.65-18.39,8.74-18.11C642.07,956.55,645.72,967.17,654,975Z" style="fill:#ffceb6;stroke:#ed1c24;stroke-miterlimit:10;stroke-width:3px"/><path d="M817,687.75c6.87,7.28,12.47,13.15,18,19.09,5.09,5.47,3.93,12.16,2.83,18.44a115.8,115.8,0,0,1-13.78,38.2c-4.81,8.28-6.47,16.67-6.3,26.16.45,25,.15,50.09.15,74.27-10.23-9.3-20.41-18.52-30.53-27.82a4.08,4.08,0,0,1-1.07-2.79c.77-20.89-4.63-42,2.67-62.69C798.46,743.69,807.31,716.56,817,687.75Z" style="fill:#ffceb6;stroke:#ed1c24;stroke-miterlimit:10;stroke-width:3px"/><path d="M769.93,591.89c-18.28-22.41-35.38-45.81-54-67.89a126.17,126.17,0,0,1-26.61-51.85c-7.06-28-15.79-55.58-23.4-83.44-1.54-5.64-3.76-7.83-9.75-7.18C642.28,383,628.37,384,614.46,385c-4.47.31-7.24,2.19-9.85,5.9a61.66,61.66,0,0,1-31.35,23.44c-4.93,1.67-9.74,3.82-12.8,8-14.32,19.53-24.75,40.55-24.53,65.62.05,5.15,1.36,8.95,5.12,12.56,12.28,11.77,24.09,24,36.45,35.75,4.59,4.35,6,9,6.42,15.18.87,12.45-1.4,25.33,2.92,37.33,8.39,23.34,17.42,46.46,26.28,69.64A69.61,69.61,0,0,1,618,684.28c-.27,25.87-.56,51.74-.3,77.61a29,29,0,0,1-6.86,19.62c-14.8,18.23-29.28,36.72-44.19,54.85-13.42,16.31-13.6,16.16.87,31.53,13.63,14.47,13.56,14.42,2,30.58-2.62,3.66-7.73,7-4.76,12.43,6.63,12.06,9.69,25,12.42,38.41,2.38,11.63,9.37,13.84,19.82,8.05,13.09-7.26,25.94-15,39.09-22.11,5.3-2.89,8.15-6.56,8.42-12.75.4-9.61,3.93-16.53,15-18,6.63-.9,12.89-4.29,19.47-5.9,7.82-1.92,13.17-6,16.38-13.58,5.7-13.42,14.19-24.75,27.3-31.86,6.3-3.42,7.4-8.53,7.49-15.23.55-41.79,6.19-82.87,22.49-121.59,5.72-13.57,8.55-26.7,8.29-41.26-.2-11.69-3.58-24.87,8.91-33.58,1-.71,1-3.13,1.2-4.78.82-8.8,1.53-17.61,2.17-25.14C773,604,774.83,597.91,769.93,591.89Z" style="fill:#ffceb6;stroke:#ed1c24;stroke-miterlimit:10;stroke-width:3px"/></svg>