<svg id="Layer_1" data-name="Layer 1" xmlns="http://www.w3.org/2000/svg" viewBox="0 0 900 1366"><title>alldivs</title><path id="map_background-2" data-name="map background-2" d="M585.33,291.8v-.7H586l.71-1.42V289l-.71-1.42v-1.42l.71-.7V284l.71-1.43,1.44-.7h.68l.72.7H591l.7.72.7-.72.71-.7.72-.71,1.42-1.41.69-1.43.72-.7,1.4-1.42,1.42-2.13.72-.71.7-1.42h.73l1.41-1.41,1.41-2.13.71-2.13v-.71l.72-.7,1.4-.72.73-.7,1.4-.72,1.42-.7,1.43-.71h1.42v-.71l.69.71v2.82l-.69.72.69,1.42v1.41l.72,1.42.72.7.69,1.42h1.44l.68-.69.72.69.7.71h1.43l1.43.72,1.42.7.68.71,1.42.71v1.42l-.69.7.69,2.13v9.21l1.44,1.42.71.71h2.82v-.71l1.42-.7.71-1.42.71-1.42v-.71l-.71-1.42.71-1.42v-1.41l.71-.72V279l.71-.7,1.41-.71v-.72l-.71-.69V274.8l-.7-1.42v-2.82l1.41-.73.71-.7,1.42-1.42,1.42-.7h7.08l.72,1.41V272h.7l.72.72h.68v.7l.75.71.7.72v7.08l-.7,1.42V284l-1.43,4.25-.72.71v.71l-1.42,1.42v.7l-.71.72v1.41l.71.71h1.42v1.41l-.7,1.43-.72.71.72.71h2.1l.75-.71,1.4.71.72.7.7,1.42h-1.42l-.7.71v.71l-.7.72v6.39l1.4.7.72.7.7.72h.73V311h.7l.69,1.42v.7h.74v1.43l.7.72-.7,2.12h.7v2.11l.71.71.7,2.13v1.4l-.7.72v2.13l-.71.7v2.13l.71.72h.7l.72.7.69,1.42v4.25h.72l.68.71v4.25h-.68l.68.72v.7l-.68.71h-.72l.72,1.41,1.42.72.71.7.69.71-.69.71h-2.13l-.71,1.43h.71l.68.71h1.45v.7h1.42l.7.71v.71l-.7.71h-1.41l.69.71v1.41l.72-.71h.71v.71l-.71.71v2.13l.71,1.42v2.13h.71v1.42h.69V362l.73-.71.71-.7h.7v.7h.71V362l.72.71V367l-.72.7h.72l.7.7h.71l.7.73h.71v1.4l-.71,1.43-.7,1.41v1.43l.7.7h.71v.71l-.71.71-.7.71V379h1.41v-.72h2.12V379l-.69.7-1.43.71v2.13l.72.72h1.4l.73-.72.71-.72v-.69l.7.69v1.44h.7l.71.69.7,1.42-.7.71,1.43.72-.73,1.41v.71l-.7.71v1.41l-.71,2.82-.7,1.43-.7.7-1.43.72.72,1.41h-.73l.72.72.71.7v-.7h2.12v.7l.7,1.42v.72l.72.7.7,1.42v5l-.7.7.7.72.71.7.72.73.71,1.4,1.41,2.13-.72,1.41-.69-.71-.71.71.71.71V418h.69v.7h.72l.71.71.72.71v2.13l.7.71v1.42l-2.85.7h-6.37l-.7.7h-5l.71,2.85v1.42l.71.71v7.79l-.71.72v1.41l.71.71.72.71h.71l.69,1.42H674v2.82l.71.73.69,1.4v1.42l.73.71-.73,1.41v.72l-.69,1.41h.69v1.43l-.69.69-.71,1.42v.72h.71v.7h.69l.73.71.7.71V462l-.7.69v.72l-.73.71v1.42l-.69.7v2.13h.69l.73.71v1.41h1.4l.71,1.43v.7h.71v.71h.69l.73.71.7-.71v1.42l.71.71.72,1.42V479l.71,1.4v.72h.69v5l-.69,1.41-1.43,1.42v5l-.71,1.41v1.42l-.7,1.42h.7v.71l.71,1.42v2.82l-.71.71.71,1.42H681l-.7,1.41v.71l-.73.72v5.66l.73.72v1.41l-.73.71v1.41l-.69.72v4.25h5l.71-.71H686v.71l.71.7v3.57h5v-.71l.72-.7h.7v.7l-1.42,1.4.72,1.42.7.72h.71v.7l.71.72.69,1.41v.72h.72v2.13l.71.69.69.72v-.72h1.45V535h.7v-.72l.7-.69.7.69.73.72v4.26h.7v.71H703l.72.71h.7v.72l-.7.7-.72.71v1.42h2.13l.69.71v.7l.72.71V547h-2.11v.7l.69.72v.71l.7,1.41h-1.4v-.69H703v.69h.72v.72h.7l.7,1.41.7,1.42-.7.7-.7.71v2.14h-.7v.71h1.4v1.41l.7.72v.69l1.41-.69v2.83l.73.7h.69v5l.74.71v1.42l.7.7-.7,1.41v1.44h.7v.7l-.7,1.42h.7l.71.7v2.14h-.71v.7l.71.72h2.12v.7h1.41v.72l-.7.7.7,1.43.7,2.13,1.43,2.1,1.42,1.43.71,2.84,1.41,2.12.72,2.13.69,2.82.72,1.44,1.42,2.82.72,2.13V608l.7.73,1.41,2.82V613l.72,2.82v2.85l.7,2.11.71.72v4.26l.71,2.11.72,1.43V637l.69,1.41-.69.72h-2.84V642l-.72.72v1.41h1.41v.7l.72.71v2.16l.71.71,1.41.72.7,1.41v4.25l.74.73v2.82h2.1v.7l-.71.72v2.84h-.7v.7l.7,1.42v2.84l.71,4.25.72,4.26v2.13l.72,3.54V686l.7,3.55v.69l.7,3.55v3.54l.73,3.55H737l.73,1.41v1.42l.7.71v1.42l1.42,2.13v.71l.71,1.4v2.15l.71.71V715l.72,2.13.69,1.41v2.14l.72.7.7,1.43V725l-.7,4.25-.72,2.84.72,2.12.7,1.42v2.84l1.41,1.41V742l.73,2.14h.7v6.37l-.7,2.12L747,754v5.66l.7,1.41v1.43l.69,3.54v2.12l.75,1.42.7.73h.7l.73,1.38-.73,2.86v2.82l.73.73V781h-1.43l-1.45,1.43-1.38-.73-.7-.7-1.44-.7H742l-.71.7-1.42.7h-1.42l-1.43.73v2.11h.73v1.42l.7.72.69,1.4.73.72.71.7.71.7v.74l.71,1.4.7,2.12.72,1.41v.73l.7,1.41.7,1.41.71,1.43.73.7v3.54l.7.72v.7h.7v.71l.68.72V810l-1.38.69v.72l-.7,1.41v.73L747,815l.7,1.42h.68v5.69l.75,1.41v.72l.71.71.7.7.72.7V827l.7.72v1.41l-1.42.71v3.56h.72v1.42l.7,2.83v2.85l.72,2.12v.7l.7.72v.71l.7.71v.7l-.7.71-.7.72v2.12h.7l.7.72.74.69,1.39,3.55.72,2.13v1.41l.71,1.41v.72l.71.72v2.11l.63,3.24.07.31-.3-.19-1.82-1.22-.72-.7-.7-.72-.69-.71v-1.42l-2.14-2.13-2.14-2.82-1.41-2.13-1.42-1.42v-.71L745.54,849l-.71-2.13-1.41-2.12-.72-2.13-.69-2.12-.72-2.14-1.41-2.83-1.42-2.84-2.14-3.54-1.41-2.84-2.14-2.82-1.42-4.24L730,815l-.72-.71-.71-1.41-.71-1.41v-.72l-.69-1.41-.72-2.13-.71-.72v-2.12l-1.41-1.4v-.72l-.72-.72-.71-2.82-.7-.71-1.42-2.83-.71-2.13.71-1.42v-.69L720,789.5l-.71-1.42-.71-.7-.71-1.42V783.8l-.71-2.12-.71-2.12v-2.82l-.7-.72v-2.13l-.73-1.41v-.73l-.7-2.82v-4.26l-.7-2.11-.71-1.43-1.42-3.54v-.71l-.7-.7v-2.12l-.71-2.13V750.5l-.7-.7-.74-1.42-1.42-.7-.69-.74-1.42-1.4-.7-.71-.71-.7L702.29,742l-1.43-2.13-2.1-1.4-2.14-2.13-1.43-2.13-1.4-1.42-2.13-3.54-1.42-.71-1.41-1.42v-.71L687.41,725l-2.13-1.42-1.44-1.42-1.39-.71-1.43-.7h-1.43l-1.41-.71h-2.11l-.72-.72h-2.13l-2.11-.72h-1.42l-2.13-.69-1.41-.72h-.72l-2.12-.7-2.84-.7-2.12-.72-4.27-.71h-7.8l-2.13.71h-1.42l-.69.72-2.85.7-1.42.7L635,718.58h-1.42l-1.41.72h-7.79l-2.85-.72v-7.77H618l-1.44.69h-4.24l-1.43.73-.69-.73H608l-.73-.69h-.7l.7-.73v-.7h1.41l.72-.7-.72-.72v-.71l.72-.7v-.71h-.72l-1.41-.72-2.12.72h-1.42v-.72l-1.43-.7v-.71l-.68-1.42-.73-.7v-1.45l-1.42-.69h-.69v-.7l-.72-.73-.69-.7v-2.13h.69l.72-.71.69-.71,1.42-.7.73-.72.68-1.42v-2.82h1.43l.71-.72.71-.7h.72l1.4-.7H608v-.74h.68l.72-.69v-2.13h-.72v-.71l.72-.71v-.7l-.72-.72-.68-.71h-.73v-.7h-.7l.7-.72v-3.54l-.7-1.42.7-1.41-.7-.72v-.71l-.7-.7v-.72l-.72-1.41-.71-.72-.71-.7V664h-.69v-6.39l-.74-.72V655.5l-.68-.73h-.73v-.7h-1.42V652h-.7v-1.44h-.72l.72-.7h.7l-.7-.7v-2.84h-2.13v-1.43l.72-.7.69-.71V642l-.69-1.41-.72-1.42-.71-.72-.69-.69h-.7l-.73-.72h-1.42l-.71-.72-.69-.69v-.71h-.72v.71l-.72-.71v-.73l.72-.69v-1.42l.72-.71v-2.11h-2.13l-.73-.72h-.71v-.71h-.71l-.71.71-.69-.71-.72.71h-2.13l-.71.72-.69.7h-.73l-.69-.7-.71-1.43v-2.11h-.71l-1.43,1.41-.71,1.41-.71,1.42h-2.82l-.74.69h-.68v.72l-.72.72v.69l-.71,1.42v1.43H569v.7l-.68.72v1.4l.68.72.72.7.71.72v.71l.72.7v1.42h.68v.71l-.68.71v2.84l-.72.7.72.72,1.42,1.41.69,1.43v.7l.72,2.12v2.84h-.72l-.69,1.42-.74.71.74,1.42v1.42h-.74V664l-.68,1.42H569l-1.41,1.41-.7.72-.71.69V669l-1.41,1.41h-1.44l-.69-.71h-2.13l-1.43.71h-.7v-.71h-.71v-1.42l.71-.69v-2.13l.69-.72v-1.41h-.69l.69-.71v-.71h-.69l-.71-.71V656.9l-.71-2.12v-4.27l-1.42-2.12-.71-1.42v-2.83l-.7-.72-.71-1.42v-2.82l-.72-.71H552l-.72-2.82-.69-.71v-.72l-.72-.7-.71-.72h-.7l.7-.7h.72v-1.43l-.72-1.39-.7-.72-.72-.72v-.69l.72-.72L547,625v-.71l.7-.7v-2.13l-.7-1.42v-2.12l-.72-.72H547v-1.42l.7-1.41.72-1.41v-.72L547,610.84l-.72-.72-1.4-.7-1.42-.71.7-.73v-.7l-.7-.72v-.72l.7-1.41v-2.82h1.42l1.42-.7h3.55l.69-.73h1.42l.72-.7v-7.81h5.66l.73-.7.7.7.71-.7.71-.71.72-.71,2.13-1.42-.73-2.12v-.72l.73-.69v-.73h.68l.73-.7v-1.42l-.73-1.42-.68-1.41-.73-1.42-1.4-2.12-.72-1.42-.71-1.42-.7-1.41L559.08,569l-.69-2.14v-7.08l.69-.72v-2.13l.73-4.25v-6.39l-.73-2.12v-2.12l-.69-1.42L557,537.79l3.56-.71h2.82l.71-.72,1.4-.68h2.88l.68.68.72.72h.71l.72-.72h4.23l1.43-.68h1.43V535H579v-.72l.7-.69.7-1.42.72-.71.7-.71V530l.71-1.41v-.72l.72-2.1v-1.43l.7-1.42v-.72l1.42-.7.7-1.43.71-.69,1.41-.72h.73l1.41-.71,2.12-1.41.71-.71h1.44l1.39-.71.72-1.42,1.4-2.82V505.2l-1.4-2.13-.72-.71-.69-1.42-.7-1.41v-1.42l-.72-1.41v-3.56l-.72-.69-.71-2.13-1.4-2.84-1.44-1.42-.69-2.84-.72-2.12-.72-1.42-.7-.71v-2.84h.7l.72-.7h1.41l.72.7,1.41-.7h2.13l.73-.71H596l1.43-.71.69-.71h.72l.7-.71.72-.7,1.43-.71v-.73h.68l1.43-.69h1.42l.71.69h.71l.7.73,1.41-.73h2.87l.69-.69h1.43l1.4-1.42.73-.7v-1.43l-.73-1.42-1.4-1.41V462l-.72-.71-.71-2.14v-.7l-.69-1.41-.73-.73-.69-1.4-.73-1.42v-2.84l-.72-.72-.68-.7-.73-1.43h-.7v-.69l-2.13-3.55v-.71l-.71-1.42V440l-.7-.69v-1.43l-.73-1.41V435l-.68-.71v-2.86l-.73-2.12V406l-.69-1.44V401l-.73-.71h-.69l-1.42-.71-.71-.7-1.41-.72-.7-.71-1.44-.7-1.41-.72H591l-1.43-.7-.69-1.43-.73-.7h-.71l-.7-.71-1.41-.72-.72-.7h-.7l-1.43-1.41-.71-.71h-.7l-.72-.71h-.7l-.7-.71h-.71v-.71l.71-1.42h.7l.7-.7h.72l.7-1.42.71-.72,1.43-.71,1.42-.69H586l.72-.72,1.41-.71.73-.7.69-1.42H591v-.71l1.4-1.42h.71l1.44-1.43,1.4-.7.71-.71,1.41-.71,1.42-1.42v-.71l.72-.7,1.42-1.42.69-.71,1.43-2.13V363.4l-.7-.7V362l.7-1.42v-1.42l-.7-2.84-.73-2.13-.69-2.13-.72-3.54-1.42-4.25-.7-2.12-.72-2.85-.69-2.12-.71-1.43v-5.66l-.72-1.42-.69-2.12-.7-2.13-1.44-2.83-1.43-2.12-.7-4.24-.72-2.85-1.4-2.12-.73-3.55-1.42-3.54L586,301l-.69-2.12-.72-2.14V296l.72-4.25Z" style="fill:#b7dae2;stroke:#053893;stroke-miterlimit:10;stroke-width:2px"/><path id="map_background-23" data-name="map background-23" d="M303.86,71.32,306,74.16l.69,1.41L308.09,77l1.45.71,1.42.7,2.82.73h5l2.13.7h1.41l1.42.72,2.12.69L328,82h5l1.44.71h.69l.71-.71h2.13v-.72l-1.42-.69V77.7l.7-1.42V74.16L338.58,72,340,70.61V69.9l1.42-1.41.7-.72,1.41-.71h2.13l1.41.71,1.42.72.72.71v2.12l1.41.71v3.54L349.23,77v2.14l-.72.7-.7-.7h-.72l-.68.7-1.45.71L344.25,82l-.71.71h-.7l-.71-.71h-1.41l.71,1.42v1.42L340,85.5h-.71l-.72-1.43h-2.11v2.14l-.71,1.41-1.41.72v2.82l.7.72h2.84l.69-.72,1.43-.72.71-.7h2.82l.71-.7h2.16v5l-.73.71L345,93.29h-2.12l-.71.71h-.7l-2.13.71-1.42.7-1.41,1.42h-1.42l-.7.71v5.67l-.72.71-.72.71L332.2,106v.71l-1.42,1.42-.69.71v1.42h2.82V116l.71.71h2.85v.7l.69.71h.73l.69-.71.72.71-.72.7-.69.72-.73.7h-.69l-2.12-.7-1.43.7v1.42l-.72,1.43v2.82l1.43.71,1.42.71.71-.71.71-.71h2.83l.71,1.42-.71.71v.71l-.72,1.41-.69,1.42v5.67l.69.72h2.85l.71.7h1.4v1.42l.71.71v1.42l.71.71.72.71.73.7v3.54l-.73.71-.72.72v1.41l.72,1.42-.72,1.42h-1.42l-1.4-.71h-.71l.71.71v2.82l-.71.71-.71.72v.7h.71l.71.72h1.4l.71.71v.71h-.71v2.11l-.7,1.43-.7.71v3.54l-1.42.72-.71.7-1.43.7-.69-1.4-.73-1.43V166.3l.73-1.42h-.73l-.69,1.42-.71.7v1.42l-1.41,1.42-.72.7V172l-.71,1.41v.71l-.72,1.42-.69,1.43v1.41l1.41.7h.71l.72.71.7,1.42v3.55h-4.26l-2.13-.71h-2.83L323,183.3h-.72l-.72.72,1.44.71,2.13.7v.71l.69,1.43v.7l.72.71v1.42l-1.41,1.41-1.43.72H323l-1.44.71-.69.71v5.67l2.13.71.7,1.42v.71l.71,1.41v1.41l.72,1.43.69,1.41,1.43,2.13,1.42.7v2.13l.7,1.42L328,215.93l-.71.7-.7,1.42-.73,1.41-.69,2.13L323.71,223l-.7,1.43v.7l-.72,2.12-.71,2.13-.69,1.43.69.69.71,1.43v5.67l-.71,2.13-.69,1.42v2.12l-.72,1.42-.7,1.41v1.43h-2.13l-.71-1.43v-.67l-.75-1.42H314.5l-1.43-.71h-5l-.67.71h-5l-.72.71-1.42.71-.68,1.42-.73,1.41v1.43l-.71,2.12-.7,1.42v2.83l-.7,2.13.7,2.13.7,1.41-.7,1.42.7,1.42h11.35l1.42-.71h.69l1.43.71.7.71.72.71v1.42l-.72.71.72,1.42-.72,1.41v5l.72.71v.71l-.72.71-.7.71-.72.7h-.7l-1.42-.7v-2.13H306l-2.13-.71-.7-.7-.71-.72-.72-.71-1.42-.7-.69-1.41-2.83-.72h-.73l-1.42.72h-1.41v2.82h-2.12l-1.42-.72v-2.11H289l-1.42-1.42V267.7l-.7-1.42-.71-.7.71-1.43-.71-.7-.7.7h-2.12v-.7l.68-.71v-1.42l-.68-1.41h-2.14l-.71.69-1.41-.69.7-.71.71-.72-.71-1.42v-1.41h-.7l-.72.71-.7,1.42H276.2l-1.42-.71v-1.42l.73-.71.69-.7v-1.43l-.69-.7h-1.43l-.7.7v1.43l-1.41.7v-5.68l-1.44-.71h-2.82l-.72-.7-.7-.73v-.68h.7l.72-.71.71-.71v-.71l.69-.7.72-.72-.72-.7h-.69l-1.43.7v-1.42l.72-.7-.72-.71-.7-.71-.7.7v.71l-.72.69-.71-.69H262l-.71-.71.71-.71h2.13V236.5l-1.41-1.42L262,236.5l-.71.71-.69-.71v-5.67l-1.43-1.42-1.42.71h-1.42l-1.41.71-1.44.7h-.69l-1.42.72-1.4-.72-1.45-.7v-.71h-1.41v.71l.72.7.69.72.73.71-1.42.7h-5l-1.42.72h-1.42l-.72.7h-1.41l-1.42.7h-.71v.72l.71.71-.71.71h-.72l-2.1-.71h-.7l-1.44.71H228l-1.41.71-1.42.71h-.7l-1.45.71-.68.71-1.43-.71h-2.85l-.69.71-.72,1.42-.69.7h-1.44l-.69.72-.7,1.41v1.41l.7,1.43-1.44.71v4.24l.74.71v.71l-1.44.71-.69.71-.73.71h-1.41l-1.41-.71h-2.83l-.73.71h-.7l-2.13-.71-.7-.71h-.71l-.72-.71h-2.82l-.73-1.42h-4.23l-.69-.71-.75-.71-.68-.69-.73-.71v-.72l-.71-.71-.69-.7-1.42-.73-.71.73-.74.7-.68.71-1.43,1.42-.71,1.41h-2.82l-.72.71v.71l.72.71-.72,1.42v.71l1.44,1.42-.72,2.13v.7l.72.71.69.71.72,1.42.7,1.42v1.41l-.7.72-1.41.7h-2.86l-2.11-.7v-2.85l-1.42.72-1.42-.72-1.43.72-.7,1.41h-2.12l.71-1.41-.71-1.42L165.62,262l-1.4-1.42-1.42-2.13-.72-1.41-.71-1.42v-2.13l-.7-2.13V250l.7-2.85.71-1.41.72-1.42,1.42-2.11,1.4-1.43,1.43-2.13,2.12-1.41.7-.71,1.43-1.42.72-.7,1.4-2.13.72-2.13.69-1.42v-4.25l-.69-2.14V220.9l-.72-1.42-.7-1.41-1.42-1.42-.71-.7V213.1l.71-1.4,1.42-1.43,1.42-1.42,1.4-.71,3.57-1.41h1.41l2.13.71h2.11l1.4.7h10l.71-.7.69-1.43,1.41-.71,1.43.71.7-.71,1.42-.7,1.41-.71H206l.72,1.41,1.43.71.7.72v.71l1.4,1.41.73,1.42h5l1.41-.7,1.41-1.43.72-.7.69-1.43.71-1.41.71-1.42.73-.71v-2.83l.68-1.43V196.1l.72-1.44V194l.73-.71.7-1.43,1.42-.7,1.41-.71,1.4-.71,2.14-1.42v-1.42l.73-.71-.73-2.12v-.72l-.71-1.4v-3.54l1.44-.7.7-.71,1.4-1.42,2.14-1.42,1.42-.72.72-1.41.69-2.13v-2.13l-.69-1.41v-2.14l-.72-1.42v-1.41l-.71-2.13v-1.41l.71-1.44.72-1.4,1.41-1.42.69-1.41.72-1.43,1.42-2.12.71-2.13h.71l1.41-1.42,2.14-.71,1.41-1.41,1.41-.71,2.13-1.42h1.42l1.41-1.42,1.42-.71,1.42-.7,1.43-1.42,1.41-1.41,2.11-1.44v-1.41l.72-.71v-1.41l.71-1.42-.71-1.42v-1.42l-.72-2.12L262,121.66l-1.4-.71-1.43-1.41h-.71l-1.42-1.42-1.42-.71h-1.41l-1.42-.7h-.71L250,115.28l-1.44-.71-1.42-.7-1.41-2.13-1.41-.71-.71-.7-.71-1.43-.71-1.41v-2.13l1.42-1.42.71-.71h1.41l.71-.7,1.43-.72,1.41-.7,1.41-.71.71-.71,1.42-.71.69-1.42.73-.71.71-.71.69-1.41.71-.71.72-1.42.71-.7.7-1.44v-.7l.72-.7,2.83-.71h8.5l1.44.71h.67l.74.7.7.7h1.43l.69-.7.74-.7v-.72l-.74-.72h-1.42l-.69-.71-.71-.7-.74-.72H272v-.7l.67-.72h.74V80.54h.71l-.71-.71-.74-.71V78.4h.74l1.41-.7h2.15l.7,1.42h8.49l1.42-.72h2.13l.69-.7h1.44l.7-.71h.71l.71-1.42h.71l1.42-1.42,1.42-.7.7-.71,1.44-.72,1.4-.7Z" style="fill:#b7dae2;stroke:#053893;stroke-miterlimit:10;stroke-width:2px"/><path id="map_background-25" data-name="map background-25" d="M244.32,457.69l.7.73v.69h.71v.72l.7.71v2.84h1.44l.68-.72h2.14v1.43h6.38v1.41h.71l.71.71.71.71.72-.71v-1.42h.7l.7-.7H262v.7h.71v.71l.69.71v2.12l.73.72v2.84l.7,1.41.73.7.7.71h1.42l.7.72,2.13.7h.72l.71.72h3.55l.69.71v2.12h1.43l.7-.71h2.84l1.41-.71h4.26l.69-.7h6.4l.72-.72.68-.71h1.45l.71-.7h1.4l.73.7,1.39,1.43,1.43,2.12,1.41.7L306,481.8l.69.73,2.85.69,2.82-.69,2.85-1.43h2.14l2.13,2.12,1.4-.69v-.73h.69l.73-.7,2.12.7.72,2.14,5.64.7h2.14l1.43.71,2.12-.71h1.42l1.42-2.11,1.41,1.41,2.82,2.12H345l1.44.71h2.82l.7-.71.72-.71.71-.71v-.7l.72-1.41,1.41-.73,2.12-1.42.72-.7h1.43l.7-.71h1.41l2.13.71.72-.71h5l1.42-.71-.71-.7L367,475.43l-.72-1.43-1.41-2.12-.69-.7-1.43-2.13-.71-1.42v-3.54l-.73-1.44-.69-.69h-.72v-3.55l-.7-.72-.71-.69-.7-1.42v-2.84l-.73-1.42v-1.43l-.7-.7-2.12-1.43v-2.12l.68-1.42-.68-1.42V425.08l-.72-1.42v-2.13l-.71-2.12V418l1.43-.71v-1.43l.68-.7h-2.11l-.69-.7V413l-.73-1.4-1.43-2.14v-1.43l-.69-.71,1.41-1.4.71-.73h-.7l-1.42-.71-1.41-.69-.72-.72-.69-.71v-.7l.69-1.43,1.41-.71h2.14l.71-1.41-.71-.71-.73-1.42-.69-1.41-1.41-.73h-.72l-1.41.73-1.43-1.43-.71-1.42v-2.82l.71-2.13.71-1.42,1.44-1.42h2.82v-1.41l.7-1.41.72-.72,1.43-.71v-2.12l-1.43.7-1.42.72-1.4.7-.73.71h-1.41l-2.14.72-.71-.72.71-.71.71-2.12h-2.12l-.7-.71v-2.13h.7l1.41-.7v-2.13l-1.41.71H340l-.71-1.42-.71-1.42V359.16l-.71-.71h-1.42L335.05,357v-.71l.71-1.42v-1.42l-1.41-1.42h-.7l-1.45-1.42-.69-.7-.72-1.42v-2.14l-.69-3.53v-5.67l-.72-2.83-1.4-.73h-1.42l-2.85-.7.71-.71-.71-1.42.71-.7H323l-1.43.7h-1.4l-.7-.7v-.72l.7-.7v-1.43l.71-1.4h-1.41l-1.44.71h-2.82l-.7-1.43-.72-1.42-.69-.7.69-1.43.72-2.12,1.37-1.41v-1.43l.76-.7.71-1.42v-.71h-.71v.71h-.76l-.67.72h-.7v-.72h-2.85v-5.68l-1.43-2.12-.69-1.43-2.12-2.11L306,301.73h-.72V301l.72-.7V298.9h-2.82l-1.45-.72-.7-.71v-3.54l-.71-1.41V289l-.69-2.13.69-.71v-1.41l-.69-1.43v-1.42l.69-1.42v-5l-.69-.7-.73-1.42.73-.71L296.8,272h-.72l-1.41.71h-1.43v2.82h-2.13l-1.42-.7v-2.12H289l-1.42-1.42v-3.55l-.69-1.42-.71-.7.71-1.43-.71-.71-.71.71h-2.12v-.71l.7-.71v-1.41l-.7-1.42h-2.14l-.7.71-1.42-.71.7-.71.72-.71-.72-1.42v-1.42h-.7l-.71.71-.71,1.42H276.2l-1.42-.71v-1.42l.73-.71.69-.7V252.8l-.69-.71h-1.43l-.71.71v1.42l-1.4.7v-5.66l-1.44-.71h-2.82l-.71-.71-.71-.72v-.7H267l.71-.71.71-.71v-.71l.69-.7.72-.72-.72-.7h-.69l-1.42.7v-1.42l.71-.69L267,240l-.71-.71-.7.71v.72l-.72.69-.71-.69H262l-.71-.72.71-.71h2.14v-2.84l-1.42-1.42-.71,1.42-.71.72-.7-.72v-5.66l-1.42-1.43-1.42.72h-1.42l-1.41.71-1.43.7h-.7l-1.42.71-1.4-.71-1.45-.7v-.71h-1.42v.71l.74.7.68.71.72.7-1.4.72h-5l-1.43.71h-1.4l-.73.7h-1.41l-1.41.72h-.74v.7l.72.72-.72.72h-.72l-2.11-.71h-.7l-1.42.71H228l-1.42.7-1.41.71h-.71l-1.44.71-.69.73-1.42-.73h-2.86l-.68.73-.73,1.41-.69.7h-1.41l-.7.71-.71,1.41v1.42l.71,1.43-1.44.7v4.25l.73.71v.72l-1.43.69-.69.72-.73.71h-1.4l-1.42-.71h-2.84l-.72.71h-.7l-2.12-.71-.7-.72h-.73l-.72-.69h-2.82l-.71-1.43h-4.26l-.69-.71-.75-.71-.69-.7-.73-.71v-.7l-.7-.72-.69-.7-1.41-.72-.71.73-.73.7-.69.72-1.42,1.41-.72,1.41h-2.83l-.71.71v.71l.71.71-.71,1.41v.71l1.43,1.42-.72,2.13v.71l.72.71.69.71.72,1.42.7,1.42v1.41l-.7.72-1.41.7h-2.84l-2.14-.7v-2.85l-1.42.72-1.41-.72-1.43.72-.7,1.41H167v2.14l-.71,1.4-.71,2.13-.7,2.84-.72.71-1.41.71-2.14.7H160l-2.13-.7H156.4l-2.13-.71-.7-.71-2.13-.71-.73-1.41-1.4-1.42-1.42-.7h-1.4l-2.15.7-2.12.7H140.8l-1.43-.7-1.4.7-1.43.72v.7l-.69.71v1.42l.69,2.13-.69,1.41-.71,2.13-.73,2.13-2.09,7.07-.73.72,1.41,1.42h7.1l1.42,1.41v1.42l.71.71v1.41l.7.72.72,1.4.69,1.42v1.43h-2.82l-1.42-.71h-.73v1.42l-.69.71V306l-1.43.7.72,2.12h.71l1.42.72.7-1.42h2.13l2.13.7,1.43.72.71,1.41,1.41.72.7.7.72.7.68,1.43v1.42l.73,1.42.71,1.41.7,1.42.72,1.41.7,1.43.72,1.41h.7l.71,1.43.7.71.73,1.41v2.84h-.73l-.7,1.42v.71l-2.13.69-1.42.73-1.4,1.4.7,1.43.7,2.11-.7.73v2.12l.7,1.41h1.42l2.13,2.14h.71l-1.42,1.4v1.43l.71,1.41v.71l1.43,1.42v1.42l.7,1.41.71,1.42,1.42.71,1.41,1.42,1.43-.71.7,1.42.72.71.7,1.42-.7,1.42h.7L167,362l.71-1.42-.71-.71h-1.42l-.7-.71v-.71l.7-1.42.71.71,2.12,1.42h.71l.7.71H172v1.42l.7-.71.71-1.42.71.7.7-.7v-.71l.71-1.42.72-.71-.72-1.42.72-.71v-2.83h2.12l1.42.7.71.72h.7l.72,1.41.71.71,1.4.71.73-1.42.71-.71.69-2.12.73-.71.69-.71,1.44.71.68.71.75-.71,1.4-.71v-4.24l.71-.73h2.84l1.43-1.41.69-.7,2.13-1.43h1.43l.7.72.71,1.41v2.14h2.13l.69.69v.71l.72.71h4.24l.73,1.42.69.71v.71l.71.71v2.12l.73.71V357l.7.71v1.42l.7.7v2.85l.71.7.72.71h.69l.73.72V367h.68v1.4h2.14l.72-.7.7,1.42.72.7,1.4.72.73.7.71,1.42,1.41.71.7,1.41H228v5.69l.72.72V384l1.42.71,1.41.71h.72l.7.71,1.41-1.42h1.4l.72,1.42v1.42l.72,1.42v1.4l.69.72.72.7.7.72.72.7,1.41.7.72,1.44v4.95l1.41.72h.71v1.41l.7,1.43-.7,1.4h1.41l.71-.71h.7l.74-.69.67.69.73.71.72,1.43v1.41l.7,1.42.7,1.41h1.43l.69,1.43.72.7v2.13l.71.7.7,1.43.71.71.71.71,1.42.7v2.84l.71,2.13v2.82l-.71,1.44-.71.69h-.71l-1.42,1.43-.7.7-.71,1.43v.7l.71,1.42.7,1.42v.7H255l-1.43.71-.7.72V440l-1.42.73v1.41l.7.71.72.71v.71l-2.13,2.12.71,1.42.7.7.72,1.43,1.42,1.42v2.14l-.72,1.41-.7.71h-4.27l-1.41.7h-.71L245,457Z" style="fill:#b7dae2;stroke:#053893;stroke-miterlimit:10;stroke-width:2px"/><path id="map_background-32" data-name="map background-32" d="M149.32,335.75h-2.14l-2.14-.7h-1.4l-1.43-.7-1.42-1.41h-.71l-.71-.71-1.4-.71-1.43-.7-2.13.7-.7.71h-1.38l-.74,1.42-.7,1.41-1.42.71h-2.82l-1.44-.71-.7.71H123.1l-1.44.7h-1.42l-.7,1.42-1.41.71V340l-.71,1.42-.71,2.12V345l-.7,1.4-.72,2.13v.72l-.71,1.4-.69,1.43-.72,1.42-.71,1.42L111,356.32v.7l-1.41,1.44-.72,2.12-1.4,2.13-1.43,2.11-.7,2.13-.71,2.13-.71,1.41-.7,1.42v.71L104,374v1.41l.71.71v.71l.71,2.12.7,1.42v1.41l1.43,1.43,1.4,1.42.72,1.41,2.13.71.7.7,1.44.72,2.12,1.41.7.7-.7,1.42v1.41l-.72,1.44-.71,1.4-.69,2.12.69.71v1.42l.71,1.42.72,1.43.7.7.71,1.42.71,1.41,1.41,3.56.7,1.42L121,413l1.41,1.42v1.41l.71,1.43,1.42,2.12,1.41,3.54.71,1.42.7,2.83V430l-.7,1.41-1.44.7-.69.71v5l-.73.71-.69,2.12-.71,1.42-.71.7L121,444.2l-1.42,2.11-.7.71-.71.7-1.42,1.44-.7,1.41L113.87,452l-.71,1.42-.71.7-.7,2.12-.72,1.41-1.41,2.13-.72,1.43-1.4,2.11-.71,2.13-.7,2.12-.7,2.12v9.92l1.4,1.42,2.11.71,2.13,2.12.71,1.42,1.42,1.43,1.41,1.4,2.13,1.41.71,1.44,1.42.7,1.41,1.43,1.42,2.13,2.12,2.11.72.71,1.41,2.12.71,1.43,1.41.7h.71l1.44.7H133l1.41,1.42.7,1.42,1.42.7.71,1.43,1.44-1.43,1.4-.7v-.7h1.44l.7-.72.7-1.42,1.44-.7.7-1.42v-.7l-.7-.71.7-.7v-1.42h.71l.73.7.7-.7v-1.41h-.7v-.71h-2.14v-1.4l.7-.71v-.7h.7v-2.14l-.7-.71v-.7l-.7-2.12.7-.71.7-.71h1.43l.71-.7,1.43-.71.7-.7.7-.71h.72l.71-.71h1.41v.71h2.13l.71.71.7.7h1.41v.71l.72.7h.7l.71.71.71.71,1.42.7v.7l.71.72,1.42-.72H167v-1.4h.7l.71-.71.7-.7.69-.71h.72l1.43-.71.7-.7.71-.7v-.72l-.71-.7h.71l.7-.71.7-.71,1.42-.7h.71l.7-.71,1.45-.7H184l.73-.7.71-.71-.71-.71V474l.71-.7v-5l.68-1.41v-1.41h.73v-1.41l.71-.71v-.71h.7v.71H189l.7-.71h1.45V462l.7-.71h1.41v-.71l.71-.7h1.42l1.45-.72.69-.7h1.42v-1.42h.72v-1.41l.7-.71h.7l.73-.72h.7v-.7h.7V451.4l-.7-.71v-1.4l.7-.72h2.12v-.7H206l.71-.7.71-.71H211l1.4-.71v.71h.73l.7.71.7-.71.72.71h.71l.7.7h.71l.71.7.71.72v1.41h.71v.71h.7v.7h1.42v-.7h.71l.7-.71h.7v2.12l.73.7h.7l.7-.7.73.7h.7l.71.7h2.13v.71h2.13v-.71l.7.71.7-.71h3.53v1.42l.71.7v.71l.71.71.7.71h2.13l.7-.71h2.13l.7-.71,1.42-.71h.71l1.41-.7h4.27l.7-.71.71-1.42V451.4L252.72,450l-.71-1.43-.7-.71-.71-1.4,2.13-2.12v-.71l-.71-.7-.7-.71v-1.41l1.43-.71v-1.51l.7-.7,1.42-.71h.71v-.7l-.71-1.41-.7-1.42v-.71l.7-1.43.71-.7,1.42-1.43h.7l.71-.7.71-1.43V424.4l-.71-2.12v-2.84l-1.42-.7-.71-.71-.71-.7-.7-1.43-.71-.7v-2.13l-.7-.72-.7-1.41h-1.42l-.7-1.42-.7-1.42v-1.42l-.7-1.43-.72-.7-.7-.71-.72.71h-.7l-.71.7h-1.36l.7-1.42-.7-1.4V401h-.71l-1.42-.7v-5l-.71-1.43-1.41-.7-.72-.71-.69-.71-.72-.7-.7-.7V389l-.71-1.44v-1.42l-.72-1.41h-1.41L233,386.13l-.71-.7h-.73l-1.41-.7-1.42-.71v-2.83l-.71-.71v-5.67h-.7l-.7-1.42-1.43-.7-.7-1.44-.74-.7-1.4-.7-.72-.71-.7-1.42-.72.71h-2.12V367h-.7v-2.13l-.72-.7H216l-.72-.71-.71-.7v-2.83l-.7-.71v-1.43l-.7-.72v-2.83l-.73-.7V351.4l-.71-.71V350l-.7-.7-.7-1.43h-4.24l-.73-.73v-.72l-.7-.7H202.5v-2.12l-.7-1.41-.72-.72h-1.41l-2.13,1.42-.7.71L195.4,345h-2.83l-.71.71V350l-1.4.7-.74.71-.69-.71-1.43-.7-.7.7-.73.71-.68,2.13-.71.7-.73,1.43-1.39-.71-.71-.71-.7-1.41h-.73l-.7-.7-1.42-.71h-2.11v2.82l-.72.71.72,1.42-.72.71-.7,1.43v.71l-.71.71-.7-.71-.71,1.43-.7.7v-1.41H169.9l-.71-.71h-.7l-2.13-1.41-.71-.72-.7,1.44v.7l.7.72h1.42l.7.71-.7,1.41-1.44.71h-.7l.7-1.43-.7-1.42-.71-.71-.71-1.41-1.44.71-1.4-1.44-1.42-.7-.71-1.42-.71-1.42V352.1l-1.42-1.42V350l-.71-1.43v-1.41l1.43-1.41h-.72l-2.13-2.13h-1.41l-.7-1.41v-2.13l.7-.7-.7-2.12-.71-1.42h-2.12v-.06h0Z" style="fill:#b7dae2;stroke:#053893;stroke-miterlimit:10;stroke-width:2px"/><path id="map_background-54" data-name="map background-54" d="M478.28,510.87h2.11v-1.42l.7-.7,1.42-1.43,2.13-.7h.69l1.43-.71,1.43-.71,1.42-2.13.7-1.42.69-1.4,2.14-1.43,1.43-2.13H496V496l-.71-1.42.71-.71h.71v2.83l.71,1.42h1.42v-.72l.68-.7v-5l-.68-.71-.72-.7v-2.13l-.7-1.42v-1.42l.7-.71h4.26v2.13h2.82v-.71h.7l.73-.71.7-.71.72.71v-1.41h.71l1.42-.71v-1.43l-.71-.7v-1.43h.71v.7h.69l.71-.7v-1.41h.73l.69-.7v-2.13l-.69-.72-.73-.71-1.4.71h-1.42V474l.7-.7v-1.42l-.7-1.43V469H508l-.72-.72v-1.41l.72-.72v-3.55h-.72v.73l-.7.7-.73-.7V462l.73-.72v-.72h.7v-.71l-.7-.7v-1.43l-.73-.68-.7-.73.7-2.12v-2.82l-.7-1.44-.71-1.41-.7-.71h-1.41v-2.12h.7V445l-.7-.72v-.71h-.71l-.71-.7-.73-1.43-.71-.71.71-.71H501l-.73-.7v-.72l-.71-.71v-.71h.71V435l-.71-.69v-.73h-.69v-.71l-.72-1.43v-2.12l-.7.72h-.71l-.71-.72.71-.7v-1.44l-.71-.68-.71-.73v-.7h-.71l-.7-.71v-2.85l-.73-.69v-.71l-.68-.72-.73-.7-1.42-.7-.7-.71-.73-1.43v-3.54l-.69-.69.69-.74.73-.69v-.72l.7-.71v-2.12H491v-.71l.73-.73.73-.7h1.41l.7-.69.71-.72H496v-.71L497.4,401h1.42l.68-.71v-.71l-.68-.7.68-.71h2.86l.71-1.42V395.3l1.41-.7.71-1.42v-.71l1.43-.72H508l.71-.71h.7v-2.12l.71-.71h1.41l.73-.7v-.71H513l.71-.72v-2.82l-.71-1.43v-.7l1.42-.71.72-.71-.72-1.43v-.7l.72-.71.69-1.41h3.56l.7-.71h.71V374l2.13-.71.72-1.42.69-.71v-.71l.72-.71h.72l1.41-1.41.69-.71V367l.72-.72v-.71h2.85v-1.41h.69v-.71h1.43l.7.71h2.84l.71-.71.7.71h.72l.7.71h1.42l.72-.71.71.71.7.7h.71l.71-.7v-.71l.71-.71V362l-.71-.71v-1.42l-.71-.71v-.7l-.71-.72V357l.71-.7v-1.43l.71-.71H547v-1.41l.7-.71.72-.71h1.42l.71-1.42h2.84v.71l.69-.71V348.5l-.69-.71v-1.41l.69-.7V345h-.69v-2.11l.69-.71-.69-.72-.72-.7H552v-1.43l-.71-.7v-.7h-1.41l-.71-1.43v-.71l.71-1.4h1.42v-.72H552l-.71-.7V330.8l-.71-.7-.71-1.43v-3.54l.71-.7v-3.55l-.71-1.41v-2.14l-.71-1.41v-2.13h-.71v-.72l.71-.7V306.7l-1.43-3.54-.7-1.42h-.71V301h-.71l-.7-.71v-.72l.7-.7.71-.71.71-2.13v-2.12l-.71-.71-.71-.71-.7-.72.7-.69v-1.43l-.7-2.13-.72-1.42-.7-1.4-.71-.72.71-.71.7-.7.72-.72.7-.71.71-.72.71-.69.7-1.43v-.7l.72-.71v-.71l-.72-1.41v-.71l.72-.71v-3.56l.71-1.4,1.42-1.42.71-.71h5l.71.71v1.42l1.42,1.4.7,2.14.72,2.84v.7l.7,2.13v2.13l1.42,1.41.72,2.13,1.4,1.43v.7l.73.7,1.41.72-.73.7.73.71h1.41l1.41-.71h2.14l1.42,1.42.69.71,1.43.7,1.42.73,2.13.69,2.11.72,1.43.71h1.41l.72-.71.69-.72.72-.09-.72,4.26v.81l.72,2.12L586,301l.71,2.13,1.41,3.54.72,3.56,1.41,2.11.71,2.85.71,4.26,1.4,2.12,1.43,2.83.72,2.13.7,2.12.7,1.42v5.66l.72,1.43.71,2.11.7,2.85.7,2.13,1.43,4.25.72,3.54.69,2.13.73,2.13.7,2.83v1.43L603,362v.73l.7.69v1.42L602.31,367l-.69.71-1.42,1.42-.73.7v.72l-1.4,1.41-1.42.71-.71.71-1.41.71-1.43,1.42h-.7L591,376.89v.71h-1.43l-.7,1.42-.71.7-1.42.71-.71.72h-.71l-1.4.69-1.43.71-.71.72-.71,1.42h-.71l-.7.7H579l-.71,1.42v.72H579l.7.7h.7l.71.71h.71l.71.71,1.43,1.41h.68l.72.71,1.43.72.69.7h.72l.72.7.69,1.43L591,396h.7l1.41.71,1.43.71.72.71,1.4.71.72.7,1.41.71h.7l.73.71v3.54l.69,1.43v23.38l.73,2.13v2.86l.68.69v1.42l.73,1.41v1.43l.7.7v1.42l.71,1.42v.71l2.14,3.55v.69h.69l.73,1.43.68.7.73.72v2.84l.72,1.41.69,1.42.73.72.69,1.41v.71l.71,2.13.72.72v1.4l1.4,1.42.73,1.41v1.43l-.73.7-1.4,1.43h-1.43l-.69.69h-2.87l-1.41.72-.69-.72h-.71l-.72-.69h-1.42l-1.42.69h-.69v.72l-1.42.71-.73.7-.7.71h-.7l-.71.7-1.43.71h-1.41l-.71.72h-2.13l-1.41.71-.72-.71h-1.41l-.72.71h-.69V479l.69.7.72,1.42.72,2.13.69,2.83,1.43,1.42,1.41,2.84.7,2.13.72.69v3.56l.71,1.42v1.41l.72,1.42.7,1.42.7.7,1.43,2.13v5.68l-1.43,2.82-.7,1.42-1.42.71H593.1l-.69.71L590.28,518l-1.41.72h-.72l-1.41.71-.71.71-.71,1.41-1.41.71v.71l-.73,1.42v1.43l-.7,2.11v.72l-.7,1.4v.71l-.71.72-.72.7-.69,1.43-.7.7v.7h-.72v.73h-1.43l-1.42.7h-4.24l-.71.71h-.71l-.73-.71-.68-.7h-2.87l-1.4.7-.72.71h-2.81l-3.55.7,1.42,2.84.7,1.43v2.12l.72,2.12v6.39l-.72,4.24v2.14l-.7.71v7.09l.7,2.13,1.43,2.13.71,1.42.7,1.41.72,1.43,1.4,2.12.73,1.42.68,1.42.73,1.41v1.42l-.73.71h-.68v.71l-.73.69V586l.73,2.11-2.13,1.42-.72.71-.7.71-.72.71-.7-.71-.72.71h-5.66v7.8l-.73.7h-1.4l-.71.73H547l-1.41.7H544.2v2.13h-.7l-1.42-.69-1.42.69h-1.41l-1.42-.69v.69h-.71l-.71,1.42H535l-1.41-.72-1.42-.7h-.71l-1.45-.69v-2.14l-.69-1.43-.72-1.42v-2.84l.72-1.4v-2.14l1.42-1.42.72-1.42v-.71l.69-.72v-.68H530l-.69-.71-.72-.73,1.41-.69.73.69.72-.69-.72-.72v-2.82h-5v.7h-1.44l-.69.72-.72.71h-.72l-.7.7h-.71l-.71-.7.71-.71.71-1.42v-.71l.7-.71v-2.13h-.7l-.71.71-.71.71-.71.71-.71-.71v-.71H518v-.71l-.72-.71-.69-.72h-.73l-.68.72-.72.71-.71.71-.71-.71.71-.71v-3.54h-2.13l-1.41-.71h-1.41l-.71-.71-.73.71-1.42.71V574l-.7.72v1.39l-.71.72-.7.71v.71l-.71,1.42-.71.71v-.71h-.7v-1.42l-.72-1.42-.72-1.41-.72-.71-.68-.71-.72-.72-.7-.7v-.71l-.71-.71-.71-1.42V568.3l-.71-.7v-.72l-.71-1.41v-.72l-.7-.7V559.8l-.73-.72-.68-.7v-.71l-.73-.72v-1.41H491v-.71l.73-.71V552l-.73-.7-.69-1.41-1.43-.72v-.71l-.69-.72h-2.13l-.73-1.41H482.5l-.68-.7v-5l.68-.71.7-.69-1.38-.72-.74-1.42V535.7l.74-.72.68-.71v-1.42l-.68-1.4.68-1.43v-.72l.7-.69v-1.42l-.7-.71v-.69l-.68-.73v-2.83l-.74-.71-.7-2.13v-2.11l-.71-1.44-.72-1.4-.68-.73v-2.84Z" style="fill:#b7dae2;stroke:#053893;stroke-miterlimit:10;stroke-width:2px"/><path id="map_background-55" data-name="map background-55" d="M369.1,478.26l.71,1.41,3.53,2.13,2.13.72,2.12,1.41,2.85-.72,2.12-.69,1.41-1.43-.69-.72-.72-.7v-1.41l.72-1.42.69-1.42h-.69l.69-.72-.69-.7h-2.13l-.71-.7V469H379l.71-2.84v-2.11l-.71-1.43-.69-.69-.72-.71v-3.57l-.7-2.12-1.42-2.12v-2.13l-.7-.72-.71-.71v-.7l-.72-1.43.72-3.54-.72-2.12v-.72l-.71-1.41.71-2.84.72-1.42V430l1.42-1.4V426.5l-.71-1.43,2.82-.7.72-2.13-1.42-2.13,1.42-1.41,2.84-.71-.71-1.44-.73-.7-1.4-.7v-2.84l.69.71v.7l.71.72h2.13v-8.51l1.44,1.42.69.7-.69.71v5.68l.69-.72.72-.7h5l2.82.7h2.13l.71.72h-.71v.71l-.69.7-.73.7h-.71V418l.71.71H396l.71.7.73.71v.71l.68.71,1.45,2.12v.73l-.73.69h-2.13v.7H396l-.7.73h-.71v1.41H396v.72h1.44l2.13-.72,1.42-.71h1.38v.71h.76v.72h.69V430l.67.71-.67.7.67.72v1.41l-.67.73H401v1.4l.69.71h.7l.75.7h7.07v1.43h.71l.72.71-.72.7h-1.41l-.7.72h-.74v.7l-.69.71v1.42h1.43l.7,1.43h-.7l-.74,1.4-.69.72v2.82h3.53l-.71.72-.7.71-.7.71.7.71h.7l.71,1.41,2.12.72,1.42-1.42h.71l-1.41,1.42-.71.71-1.41.7-.72.72v.69l.72.72h1.41l2.12,2.12v.73l.71.71-.71.69h-.71l-.7.71-.71,1.42v.72l.71.69h1.41v.72h1.43v1.42l-.72.7h.72v.73h2.11l.71.69v2.13h-.71l-.7.72v.7l1.41,1.42v1.42l.72.71V479l.69.7v.7l-.69.72h-1.43l-.7.71v.72l-.69.69h1.39l1.43.72h1.42l-.73.71-.69,1.41v2.13l.69.71v.71h5v.72l-.72.7-.7,1.42L423,493.85l-.69,1.42h1.41L423,496h2.84l-.72.7v1.42l-.7.71-.7,2.11v1.42l.7.71.7.71h2.13l1.43.71v5h.7v.71l.71.71,2.86,1.42,1.4.71.71.69v.73l-.71.7-.72.7-.68.71-.73.73v1.4l-.71.72-.71-.72-.7-.71-.72-.69-.7.69h-1.43l-.7-.69v-.73h-2.13v2.13l-.69.72-.72.69v.73h-.7l-1.44-.73-.68-.69h-.73l-.71.69v1.43l.71.7.73-.7v.7h.68l.73.72.72.7v.72l.69,1.43-.69.7-.72.71-.73.7v2.83l-.68.72v.71h-.73l-.71.7h-1.4l-.72.72-.72.69-1.42.71v.72h-.71L413,535v.72h-.71l-1.42-.72-.71-.71h-1.4l-.74.71v2.84l.74,1.43v1.4l-.74,1.43v.72l-.69,2.13-.72.7-.69,2.11-.72,1.42-.75,1.42v.73l-.67,1.4v5.68l-.7.7-.75.71v.71l-1.39.71-.72.71h-.69l-.73.71h-.73l-.67.71-.74.71-1.4,1.42v.71l-.71,1.42-.7.69v1.43l-.72.71v.71h.72l.7,1.42V574l.71.72.3.59v.06l.39,1.46.7,1.43.74,2.12v2.13l-.74.71v1.43l-.7.68v1.45l-.7.68v.71l-1.41,2.13-.72-.71h-3.53l-.73-.71h-2.12l-.71-.71-.72-.71-1.41-.69-1.41-1.44-.72-.69.72-1.42v-.71l-1.41-1.41-.7-.72h-.71l-.71-.71-.69-.7-.72-.71-.7-.72v-.71l.7-.71.72-.71V574l-1.42-1.41h-1.42l-.7-.72h-.71l-1.43-2.12-.7-.71h-.72l-.7-.72H369.1l-.71.72-.7.71v.71l-.71,1.41v.72l-.73,2.13-.7.69-1.4.71-1.43.71-.7.71h-1.43l-1.41-.71h-1.42l-1.42-1.42L354.9,574l-.69-.72-1.43-1.41-2.13-1.41-.72-.71v-1.43l.72-1.41.72-.71,1.41.71.71-.71.72.71h.69l1.44-.71H357l.73.71v.72h.71l.71-.72h-.71v-2.13l-.71-.71v-1.42l.71-.71v-2.84h-.71l-.73-.69v-1.44h.73l.71-.69h.71l1.41-.72.69-.71.74.71.7-.71h0v-.7l-.7-.72v-.7l.7-.72.71-.69v-.72h-2.15l-.69-.7v-.72l-.72-.7h-1.4l-.71-.72V547l-.73-.72h-.69l-.73-1.4.73-.72h2.13l.71-.71h.69l.72-.7v-1.42l.69-.72h1.44l.71-.7-.71-1.43-.7-.71-.74-.69v-.73l-.69-.69v-1.43l-.72-.69-.69-.72-.71.72-.71.69L357,535l-1.42.72h-.71v.69l-.69.73-.72-.73-.71.73h-1.41l-.72-.73h-1.41l-.72.73-.69,1.4h-1.41l-.72.73H345l-1.42-.73h-.7l-1.41-.71H340l-.71,1.44v1.4h-2.15l-.69.72v2.12h-1.42l-.7-.7v-.71l-.71-.7v-.73l-.72-.7h-1.41l-.73-.7-.68-.72-.73-1.41.73-1.42V535h3.54l.71-.72v-2.11l-.71-.71V530l-.72-.71v-1.41l.72-.7v-5l.71-1.4-.71-1.43V518l-.72-.69-1.41-.73v-.71l.69-1.4v-4.26l.72-1.42V505.9l.72-.71v-2.13l-.72-.71V498.1l.72-.71,1.4-1.4v-2.14l-.69-.71v-3.55l-1.43-1.41h-.73v-1.41l.73-.72v-1.41l1.43.7,2.12-.7h1.41l1.42-2.12,1.42,1.41,2.82,2.12H345l1.44.72h2.82l.69-.72.73-.71.71-.7v-.72l.72-1.41,1.4-.72,2.12-1.43.73-.69h1.42l.7-.71h1.41l2.15.71.7-.71h5Z" style="fill:#b7dae2;stroke:#053893;stroke-miterlimit:10;stroke-width:2px"/><path id="map_background-34" data-name="map background-34" d="M275.52,829.18v-1.41l-.73-1.44-2.13,1.44h-1.38v-3.55l-1.44.71-.71.7-1.4.71-1.43-.71-.7-1.41-1.44-1.42-1.41-.7-3.55-1.43-.7-.71-1.43-1.42-1.42-1.41-.7-1.43.7-2.11,1.42-2.13,2.13-3.54.72-1.43,2.11-5v-.71l.72-2.12v-3.54l.69-3.54.72-3.55.7-1.42.72-3.53v-3.54l-.72-3.55v-1.41l-.7-2.12v-1.43l.7-2.12v-2.84l.72-2.84v-3.55l.7-2.12.71-2.85v-4.24l.71-.7L267,747.7v-9.91l.71-1.41-.71-.72V720.78l-.71-2.85.71-2.84.71-.7.7-1.42.7-2.85.72-2.84v-1.41l.7-2.13v-2.83l-.7-2.12v-1.42L269.1,696v-2.13l-.7-2.85L267,689.58l-1.4-2.85v-1.44l-.72-2.83.72-2.82,2.11-2.13.71-1.42,2.11-1.41,2.85-.72h2.13l2.82.72,2.12.7,2.12,1.42,2.13,1.43,2.12,1.41,1.42,1.42.71,2.13.71,2.1.7,1.44v7.09l.71,2.82v.72h-.71v1.42l-.7,2.12-.71,2.11v1.44l-.71,2.11.71,2.82.71,3.56,2.11,2.11.71,1.43.7,1.41,1.42,1.42.7,1.42.72,1.43v1.41h1.43l.7,1.42.7,1.42.72,1.42.71.71v.7l.7.7,1.43,1.42.71.7.7,1.42,1.41,2.13.71,2.12.71,2.11.73,1.42,1.4,1.44.71,1.43,1.42,1.4.7,1.42v9.21l-.7,2.12-.72,2.12.72,2.12-.72,2.12v2.13l-.7,1.41L308,770.32l-1.42,2.82v.72l-1.42,1.41V776l-.72,2.85v1.42l-.69,2.13-.7,2.1-.72,1.42-.7,1.44-1.42,1.41-3.55,2.13-2.12,1.4-.7.71v1.41l2.12,1.41-.71,1.44-2.12,2.11-.7,1.43v2.84l-.71,3.53V810l-1.43,1.4-1.41.71-1.43,2.12-.7.71.7,2.14-.7,1.42-1.42.72h-2.11l-2.12,1.4-1.43-2.12-.71-1.42v-.72L277.58,815v-1.4l.71-.71,2.11-1.42,2.13-.7L284,809.3h-2.12l-1.43.72-.7-.72-1.42,2.12-2.83,2.84L274,816.37l-1.43,2.14-1.39,2.12-.72.72,1.43.72h1.42v3.53h1.4l1.44,1.42,1.42.7ZM259.2,677.47h-.71l-.7.72h-.71l-.71,1.41L255,681v.71l1.39-.71,2.13-.7,2.13-1.43v-2.13Zm56.69,38.29,2.13-2.85.72-2.84.7-4.25-.7-2.13.7-2.84L318,698.74l-1.4-2.84-2.12-3.55-2.14-2.82-2.82-2.15-2.13-2.13-2.86-1.4L300.31,681l-2.84-1.41h-2.14v.7l-.7,1.42,1.41,2.84,1.43,3.54,1.4,5,1.44,2.84,1.41,4.25,1.43,2.12,2.11,2.82L307.4,708l1.42,4.27,1.4,2.82.73,1.42Zm-57.41-33.34-.71.71-.71.71-1.41.7h-1.41L255,686l.7.7h5v-1.42l-.71-1.4-.7-1.44Zm48.21,48.21v-1.4l-.7-.71-.71-1.41-1.42-1.43v-1.4l-.7-1.44-.71-2.85v-2.11L301,715.77l-1.4-2.14-.72-2.14-1.41-2.11-1.43-2.12-.71-2.13L294,703l-.72-1.41-.7-.7-2.13,2.82-.7,1.41.7,3.55.71,1.42,2.11,2.85,2.12,2.11,1.45,2.11,1.42,2.13,1.41,4.27,2.11,3.55,1.45,2.82,2.1,1.43Zm24.1-246-5.66-.71-.71-2.12-2.12-.71-.73.71h-.69v.71l-1.41.69-2.13-2.12h-2.13l-2.85,1.43-2.82.71-2.86-.71-.69-.71-2.14-1.43-1.41-.7L301,477.56l-1.4-1.43-.74-.7h-1.39l-.71.7h-1.43l-.7.71-.71.71h-6.39l-.7.7h-4.26l-1.41.71h-2.84l-.71.7H276.2v-2.11l-.71-.71H272l-.71-.71h-.71l-2.13-.7-.7-.7h-1.44l-.7-.71-.71-.7-.71-1.41v-2.84l-.72-.7v-2.14l-.69-.7v-.71H262v-.7h-.71l-.7.7h-.71v1.41l-.7.7-.7-.7-.71-.7h-.71v-1.41h-6.36V462.7H248.6l-.7.72h-1.42v-2.83l-.7-.7v-.71h-.71v-.71l-.69-.71h-2.13l-.73.71h-2.11L238,460.59v.71h-.71l-.7.71v2.13l.7.7h-.7v.7l-.71.7-.73.71-.68.72-.71.7-.7.71v2.13h.7v1.41l-.7,1.42h-2.16v-.71h-2.14v1.41l.7.7h-.7v.71h-5v.71l.72.71v2.12h-2.85l-1.42-.7-.7.7v1.42l.7.71h.72l.7,1.41v.71l1.41,1.42v.7l1.45,1.42v.72H223l-.69-.72H220.2v2.86h-3.55v.7l-.69.7v5l.69.7.73.71h.69l.71-.71v-.7h3.57l.69.7h.71l.72.71v.71l.7.7v.7h1.42l.7.71v2.82h1.42v2.82h.69l.74-.71.7-.7h.7l.73-.7v-.72l.7-1.41v.7h.71v.71h.7l.69.72v2.11h.72l.72-.71.71,1.43.7.7v.71h2.14l.69-.71V506.6h1.42l.71.71v.7l.7,1.43v.71l.72.71h1.41l.7-.71v-.71h2.82v2.12l-.7.72V513l.7.69-.7,1.44h-.71v.7h1.41v2.12l.71,1.43-.71.7-.7.72-.7.7-1.43.71v.71l.7,1.41V525l-.7.72v1.41l-.71.7v.71H245l-.7.71V530l-.71.7v.71H245v.7h-.7v2.11h.7v.71h1.42l.7.72v.69h-.7v.73h-.71l-.71.7v.7l-.7.72v.71l-.71.7.71.71.7.71.71,1.42v2.12l-1.4.7H242.9V547l-1.43.7h-.71v.73h-.69l-.73.7h-4.26v2.12l-1.39-.71h-2.12l-.7.71v2.11h.7l.73.71h.7l1.42.71.69.7.72.72v7.11l-.72,1.41v.71l-1.39,2.13-1.41,1.41-.73,1.42-.7,1.41-.7.72-1.43,1.42-.7.71h-.72l-1.41.69.71.71,1.42,1.42.7.71.69.71h1.45v.7l.7.7.73.71,1.41.7.71.73.68.7h.73l1.43,1.43.7.69h1.42v1.44h.72l.69,2.11-.69,1.43.69,1.42-.69,1.42v5.67l.69.71.71.7h2.85l1.4.72h.71l.7.7h1.43l.7,1.43.72.7.7.71v1.41l.7.72.7,1.4v3.55l-.7.7-.7.72-.7,1.41v.7l-1.43,1.42-1.43.71v.71l-.7.71-.71.7-.7.71v1.41l-.71,1.42-.71.72-.7,1.41v.71l-.7,1.41.7.71,1.42.71.7,1.41.7,1.42.71.72,1.43.69.7,2.13h.71v2.13l1.42.71v2.82l.7,1.41.7.72v10.62l.72.71-.72.7.72.72v.71l2.12-.71,1.41-.72,1.42-1.41,1.43-.7,1.42-1.43.7-.7.71-.7h5l2.84-.72H277l2.11-.7h1.42l.71,1.43,1.4,1.42h2.13l.72.7,1.41-.7H289l1.4-.71,1.44-.7h1.41l1.42-.72.71-.71h.71l.7-.7.72.7.7.71,1.43.72,1.4.7v.71l1.43.7,1.41,1.41.71.71,2.11,1.43.73,1.4h1.42l.71.72,1.42.7.7.7.71.71h1.42l1.42.7h1.43l.7.72.7.71h3.52l.73.7H323l1.41.7.71-.7h.71l1.41.75h4.24l1.42.71H349.2l.7-.71h5.68l.71-.7h.7l1.43.7.71-.7h.7v-1.41l-.7-1.42v-1.42l-.71-2.12-.7-3.55v-1.42l-.72-1.41-.71-2.13-1.43-1.42-.7-2.11-1.42-2.84-1.43-2.85-.7-2.13-2.13-3.55-.7-2.82-.71-1.41v-.71l.71-2.11,4.26-.71,2.12-.71,1.41-1.41.71-.71.7-1.43,1.44-2.12.7-3.54,1.42-2.85,2.12-.7.7-1.42v-7h2.11l2.85.71h2.84l3.55.7,2.84.71,4.94.7,3.55.72,3.56.71,4.26.7,2.11.72h.7V608l-.7-2.13v-4.93l-.71-5-1.4-5.68-.74-.7h-3.53l-.72-.71h-2.12l-.7-.71-.7-.7-1.42-.69-1.42-1.45-.72-.7.72-1.42v-.7l-1.41-1.43-.7-.71h-.72l-.7-.7-.71-.71-.7-.7-.72-.72v-.7l.72-.72.7-.7V574l-1.43-1.42h-1.4l-.7-.7H374l-1.42-2.12-.7-.71h-.72l-.7-.71h-1.41l-.71.71-.71.71v.7l-.7,1.42v.7l-.72,2.13-.7.7-1.4.71-1.43.71-.71.71h-1.42l-1.42-.71h-1.4l-1.43-1.43L354.89,574l-.7-.71-1.42-1.42-2.13-1.41-.71-.71v-1.4l.71-1.42.71-.7,1.42.7.7-.7.71.7h.71l1.43-.7H357l.73.7v.72h.7l.7-.72h-.7v-2.11l-.7-.71v-1.4l.7-.71v-2.83h-.7l-.73-.7V557h.73l.7-.69h.7l1.42-.72.7-.71.72.71.71-.71h0v-.7l-.71-.71v-.71l.71-.7.7-.7v-.72h-2.13l-.7-.7v-.71l-.71-.7h-1.41l-.71-.73v-.7l-.73-.7h-.7l-.71-1.41.71-.72h2.14l.7-.7h.71l.71-.71v-1.42l.69-.71h1.43l.7-.71-.7-1.43-.71-.7-.72-.7v-.73l-.69-.69v-1.43l-.71-.7-.71-.71-.7.71-.7.7L357,535l-1.42.72h-.72v.69l-.7.73-.71-.73-.7.73h-1.41l-.71-.73h-1.41l-.71.73-.7,1.4h-1.41l-.73.72H345l-1.42-.72h-.72l-1.4-.7H340l-.7,1.43v1.41h-2.12l-.71.71v2.11H335.1l-.7-.71v-.7l-.71-.7v-.71L333,540h-1.41l-.7-.7-.71-.72-.71-1.41.71-1.42v-.71h3.54l.72-.71v-2.12l-.72-.71V530.1l-.71-.71V528l.71-.7v-5l.71-1.45-.72-1.42V518l-.71-.69-1.42-.73v-.71l.71-1.41v-4.28l.7-1.42v-2.83l.71-.71v-2.13l-.71-.7v-4.24l.71-.72,1.42-1.4V493.9l-.71-.72v-3.56L333,488.23h-.71v-1.42l.71-.72v-1.41h-2.11v0l-.05,0Z" style="fill:#b7dae2;stroke:#053893;stroke-miterlimit:10;stroke-width:2px"/><path id="map_background-33" data-name="map background-33" d="M174.82,586v-2.13l-1.42-1.4v-1.42l-1.41-.71-.71-2.13-.7-.7-.71-1.44-2.82-.7-1.44-.69v.69l.72,2.13v2.85l.7,2.12.71,1.4V586l1.4.71h1.43l.7-.71h1.42v-.72l.7,1.45,1.42.69V586h0v0ZM238.65,688.8l-2.86-.71v-1.42l-2.11-3.54-2.14-4.26-2.14-5,1.45-1.41,1.43-.72,1.42-1.42,2.11-.7,1.42-.7,2.11-.71H245l1.42-.7,1.44.7v1.42l-2.15,1.43-2.11,1.42-.7,2.82v2.12l-.71,2.13-.72,1.42-.71,2.12-.7,3.54v1.42Zm.69-230.39-1.41,2.12v.71h-.7l-.7.71v2.13l.7.7h-.7v.71l-.72.71-.72.7-.69.71-.7.71L233,469v2.12h.72v1.41L233,474h-2.12v-.7h-2.13v1.42l.68.71h-.68v.7h-5v.71l.73.71v2.11h-2.85l-1.42-.7-.7.7v1.43l.7.7h.71l.7,1.42v.71L223,485.3V486l1.45,1.41v.7H223l-.69-.7H220.2v2.83h-3.54v.7l-.7.71v5l.7.7.72.71h.69l.71-.71v-.7h3.56l.69.7h.7l.73.71v.71l.71.71v.71h1.42l.7.69v2.82h1.42v2.82h.68l.74-.7.7-.71h.71l.72-.7v-.71l.7-1.42V503h.72v.7h.7l.69.71v2.12h.72l.72-.71.7,1.41.71.72v.7H240l.71-.7V506.5h1.42l.71.7v.72l.7,1.41V510l.72.7h1.41l.71-.7v-.71h2.83v2.12l-.72.72v.71l.72.7-.72,1.43h-.65v.7h1.4v2.12l.72,1.43-.72.7-.71.75-.69.7-1.44.71v.7l.7,1.43v.7l-.7.71v1.41l-.71.7v.71H245l-.71.7v.71l-.71.71v.7H245v.7h-.71v2.11H245v.72h1.41l.7.72v.7h-.7V537h-.71l-.7.7v.7l-.7.71v.71l-.72.7.72.72.7.7.7,1.42v2.14l-1.4.7h-1.41v.72l-1.43.7h-.71v.72h-.7l-.71.7h-4.26v2.13l-1.38-.72h-2.14l-.7.72v2.11h.7l.72.72h.7l1.43.7.68.71.73.71v7.08l-.73,1.41v.72l-1.38,2.12-1.42,1.42-.74,1.5-.7,1.42-.71.71-1.42,1.42-.7.71h-.73l-1.42.7.72.7,1.42,1.44.71.7.68.71h1.46v.7l.7.71.72.71,1.42.7.7.71.69.71h.73l1.41,1.42.71.69h1.41v1.45h.71l.71,2.1-.71,1.42.71,1.43-.71,1.42v5.65l.71.71.71.69h2.84l1.4.74h.71l.7.7h1.42l.71,1.43.72.7.7.71v1.4l.7.72.7,1.41v3.54l-.7.71-.7.72-.7,1.42v.7l-1.44,1.43-1.42.71v.71l-.71.71-.7.7-.71.71v1.41l-.7,1.42-.72.72-.7,1.4v.72l-.7,1.42.7.7,1.43.71.7,1.42.71,1.42.71.71,1.44.7.69,2.13h.71v2.11l1.42.72v2.82l.7,1.41.7.71v10.64l.72.7-.72.7.72.73V656h-.72l-2.1.71-3.57,1.42-2.84.71-1.4.71H226.62l-1.43-.71h-1.44l-1.4-.71-1.43-1.42-2.13-2.12-.71-2.12-1.42-1.4L216,649l-.72-2.13-.71-2.12-1.39-2.11-1.43-2.13-1.43-2.83-1.42-2.12-1.41-2.86L206,630.54l-.7-2.07-.7-.71.7-2.07v-1.42H206l.71-1.42v-1.41l.7-1.42.72-1.42v-2.84l-.72-2.13-.7-2.12-.71-1.43L204.6,608l-.7-2.13-2.12-1.41-.7-1.4-2.14-.7h-1.41l-.7-1.42-.71-2.13-1.42-1.42-2.13-1.43-2.11-.7-2.16-1.41-1.39-1.43-1.42-.7L184,591l.74.71.7.7.68,1.43.74.7H184l-2.11-.7-1.42-2.13-.72-1.42-.68-1.42v-1.43l-.72.71h-.71v-.71L177,586v-1.42l-1.43-3.54-.7-1.42-.7-1.43-.71-.7-.7-.71-1.42-.71-1.44-1.4h-2.1l-.7-.71-1.44-.72-1.4-.7V559.79l1.4-2.12.72-1.42.7-2.12.71-2.13,2.1-.71h.73l1.42-.71h-1.42l-1.43.71h-1.41l-.71-1.41v-3.56l-.7-3.53v-2.85l-.72-2.83-.69-2.85-1.44-2.82-2.12-2.13-2.12-2.11-2.12-1.42-1.42-1.42-1.43-1.43-.7-1.41-.72-.69v-.72h.71l-.71-.7L150,518l-2.84-2.13-2.85-1.4L142.91,513l-1.4-1.44h-.72l-.7-1.4-.71-.71-.71-1.41h-1.42l1.42-1.43,1.42-.71v-.71h1.43l.7-.7.7-1.43,1.43-.7.71-1.43v-.7l-.71-.71.71-.7v-1.42h.71l.72.71.7-.71V496h-.7v-.72h-2.13v-1.41l.71-.71v-.7h.71v-2.12l-.71-.71v-.71l-.71-2.11.71-.72.71-.7h1.42l.7-.7,1.42-.71.71-.71.69-.7h.73l.7-.72h1.41v.72h2.13l.7.7.7.71h1.41v.71l.72.7h.7l.71.7.7.72,1.44.7v.71l.7.7,1.43-.7H167v-1.41h.7l.71-.72.7-.7.71-.7h.72L172,484l.7-.71.71-.7v-.72l-.71-.7h.71l.71-.72.7-.71,1.43-.7h.7l.7-.7,1.45-.71H184l.73-.71.71-.7-.71-.71v-1.43l.71-.7v-5l.69-1.42v-1.4h.73v-1.42l.7-.7v-.72h.69v.72H189l.69-.72h1.45v-.69l.7-.71h1.42v-.73l.7-.71h1.44l1.43-.7.7-.7h1.42v-1.41h.7v-1.42l.71-.7h.71l.7-.72h.71v-.7h.7v-2.12l-.7-.7v-1.42l.7-.72h2.13v-.7h.7l.71-.71.71-.71h3.53l1.4-.71v.71h.73l.7.71.7-.71.71.71h.72l.69.71h.71l.7.7.71.72v1.42h.72v.71h.7v.7h1.41v-.7h.72l.69-.71h.7v2.12l.73.71h.7l.71-.71.71.71h.71l.72.7h2.12V455h2.13v-.7l.71.71.71-.71h3.57v1.42l.7.7v.7l.71.7Z" style="fill:#b7dae2;stroke:#053893;stroke-miterlimit:10;stroke-width:2px"/><path id="map_background-56" data-name="map background-56" d="M759,866.74l-.7,3.55-1.43.71h-2.12v1.42l-1.42.71-.7,1.42v.69l.7,1.43.7,1.42v.72l.72.7v.71h.7v1.42l-.7.69-.72.72-1.4.72-.71,1.43v3.53l-.71,2.13.71,3.54-.71,4.24.71,4.26V905l.71,2.11v.72l.7,1.42v2.14l-.7,1.41-.71,2.14v1.4l-.71,2.12v6.39l.71,2.13.71,2.84-.71,2.84-.71,2.12v5.66l.71,2.85.71,1.41.7,2.85.7,2.12-.7,1.42v7.1l-.7,2.12v2.12l.7,2.13L754,966v1.41l-.7-.71h-.7v.71l.7.71v1.43l.7,1.4.72,2.83.7,2.85,2.13,7.8V988l.72,4.27.7,3.54v7.08l1.43,2.84.7,2.84,1.43,2.11v1.43l.68,3.55,1.43,2.82v2.84l1.41,2.13V1027l-.71,1.43v1.42l.71.71v1.42l.72.69,1.41,5,1.41,4.25,1.43,2.84.7,2.12.71,2.84,1.42,2.11,1.42.73v1.4l.69,1.42v.72l-.69,1.41-.71,1.42-2.13.7-1.41.72h-2.12l-2.13.71-.72.71-1.41.7-1.43.71-2.11,1.42-1.43,1.42-1.4.71-.72,1.41v1.43l-.71,1.41-1.42.71-2.13-.71-1.4,1.42h-2.14v-.71l-.7-.72v-7.07l-.75-.72V1061l-.69-2.14v-.69l-.69-.72-.71-.7-.73-1.43v-.69l-.7-.74v-3.52l-.71-1.42-.7-1.42v-.7l-.72-.73v-.7L742,1044v-2.12l-.72-.73v-5l-.71-1.43-.7-.71-.73-1.42v-2.11l.73-1.43h-1.43l-.68-.7v-.71L737,1027H735.6l-.71.72h-1.42l-1.4.72-.73,1.41-1.41,1.4h-3.55l-1.41-.68-.7.68-.72.73v1.41l.72,1.41-.72.72v2.13l-1.42.71-1.41.7h-2.13l-1.42.7-1.41-.7h-2.84l-.7-.7-1.42-.71-1.41-.74h-3.57l-.71.74h-1.4l-1.44-.74h-.7l-.72-.68-.71-.71v-1.43l-.7-1.42.7-1.42v-6.38l-.7-1.41V1022l-.69-1.42v-.7l-.72-.71-.73-1.42-.69-.71-.72-1.41h-2.83l-.7-.71-1.44-.73-.7-.69v-.71l-.72-.72-.69-.7-.72-.72h-.7l-.71-.71v-.69l-.72-.71h-.7v-.71h-2.11v.71l-.7.71h-.72l-.71-.71h-1.43V1010l-.7.7-.71.73h-.7v.7l-.7.72h-.71v.7h-3.56l-.7.7v1.43l-.71,2.12v.71l-.7.71v.71l-.71.71V1022l-.71.72-.71.7h-.71l-.73.72v.7l.73,1.43-.73,1.41h-2.1L664,1027l-.69.72h-2.13l-.71-.72-.7-.69h-.72l-.71.69h-.7v-.69l-.7-.73v-.71l-.74-.69h-.7l-.69-.72-1.43.72h-4.26v3.53l-.7,1.41v3.55l.7.71-.7.71h-.72l-.71.7-.7.72-.71.71-.73.68v.74l-.7.71.7,1.4-.7.73v2.83l.7.72v2.1l-.7.72-.69.71h-5.69V1049h-.71l-.71.71h-.69L635,1049h-.72l-.71.71v.7l-.7.72h-.71v.69l-.72,1.44-1.41,1.42h-1.41v.69h-.71v.72l-.71,2.13v4.95l.71,1.42,1.42,1.42.7,1.43.71,1.4,1.42,1.41.71,1.43.71,1.43V1078l.71,2.85v3.54l.71.71.71,1.41-1.43,1.43-.71.71-.7.7v.71l-.71.7v.73l-.71,1.4v.73l-.71.69v.71l-.71.72v.7l-.7.71h-1.42v.71h-.71l-.73.7h-.69l-.72.73-.69.7v2.12h-.72l-.7.7h-1.43V1100l.71-1.43.72-.69-.72-.72-1.42-.71V1095l-.72-1.4v-2.13h.72v-1.43l.71-.71v-1.41l.71-.71h.72l.7-1.41V1083l.72-1.44v-1.4l.69-.71v-3.58l-.69-.68h-2.14l-.7-.73v-2.82l-.72-.71-.71-1.41-2.1-2.12-.72-.72v-1.41h-.72l-.69-1.42-.73-1.42v-.73l-1.4-1.42v-1.42l-.72-.7-.71-.72V1056l-.69-1.41v-1.42l-.73-1.43-.69-.7-.73-.71-.72-1.42v-3.55L608,1044l-.73-1.43v-2.11l-.71-2.12-.72-.71-.71-.74v-1.39l.71-1.42-.71-.71v-.71l.71-.7.72-.73h.69l.73.73h.68l.72.7h.73l.69-1.43.73-1.4.69-.72.71-.69V1027l.72-.69v-2.85l.69-.7V1022h1.44l.69.72,1.44.7.68-.7h.72l.7-1.43v.71l.71.72v1.42l.72.69.7-.69.73.69v1.44l.69,1.41.73,1.41v.72l1.4,2.13v2.12h.7l.72,1.42v.71h.71l1.42-.71h1.41l.71-.72h.71v-.7h.71l.7-.71h7.81v-2.14l-.71-.69h-.71v-5h-2.13l-.71-.71-.71-.69v-2.85l-.7-.71v-1.41l.7-.72h1.42v-2.13h.71l.71-.69h.71l-.71-.71v-1.42l-.71-.7h.71v-1.42l-.71-1.43-.71-1.42-2.12-.71h-1.42v-.7l-.72-2.13v-1.41l-.7-.72-.71-.72-.71-1.42-.71-.69h-3.53l-.72-1.43h-.69l-.72.72v.72h-.69l-.72-.71h-.7l-.72.71-.7-.71-.72-.72v-.7l-.71-.71v-1.42l-.7-.71-.72-1.42H618l-1.44-.7v-1.43l-.69-1.42v-2.84l.69-.69.72-.72.72-.72.68-.7v-.71l.72-.71h2.13v-.71l.7-.7h.73v-.7l.7-.72v-.72l.72-.7v-.71l-.72-1.42-.7-1.41-.73-.71v-1.43l-.7-.7V971h-.72l-.71-.69v-.71l.71-1.43v-.71l.72-.71V966l-1.43-.71-.7-.71-1.4-.71v.71l-.72.71-1.41.71-1.44,1.41H613l-.7-.71.7-.7h-.7l-.7-.71V961h-.73l-.69-.71v-.72h-.73l-1.4-.7-1.42-.69h-.72l-.71-1.44-1.42-.7h-1.43l-.68-.71h-.73l-.69-.7-.73-.71v-.72h-1.42v-1.41h.73l.69-.71h.73l1.42-1.42-1.42-.7H598.8l-.73-1.42.73-.72,1.42-.71v-.7l.69-1.43h-.69v-.7l-1.42.7-.73-.7v-.71l.73-.7-.73-1.44-.69-.69-1.43-.72h-.69v-.7l.69-.7,1.43-.73.69-.7.73-.71h.69l.72-1.42.7-.7.73-.72.68-1.41v-.71h-1.41l-.7-.71v-1.41h2.11V927l-1.41-1.42-.69-.71v-1.41h3.53v-.7h-1.43l-.68-.73v-.69h3.53l.72.69h2.82l.72.73h2.84L613,922h1.41l.71-.69v-1.43l-.71-.71v-1.42l.71-2.81.73-.73.69-2.12.72-1.43.72-1.41.68-.71.72-.71.7-.72h.71l.72.72v.71l1.42-.71h1.42l.69.71h.72l.7-.71-.7-1.41v-.71l.7-1.42h1.43l.71.71H630v-.71l.71-.71-.71-.71v-.71l-.7-.72-.71-2.11v-2.13l.71-1.41-.71-.72h-.71l-.71-.7-.72-1.41h-2.11l-.72.69-.7-1.41v-.72l-.72-.69-.7-1.42.7-.71.72-.72v-1.42l-.72-.71h-1.42l-.71.71H618V888l.68,2.13,1.42,1.41V893l.71.69v.72l.71,1.41v2.13l.71,2.14.72,1.39.7.72v4.26h-1.43V903.6h-1.42l-.71.71-.7.72-.72,1.42-.68.69h-.72l-.72,1.42h-.69v-.7h-4.25l-.73-.72-1.42-2.82v-.72l-.72-.7-.68-.71h-.73l-.69-.72h-.72l-.72.72-.7.71h-4.25l-.72.7-.7-.7v-1.43l-.72-.7v-1.42l-.69-.71h-4.27l-.7-.7h-.71v-.72H591v-1.41l.69-1.41v-2.85l.71-.7h.7l.72-.72h.72v-1.41l.71-1.43-.71-1.42-.72-.68-.72-.71v-4.27l-.7-1.41V876l-.71-2.83v-5.68l-.69-1.41-.72-.72-.72-.7-.69-.72-.73-.71-.71-.69-.7-.72h-1.41l-.72-.7L583.9,859l.71-.71h.72l.7-.71h.71l1.41-1.42v-1.42l.73-.69H591l.69-.72h.71l1.42-.71v-.7l.73.7h.7l.69.71h2.12l.72-.71.7-.7v-.72h.72l.7-.69h1.41v1.41l-.68.7v2.84l.68,1.42v.7h.73v.71l.7.71.72.71h2.82L608,859h.68l1.45-.71h2.12l.7-.71h2.85l.69.71h.72v-.71H618l.69-.7v-.72l-1.41-1.42-.72-.69v-2.85l-.69-.69-.72-.72.72-1.41-.72-.7v-1.44h.72l.69.72,1.44.72h2.82l.72.7h.7l.73-.7h.7v-.72h-.7l-.73-.72-.7-.69.7-.72h2.15v-.71h1.41l-.73-1.42v-.71l.73-1.42,1.41-.7.71-.73,1.42-.71.7-.7V837l.71-.69-.71-2.13v-.72l-.7-.72-.7-.7h-.72v-2.82l.72-1.41,1.4-1.43h.71l.71-.7v-.7h-2.12l-.7-.72h-1.43v-1.41h.71v-.72h.72l-.72-1.42-1.43.71h-.69l-.72-.71-.69-1.41h-2.16l-.7-.73-1.43.73h-.7l-.72-1.43-.68-.7-.72-.73v-2.82h-1.41v-.71h.69v-.72l.72-.7v-.72l.72-1.41.68-1.42.72-.71-.72-1.42H618l-1.44-.71h-.69v-.7h-3.56v-1.42l.7-.71,1.41-.72.72-.69v-.73l.72-.71h-.72l-1.41-.69h-2.12l-.73-.72-.69.72-.73-.72.73-2.13v-.7l.69.7h2.85v-.7l.69-.72,1.44-1.41h.69l.72-.7.72-.72v-2.82l-1.44-.71-1.41-1.42v-.72l1.41-2.14v-.7h.72v-3.53l-1.41-.7-.72-2.13v-2.14l-.72-.7H613l.72-.73v-.7l1.41-1.42.72-1.41V768.2l.69-.72-.69-.71h-.72l-.72-.7-.69-1.43-.72-1.41-.7-1.41-1.43-1.41-.69-.72V759l-.73-2.14v-2.13l-.72-1.4-.68-.73-.73-1.41v-1.41l.73-.71v-1.42l.68-1.42.72-.71V742l-1.4-1.42v-2.12l.68-1.42-.68-1.42.68-2.12-.68-.71h1.4V732h1.42l.73-.7.7-3.55.7-.7v-3.55l-.7-.71v-5h-1.43l-.69-.72v-.7h.69v-4.24l1.43-.74h4.24l1.44-.68h3.53v7.79l2.85.69h7.79l1.41-.69h1.42l2.82-1.43,1.42-.7,2.85-.69.69-.73h1.42l2.13-.7h7.8l4.26.7,2.13.73,2.84.69,2.12.7h.72l1.41.72,2.13.71h1.42l2.12.69h2.12l.72.73h2.11l1.41.71H681l1.44.7,1.38.71,1.44,1.42,2.12,1.42,1.42,1.41v.72l1.42,1.41,1.41.72,2.13,3.54,1.41,1.41,1.44,2.14,2.14,2.12,2.09,1.4,1.43,2.13,1.43,2.15.71.7.69.7,1.43,1.41.69.73,1.42.7.74,1.42.7.7v1.44l.71,2.13v2.11l.7.71v.71l1.42,3.53.7,1.44.71,2.11v4.25l.71,2.84v.72l.72,1.42V776l.69.72v2.82l.72,2.12.71,2.12v2.14l.71,1.43.71.7.7,1.41.72,1.44v.68L720,793l.72,2.13,1.41,2.83.71.72.71,2.82.72.71v.71l1.41,1.42v2.11l.7.72.73,2.13.69,1.41v.72l.71,1.42.71,1.4.71.71,1.41,4.27,1.42,4.25,2.13,2.82,1.42,2.85,2.13,3.52,1.42,2.85,1.42,2.83.71,2.14.7,2.12.72,2.13,1.41,2.13.7,2.12,2.13,3.54v.71l1.43,1.41,1.4,2.14,2.15,2.82,2.13,2.13v1.42l.69.71.71.72.71.7,1.83,1.21Z" style="fill:#b7dae2;stroke:#053893;stroke-miterlimit:10;stroke-width:2px"/><path id="map_background-57" data-name="map background-57" d="M663.3,1307v-1.42l.7-1.4v-1.42l-.7-.72v.72l-.72.69-.71-.69V1302l-.7-.71v-.7l-.7-.7v-3.55l.7-.71v-1.4h-.7v-2.1h.7v-.7h-.7v-.72h-.72v-.7h-.7v-.72l-.7-.7h-.73v-.7h-.68l-.72-.73.72-.7v-.69h1.41l.7-.74.7-.69.72-.7h1.4l.71.7v9.2h.72v.71l.7,1.4.71.71v2.13l.71,2.13v2.12l.7.71v1.42l-.7.69v.73H664ZM510.17,930.55v-1.41l.7-.7v-.72h.7l.73-.71.7-1.41h.7l.71-.72.72-.7h.7l.7-.7h.71V919.2l.71-2.11v-1.43l.71-.7v-1.43l.71-.71.7-1.41.7-1.42v-1.43l.73-1.41.68-1.41.72-1.43v-.71l.71-1.42v-1.41l.7-.69.71-2.14.72-1.41V893h.7v-.72l.72-.7v-.71l.68-.7v-.7l.72-.71.73-1.44v-.7l.69-2.12.71-2.13.72-.7v-.72l.69-1.4v-2.82l.71-.72v-4.25l-.71-.7v-1.42l-.69-1.41v-.72l-.72-1.42-.71-1.4-.69-1.44-.73-1.43-.72-1.41-.68-.71-.72-1.41h-.7v-.7h-3.58v.7l-.68,1.41L520,861.12l-.71,1.42-.7.7-.72.7h-.7l-.71.73-.7.71-.7.7v2.84l.7,1.42v1.42l-.7,1.42-.72.71V876l-.7.71v2.82l.7.7v1.42l.72,1.42.7,1.42v2.12l.7.7v7.79l-1.4,2.12v1.41l-.72.72v2.11l.72,1.42V905l-.72.7-.71,1.42-.7,1.41V910l-.71.7-.71.72v2.12l-.71.71v1.42l-.7,1.42v5l.7,2.12-.7,1.43V927l-.71.71v2.83h.72v0h0Zm18.42,22h-.7l-1.4-.7-.7-.71h-.72l-.71-.71h-1.42l-.71-.71-.69-1.42-.73-.7-1.41-.72-.7-.71-.72-.69v-.72l-.71-1.42v-6.39l.71-.7v-.71l.72-.71v-.7l.7-.7.71-.72.7-.7.72-.71v-1.43l.69-.7.72-1.44.73-.7V925.6l.69-1.42v-1.4l.71-2.13.71-1.44.71-1.41v-1.42l.7-.71v-2.11l.7-.71v-1.41l.7-1.43.73-.7h1.41l.71.7,3.52,2.13,1.43.7.7.7h.71v2.82l-.71.73v.71h-.7v2.13l-.7.71v3.54l.7.7v4.26l-.7.71-.71.7-.71.71-.71.71-1.41.7-1.42.72-.72.7-.69.71-1.44.7-.7.71v.71l-.7.73v2.82l.7.71v1.42l.7.7v1.41l.71.73v2.14l.72.7v4.24h-.72v0Zm92.87,150.29-2.85.72-.69.7-.71.71v4.25l-.72,1.42h.72v.7h.71l.69.71h2.84l.7-.71h2.14v.71l1.41.71v2.12l-.71.7v3.55l-.7.7v2.12l.7.72v.7l.71.7.7.71.72.71v.71h.71v2.1h.7v.73l.71.7.7.71h.71l.71.7h.7l.7.71h.71l.7.7h.72l.7.71.7.7.71.7.7.71.71.7.71.72.7.71.7.7v.72h.71l.7.7.71.7v.75l.71.7.7.72.71,1.41v.72l-.71.7v.7l-.7.7v.72l-.71.7v1.43l-.71.7v8.5h.71v.71l.71.7v4.27l.7.7v6.38l.71,1.4v9.22l.72.71v2.1h.7v2.85l.71.7v2.12l.7.71v2.13l.7.71.72.7v.7l.7.72.7,1.42h.74l.7.7.7.72H654l.72.7.7.7.68.71v.7l.74.72v.7l.7,1.43v1.41l.7,1.41V1209l.71,1.42.71.7.71,1.42.7.71.69.71.72,2.1.72.71v5l.69.7v2.86l.72.68v2.87l.71.7.7,1.42v.71l.7.7.71,1.43v.71l.71,1.42v.7l.7,1.42v3.57l.72,1.39.71.71.7.71.72,1.42.7,1.42v2.83l.7.7.72.71.7.72.71,1.4.73.7h-.73v-.7h-.71v1.55l.71.72.73.7v.71h.7v.71l-.7.7v.7h-2.12l-.72.71h-.7l-.7-.71h-1.43l-.7-.7-1.43-.7-.71-.71-.71-.71-1.32-1.42-.71-.7-.71-.71-2.14-2.11-.69-.72h-.71l-.7-1.41v-.7l-.72-1.43-.7-.71h-.71l-.7-1.43-.73-.7v-.72l-.7-.71v-1.4l-.7-.71v-1.42l-.72-1.43v-2.12l.72-.71v-1.42h-.72l-.71-1.43-.72-1.41-.7-1.42v-1.42l-.71-.71v-.71l-.73-1.39-.7-1.42v-.71l-.7-.72-.71-.7v-1.45l-.71-.69-.7-1.42-.71-.71v-1.42h-.7v-1.43l-.72-.69-.71-1.43-.7-1.42v-.7l-.72-.73-.7-.69v-1.44l-.71-.7-.7-1.42-.71-.71-1.42-2.1-.71-1.44-.7-.71-1.41-.71-.69-1.42-.71-.7-.7-1.43-.71-.71-.71-.7-.7-1.42-.71-1.41v-.71L630,1190v-.71l-.7-.7v-2.14l-.7-.7v-1.41l-.71-.71-1.43-2.13-.7-.69v-1.45l-.71-.7-.7-1.44-.71-1.4v-4.25l-.7-.72v-1.41l-.72-.71v-5l-.71-1.45v-.69l-.72-.72v-.67l-.7-.69v-.72l-.7-.69-.71-1.43-.7-.71-.7-.71-.73-1.4-1.42-1.44-.71-.7-.69-1.41-1.42-.7-.71-1.42-.72-.7-.7-.72-.72-1.4v-.71l-1.41-.71-.72-.71-.7-1.42-1.42-1.42-.71-.71-.71-1.42-.7-.69-.71-1.44-.7-.7-.72-.72-.7-.7-.72-1.42-1.42-1.42-.7-.71-.71-.7-.7-.71v-.72l-.71-.71-.7-.7-1.45-.7-.7-1.43-.71-.7-.7-.71-.7-.7-.71-1.43-.7-1.42-.71-.7v-.71h-.72v-.71l-.7-.7h-.71l-.7-.7v-.72h-.7l-.71-1.41-.71-.72-.71-.71-.7-.7-.71-.71v-.7l-.71-.72v-1.41l-.7-.71-.7-.71v-.7l-.71-1.43h-.72v-9.2l-.7-1.43v-2.1l.7-1.45-.7-.7v-9.9l.7-.71v-5h.72v-2.11l-.72-.71v-1.42l-.7-1.42-.71-.7-.71-.7V1066l-.7-.7v-1.42l-.7-5-2.15-5-.69-4.24-2.82-5.68-5.68-9.93-.71-.7-.71-.7-.7-.7-.71-.72v-.7l-.7-.72-.71-1.4-.7-1.44-.71-1.42-.7-1.4-1.42-.72-.71-2.12-.7-.71-.71-1.42-.71-.71-1.41-2.14-.71-.7-.7-.7v-.73l-.71-.7-.7-.7v-1.45l.7-.72v-.7l.71-.7,1.42-.71v-.71h.71l.7-.7v-.71h.71l-11.33-.71-.71.71h-1.42l-.71.71-.7.7-1.43.71-.7.71h-1.41v-.71l-.71-.71-.7-.7-.71-.71-.69-.71-.72-.7h-.72l-.7-.7-.71-.71v-.71h-.71l-.7-.71v-.69h-.71l-.7-.72h-1.44l-.7-.7-.71-.71-.71-.71L521,997.28l-.7-.7V993h-.71V990.2h.71v.71l.7.7v-.7h.71l-.71-.71v-.71l-.7-.71.7-.7v-1.41h.71V986h.71v-.7l.71.7h.7v.72h.71v.7h.71V986H526l-.72-.7.72-.7v-.71l.7-.71.7-.71h1.42l.71-.7-.71-.7v-5l.71-1.42v-.71h-1.43v-.7l-.7-.7v-.71l-.7-1.4-.7-.71v-1.41l-.72-1.44v-6.39L526,959v-.7l.7-1.43v-.72l.7-.7.7-1.41.72-.71h.71v-.71l.7-.71v-1.41l.72-.71V947l-.72-.72v-1.42l-.7-2.11-.71-.71-.72-1.42v-1.41l-.7-.71v-.7l.7-.73.72-.7.71-.71h.7l1.44-.7h.69l.71-.71h.71l.71-.71.7-.7.71-.71.71-.7.7-.71V930l.7-.71v-2.11l.71-.7v-.73h.71V925l.7-.7h.71l.71-.71h.7l1.42-.7h.7l.71-.72.71.72v.7l.71.71h.7v.7h.71v.7l.7.73v-5l-.7-.71v-6.45l.7-.7h.7v-1.42H550V905.1h.71l.7-.71h.71l.7-.71h2.82l1.42-.7h2.12l.71-.71.7-.71v-.71h3.54l-.72-.7h-.69l-.72-.71h-1.41v.71l-.7.7-.71.7h-.71l-.7.72H550.7l-.71.7h-.7l-.71.71-.7.7v4.24l.7.71v2.13l-.7.71v.7h-.71v.71l-.71.7-.7.72v2.11h-.71v.71l-1.42.7v.7l-1.42.71-.7.72-.71.7H540v-.7h-.7l-.72-.72-.7-.71v-2.11l.7-.7v-.7l.72-.71-.72-.72v-.7h-.7v-.71l-.71-1.42v-.71H535L533.6,910h-.71l-.71-.72h-.69l-.71-.7v-.71l-.72-.72.72-.7v-2.11l.71-.7V903h.69l.71-2.12.71-1.4.71-.73v-1.4l.7-.7v-1.44l.7-.69v-.72l.71-1.43v-1.41l.71-1.41v-.72l.71-1.43v-5l.7-.71v-2.1h.71v.7h2.13v-5.66l.7-.71h4.24l.7-.71h.71v-2.12h1.41l.7.72.72-.72v-.72l.7-.7H552l.71.7-.71.72h.71v1.41h1.42l.7-.69v-.72h.71v-.72L554.8,869l.71-.7v-.71l.71-.7v-.71l.7-.7h.71l.7.7h2.82v-.71h.7l.72-.7h.7L564,864h2.13v.72h1.4l.73.7H576V864h.72l.7-.7v-3.55l.72-.7v.7h.71l.7.72.7.71h1.41l.71-1.45.71-.7h.71l.7,2.14.7.7h1.42l.69.72.72.71.71.7.7.71.71.7.71.71.7,1.42v5.66l.71,2.82v2.84l.7,1.41v4.26l.72.72.71.7.7,1.4-.7,1.43v1.42h-.71l-.72.71h-.7l-.71.7v2.85l-.7,1.4v1.42h.7v.7h.71l.7.7h4.25l.7.72v1.41l.71.7v1.42l.71.71.72-.71h4.25l.7-.7.72-.72h.7l.71.72h.72l.7.7.7.71v.7l1.42,2.82.73.72h4.25v.71h.7l.73-1.43h.7l.7-.7.7-1.42.71-.71.7-.7H622v2.83h1.43v-4.24l-.7-.71-.73-1.41-.7-2.13v-2.1l-.71-1.4v-.72l-.7-.7v-1.42l-1.42-1.43-.7-2.12v-1.43h2.11l.7-.7H622l.72.7v1.42l-.72.7-.71.72.71,1.41.72.71v.7l.7,1.42.71-.7h2.12l.71,1.43.71.69h.7l.7.72-.7,1.41v2.13l.7,2.11.71.71V903l.71.7-.71.71v.71h-1.41l-.7-.71h-1.42l-.71,1.42v.71l.71,1.41-.71.71h-.7l-.7-.71h-1.41l-1.44.71v-.71l-.71-.72h-.71l-.7.72-.7.71-.7.7-.7,1.43-.73,1.43-.7,2.11-.72.72-.71,2.82v1.41l.71.71v1.43l-.71.71H612.8l-.7.71h-2.85l-.7-.71h-2.82l-.73-.71h-3.53v.71l.71.71h1.41v.7h-3.54v1.42l.7.7,1.42,1.42v1.43h-2.12v1.41l.7.7h1.42v.71l-.7,1.42-.72.71-.7.7-.72,1.42h-.71l-.71.71-.7.7-1.41.73-.71.7v.7h.71l1.41.71.7.71.71,1.42-.71.7v.71l.71.71,1.43-.71V944h.7l-.7,1.43v.7l-1.43.72-.71.71.71,1.42h1.43l1.42.69-1.42,1.44h-.72l-.71.7h-.71v1.41h1.42V954l.72.71.7.7h.72l.7.7h1.42l1.42.72.73,1.43h.7l1.43.7,1.4.71H610v.71l.7.7h.73v4.27l.7.7h.7l-.7.7.7.71h1.42l1.44-1.41,1.43-.7.7-.72v-.71l1.41.71.7.72,1.42.7v.7l-.71.7v.73l-.71,1.41v.7l.71.71h.71v1.4l.71.7v1.41l.73.72.69,1.41.72,1.42v.7l-.72.71v.7l-.69.72v.7h-.73l-.71.7V983h-2.12l-.7.71v.7l-.7.71-.71.7-.72.72-.71.7V990l.71,1.41v1.44l1.43.7h.7l.71,1.42.7.71v1.41l.7.72v.7l.72.71.7.71.73-.71h.7l.71.71h.7v-.71l.71-.71h.7L627,1000h3.54l.7.7.71,1.42.71.71.7.71v1.41l.7,2.14v.7h1.43l2.12.71.71,1.42.7,1.42v1.42h-.7l.7.69v1.43l.7.7H639l-.7.7h-.71v2.14h-1.41l-.7.7v1.43l.7.7v2.84l.7.7.71.71h2.13v5h.7l.71.7v2.12h-7.8l-.7.7H632v.71h-.7l-.7.7h-1.42l-1.41.71H627v-.71l-.71-1.42h-.71v-2.11l-1.41-2.13V1029l-.71-1.42-.7-1.4v-1.43l-.73-.7-.7.7-.72-.7v-1.42l-.7-.71v-.71l-.7,1.44h-.71l-.7.7-1.43-.7-.71-.72h-1.43v.72l-.7.7v2.85l-.72.69v1.45l-.7.7-.71.7-.73,1.42-.69,1.42h-.73l-.7-.7h-.7l-.72-.72h-.7l-.7.72-.73.7v.7l.73.7-.73,1.43v1.4l.73.73.7.71.7,2.12v2.11l.72,1.43.7,1.42v3.56l.7,1.41.73.71.69.7.73,1.44v1.41l.71,1.42v1.41l.7.71.72.71v1.41l1.4,1.44v.7l.72,1.43.7,1.42h.73v1.39l.7.74,2.1,2.11.71,1.41.71.71v2.82l.7.71h2.14l.7.7v3.55l-.7.71v1.41l-.71,1.42v2.84l-.7,1.41H622l-.7.72v1.4l-.71.72v1.41h-.71v2.13l.71,1.41v1.41l1.42.71.73.73-.73.69-.7,1.43v2.8h.07v0h.06v.08Z" style="fill:#b7dae2;stroke:#053893;stroke-miterlimit:10;stroke-width:2px"/><path id="map_background-68" data-name="map background-68" d="M413.75,718.58h-1.43l-2.12-.7-1.39-.71-1.43-.7-1.42-.71-.71-.72-1.42-1.41-.7-1.42-1.44-.71-.7-1.42-.73-2.12-.69-1.43v-.7l-.73-.71-.7-.69v-.72l-.69-1.41-.74-.71-1.39-1.42-.71-1.41-.71-.72-.72-.7-.7-.72-.69-1.4L388.23,691l-.72-1.39-.7-1.44-.71-1.42-.7-2.12L384,682.45l-1.42-4.24-.7-2.14v-1.41l-.7-.71v-7.08l.7-2.84.7-1.43.72-2.13.7-1.41v-2.14l.71-.7.71-.7.7-1.44.71-2.12,1.42-1.42,1.43-1.42,1.4-2.13,1.42-.7.71-.72.71-1.4.71-.73.72-1.4,1.38-1.42,1.44-1.42,1.44-2.12.69-.71.73.71h.7l1.44,1.41.7,1.43h.69l.72,1.42.72,1.42,1.41,1.42.7,1.4,1.44.73.69,1.4.72,1.42,1.41,1.43.71,1.42.71,1.42v.71l.71,1.44.7,1.39.71,1.44.71.7v.7l.71.71.69,2.13.71,1.42,1.43,1.41.7,1.43.71,1.41,1.43,1.42,1.4,1.43.71,1.42L426.5,674l.72,1.43,1.42.7.7.71v1.44l.71.7.7,1.43.72,2.11.71,1.44.71,1.4v2.12l.71,2.84.7,2.12.7,2.85v9.22l-.7,1.41-.7,1.41-.71.71-1.43,1.41-.72,1.43-1.41,1.43-1.42.7-1.42,1.42-1.42.71-1.41.73-1.41.7-2.12.7-1.44.71-1.39.7h-3.55v-.06Zm88.62,44.67.7.7.71.71.7.71.71,1.41.69,1.42v3.54l.73,1.42.7,1.43v2.15l.71.69.71,2.85v1.42l.7,1.41.7,2.85.71,3.53,1.42,3.55.7,1.41.71,2.15,4.94-.73H520l.7-.71v3.56l-.7.69.7.72v7.07l.72,2.13v4.27l-.72,1.39v1.42H520l-.69.73v2.13l.69,1.41v8.49l.7.71.72-.71v.71l.7.73.7.7v.7h.73l.69.71h1.44l.7.71v.71l-.7.71v1.41l.7.7v9.22l.71.7v.71l.7-.71v3.54l.7.7v.7h2.88l1.4.71V854l.71.7.7,1.42v.72l-.7,1.4h1.4v1.42l.72,1.44.7.7-1.43.72V866l.71.71h2.13l.7,3.54L537,871h-.71v4.23H537l.71.72h1.41l-.71,3.54h.71v.7h2.12V874.5l.7-.7h4.25l.71-.71h.7V871H549l.71.72.71-.72v-.7l.7-.71h.71l.7.71-.7.7h.7v1.42H554l.71-.7V871h.7v-.7l-.7-1.43.7-.7v-.7l.7-.72V866l.71-.7h.71l.7.7H561v-.7h.7l.74-.71h.69l.71-.71H566v.71h1.4l.74.71h7.76v-1.42h.72l.7-.71v-3.54l.7-.71v.71h.73l.7.71.7.71h1.42l.7-1.43.7-.71h.71l.7-.7h.72l.69-.7h.72l1.41-1.44v-1.4l.71-.7h2.13l.7-.71h.7l1.45-.71v-.7l.7.7H595l.71.71h2.11l.71-.71.7-.7v-.7h.7l.72-.71h1.41v1.41l-.7.7v2.84l.7,1.42v.71h.72v.7l.7.7.7.7H607l.72-.7h.69l1.45-.7H612l.69-.7h2.86l.68.7H617v-.7h.71l.69-.71v-.72L617,854.68l-.72-.7v-2.82l-.69-.71-.73-.71.73-1.41-.73-.7V846.2h.73l.69.7,1.45.71h2.8l.72.71h.7l.73-.71h.7v-.71h-.7l-.73-.71-.7-.7.7-.7h2.15v-.72h1.41l-.71-1.41V842l.71-1.42,1.41-.7.71-.72,1.41-.7.71-.71V837l.7-.7-.7-2.12v-.72l-.71-.71-.7-.7h-.71v-2.83l.71-1.42,1.41-1.42h.7l.71-.71V825h-2.12l-.7-.71h-1.42v-1.41h.7v-.72h.72l-.72-1.41-1.42.7h-.71l-.71-.7-.7-1.41H622l-.7-.72-1.42.72h-.71l-.71-1.44-.69-.7-.71-.72v-2.82H615.6v-.71h.69v-.71l.72-.7v-.71l.71-1.41.7-1.42.7-.71-.7-1.42h-.7l-1.45-.71h-.69v-.7h-3.53V803l.69-.7,1.41-.72.71-.7v-.71l.73-.71h-.73l-1.4-.7h-2.11l-.74-.71-.69.71-.72-.71.72-2.13v-.71l.69.71h2.87v-.71l.69-.71,1.45-1.41h.69l.72-.7.72-.71v-2.84l-1.46-.7-1.41-1.43V786l1.41-2.13v-.7H617v-3.53L615.6,779l-.72-2.12v-2.15l-.71-.7h-1.41l.72-.72v-.71l1.4-1.41.72-1.42v-1.43l.69-.71-.69-.7h-.74l-.7-.71-.7-1.43-.72-1.4-.69-1.42-1.45-1.42-.69-.71v-.7l-.72-2.13v-2.13l-.71-1.41-.7-.72-.71-1.41v-1.41l.71-.71v-1.42l.7-1.42.71-.71v-3.53l-1.41-1.41v-2.12l.7-1.43-.7-1.41.7-2.13-.7-.71h1.41v-.72h1.41l.73-.7.7-3.54.7-.71v-3.54L612,723v-5H610.6l-.69-.72v-.69h.69v-4.23l-.69-.74h-2.14l-.72-.69h-.7l.7-.71v-.71h1.41l.72-.7-.72-.7v-.71l.72-.71V706h-.72l-1.41-.71-2.12.71h-1.42v-.71l-1.42-.69v-.72l-.7-1.42-.71-.7v-1.43l-1.44-.7h-.7v-.7l-.7-.72-.7-.71v-2.12h.7l.7-.71.7-.7,1.44-.71.71-.71.7-1.42v-2.82h1.41l.71-.72.7-.7h.72l1.41-.7h.71v-.73h.69l.72-.7v-2.12h-.72v-.71l.72-.71v-.7l-.72-.71-.69-.72H607v-.7h-.71l.71-.71v-3.54l-.71-1.43.71-1.4-.71-.72v-.7l-.7-.7v-.72l-.72-1.41-.7-.72-.71-.7v-1.41h-.7v-6.35l-.71-.71v-1.4l-.7-.71h-.71v-.71h-1.32v-2.12h-.7v-1.42H598l.71-.7h.7l-.7-.71v-2.82h-2.12v-1.42l.71-.7.7-.72V642.3l-.7-1.41-.71-1.42-.71-.71-.7-.7h-.72l-.7-.71h-1.43l-.71-.7-.69-.71v-.71h-.72v.71l-.71-.71v-.7l.71-.7v-1.42l.72-.71v-2.11h-2.14l-.71-.71h-.71v-.7h-.7l-.71.7-.7-.7-.71.7h-2.13l-.7.71-.71.7h-.69l-.7-.7-.7-1.42v-2.12h-.72l-1.4,1.42-.73,1.42-.71,1.42h-2.82l-.72.7h-.7v.71l-.7.71v.71l-.73,1.42V636h-.7v.7l-.69.7v1.42l.69.7.7.71.73.72v.7l.7.7v1.42h.7v.73l-.7.7V648l-.7.71.7.71,1.42,1.42.7,1.42V653l.72,2.11v2.84h-.74l-.7,1.42-.73.7.73,1.42v1.42h-.73v1.41l-.69,1.41h-2.14l-1.42,1.43-.71.71-.7.7v.72l-1.41,1.41h-1.44l-.68-.71h-2.14l-1.42.71h-.7V670h-.71v-1.42l.71-.7v-2.14l.7-.7v-1.41h-.7l.7-.7v-.71h-.7l-.71-.71v-4.25l-.7-2.11v-4.26l-1.43-2.13-.7-1.41v-2.84l-.71-.73-.71-1.42v-2.82l-.7-.7h-.71l-.71-2.84-.7-.7v-.71l-.7-.71-.72-.71h-.7l.7-.7h.72V631l-.72-1.41-.7-.7-.71-.71v-.71l.71-.7L547,625.36v-.71l.71-.7v-2.13l-.71-1.4v-2.13l-.7-.71h.7v-1.41l.71-1.43.71-1.41v-.71L547,611.21l-.7-.72-1.42-.69-1.42-.72.7-.71v-.7l-.7-.72v-.71l.7-1.42v-.75h-.7l-1.42-.71-1.43.71h-1.4l-1.41-.71v.71H537l-.71,1.41h-1.42l-1.41-.72-1.42-.69h-.66l-1.45-.71v-2.13l-.69-1.41-.73-1.44v-2.82l.73-1.41V592l1.4-1.43.72-1.41v-.71l.7-.7v-.71H530l-.69-.7-.73-.72,1.42-.7.71.7.72-.7-.72-.71v-3.09h-4.94v.7h-1.43l-.7.71-.72.71h-.7l-.7.71h-.72l-.71-.71.71-.71.72-1.41v-.71l.7-.71v-2.13h-.7l-.72.72-.71.7-.69.71-.72-.71v-.7h-.72v-.72l-.71-.7-.7-.72h-.71l-.71.72-.71.7-.7.72-.7-.72.7-.7v-3.55h-2.14l-1.41-.7h-1.41l-.7-.72-.71.72-1.44.7v.71l-.69.72v1.39l-.71.72-.7.7v.71l-.71,1.42-.7.7v-.7h-.7v-1.42l-.71-1.42-.72-1.42-.7-.7-.71-.73-.71-.71-.7-.7v-.71l-.71-.71-.72-1.42v-1.43l-.7-.7v-.7l-.7-1.43v-.71l-.71-.7v-4.23l-.71-.72-.7-.69v-.72l-.71-.71v-1.41H491v-.7l.73-.7v-2.13l-.73-.71-.7-1.4-1.42-.71v-.71l-.71-.71h-2.11l-.73-1.42h-2.82l-.7-.71v-5l.7-.7.7-.7-1.39-.71-.72-1.42v-1.41l.72-.72.7-.71V533l-.7-1.41.7-1.42v-.72l.7-.69V527.3l-.7-.71v-.7l-.7-.71v-2.85l-.72-.7-.69-2.13v-2.1l-.72-1.44-.71-1.41-.69-.71V511l-.73-.71v-.71l-.71-.7-1.42-.71-1.4-.7h-1.42l-.71-.71h-.71l-.71,1.42h-.7v.71l-.7.71.7.7-1.4.71h-.71l-1.42-.71.71-1.42v-.7h-.71l-.71.7h.71v.71l-.71.7-.71.72h-1.41l-1.42-.72-.7-.7-.7-.71-.71.71h.71l-.71.7H458.5V508.9l-.71-.7h-.71v-.71l-.7.71.7.7v1.41h.71l-.71,1.42-.7.7-1.42.72v.7l-.72.71-.7.7V516h-.7l-.7.7h-.72v.73l.72.69-.72.71-.7.71-.7-.71-.71.71.71.7v1.42l-.71.71-.71.71v1.41l-1.42,1.44-.71-1.44.71-1.41-.71-.71-.68-1.45,1.42-.7v-1.41H445.8l-1.41,1.42-.71-.71h-1.43v-.7l.72-.71h-.72l.72-.69v-.73l.7-.71h.72l-.72-.7-.7-.7v-.71l1.42-.71v-.71H443l-.71-.71-.76.6-1.41.72-.7-.72V510.9h-.7v.71H438v.7h-.71V513l-.71,1.42h-1.4l-.71.7-.7.71-.7.7-.72.73v1.4l-.71.71-.71-.71-.7-.71-.71-.69-.7.69h-1.42l-.7-.69v-.72h-2.14v2.13l-.7.71-.7.7v.71h-.71l-1.42-.71-.71-.7h-.75l-.7.7v1.43l.7.7.73-.7v.7h.7l.71.71.71.7v.72l.7,1.44-.7.69-.71.72-.71.7v2.83l-.7.71v.7h-.73l-.7.7h-1.4l-.71.71-.72.7-1.41.71v.73h-.7l-.7-.73v.73h-.72l-1.41-.73-.78-.72h-1.4l-.72.71v2.84l.72,1.42v1.41l-.72,1.43v.7l-.71,2.13-.71.7-.7,2.12-.71,1.43-.72,1.42v.7l-.7,1.43v5.67l-.7.69-.74.72v.72l-1.39.69-.71.71h-.7l-.73.71h-.7l-.7.71-.74.7-1.39,1.43v.7l-.72,1.42-.69.71v1.41l-.73.7v.72H394l.69,1.42v1.4l.72.73.69,1.38,1.46.73.69.7.71,1.43v.7l.72.7v2.13l.7.71.71.7h.7v.71l.7.7V586l.74.7h.7l.7,1.41,1.44.71.71.71.71.7,2.12,2.11.7.73.72.7v.71l.71.7.69.71.73.7h.7v.72h.7l.71.7,1.43.7.71,1.41.7.72,1.4.71.73.7.71.72.7.7.71,1.42.7.7.71,1.43.7.7.7.72,1.43.71.71,1.42v.7l1.42,1.43.7.71.71,2.12,1.41,1.41.71,1.44L433,620l1.4,2.13.71.69.7,1.43,1.41.7v.7l.71.71.73.7.7,1.42.7,1.42,1.41,1.41.7.71,1.42.7.72,1.42v.72l1.41,1.42,1.42,1.42.71.7.7.71.71,1.42.71.71.7.7h.7l.71.72v.7l.71.72h-.71l.71.71.7.7.71,1.43,1.42.7.71,1.43v.71l.7.7.7.71.72,1.42,1.41,1.41.71.71.7,1.42.71.7.7,1.43.71,1.42.71.7.7.71.71.7.7.72v.7l.72,1.41.7.7.72.71h.7v.71h.7l.71.71v1.42l.7,1.41,1.43,2.12.7,1.43.72.7.71,1.41.7.7.72,1.44v.7l.7.71.71.71v.7l.72.72V683l.69,1.41v.7l.71,1.42.72.7V688l.7.7v2.13h.71v.71l.71.7v.71l.7.71.73,1.42.7.71v2.83l.7.71.73,1.4v.71l.7,1.4.71.72.7.72v2.11l.71,2.12.7,1.42v5.7l-.7,1.39v5.68l.7,1.44v1.41l.71,1.42.69,1.42v4.22l.73,1.41v.71l.7,1.43.71.7v5l-.71.71v.71l.71,2.11v1.41l.71.72v2.12l.71,1.42v.71l.7.7v.72l.7.71.72.7v.71l.7.7.7.71,1.42.7.71.7v1.42l.72.7.71.71v.71Z" style="fill:#b7dae2;stroke:#053893;stroke-miterlimit:10;stroke-width:2px"/></svg>