<svg id="Layer_1" data-name="Layer 1" xmlns="http://www.w3.org/2000/svg" viewBox="0 0 900 1366"><title>alldivs</title><path id="map_background-26" data-name="map background-26" d="M413.37,826.73l-3-10.91,1-1v-1l1-3,1-2v-2l-1-3v-1l1-2,1-1,1-1,1,1h3l1-1,3-2,1-2v-6.93l2-2,1-2,3-1,1-2,2-1v-5l1-1,2-3,.95-1v-2l1-3h3l1-2-1-3,1-2v-3h1l1-1,1,1h2l3,1,1-2,1-1,1-3h2l2-2,2-2,3,2,4,1,2.94,2.95,2,2,3,2,2,1,1,2,4.94,2h3l3,1,1-1,2-2,2-2v-1l2-1h3.95l5,1,2,1,1,1,2,3,2,1,2,1,1,2,2,2,2,2,1,2,1,2,1,1,1,1v2l1,5V796l1,2v1l2,3h1l-1,3,1,2,3,1h2l2-3,3.94-1,1-2,2-2,2-3,2,1h2l1-2,1-2,1-1h2l3-1h3l3-1,2,1,3,1,4,1,3,2,2,1,2,2,1,2,2,3,1,3,1,2h5.94l1-2v-3l-1-1-2-2-2-3-2-2-1-3v-7.93l2-3,2-1,2-1,4-1h11.89l2-1,2-3,2-1,1-2,.38.38,1.6,1.61h9.91l2,2v2l1,1v2l1,1,1,2,1,2v2h-3.94l-2-1h-1v2l-.95,1v3l-2,1,1,3h1l2,1,1-2h3l3,1,2,1,1,2,2,1,1,1,1,1,1,2v2l1,2,1,2,1,2,1,2,1,2,1,2h1l1,2,1,1,1,2v4h-1l-1,2v1l-3,1-2,1-1.84,1.8-.15.17h-5.93l-3-1h-2l-2-1-2-2h-1l-1-1-2-1-2-1-3,1-1,1h-2l-1,2-1,2-2,1h-3.94l-2-1-1,1h-2l-2,1h-2l-1,2-2,1v2l-1,2-1,3v2l-1,2-1,3v1l-1,2-1,2-1,2-1,2-2,2v1l-2,2-1,3-2,3-2,3-1,3-1,3-1,2-1,2v1l1,2H566l-2-1-3-1-1-1-2-1h-2l-1-1-2-4-1-1v-4l-3-1h-3l-3-1-2-1-3-1-3-1-4-1H518.38l-2,1-2,1-3,1h-5l-3-1-2-1-3-2-2.95-2-4-2-2-1-2-1h-5.94l-3-1h-3l-3-2-2-1-2-2-2-2-1-1h-2l-1,1-2,1-3,1-2-1-3-1-5.92-6-4-2h-3v1l-1,1-1,1v1l-1,1-.94-1-2-3.94-1-1h-1l-3,1-2-1-1-2h-1l-2,1h-1l-1-1-1-4v-2l1-1v-2l-2-1v-1l-1-2.95-2-1-2.53-.83Z" style="fill:#eda9bd;stroke:#9e005d;stroke-miterlimit:10;stroke-width:3px"/><path id="map_background-14" data-name="map background-14" d="M458.93,457.17l4-3,3.94-3,3-2,2-2h5l2,1h5l2-1v-1h2v1l1,1v4l1,1,1,1,2,1,1-1,2.95-1v-1l1-1h2.95l1,2,1,1,1,1h2l3-3,1-1,1-2,1-2,2-2,2-2h1l1,1,1-2v-2l-1-2.95,1-2v-3l2-2,3-2h8.91l1,2,2,1,1,1h1l1,1,1,2,1,1,1,1h1l1,1,1,1,1,1,2,1H556l1,1,2,1,1,1,.94,1h3v2l-1,2-1,1v1l-1,1H560l.94,1,1,1,3,1h1l1,1,1,1,1,1h1l1,1v3l1,1,1,1,1,1,1,1,1,1h3l1,1,1,2,1,1,2,1,2-1h2l1-1,1-1,1-1,1-1,1-1h1l1-1h1l1-1,2-1,1-1h3l1-1h2l4,1h.95l1,1,2,1,1,1h3l1,2v1l.95,2h2l1,1,1.95,1h2l2,1h2l1,1-1,3v2l-2,1-1,1v2l-2,3v2l1,3,1,2,2,1,2,2,2,2,1,1-1,1-1,3v1l2,2-1,2v3l-2,1v3.94l2,1,1,2,1,2-1,3v2l-1,2-1,2-2,3-2,1v2l1,2h1l1-2,2,1,1-1,2-1,2,1v7l-2,1-2,1-2-3-3,1h-1l-1,1-3,1h-2l-1-1-2,1h-2v-1l-3-1v-2h-1l-1,1-1,1v4.95l2,1-1,3.94-2,3-.94,1,.94,1,1,2,1,1,2,2,2,1,1,4.94v5l1,2,1,3,1,2v3l-1,1-2,1-2,2h-4l-1,2v1l-.95,2,2.92,2-1,2-1,2h-3l-1,2-1,2,1,2-1,1-2,2-2,1-1,3v2l3,1,1,3-1,2h-2l-1,2-1,2v3l-4,2-4,1h-1l-3,1h-3l-2-2-4.95,2-4-4h-2l-1-2-1-1v-2l-1.94-1-1-1-1-1-2-1h-2v-3.94l-1-2h-3l-1,1v2l1,3v3h-4l-1-1h-3l-2,1-1,2v5l1,2-1,2-1,1-2,2v2l-1,2-1,2h-2l-3,3.95-1,1-3,1,1-2v-3l-1-1-4-1-4-2h-1l-2,2-2,1-1,1-1,1-1,2-2,1-2,1-1,1-3-1-3,1h-2v-4l-2-2v-2l-1-1h-1l-1,1h-2l-1,1-2,1h-4l-1,1-1,1-1,2-2-3,1-2-1-2-1-2v-4l1-3,1-2v-3l-2-1v-5l1-1v-3l-2-2h-2l-1-2-1-2,1-1v-5h-1l1-2h-2l-2-1,1-2-1-1,1-2,1-1,1-2h3l1-1,2-1h-1v-4l-2-1v-3l-1-2,2-1v-4l-1-1-2-3-2,1-1,1-1,1-1,1-1,1-1-2-1-1h-2l-3,2-2,1-1,1-3,2v2l-2,2-1,1v1l-1,1h-1l-2-1h-1l-2-1h-4.95l-3-1-1-1-1-2v-1l-1-3-1-1-2,1v1l-1,2,1,2v5l-1,1-2-1H429.2l-1,1v1l-1,1-1-1,1-2-3,1v1h-2l-1-1h-3l-1-1v-2h-1l-1,1-1,1v1l-1,2h-5.93l-1-1v-2l-1-1-1-1-2-1v-2l-2-1-1-1h-1l-1-1v-3l1-2v-3l1-1v-2l1-1h1l2-1v-1l-1-1v-2l1-1h1l1-1,1-2,2-1,1-1,1-2,1-1v-5.94l-2-1V538.4l1-1h1l2,1,1,1-1,3,2,1h2l1-2h3v1l1,2,4-2,1,1,3.94-2,1-1,1-1v-5l-1-1-1-1-2-1-1-1-1-2,1-1v-1l1-1v-2l-1-2h1v-1l1-1,1-2v-3l1-1v-2.95l1-1,2-1,1-2,.94-2,1-2,1-1h.95l1-1,1-1v-3.95l1-1,1-1h1l1-1v-2l1-1h2v-3l1-1h2l2-1,3-1,1-1,1-1V474l1-1v-1l1-2,1-1,1-2v-1l-1-3,1-1v-1l-1-1-1-1Z" style="fill:#eda9bd;stroke:#9e005d;stroke-miterlimit:10;stroke-width:3px"/><path id="map_background-15" data-name="map background-15" d="M233,576.05l1-1v-1l1-1h1l1-1,1-1,2-1,1-1v-1l1-1,2-2,3-2,2-2,1-2,1-3v-1l1-5-1-2-1-2v-1l-1-2v-3l-1-2V530.5l1-2,1-2v-1l-1-1-1-1-2-1-1-1-1-2-1-4h-2l-2,1h-4l-1-1-1-1-1-2v-1l1-1h2l2-1h2l1-1v-3l-1-3-1-3-1-4-1-2-1-5.94-1-3-1-4V474l1-3,1-3v-2l1-3.94v-3l-1-4v-2l-1-2-2-2-1-1-1-3-1-1v-8.91l-1-2-2-2-2-1-1-1-2-2-1-1-1-2v-1l1-2,1-2,2-2,1-1,1-2,1-1,1-1v-4l-1-3.95-1-3-1-4.95v-1h-2.95l-2,1h-2l-2-1-1-2-1-4-1-2v-6l-1-2h-2l-1-2,1-1,1-2,2-2h1l2-1h1v-4l1-1,1-1h2l1-2,1-2,1-1v-1l-1,1h-1l-1,1h-1v-2l1-1v-2l2-2,1-2v-1l1-2-1-2-1-2h-2v-1h-2l-2-1-2-2v-1l1-1,2-1v1h3v-5l-1-3h1l1-1,1-1h1l1-1h2l2-1h1l1-1,1-2v-4l1-1,2-1,1-1,1-2,2,1,1,2,1,1h5l1-1,1-1,1-1v-5.94h1l1,1,1-1,1-1,1-1h1l1-1v-1l-1-1-1-1,1-1,3-2,2-1h-1l-1-1h-1l-1-1,1-1h3v-1l1-1,1-1v-1l1-2h1l1,1,1,1,1-1-1-1-1-2-1-1-1-2h1l1-1v-1l-1-1v-3h3l4.95,1,2-1,1-2v-1l-1-2v-3.95l2-3,3-3h2l1,1h3l2-1,1-2,1-3-1-1v-2l-2-3-1-1h-1l-2-1-1-2-1-1v-5.94l-1-4v-2l1-2,2-2h2l1,1,1,1,2,1h2l-1-2v-1h1l1,2,1,1,2-1v-2l1-1,1-1h2l1-1,1-1-1-1-1-2h1l2,1,2-1h1l1,1,1,1,1,1v2l2,1h3l2,1h1v4l1,2,1,2,1,1,2,1h2l2-1h2l2-1,1.95-1v-2l1-2v-1l2-1,2-2,2-1,2-1,1-2,1-1,1-1,1-1h1v-1l1-2v-2l1-2,2-1h5.91l4-1,3-1,3-1,1-1,1-1,1-1,3.62-1.44.2.08,2.1,4.33,2,2,2,3,1,3v5l-2,1v4l1,3h14.88l2,2v2l-1,2-1,2v3l1,2,1,2,1,2v6l1,2,1,2,1,1,1,2-1,2,1,2v6.92l1,1,1,1v7.93l1,1-1,2-2,1-1,2v1h-4v5.95l-1,2v1l-1,1v2l2,2,1,2,3,3v1l1,1h3.94v1l-1,2-1,1,1,2v2l1,5.95v3l1,2h2l1,1h1v2l1,2,2,4,2-2h3v1l1,2,1,1h2l2,1,2,1,2,1v1h-1l-1,1v3h2l1-1,2,1h1l1,2,2,2v1l1,2h2l1-1h2.93l1,2-1,1-1,1-3,3h-1l-1,1-1,1-1,2-1,1-3-1-1,1v4l3,2,1,1,1,1,1,1v3h1v1h1v1l1,1,1,1v2h.95v2l-.95,1,2,1,2,1h4l-1,2-1,3-2,8.93-1,2-.95,3-1,3-1,5v7.92l1,1,1,2h2l1,1h.95l2,4,1,3,1,2,1,2,1,2v6l1,2,1,1h4l2,1h1.94l2,2h1l2,2,1,1,1,1v1l-1,1,1,3v1l-1,2-1,1-1,2v1l-1,1v7.93l-1,1-1,1-2.95,1-2,1h-2l-1,1v3h-2l-1,1v2l-1,1h-1l-1,1-1,1v4l-1,1-1,1h-.95l-1,1-1,2-.95,2-1,2-2,1-1,1v3l-1,1v3l-1,2-1,1v1h-1l1,2v2l-1,1v1l-1,1,1,2,1,1,2,1,1,1,1,1v4.95l-1,1-1,1-4,2-1-1-4,2-1-2v-1h-3l-1,2h-2l-2-1,1-3-1-1-2-1h-1l-1,1v6l2,1v5.93l-1,1-1,2-1,1-2,1-1,2-1,1h-1l-1,1v2l1,1v1l-2,1h-1l-1,1v2l-1,1v3l-1,2h-7.93l-2,2-1,2h-5v1l1,1-1,2-1,1-2-1-2-2-1-1-1-1-1-1v-2l-1-1-2-1h-1v-1l-1-1h-2l-1,1v2l-2,1h-1v-2h-2v3l-1,1h-6.94l-2,1-1,1h-2l-1,1-1,1h-1l-2-1v-1l-1-1,1-1,1-1h1v-1h-1l-1-1-1-1h-1v-2l-1-1-1,1-1,2v2l1,1,1,1v2l1,2v1h-2l-2,1v2l-1,1h-3l-1,1,1,1,1,1v1h-1v3l-1,1h-2l-1-1h-1l-1-1-1-2h-4l-2-1v-2l1-1h3v-1l-1-1-1-2v-4l-1-1-1-1-1,1v2l-2,1-1,1V586l-1,1v1l-2-1h-1l-1-2-1-1h-1v-2l-1-1h-1l-1,1v4h-1l-1,1v2l1,1h2v1l-1,1h-2l-2-1h-3l-1,1-2,1h-1l-2,2-1,1-1,1-1-1h-1l-1-1h-1v3l-1,1h-1l-3,1v2l-1,1h-1l-1,1,1,1,1,1,1,1,1,1h-2l-1-1h-4l-1-1v-2l1-2v-1h-1l-1-1,1-2v-2h-2l-1,1h-2v1h-1v1l1,1,1,1v2h-1l-1,1,1,1v1l1,1-1,1-2,1h-2l-2,1h-1v-3h-1v-1h-1l-1,1v1h-2v-1l-1-2-1-1-1-1h-2l-1-1-3-1-1,1-1,1h-1v1l-1,1v1h-1l-1-1h-1v-2l-1-1H238v-3l-1-1h-2v1l-1,2-1,1-1,2-3,1v-1h-1l-2-1v-1l1-1,2-1,1-1h1v-3l1-1v-1l1-2v-1l1-3v-3l1-2v-5l-1-2Z" style="fill:#eda9bd;stroke:#9e005d;stroke-miterlimit:10;stroke-width:3px"/><path id="map_background-17" data-name="map background-17" d="M631.33,474l-1-1h-2l-2-1h-2l-2-1-1-1h-2l-1-2v-1l-1-2v-3l-1-2-2-3V443.3l-1-1-1-1-1-1-1-1-1-2-1-1-1-2-1-2-2-2-1-2v-1l1-2,1-1,1-3,1-2,1-1,1-1,1-2-1-2,1-2,1-2,1-2v-3.94l1-4v-2l1-3v-4h-1l-1-1-2-4-1-1-1-1-2-1h-1l-3-1h-2l-3-1-2-1-4-1-2-2-2-2-2-2-1-3v-2l-1-3v-3l2-1,1-1,1-1v-2l1-1,1-2h4.93l1-1h1l1,1,2,1h2v1l1,1h1l2,1,1,2,1,1,1,2,1-1h2.92l-1,1v2l1-1h3l2,1,1,1,2,1,1,1,2,1h2v1h1l3-1,1-2v-2l-2-2,1-1h1l1-1v-3l-1-1v-1l1-1-2-1,1-1,1-1h1l1-2h1l1-1,2-1v-1h3l1,1-1,1,1,2-1,2v1h1l1,1v1l1,1h1l1,1v5l1,1,1,2h2l2-1v-2l1-1,1-1h1l1-2,1-2,1-3v-4l1-1,1,2,1,1,1,1,1-1v-3l1-1h3l1,1h8.91l3,1v-5l1-1h1v-4l1-1,1-1v-2l-1-1,1-1,1-2,1,3v-1l1-2v-5l2-2v-1l-1-1h-1v-1l1.95-2,1-1,1-2v-2l1-1L689,312.75l-.22-.23h2l2,2h3l2,1h1l1-2h1l1-1v-1h1l1-1-1-1v-1l1-1,3-1,1,1,1,1,1,1,2-1,2,1h2l1-1v-1l1-1,2-1,3,1h4l1,1v2l1-1v-1l.95-1,2-1,1-1v-1l-1-1v-3h2l1-1,1,1h1l1-1,1,1,1,1v2l1,2h3l2-1,1,1h1l1-1,1-1h1l1-1v-1l1.94,1h1l1,2,1,2,2,1,1-1,2-1,1-1,1,1,1,1h2l2-1,1-1h1l1,1,1-2h6l1-1v-1l-1-3v-1h1l1-1,1-2,2-1,1-1,1,1h1v2l-1,1v3h2l4-1h8.93l1,2,2,1,2,1h2l1,2,1,1h4l2,1,1-1h1v-1l-1-2-1-1h1l1,1h5.92l2-1,1-2,2-2,1-2-2-2-1-2v-4.94h1l1-1,1,1,1,1h5.93l1,1,2,1,2,1,1-1,1-1,2-1,1-1,1-1,2,1,1,1,4.72,1.87.27.11V289l1,4-1,.7v-1h-1l-2-1v-2h-1l-1-1h-3l1,2v1l1,1-1,1-1,1,1,1,1,1,2,1,2,1h2l2,1h1v1l-1,2,1,1,1,1,1,1-1,1h-1l-1,2v1.95l1.94-1,1,1v2l1,1h1l1,1h1l1,1,1,1h2l1-1h2l1,2h1v1l-1,1-1,1-1,1v1l-1,2v1l-1,2-1,3-.94,2v1l-1,4.94-1,1-2,2v1l-1,1-3,3-2,2-2,3-2,3-2,1-1,2-1-1,1-2-1-3-1-1h-2l-2,1-1,2-1,1-2,1-3,4v2l1,2h2l1-1,3-2,1-1h2l1,1,1,1h4l2,1h2l-1,1-3,1-1,1-1,2v3l1,2h1l1-1v-1l2-1h1l1-2v-1l1-3,1-2h1l1,1,1,1,1,1h3.89l1-1-1-1h-1.92v-1h-1l-1-2v-1l1-1h5l1,1,1,2,1,1v2l1,2,1,2v1l1,1,1,3.95v4.95l1,3h-2v4h-1l-1-1-1,1h-2l-1-1h-4l1.92,2v3l-.94,2,2,2,2,1h1l1-1,1-1,2,1,1,1v2h1l1,2v2l1,1,2,2,1,2,1,1-1,1h-4l-1,1-4,5-2-1h-5l.94,1-1.92,3,3,3,2,3,2,3,2,3,1,2v6l-1,1-1,1h-5l-3-1-2-1h-3l-3-1h-10l-1,1v2l-2,3-2,4.95-1,2v6l1,1,1-1,3.94-1,2-1,2-2,3-1h2l1,1v4l-1,2-2,2-2,2-1,1-1,1h-1l-1,1,2,3h-4l-2,1-2,1-1,1-2,1-2,2h-1l-1,2h-1l-1,1h-2l-1,1h-3l-2,1H812.64l-1-2h-3l-1.95,1h-1v1l1,1,1,1h-1v4.95h-1l-.94,1v1h.94l1,1,1,1,1,1h2l1,1v1l-1,1-1,1h-2l-1-1-1-1h-.94l-2-1H790.84l-4,1-1,1v1l-1,2-1,1-1,2-1,1-1,2-1,1-1,1-1,2-2,1-1,1-2,1-2,1-2,1-1,1h-2l-1,1-2,2v3l1,2,1,2,1,1,2,1,2,3,2,1,2,1,2.93,2h1l2,1h2l2,1,2,2h1l2,2,2,1,2,3,1,3v2l1,2-1,2v2l-1,1v2l-2.95,2-2,2-2,2-2,1-2,1-2,2h-2l-3,2-2,1-2,2-3,1-2,2h-5.93l-3,1h-2l-2-1-1-1v-1h1l1-1v-1l1-1v-4.94l-1-1h-1l-1-1h-1l-1-1-1-1-2-3v-2l-1-1h-3l-1,1-2,1h-4.94l-1-1h-2l-2-1h-1l-1-2-2-2-3-3h-1l-1-1h-2l-1-1-2-1-3-1h-2l-2-1h-1l-2-1-1-1-2-1v-2l1-1,1-1,3-1h2l1-1,2-1,1-1v-4l-1-2-1-1-2,1h-6.94l-1-1v-1l-1-1-1-1-2-1-1-1-2-2-2-1-1-4h-1v-4h-1v-1l-1-1h-2l-1-2-1-1-2-1h-1l-4-2-1-1-1-2v-2l1-2,1-3.95v-1l-1-1-1-1-1-2-1-1v-5l-1-1-1-1-1-1-1-1h-2l-2-1h-4l-1,1-1,1h-1l-2,1-1,1-2,1h-2l-5,1-1,1h-5l-1-1-2-1h-3l-2-1Z" style="fill:#eda9bd;stroke:#9e005d;stroke-miterlimit:10;stroke-width:3px"/><path id="map_background-22" data-name="map background-22" d="M631.33,474h3l2,1h3l2,1,1,1h5l1-1,5-1h2l2-1,1-1,2-1h1l1-1,1-1h4l2,1h2l1,1,1,1,1,1,1,1v5l1,1,1,2,1,1,1,1v1l-1,3.95-1,2v2l1,2,1,1,4,2h1l2,1,1,1,1,2h2l1,1v1h1v4h1l1,4,2,1,2,2,1,1,2,1,1,1,1,1v1l1,1h6.94l2-1,1,1,1,2v4l-1,1-2,1-1,1h-2l-3,1-1,1-1,1v2l2,1,1,1,2,1h1l2,1h2l3,1,2,1,1,1h2l1,1h1l3,3,2,2,1,2h1l2,1h2l1,1h4.93l2-1,1-1h3l1,1v2l2,3,1,1,1,1h1l1,1h1l1,1v5l-1,1v1l-1,1h-1v1l1,1,2,1h2l3-1h4.94l-1,3-2,3-1,2-1,2-2,2-1,2-1,2v2l1,3v2l1,2v3l1,2v3l-1,3-1,2-2,1-3,2-2,2-1,1-2,1v4.93l1,2v1l1,3-1,1v2l-3,2-2,1-2,1-2,1-1,2-1,1v1l-1,2v2.94l-1,2v4l-1,1-1,2-1,2-1,2-1,1-2,2-2,1H719.5l-1-2-2-2v-1l-1-1-2-1-1-2h-3l-2,1-2,1-1,1-2-1-2,1-1,2-1,1H684.8l-2-1h-3l-3-1h-2l-5,2-2,1-2,2-2,2-1,2v4l1,1,2,2,1,2,1,2v2l1,3V685l-1,2-1,3-2,3-3-1-2.94-1-1-2-1-1h-2l-2-1-1-2h-1l-1-1-2-1-2-1,1-2-1-2-2-1-2-1-1-1-2-1-1-2H633.3l-1-2h-1v2l1,1v1l1,2,1,1v2l1,1V686l-1,1h-3v-1l-1-2h-2l-4,2,1-2-1-2-2,1h-2l-1,1-2-1-1-2v-3l-1-2h-1l-1-2-1-1v-2l1-2,1-3,1-1,3-1h5v-3l-2-1h-3l-1-2,1-2,1-2v-1l-1-1h-2l1-3-2-1v1h-2l-2,1h-1.94v1l-1,1-1,1-1,2-1,1-1,2,1,2v2l-1,2-2,2-1,1h-3l-1-3-2-1-1-2-1-2v-3l2-1h3l1-1,1-1v-4l1-3.94-1-1v-2h-2v-2h-2l-1,3-1,1h-2l-2-2,1-2.95h-5.95l-2,1h-2l-1-1,1-3-1-1-1-1v-2l-2-3,5-2,2,2h3l3-1h1l4-1,4-2v-3l1-2,1-2h2l1-2-1-3-3-1v-2l1-3,2-1,2-2,1-1-1-2,1-2,1-2h3l1-2,1-2-2.92-2,1-2v-1l1-2h4l2-2,2-1,1-1v-3l-1-2-1-3-1-2v-5l-1-5-2-1-2-2-1-1-1-2-.94-1,.94-1,2-3,1-3.95-2-1v-5l1-1,1-1h1v2l3,1v1h2l2-1,1,1h2l3-1,1-1h1l3-1,2,3,2-1,2-1v-7l-2-1-2,1-1,1-2-1-1,2h-1l-1-2v-2l2-1,2-3,1-2,1-2v-2l1-3-1-2-1-2-2-1v-4l2-1v-3l1-2-2-2v-1l1-3,1-1-1-1-2-2-2-2-2-1-1-2-1-3v-2l2-3v-2l1-1,2-1v-2Z" style="fill:#eda9bd;stroke:#9e005d;stroke-miterlimit:10;stroke-width:3px"/><path id="map_background-27" data-name="map background-27" d="M336.08,768.26v-6.93l1-2v-1h2l1-1,1-1,1-2v-3l-1-2v-2l1-1h1l2-1v-1l2-1v-1l1-1,1-2v-1l1-2,1-2-1-1-1-1,1-1h1v-1l1-2,1-1,2-2v-2l1-2v-1h1l2,1h5l2,2,3-1v-2h2l3-1h2.95l4,1-1,1-1,1v1l1,1h1l2,1,1-1,1-1v-1l1-1,1-2v-2l1-1h3v-1l1-1v-2l1-1,1-1h7.94l1,1v4l-1,1,1,2,1,1,2,1h5l1,1,1,1h4.94l1-1,1,1h3.94l1-1,1,1,2,2,1,2,1,1h1.05l1,1h3l.95,1,1-1,.94-1,1-1,1-1h2l2-1,1-1v-2l-1-1-1-1-1-1h-1l-2-2h-1l-2-1h-2.95l-1-1-1-1-1-2v-2l1-2,1.95-1v-4l1-1,1-2,2-2,2-3V687l1-2,1-3,1-2.95v-7.93l-1-3h-6.94l-2-1-2-1h-2.95l-1,1-1,1-2-1v2l-1,1h-2v2l-1,2-1,1h-2l-1,1h-3v-1h-1l-1,1h-2v-4.94h-1l-2-1-2-1v1h-1l-1,1-1,1-1-1v-4.95l-1-2-1-2-1-1-2-2-1-2-2-2-1-2-2-1-1-1-1-1-1-1v-2l-1-1h-2l1-2v-1l-2-1,1-1v-1h-1l-1-1-1-1-2-1v-1h-.95l-1-1-2-1-1-1-2-1-1-1h-1l-1,1-1,1h-3v-1l-1-1v-2l-1-1,1-1,1-1,2-1,1-2h-3.94v-1l-1-1,1-2-1-3,2-1-1-2,1-2,1-1v-2l-1,1-2.95,1-1-2h-4.94l-1,1-1-1v-1l-1-1-1-1v-2h-1v-1l1-1v-3l1-1,1-2,2-1,1-1v-1l1-1,1-1v-1h-2l-1,1h-1v-1l-1-1v-1h-1l-2-1h-1l-2,1-1,1-1-1v-1l-1-2v-2l-1,1-1,1h-1l-1,2-2-2-1,1h-3l-1,1,1,1,1,1v1h-1v3l-1,1h-2l-1-1h-1l-1-1-1-2h-4l-2-1v-2l1-1h3v-1l-1-1-1-2v-4l-1-1-1-1-1,1v2l-2,1-1,1V586l-1,1v1l-2-1h-1l-1-2-1-1h-1v-2l-1-1h-1l-.95,1v4h-1l-1,1v2l1,1h2v1l-.95,1h-2l-2-1h-3l-1,1-2,1h-1l-2,2-1,1-1,1-1-1h-1l-1-1h-1v3l-1,1h-1l-3,1v2l-1,1h-1l-1,1,1,1,1,1,1,1,1,1h-2l-1-1h-4l-1-1v-2l1-2v-1h-1l-1-1,1-2v-2h-2l-1,1h-2v1h-1v1l1,1,1,1v2h-1l-1,1,1,1v1l1,1-1,1-2,1h-2l-2,1h-1v-3h-1v-1h-1l-1,1v1h-2v-1l-1-2-1-1-1-1h-2l-1-1-3-1-1,1-1,1h-1v1l-1,1v1h-1l-1-1h-1v-2l-1-1H238v-3l-1-1h-2v1l-1,2-1,1-1,2-3,1v-1h-1l-2-1v-1l1-1,2-1,1-1h1v-3l1-1v-1l1-2v-1l1-3v-3l1-2v-5l-1-2h-1l-2.95,2h-6l-2-1-1,1h-2l-3,3-3,2-.07,0,.07,0-.07,0,.07,0-3,1-2,1-2,2-3,2-2,2-1,2-1,1-1,5.93v14.88l-1,2-1,1-1,2,1,2-1,1v1l1,2h3l1,1,1,2v3l1,4v5l-1,1v4l-1,2-1,1v5h1l1-4,1-1v-1h1v4l1,1,1,1v1l1,2,1,2,1,2,3,2,1,2,2,2,1,2v2l1,1h2l3.94,1h7.93v3.94l1,1,1,1,1,3.95v2l1,2,2,2,1,2v3l1,1h2l1,1,1,2,1,2,2,2,3,3,2.95,3,4,3,3,2,5,3,3.94,3,2,3,3,2,1,2,1,1,1,1,1,4,1,1,1,1h1l2,3,1,1v1l2,3,2,3,3,4,2,2,5,5,1,2,1,1,1,1,2,1,1,1,3,1,4,1,3,2,4,1,3,1,3,1h3.94l4,1h6.95Z" style="fill:#eda9bd;stroke:#9e005d;stroke-miterlimit:10;stroke-width:3px"/><path id="map_background-28" data-name="map background-28" d="M533.24,645.42l1-2v-3l-1-1-4-1-4-2h-1l-2,2-2,1-1,1-1,1-1,2-2,1-2,1-1,1-3-1-3,1h-2v-4l-2-2v-2l-1-1h-1l-.95,1h-2l-1,1-2,1h-4l-1,1-1,1-1,2-2-3,1-2-1-2-1-2v-4l1-3,1-2v-3l-2-1v-5l1-1v-3l-2-2h-2l-1-2-1-2,1-1v-4.95h-1l1-2h-2l-2-1,1-2-1-1,1-2,1-1,1-2h3l1-1,2-1h-1V585l-2-1V581l-1-2,2-1v-4l-1-1-2-3-2,1-1,1-1,1-1,1-1,1-1-2-1-1h-2l-3,2-2,1-1,1-3,2v2l-2,2-1,1v1l-1,1h-1l-2-1h-1l-2-1H447l-3-1-1-1-1-2v-1l-1-3-1-1-2,1v1l-1,2,1,2v5l-1,1-2-1h-5.93l-1,1v1l-1,1-1-1,1-2-3,1v1h-2l-1-1h-3l-1-1v-2h-1l-1,1-1,1v1l-1,2h-5.92l-1-1v-2l-1-1-1-1-2-1v-2l-2-1-1-1h-1l-1-1v-3h-7.93l-2,2-1,2h-5v1l1,1-1,2-1,1-2-1-2-2-1-1-1-1-1-1v-2l-1-1-2-1h-1v-1l-1-1h-2l-1,1v2l-2,1h-1v-2h-2v3l-1,1h-6.93l-2,1-1,1h-2l-1,1-1,1h-1l-2-1v-1l-1-1,1-1,1-1h1v-1h-1l-1-1-1-1h-1v-2l-1-1-1,1-1,2v2l1,1,1,1v2l1,2v1h-2l-2,1v2l2,2,1-2h1l1-1,1-1v2l1,2v1l1,1,1-1,2-1h1l2,1h1v1l1,1v1h1l1-1h2v1l-1,1-1,1v1l-1,1-2,1-1,2-1,1v3l-1,1v1h1v2l1,1,1,1v1l1,1,1-1h4.94l1,2,3-1,1-1v2l-1,1-1,2,1,2-2,1,1,3-1,2,1,1v1h3.94l-1,2-2,1-1,1-1,1,1,1v2l1,1v1h3l1-1,1-1h1l1,1,2,1,1,1,2,1,1,1h1v1l2,1,1,1,1,1h1v1l-1,1,2,1v1l-1,2h2l1,1v2l1,1,1,1,1,1,2,1,1,2,2,2,1,2,2,2,1,1,1,2,1,2v5l1,1,1-1,1-1h1v-1l2,1,2,1h1v4.94h2l1-1h1v1h3l1-1h2l1-1,1-2v-2h2l1-1v-2l2,1,1-1,1-1h2.94l2,1,2,1h6.94l1,3v7.93l-1,3-.95,3-1,2V695l-2,3-2,2-1,2-1,1v3.94l-2,1-1,2v2l1,2,1,1,1,1h3l2,1h1l2,2h1l1,1,1,1,1,1v2l-1,1-2,1h-2l-1,1-1,1-1,1-1,1-.95-1h-3l-1-1h-1l-1-1-1-2-2-2-1-1-1,1h-4l-1-1-1,1h-4.94l-1-1-1-1h-5l-2-1-1-1-1-2,1-1v-4l-1-1h-7.94l-1,1-1,1v2l-1,1v1h-3l-1,1v2l-1,2-1,1v1l-1,1-1,1-1.95-1h-1l-1-1v-1l1-1,1-1-4-1h-3l-3,1h-2v2l-3,1-2-2h-5l-2-1h-1v1l-1,2v2l-2,2-1,1-1,2v1h-1l-1,1,1,1,1,1-1,2-1,2v1l-1,2-1,1v1l-2,1v1l-2,1h-1l-1,1v2l1,2v3l-1,2-1,1-1,1h-2v1l-1,2v6.92l12.89-1,3,1h2l1,4,1,2v2l-1,1-2,2-1,1v1l1,2,3,3,2,1,1,2v1l-1,2-1,1,1,1h2l2.95,1,2,1,2,1,2,1v1l1-1,2-1h2l1-2,1-2v-3l3.95,3,1,2,1,1v3l1,2,3,3,2,2,1,3h3.94l1-1,1,2,1,2,3,1,3,3,3,2,2-1,1-1h3l1-1v-1l1-3,1-2v-2l-1-3v-1l1-2,1-1,1-1,1,1h3l1-1,3-2,1-2v-6.92l2-2,1-2,3-1,1-2,2-1v-5l1-1,2-3,.95-1v-2l1-3h3l1-2-1-3,1-2v-3h1l1-1,1,1h2l3,1,1-2,1-1,1-3h2l2-2,2-2,3,2,4,1,2.94,3,2,2,3,2,2,1,1,2,4.94,2h3l3,1,1-1,2-2,2-2v-1l2-1h3.95l5,1,2,1,1,1,2,3,2,1,2,1,1,2,2,2,2,2,1,2,1,2,1,1,1,1,3-4,2.95-3,2-1h3l1-1,2-1h1l3-1v-3l-1-2-1-1h-1l-2-3h-1v-1l-2-2-1-2v-2l1-2v-1l1-1,1-1,1-1,1-3h3l1-1,1-1,2.94-1,2-1,3-1v-2l2-1h2l2-3h2v-2h-1l-1-1-2-1-1-1v-5l-1-1-1-1-1-2v-4h-2l-1-1,1-2v-3h-1l-1-1-1-3v-5h-2v-1h-1l-1-1v-1l-1-1,1-1,1-1,2-2h2l1-2v-3l-2-1v-2l1-3,2-1v-1l1-2-1-1-1-1h-1v-1l-1-1-2-2v-1h-1v-2l-1-1h-1l-1-1h-1v-2l1-1,1-1,1-2v-3l-1-1-1-1-1-1-2-1v-1Z" style="fill:#eda9bd;stroke:#9e005d;stroke-miterlimit:10;stroke-width:3px"/><path id="map_background-29" data-name="map background-29" d="M521.35,775.2l3-4,2.94-3,2-1h3l1-1,2-1h1l3-1v-3l-1-2-1-1h-1l-2-3h-1v-1l-2-2-1-2v-2l1-2v-1l1-1,1-1,1-1,1-3h3l1-1,1-1,2.94-1,2-1,3-1v-2l2-1h2l2-3h2v-2h-1l-1-1-2-1-1-1v-5l-1-1-1-1-1-2v-4h-2l-1-1,1-2v-3h-1l-1-1-1-3v-5h-2v-1h-1l-1-1v-1l-1-1,1-1,1-1,2-2h2l1-2v-3l-2-1v-2l1-3,2-1v-1l1-2-1-1-1-1h-1v-1l-1-1-2-2v-1h-1v-2l-1-1h-1l-1-1h-1v-2l1-1,1-1,1-2v-3l-1-1-1-1-1-1-2-1v-1l-1-3,.3-.11,2.67-.89,1-1,3-4h2l1-2,1-2v-2l2-2,1-1,1-2-1-2v-5l1-2,2-1h3l1,1h4v-3l-1-3v-2l1-1h3l1,2v3.94h2l2,1,1,1,1,1,1.94,1v2l1,1,1,2h2l4,4,2,3v2l1,1,1,1-1,3,1,1h2l2-1h6l-1,2.95,2,2h2l1-1,1-3h2v2h2v2l1,1-1,3.94v4l-1,1-1,1h-3l-2,1v3l1,2,1,2,2,1,1,3h3l1-1,2-2,1-2v-2l-1-2,1-2,1-1,1-2,1-1,1-1v-1h1.94l2-1h2v-1l2,1-1,3h2l.95,1v1l-.95,2-1,2,1,2h3l2,1v3h-5l-3,1-1,1-1,3-1,2v2l1,1,1,2h1l1,2v3l1,2,1.95,1,1-1h2l2-1,1,2-1,2,4-2h2l1,2v1h3l1-1v-6l-1-1v-2l-1-1-1-2v-1l-1-1v-2h1l1,2h4.95l1,2,2,1,1,1,2,1,2,1,1,2-1,2,2,1,2,1,1,1h1l1,2,2,1h2l1,1,1,2,2.95,1,3,1-1,1-2,2-1,1-3,2-2,3-2,2-2,3-1,2-1,2-1,4v2l1,3v3l1,2,1,2,2,3,2,2,2,2,1,2-1,2v3l-1,2-1,3-1,4-1,1-2,1-3,1h-1l-3-1h-2l-3-1-1-1-3-1-1-2-1.95-2-2-1h-2l-3,1-3,1h-2l-2-1-2,1-2,1v1l-1,1v2l1,3-1,2-1,3-1,3-2.94,9.91-1,1-1,2-2,1-2,3-2,1H589.72l-4,1-2,1-2,1-2,3V793l1,3,2,2,2,3,2,2,1,1v3l-1,2h-5.94l-1-2-1-3-2-3-1-2-2-2-2-1-3-2-4-1-3-1-2-1-3,1h-3l-3,1h-2l-1,1-1,2-1,2h-2l-2-1-2,3-2,2-1,2-4,1-2,3h-2l-3-1-1-2,1-3h-1l-2-3v-1l-1-2V782.13l-1-4.93Z" style="fill:#eda9bd;stroke:#9e005d;stroke-miterlimit:10;stroke-width:3px"/><path id="map_background-35" data-name="map background-35" d="M111.18,794l1,4,1,2-1,3,1,2,1,2,1,2,2,1,1,1,3,1h3l2,1,1,1v1l-2,2h-5.94l-3,1-4,2,1,1-1,1-3,2-2,1-1,3-1,2,1,2h3l1-1h2l2-2,3-1,3-1h4l2,1,2,1,2,1,3,1,2,1,3,2,2,1,4,2,3,2,4,3,3,2,2,2,1,2,1,2h-1v7.94l-1,4,1,3v5.94l1,4,1,3,1,3,2,3,1,3-1,1-1,1-1-1-2-1-3-1h-3v2l1,2,1,2v3l1,4.95v2l-1,4,1,3v1l2,2,1,3,1,2v3l1,3,2,2,1,1,2,1,2,1,2,2,2,3v3l1,2,1,2v1l-1,2-1,2-2,2-1,2-2,3-1,2v1l-1,1v4h6.94l2-1h3l3-1,2-1h2l1-1h5l2,1v3l-1,2-1,2v3l1,2v2l1,2,2,2v-1l4-3h1l2-1,1-2,1-3,2-1h2l1-1,1-2-1-3,1-1,3-1,3-1,1-2-1-1-1-2v-1l1-1,3-1h1v-3l2-2,1-1v-3.94l-1-1-1-1-2-1-1-1h-1v-3l-2-4,2,1,2,1,1,1v1l1,1,1,1h1v-3.94h2l1,3,1,1h2l1-1v-2h1l1-2,1-1h1l3,1-1-2,1-1v-2H241l3-2,1-2,1-2,1-2,3-2,2-2,1-1,1-3,1-1h1l1,1v1l1,2v1l1,1,2,1h1l2-1,1-1v-1l2-1h3l2,1v2l1,2v2l1,1h1l1,1,1-1v-2l1-2,1-1,6.93-3,2-1h3l1,2,2,1h1v3l-2,1v2l-1,1-1,2-1,1v1h1l2,1,2,1h4l1-1,1-3v-2h4.94l2-1,2,1h2v-2h1l1-1,2-1,1-1v-3l-1-1-3-2-1,2h-1l-1-1v-4l1-2v-2l2-1h1l1,2,1,1,3,1h2l1,1,1,1,2,2v1l-1,1v1l1,2h2l2,2,3,1,2,2,2,1,2-1h2v-3h2l1,1,1,1-1,2-2,3-1,2-2,1-1,1h-1v2l3,1,1,1,1,1v1l1,2,1,1h1v-6.93l1-2v-1l1-2,2-2,1-2v-4.95l-1-2-1-2,1-2h2l1,1,1,1,2,2,1,1,1,1,2,3,2,2,1,2,1,2,1,2,1,1,2-1h2l3,1,1-1h1l1-2v-1l1-2v-3l-1-1,1-1,1-1,1-1h1l1-1v-1l-1-1v-3h-2l-1-1v-1l-1-1h-2v-3l1-2v-4.94l3-4,1-2,2-1h-1l-1-2h-1l1-6v-2l1-1,2-2,2-1v-2l-2-1h-2l-3,1v-2l2-1,4-4,1-1,1-2-1-2-1-1-1-1.95,1-2,1-2,1-2,1-1h2l4-1,2-1,2-2,1-2,2-2,2,2,1,1,1,1h2l1-2,1-1,1-2v-2l1-3,1-1,1-1,1,1,1-1h2l2-4-3-10.91h-3l-1,1-2,1-3-2-3-3-3-1-1-2-1-2-1,1H388.6l-1-3-2-2-3-3-1-2v-3l-1-1-1-2-4-3v3l-1,2-1,2h-2l-2,1-1,1v-1l-2-1-2-1-2-1-2.95-1h-2l-1-1,1-1,1-2v-1l-1-2-2-1-3-3-1-2v-1l1-1,2-2,1-1v-2l-1-2-1-4h-2l-3-1-12.88,1h-6.95l-4-1h-3.94l-3-1-3-1-4-1-3-2-4-1-3-1-1-1-2-1-1-1-1-1-1-2-4.95-4.94-2-2-3-3.94-2-3-2-3v-1l-1-1-2-3h-1l-1-1-1-1-1-4-1-1-3,1-2,1h-2l-2,1v4h-1l-1-1-2-1h-1l-1-1h-1l-2-1h-2l-1-1v-1l-2-1-1-2-2,1-1,1-1,1-2,1-2,2v3l-1,2v4l1,2v1h-2v1l-1,1-2,1h-7.93l-3,1h-3l2,2v2l-1,2h-3l-1-1h-2l-1,1-1-2-1-2v-1l-1-1-1,1-1,1h-2l-1,1,1,1,1,2,1,1v2l1,5v5l-1,2-1,1v2l1,1v2l1,2h1l1,1,1,1,2,2,2,2,2,1,1,2v2l-1,1-2,1-2,1h-1v1l1,1-2,1h-1l-2,1-2-1-2-1-1-1v-1l-1-2v-1l-1-1h-1l-1,1v2l-1,1h-1l-1,1-1-1-2-1h-1l-1,1-2,2h-6l-1-1v-2l1-2v-2l-1-1-1-2-1-2-2-1h-2l-1,1v1l-1,2-1,3-1,1h-5v2l-1,1-1-1-1-1-2-1-2,1-1-1-2-1-1-2-2-2-1-1-1-1-1-1-2-1h-1l-1,2,1,1v4h-3l-1-1h-2l-2-1H139.9v1l1,1,1,1-1,1h-1l-1,1-3,1-2,1-2,2v2l4,1V797l-1,1h-2l-2-1-2-1-1-1-3-2-2-2-2-1-1-1-1-1-2,1-2,1-3.73,3.73Z" style="fill:#eda9bd;stroke:#9e005d;stroke-miterlimit:10;stroke-width:3px"/><path id="map_background-36" data-name="map background-36" d="M238,1078.36l1-1v-1l-2-1-3-1-3-1h-1l-3-1-1-1h-1l-2-1-1-2-1-1v-8.91l-1-3v-1l-1-2-1-1h-1l-3-1h-3l-1-2-1-2v-1l1-2,1-1h1l1-1,1-2-1-1-1-1-3-1-1-1,1-3.94-2-1h-3l-2-1-2-2-2-1-2-1-2-1-1-2-2-1-2-3-1-2-1-1-1-2v-1l-1-2,1-1,1-2,1-2,1-1h2l1,1v2l-1,3v1l1,1,1,1,1,1v1l2,1,1,1,1-1v-1l1-1,1-1,3-1,2-1,2-1h3l1-1,1,1h2l2-1,1-2v-3.94l-1-2-1-1-2-2-2-1-1-1-1-2-1-2,1-2,1-1,2-1h1l3-1h7.91l2-1,1-1v-1l-1-1-1-1-1-1-3-1h-3l-3,1h-2l-2,1h-2l-2,1-3,2-1,1-2,3-2.94,2-2,1h-2l-1-1-3-3-1-2v-1l-1-2v-3l1-1v-2l2-2,1-1v-3l4-3h1l2-1,1-2,1-3,2-1h2l1-1,1-2-1-3,1-1,3-1,3-1,1-2-1-1-1-2v-1l1-1,3-1h1v-3l2-2,1-1v-4l-1-1-1-1-2-1-1-1h-1v-3l-2-4,2,1,2,1,1,1v1l1,1,1,1h1v-3.94h2l1,3,1,1h2l1-1v-2h1l1-2,1-1h1l3,1-1-2,1-1v-2H241l3-2,1-2,1-2,1-2,3-2,2-2,1-1,1-3,1-1h1l1,1v1l1,2v1l1,1,2,1h1l2-1,1-1v-1l2-1h3l2,1v2l1,2v2l1,1h1l1,1,1-1v-2l1-2,1-1,6.94-3,2-1h3l1,2,2,1h1v3l-2,1v2l-1,1-1,2-1,1v1h1l2,1,2,1h4l1-1,1-3v-2h5l2-1,2,1h2v-2h1l1-1,2-1,1-1v-3l-1-1-3-2-1,2h-1l-1-1v-4l1-2v-2l2-1h1l1,2,1,1,3,1h2l1,1,1,1,2,2v1l-1,1v1l1,2h2l2,2,3,1,2,2,2,1,2-1h2v-3h2l1,1,1,1-1,2-2,3-1,2-2,1-1,1h-1v2l3,1,1,1,1,1v1l1,2,1,1h1v5l-1,2,2,1v1l1,2h1v2l-2,1-1,1v2l1,1v3h-1v5l-1,1h-3.94l-1,2-2,1-1,1-1,1v1l-1,1-1,1h-4l-2,1,1,1-1,1-1,1v5l-2,2-1,1v2l-1,1,1,1v1l-2,1-1,2v1l-1,1v3l-1,2h-1l-1,1-5-1v2l-1,1h-1v4l-1,1v1l-1,1,1,2v1l-1,2,1,1-1,1v1l-1,1v1l-1,1v1h1l3,1h7.95l3,3,3.94-1h2.95l1-2,1-2,1-4v-3l2,1h2l1-1,1-1,2-1,1-1,1,1,2,1v3l3.94,1,3.94,1,2,1,2,1-1,2-1,2v1l1,1,1,1h2l1-1,1-1,1-1,2-2v-1l1-1h2l2,1,1-1,1-1,3-3,1,2-2,4v2l4-1h3l2-1h2l1-1h1l-1,2h1l1,1h1v1l-2,4v6.92l-1,3v1l1,1,1,1h1l1,1,1-2,1-1,2,2,1,3-2,1-5-2v1l-1,1,1,3v3l1,2v6.94l1,2,2,2,3,1v4l-1,1,1,1-1,2-1,1-2,1-3.94-1h-3l-3,1-2,2-1,2-2,3-2,2v1l-1,2-2,1-1,1-1,2-1,1h-3.94l-1,5v6.93l1,2-1,2-1,2H349l-2.95,1v3.94l-1,5-1,3-1,2-1,3v1l-2,4v3l-1,2v3h-5l-4,1-5,1v1h-1l-1,1-2,1h-3l-1,1h-1v1h-5.91l-1-1-1-1v-1h-1l-1-1h-1l-1-1h-1v1l1,1v1l1,1v6l1,1v2l1,1,1,4-1,2-2,1h-2v-1l-2-3v-2l-1-2-2-4v-1l-3,2-1,1-2,1h-9.92l-4.94-3-1-1-2-1h-3l-5,2h-4l-2-2-1-1v-2l-3-1h-1l-2-2-1-2-2-2-1-2v-1h3l2,2v-4.95h5l1-2,2,1,1,1h2l2-1-2-3-1-1v-2h2l3,1,2,1,1-1v-2l-2-1-2-1-1-1-1-1-2-1-2-2-1-2v-1l-1-2-1-1v-1l-2-1-1-1-2-1-1-1h-3l-2-1h-3.94l-1-1,1-1v-2l1-2v-1l2-4.94h1v-1l-1-2-2-2H241l-2,1h-2v-1l1-2,1-2Z" style="fill:#eda9bd;stroke:#9e005d;stroke-miterlimit:10;stroke-width:3px"/><path id="map_background-37" data-name="map background-37" d="M565,1066.48l-2-3-2-4-2-3-2-3v4l1,3h-1l-2-2-2-4-1.95-3-1-1-1-2-2-3-3-3,1-1v-2l2-1,2-1,2-2,1-2,1,1h2l2-1h3l3-1v4l-2,3v1l2-2,1,1,1,3,1,2v3l1,5v8.92l-1,5h-1Zm-34.68-22.79v1l2,3,1,3v2l1,1v2l1,3,2,4h1l1-1,2,2,2,1,4,4,2.94,3,1-2h1v-1l1-3-2-1-2-2-2-3-2-3-2-5-2-4v-9.89h-7.92l-1,1-2,2v3Zm38.65,40.63-1-2-2-2v-2l-2-1-2-2-2-2-1-2-2-1-1-1-1-1-2-1-1,2,1,2,1,2,2,2,4.93,4.95,2,2,1,1,3,2,2,2v-3Zm1-14.87-1,2h1l-1,1,1,2v1l1,1,1,3,2,2-1-2v-2l1-1h1v-1l-1-2v-1l-1-2-2-1h-1ZM446.71,847.89l-3.62,3.59-1,1-1,1v1l-1,1h-1v1l-1,2-1,1v2l1,2,1,1v3l-1,1-3,1-1,1h-1l-2.95,1h-2l-1,2-1,1-1,1-1,1-1,2,1,2v2l2,2v1l-2,1-2,1-2,1V894l1,1,1,2h1l1,2,1,1v4l1,1,1,1,1,1,1,1,2,1,1,1,1,2,1,1h1l2-2,1,1v1l1,2v2l1,3-1,1,2,1-1,1-2,3v4l-1,1-1,1v5l-1,2v2l-1,1,1,2h1l1,1,1,2,1,3v6.92h2l1-1h2l1,1h2v1l1,1,3-2v1l1.95,3v3l1,1,1,1v6l1,1,1,1,1,1h1v2l-1,1,1,3v3l1,1v1l1,2V994l1,3,2,1h2l2-1h1v5.95h2l2-1v1h1l1-1,2-1h2.95l1,1,1,1,2-2h2l1.95-1,1,1v1l-2,2.94-1,1v6.92l1,2v5l-1,2.95-1,2v4l-1,3v1l-3,2v2l1,1,1,1v5h6.94l3-1h3.95l1,1h3l1,1,3,1h1l1.95,1h2l1,1,1,1h4l1,1h2l1,2v1l-1,2-2,2h-2v2h-1l-1,1h-3l-2,1h-4.92l2,1,2.95,1h5.94v1h4l2-1,2-1h4l2-1,1-1h2v-1l1-2v-2l-1-2v-5l-1-2,1-2v-4.76l1-1,1-1H536l3-1h1l2-1h2l3-1h2l2-1h1.17l2,1,3-1,2-1h9.92l3,1v-10.88l1-3,1-3,1-3,2-3,1-2,2-3,1-2,1-3,1-1,1-2,3-2,1-2,2-2,1-1,1-1,2-3,1-2,1-1,1-2,1-3,1-1V970.4l1-1,2-1,1-2v-4l-1-3.94-1-2-2-5-2-3-1-2v-2l-2-2-1-2-1-2-2-5-1-2-1-2-1-1-1-2-1-2v-2l-1-1,1-3,1-2,1-2v-2l1-2-1-1-3-2-2-1-1-1-3-1-1-2-1.95-2-2-2v-2l-1-2-1-3v-1l-1-1v-2h-3.94l-2-1-3-1-1-1-2-1h-2l-1-1-2-4-.95-1.07v-4l-3-1h-3l-3-1-2-1-3-1-3-1-4-1H518.37l-2,1-2,1-3,1H506.5l-3-1-2-1-3-2-2.95-2-3.94-2-2-1-2-1h-5.93l-3-1h-3l-3-2-2-1-2-2-2-2-1-1h-2l-1,1-2,1-2.94,1-2-1-3-1-5.93-6Z" style="fill:#eda9bd;stroke:#9e005d;stroke-miterlimit:10;stroke-width:3px"/><path id="map_background-45" data-name="map background-45" d="M216.19,671.18h-2l-1,2h-2l-4,1-1,1-2,3-2,2-1,2h-2l-4-1-2,1-4,1-5,1h-5v-1H165.66l-2,1-2,1h-4l-5-2h-1l-2,1-1,1-3,2h-8.93l-2-1v-3l-1-1-3,1-1-1h-2l-2-1h-4l-2,1-3-1-1-1-2-2-2-1-2-2-1-1-2-2h-1l-3-1-5-3-5-3.94-5-4-4-3.95-2-1-5.93-5-4-3-3-1-1-3-3-3.95-2-3-1-1-1-1h-4l-4.94,1v3l1,2v2l-1,1-1,1-1-3h-1v4l-1,3h1l1,1v2l1,1v2l-3,3-1,1-1,1v7.93l-1,1-1,1-2,1-1,1v2l-1,1-1,1,1,2-1,3-2,3-2,5.93-1,2v1l2,2v1l-1,3-1,1h-4l-2,1-1,2,1,1h3l1,1v1l-2,3-1,2v2l-3,2-3,2-1,1-.9,1.81-.11.2.54.16,2.45.8,2,1,1,1v3l1,2,1,2,2,1,1,2v1l1,3,1,1,3,4,2,1,3,3,2,1,1,2v3h4l2,1,2,2h3l2-1,2-2,2-2,3-1,2-2h4l1,2,2,1,1,2,2,2,3,2,2,2,2,1v2l-1,1v1.95l1,2,1,1h8.93l3,2h3l2,1h1l1,1,2,1v2l1,2v1l-1,2-3,3-2,1-2,1v2l-1,1h1l2,1h1l2,1h2l1,3,1,1,3,3,.23-.23,3.72-3.73,2-1,2-1,1,1,1,1,2,1,2,2,3,2,1,1,2,1,2,1h2l1-1V793l-4-1v-2l2-2,2-1,3-1,1-1h1l1-1-1-1-1-1v-1h6l2,1h2l1,1h3v-4l-1-1,1-2h1l2,1,1,1,1,1,1,1,2,2,1,2,2,1,1,1,2-1,2,1,1,1,1,1,1-1v-2h5l1-1,1-3,1-2v-1l1-1h2l2,1,1,2,1,2,1,1v2l-1,2v2l1,1h5.93l2-2,1-1h1l2,1,1,1,1-1h1l1-1v-2l1-1h1l1,1v1l1,2v1l1,1,2,1,2,1,2-1h1l2-1-1-1v-1h1l2-1,2-1,1-1v-2l-1-2-2-1-2-2-2-2-1-1-1-1h-1l-1-2v-2l-1-1v-2l1-1,1-2v-5l-1-5v-2l-1-1-1-2-1-1,1-1h2l1-1,1-1,1,1v1l1,2,1,2,1-1h2l1,1h2.95l1-2v-2l-2-2h3l3-1H237l2-1,1-1v-1h2v-1l-.95-2v-4l.95-2v-3l2-2,2-1,1-1,1-1,2-1,1,2,2,1v1l1,1h2l2,1h1l1,1h1l2,1,1,1h1v-4l2-1h2l2-1,3-1-1-1-1-2-3-2-2-3-4-3-5-3-2.94-2-4-3-2.95-3-3-3-2-2-1-2-.95-2-1-1h-2l-1-1v-3l-1-2-2-2-1-2v-2l-1-3.94-1-1-1-1v-3.94h-7.93l-4-1Z" style="fill:#eda9bd;stroke:#9e005d;stroke-miterlimit:10;stroke-width:3px"/><path id="map_background-62" data-name="map background-62" d="M482.71,1043.69v-5l-1-1-1-1v-2l3-2v-1l1-3v-4l1-2,.95-3v-5l-.95-2v-6.93l.95-1,2-2.95v-1l-1-1-2,1h-2l-2,2-1-1-1-1h-3l-2,1-1,1h-1v-1l-2,1h-2v-5.94h-.95l-2,1h-2l-1.95-1-1-3v-6.91l-1-2v-1l-1-1v-3l-1-3,1-1v-2h-1l-1-1-1-1-1-1v-6l-1-1-1-1v-3l-2-3v-1l-3,2-1-1v-1h-2l-1-1h-2l-1,1h-1.95v-6.95l-1-3-1-2-.95-1h-1.05l-.94-2,.94-1v-2l1.05-2v-5l.95-1,1-1v-4l2-3,1-1-2-1,1-1-1-3v-2l-1-2v-1l-1-1-2,2h-.94l-1-1-1-2-1-1-2-1-1-1-1-1-1-1-1-1v-4l-1-1-1-2h-1l-1-2-1-1v-6l2-1,2-1,2-1v-1l-2-2v-2l-1-2,1-2,1-1,1-1,1-1,1-2h2l2.94-1h1l.94-1,3-1,1-1v-3l-1-1-1-2v-2l1-1,1-2v-1h1l1-1v-1l1-1,1-1,3.63-3.61.35-.36-.51-.26-3.47-1.72h-3v1l-1,1-1,1v1l-1,1-.95-1-2-3.94-1-1h-1l-3,1-1.95-1-1-2h-1l-2,1h-1l-1-1-1-4v-2l1-1v-2l-2-1v-1l-1-2.95-2-1-2.52-.83-.45-.15-.14.26-1.84,3.7h-2l-1,1-1-1-1,1-1,1-1,3v2l-1,2-1,1-1,2h-2l-1-1-1-1-2-2-2,2-1,2-2,2-2,1-4,1h-2l-1,1-1,2-1,2-1,2,1,2,1,1,1,2-1,2-1,1-4,4-2,1v2l3-1h2l2,1v2l-2,1-2,2-1,1v2l-1,6h1l1,2h1l-2,1-1,2-2.95,4V896l-1,2v3h2l1,1v1l1,1h2v3l1,1v1l-1,1h-.95l-1,1-1,1-1,1,1,1v3l-1,2v1l-1,2h-1l-1,1-3-1h-2l-2,1-1-1-1-2-1-2-1-2-2-2-2-3-1-1-1-1-2-2-1-1-1-1h-2l-1,2,1,2,1,2v4.94l-1,2-2,2-1,2v1l-1,2v11.9l-1,2,2,1v1l1,2h1v2l-2,1-1,1v2l1,1v3h-1v5l-1,1h-4l-1,2-2,1-1,1-1,1v1l-1,1-1,1h-4l-2,1,1,1-1,1-1,1v4.94l-2,2-1,1v2l-1,1,1,1v1l-2,1-1,2v1l-1,1v3l-1,2h-1l-1,1-5-1v2l-1,1h-1v4l-1,1v1l-1,1,1,2v1l-1,2,1,1-1,1v1l-1,1v1l-1,1v1h1l3,1h7.94l3,3,3.94-1h2.95l1-2,1-2,1-4v-3l2,1h2l1-1,1-1,2-1,1-1,1,1,2,1v3l4,1,3.94,1,2,1,2,1-1,2-1,2v1l1,1,1,1h2l1-1,1-1,1-1,2-2v-1l1-1h2l2,1,1-1,1-1,3-3,1,2-2,4v2l4-1h2.95l2-1h2l1-1h1l-1,2h1l1,1h1v1l-2,4v6.92l-1,3v1l1,1,1,1h1l1,1,1-2,1-1,2,2,1,3-2,1-5-2v1l-1,1,1,3v3l1,2v6.93l1,2,2,2,3,1v-2l1-1v-1l1-2,2-3,1-1v-2h-3v-1h1l.95-1,2-1h4l1-1v-4l2-1,1-1,2,1h3l2,1v1h3l1,1,1-1,1,1,1,2,1-1h3l1-2v-2l1-1,2-1h2l2,2,1,1,1,1,1,2v2l2,1,2,2,1.05,2v2l-1.05,1-.95,1v2l.95,1v4h-2v5l2,1v4l-.94,1-2-1v3l-1,1v1l2,1,2,4-2,1,1,2,.94,2v1h1.05l.95-1v-1l1-2,1-1,.95,1h4l2-1,1,1-1,2v1h-2v3h1l2-1,2-1,1-2,2-3,1-1,2,2,1,1h2l2-1h1l3-1h6l2,1,1,1h1l1-1,1-1v-3.94l2-2-1-2v-3l-1-2v-2l-1-3-1-1-1-1v-2l-1-1-2-1v-1l-1-1v-4l1-2v-3l1-1,1-1h1l3-1h3l2,1h2Z" style="fill:#eda9bd;stroke:#9e005d;stroke-miterlimit:10;stroke-width:3px"/></svg>