<svg id="Layer_1" data-name="Layer 1" xmlns="http://www.w3.org/2000/svg" viewBox="0 0 900 1366"><title>alldivs</title><path id="map_background" data-name="map background" d="M589.69,903.77v-1.1l-1.1-1.07-1.08-1.1h-3.25l-1.09-2.18v-1.08l-1.1,1.08-2.18,1.1-2.16,1.08v-2.18l1.08-1.08,1.08-1.09v-1.08L581,894l-1.1-1.07L578.81,894l-1.08,1.1h-1.09l-1.09,1.08-1.09-1.08h-1.08l-1.09,1.08H571.2l-1.08-1.08L569,894,568,892.9l-1.1-1.1v-1.08l1.1-1.11h3.25l1.08-1.07,1.09-1.1v-1.08h-1.09l-1.09-1.08-1.07,1.08H568v-1.08l-1.1-1.09-1.09-1.1-1.09,1.1H563.6v1.09l-1.11,1.08v1.09l-1.07,1.1h-1.09v-4.34h1.09l1.07-1.1h1.11l1.08-1.08h2.18l1.1,1.08H569l1.1-1.08-1.1-1.09H568v-1.09l1.07-1.09h1.1l1.08-1.08v-3.27l-1.08,1.1-1.1,1.07H568v1.1h-1.1l-1.09-1.1v-1.07l-1.09-1.1v-1.08h2.18V869l-1.09-1.08-1.09-1.07v4.32l-1.08-1.08L562.49,869v-1.09h-2.16L559.26,869H554.9v-3.26H556l1.09-1.08h1.08l1.11-1.08H556v-1.1l-1.08-1.09h-1.08l-1.09-1.09,1.09-1.08L552.73,857l-1.09-1.08v-1.08h-1.08l-1.09,1.08h-4.33V857H544v-3.24L543,852.66l-1.09,1.11H538.6l-1.09-1.11v-4.35h-3.28v2.19l-1.08,1.07h-1.08L531,850.5v-1.1h-5.45v-2.17h1.1l1.09-1.08-1.09-1.09-1.1,1.09h-1.08V844h1.08l1.1-1.09v-5.41l-2.18-4.37-2.17-3.26h-1.09l-1.1-1.07H519v-1.1l1.07-1.11v-1.06H519v-1.1h-3.26l-1.08,1.1V823.3h-2.19v-1.08h-2.16l-1.09-1.08,1.09-1.09,1.09-1.09h3.26l1.08-1.1-2.18-1.08-1.09-1.07v-3.26h-1.07l-1.09,1.07v2.19l-1.09,1.07h-1.1v-4.32H506l-1.09-1.09v-1.1h4.36v-1.08h-1.11l-1.07-1.09V807l-1.09-1.1-1.09-1.09h-1.09v-3.26l-1.08-1.08v-4.36h2.17l1.09-1.08v-2.18h-1.09l-1.09-1.08h1.09l1.09-1.08h-2.18v-1.09l1.09-1.09H506l-1.09-1.08h-1.09l-1.08-2.18v-4.35l-1.09-2.17v-2.18l-1.08-1.08-1.11-1.09-1.07-1.09-1.08-1.09v-1.08l1.08-1.09V769l1.07-2.17,1.11-1.06,2.17-2.2v-2.16h-4.35l-1.08-1.11-1.11-1.09-1.09-1.09H494l-2.17-2.16h-1.1l-1.07-1.11v-2.16h-3.28l-1.07-1.1h-2.18l-2.19-1.08h-1.07l-1.08,1.08-3.26,2.18-1.1,1.08-1.09-1.08v-3.26l-1.07-2.16v-2.17l-1.1-1.09-1.09-1.1H469l-2.19-1.08h-3.26l-2.17,1.08h-3.26l-1.08-1.08v-2.18L456,738.51v-1.09l-2.18-1.08-1.09-1.09-2.17-1.09v-6.52l1.09-1.09v-2.18h-1.09l-1.09-1.09V720l2.18-1.08,1.08-1.09-2.17-1.09v-2.18l-1.09-1.08v-1.09h-2.18l-1.09,1.09-1.08,1.08-2.17,1.08-1.1-1.08-1.08-1.08-1.09-1.09v-2.17l1.09-1.09V707h-1.09l-1.09-1.11h-2.18l-1.08-2.16v-3.26h-1.08v-1.09l-1.1,1.09H432v2.17h-2.17v-1.08h-1.09l-2.17-1.09h-2.17l-1.09-1.09,1.09-1.08V695l-1.09-2.17-1.08-2.19v-1.07l-1.09-1.1-1.09-1.09v-8.7h2.18l1.08-1.09h3.27v-6.52h1.09l1.07-1.07,1.09-1.09H432l1.09,1.1v-1.1l1.1-1.08v-2.18l-1.1-2.18H432l-2.17-1.07v-2.17l1.08-1.1-1.08-1.09h-1.09V657l1.09-1.07v-2.18l1.08-1.09v-1.08l2.18-1.1h2.18l1.08-1.1,1.09-1.08v-2.17h-1.09L435.3,645l1.08-1.08v-2.18l-1.08-1.09v-1.1l-1.08-2.16h-4.36l-1.09-1.09,1.09-1.08v-1.08l1.08-1.1h4.36l1.08-1.09h4.36l1.08,1.09h1.1l2.17,1.1h1.08l2.18,1.08,1.09-1.08,1.09-1.1L452.7,632h4.36l1.08-1.09,1.07-1.08h1.11l2.16-1.08h5.44l3.27,1.08h6.5v-1.08l1.12-1.09,2.15-2.17,1.09-1.09,2.18-2.18,1.09-1.09,2.17-1.08h1.09l2.17,1.08h2.19v1.09h4.35l1.07-1.09v-4.35l1.08-2.19,2.19-1.06h1.09l1.08-1.09,1.09-1.1-1.09-1.09-1.08-1.08v-2.19l1.08-1.07,1.09-1.11v-1.08l1.09-2.17v-2.17l2.16-1.09,2.19-1.09,2.16-2.17V593.9h2.19l1.08-1.08,1.08-1.08,1.1-2.18,1.08-1.09h2.17l1.09,1.09,1.1,1.08v1.09l-1.1,1.09v1.08l1.1,1.09,1.07,1.1v2.16l1.08,1.09h1.1l1.09-1.09,1.08,1.09h3.27L531,597.16V595h1.09l1.08-1.09h1.08v-6.51l1.1-1.1h3.26l1.09-1.09h2.17V583l-1.09-1.09h-1.08l-1.09-1.07v-2.18l1.09-1.09,1.08-2.17h1.09l1.08-1.09v-2.18l1.08-1.07V570h1.12l1.07-1.09v2.2l1.09,1.07,1.08-1.07v-7.62l2.18,1.07,1.08,1.09h2.19l1.07,1.1v1.07l2.17,2.18h2.19l1.08,1.11v1.07l1.08,1.08v3.26h1.07v1.1l1.11,1.09h2.16v2.18l1.09,1.07,1.1,2.18H569l1.1,2.17,1.07,1.1h2.18l1.09,1.08,1.09,1.09h1.08l1.09-1.09v-4.35L578.8,583h1.09l1.1,1.09h1.08l1.09,1.08v4.36l-1.09,2.17,1.09,1.09V595h1.09l2.17-1.09h1.09l1.08-1.08,1.1-1.09,2.15,1.09H593l2.17,1.08,1.07,1.09,1.1,2.17v2.18l1.09,2.17v1.09l2.15,2.16,1.1,1.11,1.1,1.07,1.09,1.1v1.09l2.17,1.08h1.08l1.1,2.19,2.18,1.08h1.08l1.09,1.07h1.06l2.19,1.09,1.1,1.1,1.07,3.26,2.19,1.08,1.1,1.09,1.06,1.09,1.08,2.18,1.1,1.09,2.17,1.08,2.17,1.09h3.26l1.1,2.17,1.08,4.35,1.09,1.08,2.18,1.09,2.17,2.16,2.18,1.1h5.44l2.16,1.09h1.11l2.15,1.09h2.18l1.08-1.09h3.28l1.08,1.09V645l1.08,1.08h4.36l1.08,1.1H668l1.08-1.1h1.09l1.09-1.08,1.09,1.08h1.08l2.17-1.08-1.07,2.18-1.1,1.08v1.08l1.1,1.1,1.07-1.1,1.09-1.08,1.09,1.08,1.09,1.1v1.09l1.08,2.17,1.11,2.19,1.07,1.06,1.09,1.09,1.08,1.1v5.44h3.27l1.09,1.07h2.16v1.09l1.11,1.09H693l1.09,1.09h1.09v5.44l-1.09,2.18H693l-1.07,1.07h-3.27v1.09l-1.09,1.11v1.08l1.09,2.17,1.07,2.17,1.09,1.08h1.11l2.16-1.08h5.43v2.17l1.1,2.19,1.08,1.07v9.8l1.08,1.09,1.08,1.08v2.18l-1.08,3.25v1.09l-1.08,3.26v5.44l2.16-1.09v6.51h1.1L706,722.2v-1.09l1.08-1.1h2.19l1.07,1.1h-1.07v1.08h1.07l-1.07,3.26-2.19,2.19L706,729.8l-1.09,1.09V732l-1.1,1.09,1.1,1.09-1.1,1.09h-1.08l-1.08,1.09v1.09h-2.18l-1.1,1.09h-1.07l-1.09-1.09L694,736.33v2.18l1.1,2.17-1.1,1.08L693,740.68h-2.17v1.08l-1.1,2.17-1.06,2.19v5.42l1.06,1.1,2.2,1.08L693,754.8V757h-2.17v1.09l1.1,1.09-1.1,1.07-1.1,1.11-1.06-1.11-1.1-1.07L686.43,757l-1.08-1.07-1.09-2.19h-1.08l-1.09-1.08-1.08-1.1v-2.16l-1.1-1.08h-2.18l-1.08,1.08-1.09,1.07-1.07,1.09-2.19,1.1h-1.09L669,753.72H668l-1.09,2.19-1.08-1.11-1.09-1.08-1.08-1.08v-1.1l-1.1,1.1h-2.17l-1.08,1.08H656l-1.08-1.08h-1.09l-1.1,1.08v6.51l-1.07,2.19-1.08,1.08v3.27l1.08,2.17v2.18h-1.08l2.15,1.08v2.18h-3.26l1.11,2.18,1.08,1.08v1.1h-2.19v1.08l-2.16-2.18h-1.1v3.26l2.18,2.19h1.08l1.11-1.1,1.08-1.09h1.07v2.19l1.09,1.08,1.09,1.09H656l1.1-1.09V782l1.08-1.09h1.1v2.19l1.08,1.08h1.08l1.09-1.08,1.1-1.1h1.08v3.27h-1.08v1.08h-1.09v1.09h1.1l-1.1,1.08v1.09h2.17v-1.09h1.1v1.09l1.08,1.1v1.08l-1.08,1.08-1.1,1.1V795h1.1l1.08,1.08v1.09l-1.08,1.09-1.1,1.08,1.1,1.1v2.17l2.17,1.09-1.09,2.17h-1.08l-1.1,1.09-1.07-1.09V807l-1.1,1.08v3.26l-1.09,1.1h-3.27l-1.07,1.07v2.19l-1.1,1.07-1.08,1.08-2.19,1.1-1.07-1.1H647.3l-1.1-1.08v1.08l-1.08,1.1v2.19L644,824.39l-1.1,2.16-1.07,2.21-1.1,1.06h-1.08l-1.09-1.06-1.09,2.14-1.1,2.19-1.08,2.18h1.08l1.1,2.18-1.1,2.17-1.08,1.08,1.08,1.09L635.33,844v2.19l-1.09,2.15-2.17,1.09-1.09,1.1-1.07,2.16-1.1,2.2V857l-2.17,2.17-2.17,1.09-1.1,2.17-1.09,1.11v2.15l1.09,1.11h-2.14l-1.11,1.07L617.94,869v2.18L619,874.4v3.27l-1.09,2.17L616.86,882l1.08,2.17h2.2l1.1,1.09v2.17l-1.1,2.17h-4.36l-1.08,3.28-1.11,2.18v1.08h2.19l1.1-1.08L618,894h1.1v2.18l1.09,2.16v1.11l-1.09,1.08-1.1,1.1h-2.17l-2.19,1.07h-9.76l-2.19,1.1H589.69Z" style="fill:#f9f9b4;stroke:#a07600;stroke-miterlimit:10;stroke-width:3px"/><path id="map_background-4" data-name="map background-4" d="M426.61,672.19V671.1h-1.1l-1.1,1.09h-2.16V671.1h-2.19v1.09H419l-1.08-1.09V670h-1.09l-1.08-1.11L414.62,670l-1.07,1.07H409.2L407,672.19h-3.26l-2.18-1.09v-4.35l1.09-1.08v-2.18l-1.09-1.08v-3.27L400.5,657v-1.07l-1.1-2.18-1.08-1.08h-8.69l-1.09-1.09-1.08-1.11-1.1-1.1h-1.08l-1.09-1.07L383.12,645,382,643.92h-1.1l-1.09-1.09v-2.17l-1.09-1.1,2.18-3.26V632h-2.18l-1.08-1.1h-2.19l-1.07,1.1h-1.09V629.8l-1.09-2.17,1.09-2.17v-3.25l-1.09-2.2v-1.08l1.09-3.27,1.09-2.16v-3.26l-1.09-1.09-2.19-1.09L370.05,607v-4.37L369,600.45l-1.09-2.19v-1.07l-1.1-3.27-1.08-1.09-1.07-2.17-1.11-2.17V587.4l-1.08-2.18-1.08-2.17,1.08-2.16v-6.54l-2.17-2.16-1.08-1.09-1.09-1.1-2.18-1.09h-2.18l-1.08-1.07-2.17-1.1H344l-1.08-1.08h-2.19v1.08l-1.08,1.1h-1.09l-2.17-2.18v-2.17l1.09-1.09,1.08-2.18V558l-1.08-2.17-1.09-2.17-1.1-1.09-1.07-2.17v-3.27l1.07-3.27v-2.16l1.1-1.08-2.17-3.26v-2.19l-2.2-1.07v-2.2l-1.07-2.15v-1.1l1.07-1.08v-2.18l-1.07-1.09h-4.35v2.18l-1.08,1.09-1.1,1.08-1.09,1.1h-1.08l-1.08,1.06h-5.44v-1.07l-2.18-1.1v-2.17h-2.18l-2.17-1.09H307l-2.18,1.09h-4.35l-2.16-1.09-2.19-1.09v-1.09l-1.08-2.17-2.18-2.18-1.08-2.17-1.1-2.16-1.08-2.19-2.18-1.09-1.08-1.08-1.09-1.09L283.1,508H282l-1.07-2.19-2.19-2.17v-1.1h-3.26v1.11l-2.16,1.1h-1.09l-1.07,1.07v8.71l-1.1,2.16h-2.19l-1.07,1.09-1.1,1.08L264.61,520l-1.06,1.1v1.08l-1.09,1.09h-6.55l-2.16-1.09-1.09-1.08-1.1-1.1H249.4l-2.18-1.08h-1.08v4.35l-1.08,1.09h-3.28l-1.09,2.18v2.17l-1.09,1.09v1.07h1.09V533h-2.17v3.26h-1.09l-2.17,1.09-1.1,1.08-1.07,3.27V545l1.07,2.17,1.1,2.16,1.09,1.11v1.09l1.08,1.08v3.25L236.35,557V558l-1.09,1.09H230.9l-1.09,1.09-1.07,1.08-1.08,1.09-1.11,2.16h-1.08l-1.08,2.18-1.08,1.1v4.35h-2.18L220,571.1h-2.18l-1.08,1.08h-1.09l1.09,1.07H220v5.45l1.09-1.09h1.07l1.11,1.09-1.11,1.08L220,582,219,583l-1.09,1.09h-6.52l-2.18,1.09v4.36l1.09,2.16v7.61l1.09,1.09-1.09,3.26-1.09,1.09h-1.09L207,605.88h-4.35v-4.35h-2.2l-1.07,1.07,1.07,1.1-1.07,1.09V607h-4.33l-2.17-1.09-1.11-1.09v-3.26H190.7l-1.09,1.07h-1.09l-2.17,1.1h-1.1l-1.07-1.1h-1.1v1.1h-2.16v2.18l2.16,1.09L182,608.05v1.09h-1.08l-1.08-1.09L178.75,607h-1.09l-1.1-1.09-1.09-2.18H174.4v-1.1h-4.35v3.28l1.09,1.09v1.08l1.07,1.09v4.35l-1.07,1.08h-3.28l-1.08,1.08h-3.26v1.1l-1.08,1.08h1.08l1.09,2.17,1.1,1.08-1.1,1.11v2.18l-1.09,1.08h-1.08v3.25l1.08,2.17,1.09,1.1h2.17v2.17l-1.07,1.09-1.1,1.08,1.1,1.09h-2.19l-1.08,1.09-1.09,2.18v3.26h1.09l1.08,1.08,1.09,1.09,1.1,1.09,1.07,1.09v1.07H164.6l-1.09,1.09v3.27h1.09l1.1,1.1,1.07,1.09h1.08v2.15H165.7v1.1l1.07,1.1v1.08l-3.27-1.1h-1.08l-1.09,1.09v2.16l1.09,1.09,1.08,1.08,1.1,1.08h1.09l1.07,1.09,1.08,1.09,1.1,2.18v4.35l1.09,1.08,1.09,1.08,1.08,1.1,1.08-2.18h1.11v-1.08l1.07-2.17,1.09-1.09,1.09,2.17v2.17l1.09,1.08H182l1.09-1.08h2.17l-1.07,2.18v1.09l1.07,1.08v2.18H182l-1.08,1.07-1.08,2.19,1.08,1.07h3.27l1.07-1.07h2.18l1.09,1.07v1.11h-1.09l-1.08,1.08-1.1,2.17v2.17h1.1l2.17,1.09,1.09,2.16v2.21h-1.09l-1.09-1.1-2.18-1.11-1.07-1.08-1.1,1.08v3.28h1.1l1.07,1.09v1.08l-1.07,1.09v1.09h1.07V707l-2.17-1.11V707L182,709.12h7.61l2.16,1.11h2.19L195,711.3l1.08,2.17v16.31l-2.17,1.09h-1.08V732l-1.1,2.19v8.7l-1.08,1.07v2.2H195l1.09-1.09,1.09,1.09v1.07l1.08,1.09,2.16,1.09,1.1,1.07v2.19l1.09,1.09,2.17-1.09,2.19,1.09h8.69v6.51l-1.09,1.09-1.09,2.18v2.18l1.09,1.08,1.09,1.07v1.09l1.09,2.2h1.08l1.09,1.06,1.09,1.1v1.09l2.16-1.09h3.27v4.35l1.08,1.09h1.11l1.08-1.09v-1.08l1.07-2.18,2.2,1.09v4.36h3.25v3.25l-1.1,2.17v1.09l1.1,1.09v5.44h2.17l1.09-1.08v-1.08l1.08-1.1v-1.07l1.09-1.08h1.09l1.08,1.08v1.08l1.09,1.1h3.26l1.09,1.09,2.19,1.08,2.17,1.1h7.6l1.09,1.08h1.1V794l1.09-2.18,1.06-1.09,1.1-1.1h2.16v3.25L269,794h1.09l1.1,1.08,1.07,1.09,1.1,1.08,1.07,1.09v1.1h5.45l1.08-1.1h3.26v1.1h1.09l1.08,1.09,1.09,1.07h-2.17l-1.09,1.1v1.08l1.09,3.26v1.08l1.08,1.1h1.09l2.18-1.1h3.25v2.17l1.09,1.09v1.09h7.62l1.08-1.09,2.17,1.09h6.52l1.1-1.09,1.07-1.09,1.09-1.07,1.1-1.11V807l-1.1-3.26v-2.19l1.1-2.16v-1.1l1.08,1.1,1.08,1.09,1.09-1.09h1.09l1.1-1.1,2.15-1.09,2.19-1.08,1.08,1.08,2.17-1.08,1.09,1.08,1.1,1.09,1.06,1.1v2.16l-1.06,1.1v2.16H332l1.1-1.08,1.1-2.18h3.26l2.17,1.1h1.08l2.19-1.1H344v-1.07l1.08-1.09v-2.19L344,796.11,341.79,795l-1.09-1.08v-7.62l1.09-1.09,1.1,1.09H344v2.18h1.08l2.19,1.08,2.14,1.1h2.21l1.07-1.1,2.18-1.08,2.16-2.18h5.44l1.08,1.09v2.17l-1.08,2.18,1.08,1.08v7.63l1.11,1.07v1.1l1.07,2.16H369l1.07-1.08h1.09l2.19,2.17h1.09v3.28l1.06,2.16,1.11,1.09v4.36l-1.11,1.09V819l1.11,1.09,1.09,1.09,1.07,1.09-1.07,1.08-1.09,1.08h-1.11l-2.15,1.1v1.09l-1.09,1.08V832l1.09,1.09h1.09l1.06,1.09v3.27h-2.15v2.17h1.09v2.17l-1.09,1.08L372.24,844h-4.35l-1.1,1.09-1.08,1.09,2.18,1.09H369l1.07,1.09v1.07l1.09,1.1v1.09h5.46l1.08,1.07v1.11h1.08V857l-2.16,1.09,1.09,1.09,1.07,2.16v2.2l-1.07,1.08V869l1.07,1.08,2.18,1.08,1.1,1.09h3.25l1.08,2.18v1.09h2.18l1.09,1.09h1.09v1.08h1.08v5.43l2.17,1.1,1.09,2.17,1.09,1.07,1.09,1.1,1.09,1.1v1.09h1.08v1.07h1.1v-5.43l1.08-1.08H406l2.17-1.09,1.09,1.09,1.08,2.15v4.36l1.08,2.19,1.1,1.08v1.08l1.09,1.09,1.07,1.11,1.11,2.16,2.17,1.09H419l1.08-1.09h1.09v-2.16h1.09l1.08-1.11,1.09,1.11v1.07l1.1,2.18,1.08,1.08h2.16l1.1-1.08L431,900.5l1.08-1.09h5.43l1.09,1.09h1.1l1.08,1.09,1.08,1.08,1.1-1.08L444,900.5h1.1l1.07,1.09h1.09l-1.09,1.08v1.09l2.19,1.08,2.17,6.53,2.17,2.17,2.17,3.26,2.19,1.09V919l1.08,1.1,3.26,1.09,1.08,1.08h1.08l1.09-1.08v-1.09h1.1l2.16-1.1v-3.26L469,916.8h1.08l1.08,1.09,1.1,1.08v1.1h2.18l2.15,1.09,1.08,1.08H482v1.09l1.09,1.08,1.08,1.08,2.19-1.08v-3.26h1.08l1.08-1.09h1.1l1.07,1.09,1.1,2.18,1.09,1.08,2.16,2.18v1.08l2.19,1.07,1.07,1.12h1.09l1.11,1.07v2.17l1.07,1.09,1.09,1.09,1.08-1.09H506l1.09-1.09h3.26l1.09,1.09h1.08l1.09-1.09-1.09-2.17v-1.07l1.09-1.12v-1.07h1.1l1.09,2.19h1.08v1.07l1.09,1.1,1.08-1.1h2.18l1.08-1.07v-1.12l-1.08-1.07v-1.08h1.08v-1.1h1.1v-1.08h3.25l1.08,1.08h1.09v1.1H531v1.08h-2.18l1.09,1.07H531l1.09,1.12,1.09,1.07,1.08,1.1h1.09l1.09,1.08,1.09,1.08h4.35l1.08-1.08,1.07-2.17,1.12-1.08,1.08,1.08,1.06,1.09-1.06,2.17,1.06,1.08,2.19,1.11,1.09-1.11v1.11l1.08,1.06-1.08,1.1,1.08,2.17,2.19-1.08h3.24l2.2-1.09h6.5l1.1,1.09,1.09,1.08,5.43,1.09H581l2.17,1.08,1.09-1.08v-1.07l-2.19-1.08v-1.09h4.35l1.09,1.09h2.18v1.08l2.17,1.09,2.18,1.08h1.08l3.27-1.08-1.09-1.09v-1.08l-1.09-1.09-1.08-2.17L594,935.3l-1.09-3.25v-3.29l-1.09-1.07-1.08-1.08-1.08-1.1-1.1-1.08-1.09-1.08h-2.17l-1.07-1.09,1.07-2.17-1.07-1.1-1.1-1.08v-1.09l-1.09-1.09L581,914.64h-1.1v-2.16h-1.09l-1.09-1.1h-2.17l1.1-1.09V909.2h2.16l1.09-1.07h2.17l1.1-1.08,1.09-1.1h-2.19v-1.09L581,903.78v-1.09h1.07l2.19,1.09h5.43v-1.09l-1.09-1.08-1.09-1.09h-3.25l-1.09-2.17v-1.1l-1.1,1.1-2.17,1.08-2.17,1.09v-2.17l1.08-1.1,1.09-1.09v-1.08L581,894l-1.1-1.09L578.81,894l-1.08,1.09h-1.07l-1.1,1.08-1.09-1.08h-1.09l-1.08,1.08h-1.08l-1.09-1.08L569,894,568,892.9l-1.09-1.09v-1.07l1.09-1.09h3.27l1.08-1.1,1.08-1.1v-1.08H572.3l-1.08-1.07-1.09,1.07H568V885.3l-1.09-1.09-1.09-1.1-1.1,1.1h-1.06v1.09l-1.11,1.07v1.08l-1.09,1.1h-1.08v-4.33h1.08l1.09-1.09h1.11l1.06-1.09h2.19l1.09,1.09H569l1.1-1.09L569,881H568v-1.1l1.08-1.09h1.1l1.09-1.08v-3.28l-1.09,1.09-1.1,1.09H568v1.08h-1.09l-1.09-1.08V875.5l-1.1-1.09v-1.08h2.19V869l-1.09-1.09-1.1-1.08v4.32l-1.06-1.08L562.5,869v-1.1h-2.17l-1.07,1.1H554.9V865.7H556l1.08-1.07h1.09l1.11-1.09H556v-1.1l-1.08-1.09h-1.08l-1.1-1.07,1.1-1.09-1.1-2.19-1.09-1.06v-1.1h-1.08l-1.09,1.1h-4.32V857H544v-3.25l-1.07-1.1-1.08,1.1h-3.27l-1.08-1.1v-4.33h-3.27v2.19l-1.08,1.08h-1.09L531,850.51v-1.1h-5.42v-2.16h1.09l1.09-1.09-1.09-1.09-1.09,1.09h-1.08V844h1.08l1.09-1.09v-5.42l-2.17-4.36-2.18-3.26h-1.08l-1.1-1.08H519v-1.09l1.08-1.08v-1.09H519v-1.1h-3.28l-1.09,1.1v-2.18h-2.18v-1.09h-2.17l-1.09-1.08,1.09-1.09L511.4,819h3.26l1.09-1.09-2.19-1.09-1.08-1.08v-3.27h-1.06l-1.08,1.08v2.18l-1.09,1.08h-1.09v-4.34H506l-1.09-1.09v-1.09h4.36V809.2h-1.09l-1.09-1.11V807l-1.09-1.1-1.09-1.09h-1.08v-3.26l-1.09-1.07v-4.37h2.17L506,795v-2.19h-1.09l-1.08-1.08h1.08l1.09-1.08h-2.17v-1.1l1.08-1.08H506l-1.09-1.08h-1.08l-1.09-2.18v-4.36l-1.09-2.17v-2.17l-1.07-1.09-1.1-1.08-1.09-1.09-1.08-1.1v-1.06l1.08-1.11v-1.09l1.09-2.16,1.1-1.08,2.16-2.19v-2.17h-4.36l-1.07-1.1-1.08-1.08-1.11-1.08H494l-2.15-2.18h-1.11l-1.07-1.09v-2.16h-3.26l-1.1-1.11h-2.17L481,750.45h-1.07l-1.07,1.08-3.27,2.2-1.08,1.07-1.1-1.07v-3.26l-1.08-2.17v-2.16l-1.1-1.09-1.08-1.1H469l-2.18-1.07h-3.28L461.4,744h-3.26l-1.08-1.07v-2.21L456,738.5v-1.08l-2.17-1.1-1.09-1.08-2.18-1.09v-6.52l1.09-1.09v-2.18h-1.09l-1.08-1.09V720l2.17-1.09,1.09-1.08-2.18-1.09v-2.19l-1.08-1.08v-1.08h-2.18l-1.1,1.09-1.07,1.08-2.17,1.09-1.1-1.09-1.08-1.08-1.09-1.09v-2.16l1.09-1.1V707h-1.09l-1.09-1.11H436.4l-1.09-2.15v-3.27h-1.08v-1.07l-1.1,1.07h-1.08v2.17h-2.18v-1.08h-1.09l-2.17-1.09h-2.18l-1.08-1.07,1.08-1.09V695l-1.08-2.17-1.08-2.19V689.6l-1.1-1.09-1.09-1.1v-8.69h2.19l1.08-1.09h3.26V672.2Z" style="fill:#f9f9b4;stroke:#a07600;stroke-miterlimit:10;stroke-width:3px"/><path id="map_background-5" data-name="map background-5" d="M756,767.86l-2.16-1.09-1.11-1.08-2.18-1.09h-5.41l-1.1,2.17-1.1,1.09-2.15,1.08L739.73,770h-3.27l-1.09-1.09-1.08-3.25-2.18-2.18L731,762.43l-1.09-2.19-1.08-2.17-1.09-2.16-2.17-1.11h-5.44L718,753.71h-2.17l-1.09-1.07-2.17-1.1v-1.08l-1.09-2.16-1.08-1.1v-1.07h1.08l1.09,1.07,1.09-1.07,1.08-1.11v-2.16h2.19l1.07-1.1v-1.08l-1.07-2.17L718,737.4v-2.16l1.1-1.09v-1.09L718,730.9l-1.07-2.18v-1.09h-1.1l-1.09-2.18h-1.08l-3.26-1.09v-2.17H709.3v-1.08h1.08L709.3,720h-2.19L706,721.11v1.08l-1.1,1.08h-1.09v-6.51l-2.17,1.09V712.4l1.09-3.25v-1.1l1.08-3.26v-2.18l-1.08-1.07-1.09-1.08v-9.81l-1.08-1.08-1.1-2.18v-2.17h-5.43l-2.16,1.08H690.8l-1.08-1.08-1.09-2.17-1.09-2.18V679.8l1.09-1.09v-1.09h3.27l1.07-1.07h1.09l1.09-2.18v-5.45h-1.09L693,667.85H691.9l-1.11-1.1v-1.08h-2.16l-1.09-1.08h-3.27v-5.43l-1.08-1.1L682.1,657,681,655.89l-1.1-2.16-1.09-2.19v-1.08l-1.09-1.1-1.09-1.09-1.09,1.09-1.07,1.1-1.09-1.1v-1.09l1.09-1.07,1.07-2.18v-1.09l-1.07-2.17v-1.1l-1.09-1.08V637.4l1.09-1.08,1.07-1.08v-1.08h-2.16v-2.22l2.16-1.1,1.09,1.1h1.09V633H681l1.07-1.09h1.09v-2.17h3.26l1.09,1.08,1.09,1.09L690.8,633l1.1,1.1,1.07,1.08h2.19l1.08-1.08h2.18l1.08,1.08h1.1v-3.27l1.08-2.17,1.09-1.08,2.17,1.08H706l1.08-1.08h1.08l1.11-2.19v-1.07l1.08-1.09-1.08-2.19v-13l1.08-1.09h1.08l1.09-1.1V608l1.09,1.09,1.07,1.08,1.1,1.09H718l1.1-1.09,1.08-1.08v-2.19l1.09-1.08,1.09-1.09v-1.07l-1.09-3.25,1.09-1.1v-1.09l1.09-1.08-2.18-1.09L719.07,595H715.8v-3.25l-1.09-1.09h-1.08l-2.18-1.08-1.08-1.09V587.4l-1.08-1.1V583l-1.1-1.09H706l-2.19-1.08-1.08-1.1V578.7l1.08-1.09v-2.17l-1.08-2.18h-1.09l-1.08-2.17v-4.36l-2.18-2.17h-1.08l-2.18-1.08-1.09-1.08H693l-1.07-1.09,1.07-1.1h1.09l1.09-1.09,1.08-1.08,1.1-1.09h-1.1l-1.08-1.09v-1.09l1.08-1.07h1.09v-1.09h-3.27L693,554.77l-1.06,1.09L690.79,557h-3.26v-1.12l-1.09-1.09v-1.06l-1.08-1.1v-1.07l-1.1-2.18v-3.26l1.1-1.08-1.1-1.09,1.1-1.1,2.17-2.17v-1.09l-2.17-1.1,1.08-1.08h1.09l1.09-1.07,1.09-2.17h2.19l1.06,1.07h1.09l1.1,1.1h3.26l1.08-1.1,2.18-2.17h2.17l1.09,1.1h2.17l2.19,1.07h3.25l1.09-1.07,1.08,1.07,2.19,1.1H718l1.1,1.07-1.1,1.08-2.17,1.1-1.09,1.09-1.08,1.08v1.09h-2.18l1.09,2.19,1.09,1.09,1.08,1.07v1.1l-1.08,1.08v3.27l3.27,2.16,2.17,1.09h1.08l2.17-1.09,1.09-1.06,1.07-1.1,1.11-1.09,1.09-3.26h1.09v5.44l2.17,1.07,1.09-1.07,1.08-1.1v-2.16H731l-1.09-1.1v-1.08l1.09-1.1v1.1l1.08,1.08,1.08-1.08,1.1,1.08,1.09,1.1h1.09v-4.36L735.38,545V542.8l1.09-1.1v-1.07l-1.09-2.19-1.09-2.15-1.1-1.11v-1.07L732.11,533l1.08-1.09v-1.08l-1.08-3.26v-3.26h3.27v-1.1l-1.09-1.08V520h1.09l1.09-2.17h1.07v1.09h1.1l2.18-1.09,1.07-1.09h-1.07l-1.09-1.09-1.09-1.07v-1.11H743l1.1-1.1,1.1-1.07h2.15l1.1-1.09V508l-1.1-1.08h-1.09l-1.06-1.09-1.1-1.07,1.1-1.12,1.06-1.07,1.09,1.07v1.12l1.1,1.07h2.15v3.27h1.1l1.09-1.1h1.1l1.07-1.08,1.09-1.08v-1.08h2.18v1.08h1.06l1.11-1.08h5.44v-2.19l-1.09-1.08-1.1-1.1-1.07-1.09-1.08-1.09h-1.1l-1.11-1.07-1.06-1.1v-2.17l2.17-1.08v-2.17l1.1-1.09-1.1-1.09h-1.11l-1.06-1.09v-1.09l1.06-1.09-1.06-1.08V483l-1.1-1.08L756,480.84l-1.09-1.08-1.07,1.08v3.26h-2.19L750.58,483h-2.15v1.09l1.07,1.08,1.08,1.1v1.09H749.5l-1.07-1.09-1.1,1.09v3.26h-1.09l-1.07-1.09v-1.09l-1.1-1.08-2.19-1.09-2.16-1.1V483H743v-1.08h-1.09l-1.07-1.09h-1.09v-1.08h2.16v-2.18H743v1.08l1.1,1.1,1.1,1.08h5.41l1.1-1.08h1.08l1.11-1.1,2.16-2.18,1.08-1.09V474.3L756,472.14v-1.09L754.94,470l-1.07,1.08-1.11,2.18-1.08,1.07h-1.1l-1.08-1.07-1.07-2.18V470l-1.1,1.08v1.09l-1.09,2.16v1.1l-1.07,1.08V475.4h-1.09v-3.26h1.1v-1.09H743v-2.17H741.9l-1.07-2.17V465.6l1.07-1.08-1.07-1.08v-6.53l1.07-3.26,1.08,1.09,1.1,1.09v-1.09l1.1-1.09v3.26h2.16v-2.17l-1.09-1.09,1.09-1.08h1.1v-1.08l1.07-1.11h1.08l1.1-1.07h-3.25v-1.08l-1.1-1.1v-1.08h2.18v-2.18h3.25v3.26h1.11v-1.08L755,445l1.09-1.09h3.24V445l-2.17,1.09v1.08h2.17l1.11,1.1v2.15h5.44v-2.15h1.06l1.1-1.1,1.08-1.08,1.11-1.09v-1.09l-1.11-1.08h-3.24l-2.19-1.09h-1.07l-1.08,1.09h-2.21V441.7h-2.17L756,440.61,755,439.54l1.09-1.09h1.07l1.1-1.11-1.1-1.07v-1.09h2.17v2.16l1.11,1.1v1.09h2.18l1.07,1.07,1.1-1.07v-1.09h1.09v-2.18h-1.09l-1.1-1.08L761.49,433v-3.27l-1.1-2.17h-1.11l-1.06-1.08v-1.09l1.06-2.18V416.7l2.21,1.08h1.08l1.07,2.16,2.19,1.1,1.06,1.1H768l2.19,1.07,1.08-1.07h5.4V416.7l1.1-1.1,1.07-2.16h1.11v2.16l1.07,1.1v1.08h1.1l1.09-1.08v2.16l-1.09,1.08h-2.17V421h3.26v-1.1l1.07,1.1h1.1l-1.1,1.09-1.07,1.08-1.09-1.08h-2.17v2.17l1.07,1.09,1.1,1.09v1.08l1.09-1.08h2.17v1.08h-1.1l-1.07,1.08H781l-2.18-1.08-1.07,1.08-1.1,1.09,1.1,1.11,2.18,2.16h2.17v2.18H781v3.26l1.1,1.09,1.09,2.17,2.17,2.17,1.08,1.09L788.6,446l2.21,1.08h-1.09l-1.12,1.1-2.15,1.08-1.08-1.08-2.17,1.08L781,450.38v2.19l1.1,1.08h2.16l1.1-1.08h1.08l1.1,1.08,1.05,1.08,1.12,1.09,1.09,1.08h3.25l1.09-1.08v-5.44l1.07-1.07h1.1v1.07h1.1v1.11l1.08,1.08v3.26h2.18l1.08-1.09h2.18l2.18-1.09h2.17l2.17,1.09,1.09,1.09,2.18,3.26,1.09,2.17v2.19l1.07,1.08,2.19,1.08h1.09l1.07,2.17,1.09,2.19v2.17l-2.16,2.17-1.09,2.17-2.19,2.18v2.18h4.35l1.09,1.09L823.4,483h1.11l2.17-1.08H830L831,483v1.09L830,485.18v2.19H831v1.08H830l-1.09,2.18v3.25L830,495l1.07-1.08,1.11-1.08,1-1.09h1.11l1.09,1.09V495l-1.09,1.09v1.1l-1.11,1.07h2.2v2.18h1.1v4.37l1.08,1.08v1.08L836.48,508h-4.35l-2.18,1.1v1.08l1.07,1.09,1.11,1.07v1.1H831l-1.07,1.1h-2.17l-1.1,1.08-1.08,1.08v2.18l1.08,1.09v-1.09h1.1v-1.08l1.08-1.1h3.27v2.18h1V520l1.11-1.09v-2.18l1.09-1.08h1.1l1.08,1.08V520l-1.08,1.07v1.1l-1.1,1.08-1.09,1.1v2.18h-1.11l-1,1.08v1.09h2.16l1.09-1.09,1.1-2.18,1.08-1.08,1.07-1.1v-2.18l1.09-1.07v-3.27l1.08-1.08v-1.08l1.1,1.08H843v2.18l1.11,2.17,1.08,2.17,1.1,2.18,1.08,1.08-2.18,1.1v1.08l1.1,1.09,1.08,2.17,1.09,2.17-1.09,1.1v3.24l-1.08,2.18v1.09h-2.18v1.08l1.08,2.19,1.1,1.09,2.16,2.16h3.27l1.09,1.1h1.08l1.1-1.1-1.1-1.08V543.9l-1.08-1.1v-3.25l-1.09-1.1,1.09-1.08v-3.25l1.08-1.1,1.1-1.09L856,533l1.1,1.1,1.07,1.07,1.1,1.1v5.42l1.07,2.19h1.1l1.08,1.09h1.1l1.08,1.09,2.19,1.07,1.07,1.1,1.09,1.08h2.18v1.1l1.09,1.08-1.09,1.09-1.08,1.1H868l-1.07,1.06h-4.35l-2.18-1.06-2.17,1.06h-1.08L855,555.85l1.07,1.09V558h1.1l1.08,1.08v1.09l1.1,1.1v2.17l1.07,1.08v1.09h-2.17l-1.08-1.09-1.1-1.08h-2.17l-1.07-1.08h-1.1l-2.17,1.08v4.34H856l1.1,1.09v2.18h1.08l1.09-1.09,1.07-1.09h6.55l3.26-1.09,2.17-1.09h4.32l2.2,1.09v1.09L877.77,570l-1.09,2.18-1.07,3.26v3.27l-1.09,1.07-1.09,1.1L871.26,583l-1.08,1.08-1.1,1.09-2.17,3.27-1.09,1.09-1.09,2.17-1.08,1.09-2.18,1.08-1.1,2.18-1.07,1.09v2.16l-2.18,2.18-1.1,2.17L855,604.78l-1.09,1.09V607l-1.08,1.1,1.08,1.08v2.17l1.09,1.08-1.09,2.17v6.54l1.09,1.07-1.09,1.09-1.08,1.1-2.2,2.16-1.06,1.1-1.1,1.09L847.33,632l-2.17,3.27,1.1,1.08,1.07,1.08h2.19v1.1l1.06,1.07v1.09l1.11,1.09v5.45h1.09v2.16l1.08,1.1v3.27L856,657v2.18l1.1,4.34v1.1l-1.1,1.08v3.25L855,670l-1.1,2.19-2.17,2.17-1.11,1.09-1.06,1.09,1.06,1.07V682l1.11,2.17v2.17l2.17,2.18,2.17,1.09h4.34l1.1,1.08v1.1h1.08v2.16l-1.08,3.25-1.1,1.09v3.28l1.1,2.17,1.08,2.16,1.1,1.09,1.08,1.09,1.09,1.09,1.1,4.35v1.08l1.07,1.08,1.09,1.1h1.1v1.09h1.08v1.08l1.09,2.18v1.08l1.08,1.08v2.18l1.09,1.1v2.17l1.09,3.25,1.08,2.18v8.71l-1.08,3.26-2.18,4.33v3.25l-1.08,2.2,1.08,1.08v4.35l-1.08,1.09v3.26l-1.09,1.08-1.08,1.09-1.1,1.08v8.7L868,778.71h-1.07v1.1h-2.19l-1.08,1.09-1.1,1.09v1.08l1.1,1.09v1.09l1.08,4.33,1.09,1.11v6.51l-1.09,1.08-2.18,2.18,1.1,1.09v3.25l-1.1,1.09h-1.08v10.86l1.08,1.08V820l-1.08,1.07-1.1,2.19-2.17,2.17-1.07,2.19v1.09L855,830.89l-1.1,1.1-1.08,3.25-1.09,2.2v3.24l-1.11,3.26V845l-1.06,1.08L847.33,845H841.9l-2.18-1.1-2.17-1.09-1.07-1.08-2.19-1.09-2.17-2.17H831l-2.16-1.07-2.17-1.1h-4.35v1.1l1.07,1.07h1.11v1.08l1.08,1.09v2.17l-1.08,1.09V845h2.17v1.07h1.09l1.08,1.09v5.44l-1.08,2.17v3.27l-1.09,2.17-1.09,1.09-6.52,2.18-2.19-1.09H813.6l-1.06,1.09-1.09,1.09-2.17,1.08v-1.08l1.09-1.09v-1.09l1.08-1.09,1.09-2.18,1.06-1.08L812.54,857l-2.17,1.09h-1.09L808.2,857v-3.25H806l-1.07,1.07h-8.72l-2.16,1.1-1.08-1.1H790.8l-1.09,1.1-1.12-1.1v-1.07l-1.05-1.1v-1.09l1.05-1.09,1.12-1.08v-1.09l1.09-2.18L789.71,845l-1.12-2.19h-2.13l-2.17,1.09h-1.07v-1.09l1.07-1.08,1.09-2.18h1.08l1.1-2.16,1.06-1.1,1.11-3.26,1.09-3.27v-3.26l1.09-2.16,1.08-3.27L791.91,820l-1.09-2.2h-1.09L786.46,819V820L785.39,819h-2.17l-1.1,1.09H781L780,819l1.08-1.11V814.6l-2.19-2.17-2.17-1.1-1.07-1.09V805.9h10.86l1.1-1.1,1.06-2.16v-1.09l-1.06-1.09-2.17-1.09-2.17-1.09-1.1-1.08,1.1-1.1h-1.1V795L781,794v-3.26l1.09-1.11,1.1-1.08h1.07l1.1-1.08,1.07-1.09v-1.09l2.16-1.08L786.46,782h-2.17l-1.07,1.08h-5.45L775.6,782h-2.16l-1.11-1.09-1.08-2.19h-1.08l-1.11-1.08h-2.18l-2.15-1.08-2.18-1.08-2.18-1.1v-2.19l-1.1-1.07L758.21,770,756,767.84l-2.16-1.09-1.11-1.08-2.18-1.09h-5.41l-1.1,2.17-1.1,1.09-2.15,1.09L739.73,770h-3.27l-1.09-1.08-1.08-3.25-2.18-2.19L731,762.41l-1.09-2.19-1.08-2.16-1.09-2.17-2.17-1.11h-5.44L718,753.69h-2.17l-1.09-1.06-2.17-1.1v-1.09l-1.09-2.16-1.08-1.1v-1.07h1.08l1.09,1.07,1.09-1.07,1.08-1.11v-2.16h2.19l1.07-1.1v-1.08l-1.07-2.17,1.07-1.1v-2.16l1.1-1.09V733l-1.1-2.16-1.07-2.18v-1.09h-1.1l-1.09-2.17h-1.08l-3.26-1.09" style="fill:#f9f9b4;stroke:#a07600;stroke-miterlimit:10;stroke-width:3px"/><path id="map_background-7" data-name="map background-7" d="M551.53,940.72l2.19-1.08H557l2.19-1.08h6.51l1.09,1.08,1.1,1.08,5.42,1.1h7.61l2.18,1.07,1.09-1.07v-1.1L582,939.64v-1.08h4.36l1.08,1.08h2.19v1.08l2.15,1.1,2.19,1.07H595l3.27-1.07-1.1-1.1v-1.08l-1.09-1.08L595,936.38l-1.08-1.1L592.86,932v-3.28l-1.11-1.08-1.07-1.08-1.08-1.09-1.1-1.08-1.08-1.08h-2.19l-1.08-1.1,1.08-2.17-1.08-1.1-1.09-1.08v-1.08L582,915.72l-1.08-1.09h-1.1v-2.16H578.7l-1.08-1.09h-2.17l1.09-1.1v-1.09h2.16l1.09-1.06H582l1.1-1.11,1.08-1.08H582v-1.09l-1.08-1.07v-1.1H582l2.18,1.1h17.38l2.2-1.1h9.75l2.19-1.09h2.17l1.09-1.07,1.09-1.09v-1.11l-1.09-2.17V894h-1.09l-1.07,1.09-1.1,1.07h-2.19v-1.07l1.12-2.19,1.08-3.25H620l1.1-2.19v-2.16l-1.1-1.1h-2.19L616.77,882l1.07-2.18,1.1-2.17v-3.26l-1.09-3.29V869l2.18-1.09,1.11-1.07h2.14l-1.07-1.1v-2.18l1.07-1.09,1.1-2.17,2.17-1.09,2.19-2.17v-2.18l1.08-2.17,1.07-2.17,1.09-1.09,2.18-1.08,1.09-2.19V844l1.09-2.19-1.09-1.07,1.09-1.09,1.08-2.17-1.08-2.18h-1.09l1.09-2.18,1.08-2.17,1.09-2.17,1.09,1.08h1.08l1.1-1.08,1.07-2.18,1.1-2.18,1.08-3.26V819l1.08-1.11v-1.08l1.1,1.08h4.35l1.08,1.11,2.18-1.11,1.08-1.08L657,815.7v-2.19l1.07-1.08h3.26l1.09-1.08v-3.28l1.1-1.07v-1.1l1.08,1.1,1.09-1.1h1.08l1.09-2.17-2.17-1.07v-2.17l-1.09-1.11,1.09-1.07,1.08-1.09v-1.09L665.7,795h-1.09V794l1.09-1.1,1.08-1.08v-1.1l-1.08-1.08v-1.08h-1.09v1.08h-2.18v-1.08l1.1-1.09h-1.1v-1.09h1.1v-1.08h1.08V782h-1.08l-1.1,1.09-1.09,1.09h-1.08l-1.08-1.09v-2.18h-1.1L657,782v2.18l-1.11,1.08h-1.08l-1.09-1.08-1.09-1.09v-2.18h-1.07L650.49,782l-1.11,1.09H648.3l-2.18-2.18v-3.25h1.1l2.16,2.17v-1.09h2.19v-1.08l-1.08-1.09-1.11-2.18h3.26v-2.18l-2.15-1.07h1.08V769l-1.08-2.17v-3.26l1.08-1.08,1.07-2.19v-6.51l1.1-1.09h1.09l1.07,1.09h3.28l1.08-1.09h2.17l1.1-1.1v1.1l1.08,1.09,1.09,1.06,1.08,1.11,1.09-2.17H669l2.18-1.09h1.08l2.19-1.1,1.07-1.09,1.09-1.08,1.08-1.09h2.18l1.1,1.09v2.17l1.08,1.1,1.09,1.09h1.07l1.1,2.17,1.08,1.07,1.09,2.19,1.1,1.08,1.06,1.09,1.1-1.09,1.1-1.08-1.1-1.09V757h2.18v-2.17l-1.08-1.07-2.2-1.09-1.06-1.1v-5.42l1.06-2.19,1.1-2.16v-1.1h2.18l1.08,1.1,1.09-1.1L694,738.52v-2.19l2.18,1.1,1.09,1.09h1.07l1.1-1.09h2.18v-1.1l1.08-1.08h1.08l1.1-1.08-1.1-1.1,1.1-1.09v-1.07l1.08-1.09,1.08-2.18,2.2-2.18.47-1.4.6.31,3.27,1.09h1.07l1.09,2.18h1.1v1.09l1.08,2.18,1.08,2.16v1.1l-1.08,1.08v2.18l-1.08,1.09,1.08,2.16v1.1l-1.08,1.09h-2.19V745l-1.06,1.09-1.09,1.08-1.1-1.08h-1.08v1.08l1.08,1.08,1.1,2.17v1.09l2.15,1.1,1.09,1.09h2.18l2.18,1.07h5.44l2.17,1.1,1.08,2.17,1.1,2.17,1.09,2.19,1.07,1.08,2.18,2.18,1.09,3.25,1.08,1.08h3.27l1.08-1.08,2.18-1.09,1.09-1.08,1.08-2.17h5.42l2.18,1.08,1.09,1.09,2.18,1.08L758.1,770l1.07,1.11,1.1,1.07v2.18l2.18,1.09,2.18,1.09,2.15,1.08H769l1.09,1.08h1.08l1.08,2.18,1.1,1.09h2.16l2.19,1.09h5.43l1.07-1.09h2.18l2.15,2.18-2.15,1.08v1.08l-1.08,1.09-1.1,1.08h-1.07L782,789.6l-1.09,1.08V794L782,795v1.08h1.09L782,797.21l1.09,1.09,2.17,1.07,2.18,1.11,1,1.08v1.1l-1,2.16-1.1,1.09H775.5v4.35l1.09,1.09,2.15,1.09,2.2,2.17v3.25l-1.07,1.1,1.07,1.09H782l1.1-1.09h2.17l1.08,1.09V819l3.28-1.1h1.07l1.09,2.19,1.08,1.07-1.08,3.26-1.09,2.18v3.26l-1.07,3.26-1.13,3.27-1.06,1.09-1.09,2.18H785.3l-1.1,2.16-1.07,1.08V844h1.07l2.18-1.1h2.15l1.13,2.19,1.07,1.08-1.07,2.19v1.07l-1.13,1.09-1.06,1.09v1.08l1.06,1.11v1.07l1.13,1.1,1.07-1.1h2.18l1.07,1.1,2.17-1.1h8.72l1.1-1.07h2.17V857l1.09,1.09h1.08l2.17-1.09,1.06,1.09-1.06,1.08-1.09,2.17-1.08,1.09v1.09l-1.08,1.09V869h-1.09l-1.08,1.08L806,871.12l-1.1,1.1-2.16,1.1-1.1,1.08-2.18,1.09v1.09l1.08,1.09v1.08l1.09,1.08,1.1,2.19v1.09l1.06,1.07v2.19l1.11,1.07,1.1,1.09v3.27l1.08,2.18v1.09l2.18,3.25v5.45l1.08,2.17v2.19l1.08,1.06,2.15,1.09,1.13,2.18v2.17l1.08,1.09-1.08,2.17L813.54,919l-1.06,3.27v2.18l-1.09,1.08v2.17l1.09,2.2,1.06,2.16v1.09l1.13,2.16h-1.13l-2.15,2.17v1.11l-1.08,1.08-1.08,1.08-1.09,1.09h-9.8l-3.28-1.09-2.17,1.09h-2.18l-2.2,1.08-1,2.17-1.1,2.18v1.09l-1.08,3.26-1.1,2.16-1.06,2.18L782,957l-1.09,1.09v1.1l-1.08,1.07-1.12,1.1v1.08l-1.06,2.19-1.09,1.09v2.17l1.09,2.17-1.09,1.08v3.28l-1.09,1.08-2.16,1.09v2.17l-2.19,1.07L769,983.12l-1.1,1.09-2.18,3.27v2.16h-1.08v10.88l1.08,4.35v1.1l-2.17,3.24-1.09,1.09v1.09l-1.08,1.08-1.09,2.19v3.26l1.09,1.09,1.08,2.17,1.09,1.09,1.09,1.07,1.08-1.07h1.07v6.52l1.11,3.27v5.4l-1.11,1.1-1.07,1.09h-2.17l-2.17,1.1v1.07l-1.09,1.09-1.1,1.09H758.1l-2.17-1.09-1.09-1.09-2.19-1.07-2.18-2.19-3.25-1.1h-2.17l-1.08-1.09-3.27,1.09-1.08,1.1-2.18,1.09h-2.17l-2.18,1.09h-5.43l-1.09,2.16h-1.09l-1.1-1.09-1.08,1.09h-7.62l-2.15-1.09h-12l-2.18-1.07-1.1-1.09h-2.16l-1.09-1.09h-1.09v-1.1h-2.16l-1.1-1.08-1.1-1.08h-1.06v-1.08l-1.1-3.27-1.09-1.1-1.08,1.1h-1.1l-3.24-1.1-1.1,1.1v3.27h-4.34l-2.18-1.11h1.11l1.07-1.07,1.09-1.09h-3.27l-1.08-1.09-1.08-1.08-1.09,1.08,1.09,1.09v2.16h-2.19l-1.08-1.07v-2.18l1.08-2.17,1.09-1.09,1.1-1.08-1.1-1.1h-2.17l-1.09,1.1-1.08,1.08H664.6v-1.08h1.09l-1.09-1.1h-2.18l-2.17,1.1h-1.08l-1.1,1.08v2.18H657l-1.1-1.09v-3.27l-1.08-2.16-4.33-2.2v2.2h-1.11l-2.15-1.09h-2.19l-1.08,1.09v1.07l1.08,1.09,1.09,2.18H644l-1.1-1.08h-2.16l-1.09,1.08v6.54l-1.09,2.19h-1.12v-1.09l-1.08-2.17V1031l-1.09-1.1-1.09-1.08-2.18-1.09-2.16-1.09-1.09-1.08h-2.18l-1.08-1.09v-1.11l-1.09-2.16v-3.26l1.09-1.09,1.08-1.09h1.1l-1.1-1.07h-3.26v-1.1l-2.14-1.09-1.1-2.17-2.19-1.09-1.07,1.09-1.1-1.09h-4.34v-1.09l1.09-1.09h1.06l1.12-1.07,2.17-2.19,1.07-1.08-1.07-1.1h-1.1l-2.19-2.17-1-1.1h-3.28l-2.18,1.1-1.08,1.08h-2.17l-1.09-1.08h-1.1l-2.16-1.1h-1.09l-1.09,1.1-3.26,1.08-1.09,1.09-2.17,1.1v2.17l-3.27,4.34-2.18,2.18-.53.57-.54-.57-1.09-1.09h-3.28v-2.17h-2.16l-1.09,1.08v-1.08l-1.09-1.09-1.09,1.09v1.08h-1.08l-1.09-1.08V1007l-1.09-2.17v-5.44l-1.08-1.1-1.1-1.07-1.07-1.08-1.1-2.19-2.18-4.35v-1.08l-1.08-1.08v-2.17l-1.11-1.09-2.16,1.09h-2.17L557,983.13V981l1.09-1.09V977.7L557,975.53l-1.09-2.19-2.16-1.08h-3.27v-1.1l-1.09-1.08h-2.17v-6.53l-1.08-1.09h-3.25l-2.18-1.08v-1.1l1.09-1.07L545,957v-2.16l-1.1-3.27,1.1-1.08,1.08-2.18v-3.27Z" style="fill:#f9f9b4;stroke:#a07600;stroke-miterlimit:10;stroke-width:3px"/><path id="map_background-63" data-name="map background-63" d="M278.74,502.58l1.1-1.08,1.09-2.18v-1.07L283.1,495l1.08-2.17,1.09-3.27,1.09-2.16V484.1l-1.09-2.17-1.09-1.08v-1.09l-1.08-1.09v-1.09l-2.17-2.18v-1.08l-1.09-1.06-1.1-1.11-1.07-3.24-1.09-2.19-2.18-1.1-2.17-3.24L269,461.29l-1.07-1.09-2.19-1.1L263.54,458l-1.09,1.08h-2.19L259.19,458l-1.1-1.08v-1.09H257l-1.1-1.09h-1.06l-1.09-1.08-1.09-1.09-1.1-1.09-1.07-1.1v-2.14l-1.09-1.12-1.09-1.08V445h1.09v-3.26h-2.19l-1.07-1.09v-1.08H244v-3.28l-1.09-1.08H240.7l-1.09,2.16-2.18,1.1-2.17,2.17H232l-1.11-1.08V425.41l1.11-1.08H230.9l-2.16-1.1h-2.19l-1.07-1.08-2.17-1.08H219l-1.1,1.08-1.07,2.19-1.09,1.07-1.08,1.1h-5.46v1.08H205.9v1.08l1.1,1.09h-2.19v2.18L203.74,433h-1.1l-3.27-1.08h-1.09l-1.07-1.07h-5.44l-1.09-1.11v-1.09h-1.09l-3.26-1.08-2.17,1.08h-6.52l-1.1,1.09v1.11l-1.09,1.07h-4.32v-3.29L170,427.57h-3.27l-1.07-1.08-1.09,1.08h-5.46v2.17l-1.09,2.18L157,433h-3.26v-2.16l-1.09-1.11h-2.19v1.11l-1.07,1.07h-12l-1.08-1.07v-1.11l-1.08-3.24h-1.11v-1.1H132v1.1H130.9v-1.1h-1.1l-1.09,1.1v1.08l-1.08,1.08-1.08-1.08v-1.08l-1.1,1.08v1.08h-1.09l-1.09-1.08H122.2v1.08h-1.1l1.09-1.08v-1.08H121.1v1.08H120v1.08h-1.07v-1.08l-1.09,1.08v3.27l-1.11-1.07v-1.11h-1.06V433h-2.17v1.09h-4.36L108.05,433H107v1.09h-1.09L104.8,433l-1.1,1.09v1.1h-1.08v-1.1h-1.09v-2.17h-1.08L99.36,433v1.09H97.18l-1.07,1.1L95,436.26H93.92v2.18H95v2.17H92.84v1.09H89.58l1.08,1.09v1.08H88.48V445H86.31L85.23,446v1.08h-1.1l-1.08,1.12H77.61v-1.12H76.53l-1.09,1.12-1.09,1.07v1.09h1.09l1.09,1.1-1.09,1.09-1.09-1.09H70v1.09l-1.07,1.09-1.1,1.08-1.09,1.09v3.25l1.09,1.11v1.08l-1.09,1.09-1.09,1.08v2.17h1.09l1.09,1.1-1.09,1.07-1.09,1.11v4.35l-1.08,1.07-1.09,1.09H61.31l-1.08,1.08v2.18l-1.1,1.09L58,480.86V483l1.09,1.09v1.07l1.1,1.11,1.08,1.1H60.23l-1.1,1.07L58,489.56v2.17l1.09,1.09h1.1v-1.09l1.08-1.08v-2.2h1.08v-1.07l1.09,2.16v1.09l1.09,1.09h1.08l1.09,1.09,2.19,1.08L70,495v4.35l-1.07,1.08-1.1,1.1H65.65l1.09,3.26,1.09,1.09-1.09,1.07H65.65l-1.08-1.07-1.09,1.07V508l1.09,1.07v1.09l1.08,1.08-1.08,1.08-1.09,1.09v1.11l1.09,1.07h4.36v1.1H70v2.16H68.93L67.83,520l-1.09,1.08H54.79l-1.09,1.09H52.59l-1.06,1.09-1.1,1.09H49.34v1.09H48.26v1.09l1.08,1.08,1.09,1.08v3.25L49.34,533H48.26l-1.07,1.09v1.07L45,536.28l-1.1,1.09H42.83v4.35H41.74l-1.1,1.09H39.56V545l1.08,1.09h1.1v2.16l-1.1,1.08v1.11H39.56l-1.07,1.07h-1.1l-1.09,1.09,1.09,1.09v1.09l-1.09,1.07,1.09,1.1V558H36.3v1.09l-1.09,1.07v1.1l-1.08,1.09v3.26H33v1.08H32l-1.08-1.08H26.53l-1.09,1.08-1.09,1.1L23.27,570v1.11l-1.09,1.08v3.25L21.1,576.5l1.08,1.09v1.09l1.09,1.09v2.17L24.35,583h1.09l1.09,1.09h1.08l-1.08,1.07H24.35l-1.08,1.09h1.08l1.09,1.1h2.17v1.09H29.8v-1.09l1.08,1.09v1.09H29.8l-1.11,1.08v1.09l1.11,1.09v1.07h1.08V595l-1.08,1.11,1.08,1.08v2.16H32v6.54l1.1,1.09h1.09v4.33H32l-2.15,2.18H28.69v1.09H29.8l1.07,1.08H32V620H30.86l-1.08,1.09-1.11,1.09,1.11,1.09v1.09l1.08,1.08,1.08,1.08v2.18L33,629.77H35.2l1.09,1.08V633l-1.09,2.18-1.08,1.07,1.08,1.09v1.09l2.17,1.08h2.18l2.18-1.08H45l1.08,1.08,2.19,1.09v2.18l1.08,1.09L48.26,645v1.09l-1.08,1.09,1.08,1.08h2.17v1.07l1.1,1.1h1.06l1.1-1.1,1.09-1.07v-1.08l1.08-1.09V645l1.07-1.08,2.19-1.09,1.1,1.09L61.3,645h1.08v-1.08l1.09-2.18h1.09l1.08-1.09h1.09v-3.27H70v-1.09l2.18,1.09v1.09l1.09,1.08,1.07,1.09,1.1,1.09v1.09l1.09,1.09h3.25l1.09-1.09v-3.27l1.08-1.08H83l1.08-1.09,1.1,1.09v1.08h5.43v-2.17l1.09-2.16,1.09-1.09V633h1.09L95,634.13h1.12v1.09h1.07l1.09-1.09v-2.19l1.08-1.09h1.1l1.08,1.09h2.17l1.1-1.09,1.07,1.09,2.19,1.1v1.09l1.08,1.09,1.09,2.16v6.54L109.14,645v1.1l-1.08,1.08,1.08,1.09,2.18,1.07,1.08,1.1v1.1h4.34l1.1,1.09h1.09v3.26h2.17l1.09,2.17,1.06,1.08,2.18,1.1,2.19,1.07,2.17,1.1,1.1,1.08v3.25l1.09,1.09v1.09l1.07,1.09v1.09h5.43l2.18,1.09,1.08,1.09,1.09,1.08,1.09,1.09h2.17l1.09,1.08h2.18l1.08,1.08v3.27h3.27V682l1.08,1.08h3.27l1.08,1.08-1.08,2.19L157,688.49v1.08l-1.1,2.17,1.1,1.1h2.16l1.08,1.07,3.27,1.1h1.09l1.1,1.07v4.36h1.07l2.18-1.09h3.26v3.26l-1.08,1.09v2.16l1.08,1.11h3.26l1.09,1.07H182v1.09l1.11-2.15v-1.11l2.15,1.11V704.8h-1.07v-1.09l1.07-1.09v-1.08l-1.07-1.09h-1.08v-3.27l1.08-1.08,1.07,1.08,2.2,1.11,1.07,1.08h1.09v-2.19L188.5,695l-2.17-1.09h-1.1v-2.17l1.1-2.17,1.1-1.08h1.07V687.4l-1.07-1.07h-2.2l-1.07,1.07h-3.27l-1.07-1.07,1.07-2.19,1.08-1.07h3.26v-2.18l-1.07-1.08v-1.08l1.07-2.18h-2.15l-1.1,1.08h-3.25l-1.09-1.08v-2.18l-1.1-2.17-1.09,1.09-1.07,2.17v1.09h-1.1l-1.08,2.18-1.08-1.1L170,676.55l-1.09-1.09v-4.35l-1.1-2.18-1.08-1.08-1.07-1.09h-1.1l-1.09-1.09-1.08-1.08-1.09-1.09v-2.18l1.09-1.07h1.08l3.26,1.07v-1.07l-1.07-1.1v-1.08h2.15V655.9h-1.08l-1.07-1.08-1.1-1.1H163.5v-3.27l1.09-1.1h2.17v-1.07l-1.07-1.08-1.1-1.09L163.5,645l-1.08-1.08h-1.09v-3.27l1.09-2.17,1.08-1.09h2.19l-1.1-1.09,1.1-1.07,1.07-1.09V632h-2.17l-1.09-1.09-1.08-2.16v-3.26h1.08l1.09-1.08v-2.19l1.1-1.09-1.1-1.09-1.09-2.17h-1.08l1.08-1.08v-1.09h3.26l1.08-1.08h3.28l1.08-1.09v-4.34l-1.08-1.09V607L170,605.9v-3.28h4.35v1.1h1.07l1.09,2.18,1.1,1.09h1.09l1.09,1.08,1.08,1.09H182v-1.09l1.1-1.08-2.19-1.09v-2.18h2.19v-1.1h1.08l1.07,1.1h1.1l2.17-1.1h1.09l1.09-1.07h1.09v3.25l1.08,1.1L195,607h4.32V604.8l1.09-1.08-1.09-1.1,1.09-1.08h2.19v4.36H207l1.07-1.1h1.08l1.09-1.08,1.1-3.27-1.1-1.09v-7.61l-1.09-2.16V585.2l2.19-1.08h6.51L219,583,220,582l2.16-2.17,1.11-1.09-1.11-1.09h-1.07L220,578.69v-5.45h-3.26l-1.09-1.06h1.09l1.08-1.09H220l1.09,1.09h2.18v-4.36l1.08-1.09,1.09-2.18h1.08l1.1-2.16,1.09-1.1,1.08-1.09,1.07-1.07h4.36l1.09-1.1V557l1.08-1.1V552.6l-1.08-1.09v-1.08l-1.09-1.1-1.09-2.17L233.09,545v-3.26l1.08-3.27,1.09-1.08,2.17-1.09h1.09V533h2.18v-2.19h-1.09v-1.08l1.09-1.09v-2.17l1.08-2.18h3.28l1.08-1.09v-4.35h1.08l2.19,1.08h2.16l1.09,1.09,1.1,1.09,2.15,1.09h6.55l1.09-1.09v-1.09l1.06-1.09,1.1-1.08,1.09-1.09,1.1-1.08h2.17l1.09-2.17v-8.69l1.08-1.09h1.09l2.16-1.09v-1.1Z" style="fill:#f9f9b4;stroke:#a07600;stroke-miterlimit:10;stroke-width:3px"/><path id="map_background-66" data-name="map background-66" d="M342.9,379.73l1.07,1.09,1.08,1.09,1.09,1.07v6.54l-1.09,3.24v1.12L342.9,396l-1.1,2.18,1.1,1.08v4.37l1.08,1.07V408l1.08,3.27h2.19l1.07-1.1h2.18l1.09,1.1h2.16l1.09,1.07,1.1,1.1,1.09,2.18,1.07,1.08,1.1,2.17v3.27l1.08,1.08v2.18l-2.18-1.09L357,425.39v1.09l1.07,1.09h2.18v3.27l-1.08,1.08v3.25L357,437.33l-1.09,1.1-2.19,1.09h-2.16l-1.09,1.08,1.09,1.09h1.09V445l-1.09,1.08v2.19l1.09,2.16,1.07,2.18v1.09l1.09,1.07V458l-1.09,1.09v5.43l2.19,1.09,1.09,1.09-1.09,1.09v3.25l-1.1,2.19-2.16,2.16v1.08l-2.18,1.11-1.1,1.08v3.27l-2.15,2.17-1.1,2.17-1.09,2.17L344,489.54H342.9l-1.1-1.09-1.08,1.09,1.08,1.09,1.1,1.08L344,492.8l1.08,2.18,1.09,1.09,5.44,4.33-1.09,3.27-1.1,1.1-1.08,2.16h-1.07l-1.1,1.1-1.09,1.07v2.18L344,513.45v1.09l-1.07,2.17v-1.09l-1.1-1.08-1.09,1.08v1.09l1.09,2.17,1.1,2.19h-1.1l-1.09,2.15-1.09-1.08v-1.06h-3.25l-1.09,1.07-1.08,2.19L332,525.43,331,524.34h-4.36v2.17l-1.08,1.09-1.09,1.08-1.1,1.09h-1.09l-1.07,1.08H315.7v-1.08l-2.18-1.09v-2.17h-2.18l-2.17-1.08H307l-2.19,1.08H300.5l-2.17-1.08-2.19-1.09v-1.11l-1.08-2.15-2.18-2.18-1.09-2.18-1.09-2.16-1.08-2.18-2.18-1.09-1.08-1.08-1.08-1.09L283.09,508H282l-1.07-2.19-2.2-2.17v-1.09l1.11-1.08,1.09-2.18v-1.1l2.16-3.24,1.09-2.18,1.1-3.26,1.08-2.17v-3.27l-1.08-2.17-1.1-1.09v-1.08l-1.09-1.09v-1.09l-2.16-2.18v-1.09l-1.09-1.07-1.11-1.1-1.07-3.26-1.09-2.17-2.17-1.1-2.17-3.24L269,461.29l-1.07-1.08-2.19-1.1L263.54,458l-1.09,1.09h-2.18L259.19,458l-1.09-1.07v-1.1H257l-1.09-1.1h-1.07l-1.1-1.06-1.09-1.09-1.08-1.09-1.08-1.09v-2.16l-1.09-1.11-1.09-1.08V445h1.09V441.7h-2.18l-1.09-1.09v-1.08h-2.19v-3.27l-1.07-1.08H240.7l-1.09,2.16-2.18,1.1-2.17,2.17H232l-1.1-1.08V425.4l1.1-1.09h-1.1l-2.16-1.09h-2.19l-1.06-1.08-2.2-1.1H219l-1.1,1.1-1.1,2.17-1.08,1.09-1.08,1.08h-5.44v1.09H205.9v1.09l1.1,1.07h-2.18v2.19L203.74,433h-1.09l-3.28-1.08h-1.08l-1.08-1.08h-5.45l-1.08-1.11v-1.07h-1.09l-3.27-1.09-2.16,1.09h-6.52l-1.1,1.07v1.11l-1.08,1.08h-4.32v-3.26l-1.1-1.09h-3.26l-1.08-1.09-1.1,1.09h-5.45v2.16l-1.07,2.19L157,433h-3.27v-2.16l-1.09-1.11h-2.19v1.11l-1.07,1.08h-12l-1.09-1.08v-1.11l-1.11-3.25v-1.09h2.18v-2.18l1.08-1.08V421h2.17v-1.1h1.09l1.09-1.07H145v-1.09h3.26l1.08-1.09v-2.18h1.07v-2.18l1.11-1.07,1.08-1.1v-1.08L151.54,408h1.08l1.09-1.07v-2.19h-2.17l-1.11-1.07h-1.07l1.07-1.11h1.11l-1.11-1.09h-1.07v-1.07l-1.08-1.1v-1.08h1.08V395h1.07v-1.07h-1.07l1.07-1.12v-1.08h-1.07v-5.43l1.07-1.08h-1.07v-1.08h1.07V383l1.11-1.08h2.17l1.08-1.09v-1.09l1.08-1.08v-3.27h3.28v-2.17l1.09-1.08v2.16l1.09-1.08v-1.08h2.17V371h2.19v-1.09l1.08-1.07v-1.1l1.07,1.1v-1.1H170v1.09l1.11-1.1h1.07v-1.09h8.7v-2.16l-1.07-1.11h-1.1l-1.09-1.08h-1.09v-2.16h-1.08l1.08-1.09V358h1.09l1.09-1.09v-1.07H182l1.09,1.07h6.51l1.09-1.07v-1.08l1.09-2.18v-1.07l1.08-1.09V349.3l1.09-2.18V346l1.09-2.18,1.1-1.08v-1.09l1.08-1.09,1.08-1.08,1.08-1.09,1.1-2.19h1.09v6.54l1.09,1.08,1.09,1.09h2.15L207,346h3.25v1.08l1.1,1.07h1.07v1.11h3.27l1.08-1.11v-1.07L215.69,346v-2.18h2.17L219,345h3.25l1.09-1.09h1.09v1.07L223.3,346v2.15l-1.09,1.11v1.08h2.18l1.1-1.08,1.06-1.11h1.11l1.08,1.11v-1.11h1.08v-1.07h1.08V346l1.1-1.1v-2.16h-4.34l1.08-1.1v-1.06h2.16v-1.09l1.1-1.09v-2.19l-1.1,1.1-1.08,1.09h-1.09l-1.08-1.09v-3.27l1.08-2.18v-1.08h1.09v-1.1h1.08l-1.08-1.08h-1.09v1.08h-2.18v-3.26l-1.07-1.08-1.1-1.08h-1.09l1.09-1.1h2.17V321l-1.07-1.09h-1.1V321H222.2v-2.18H219v-1.08H220v-1.06h1.1l1.07-1.08v-2.18h-1.07v1.09h-3.26v-2.17H219v-1.09l1.07-1.1v-1.08H219V308h-2.2v-1.1H219l1.07-1.1V304.7L219,303.62l-1.1-1.09-1.1-1.09,1.1-1.09H215.7v-1.09h-1.08l1.08-1.08v-1.09h-1.08V296h-2.2l-1.06-1.08v-1.09l2.17-1.07v-2.2h-4.36l-1.08-1.08H205.9l-2.16-1.08h-12l-1.08-1.1v-1.08l-1.1-1.08h-2.16l-1.1-1.08-1.09,1.08v1.08l-1.07,1.08v1.1l-1.09-1.1L182,286.22l-2.15-1.08V283l-1.1-1.11-1.09-1.09V279.7h-1.1v-1.1l-1.08-1.08-1.08,1.08-1.09,1.1h-1.09l-1.08,1.08H169l-1.1-1.08-1.07-1.1h-3.28l-1.07-1.08v-1.08h-4.35L157,277.52h-1.1v3.26l1.1,1.08v2.19l1.09,1.08L157,286.22v1.08l-1.1,1.09v5.44l-1.09,1.09L153.73,296v1.09l-1.08,1.09v-1.09L151.56,296v-2.17l-1.11-1.07v-2.2l-1.07-1.08v-3.26h-3.27v-5.43L145,281.87h-1.1l-1.09-1.08v-2.18h-1.08v-3.25l1.08-1.08v-1.11l1.09-1.08V271l1.1-1.09,1.07-1.09,1.08-1.08,1.11-1.08,1.08-1.09,1.07-1.11,1.11-1.07v-6.52l1.08-1.09,1.09-1.07h1.08v-2.2l-1.08-1.08v-1.08l1.08-2.17v-1.11l1.08-1.09v-1.07l1.11-1.09v-1.1l1.09-1.08,1.07-1.07,1.09-1.1h1.09V233l-1.09-1.09v-2.18l1.09-1.07h1.1v-3.28l1.07-1.08V221l1.09-1.08h2.18l1.07-1.1v-2.16H169v-1.09h3.27v1.09h2.17v-2.18h-3.25V213.4H170L169,212.3v-1.08l1.08-1.08h1.1v-1.09h2.16v-2.19l1.09-1.09v-2.16h1.09v-1.1l1.08-1.07h1.09l1.09-1.1h1.1v-1.09H182l1.09,1.08v5.44l1.09,1.09h-1.1v4.35l1.09,2.18v3.26l1.07,1.07-1.07,1.09V221l1.07,1.09v3.26l1.09,1.09v2.19l-1.09,2.16V234l1.09,1.09v1.09l1.1,2.16,1.08,2.2,1.08,2.15,1.09,1.1v1.09l1.08,1.07h2.18l1.09,1.09v1.1l1.09,1.08,1.09,1.09,1.08,1.08h2.18l1.09-1.08-1.09-1.09,1.09-1.08v-1.1l1.08-1.09,1.09-1.07,1.09,1.07,1.07,1.09h6.53v1.1h2.19l1.08,1.08-1.08,1.09v1.08h-1.09l1.09,1.09v2.19l1.08-1.1h1.08v2.17h-1.08v1.1h2.17V258l-1.09,1.07,1.09,1.07v2.19l1.1,1.09v1.07h3.25l1.09-1.07h3.25v1.07h1.1v2.19h2.17l1.08-1.08H232v1.08l1.1,1.09v2.17L232,271v1.08l1.1,1.08v5.43h1.07v2.18h4.35l1.08-1.07h5.45l1.08-1.11h1.09l2.17-1.08,1.09-1.07-1.09,1.07v2.19l-1.09,1.07h-1.08l-1.09,1.09L245.05,283v1.08h5.44v2.17l-1.09,1.08v2.17l-1.1,1.08v3.27h10.89l1.08,1.09,1.08,1.09,2.19,1.09,1.07,1.09,1.09-1.09h1.09v-3.26l-1.09-1.07v-6.54l1.09-1.09,1.1,1.09h9.78l1.07,1.08h1.1v5.45l1.1,2.16v6.53l-1.1,1.09v2.17l1.1,1.08H282l1.09,1.1,1.09,1.08h3.26l1.09,1.09h3.27v1.07l1.09,1.11v1.09l-1.09,1.08h-2.17v1.09h2.17l1.09,1.09H294l2.17-1.09,1.08,1.09,1.11,2.16v1.09h1.08l2.18,1.08h3.24l1.11-1.08,1.09-1.09h1.07l1.09,1.09h1.09l-1.09,1.08v2.18h1.09l-1.09,1.09-1.09-1.09h-2.16l-1.11,1.09-1.08,1.1h-2.18l1.08,1.08,1.08,1.08,1.09,1.09h1.1l2.16-1.09h2.18l-1.09,1.09v1.09h1.09v2.18h2.17l1.09-1.1h3.27l-1.1,1.1v1.08h-2.17L311.34,333H307v2.17h2.16v2.18l1.09,1.09v3.26l1.08,1.09h2.17v1.08h-1.08v1.08l1.08,1.1,1.09,1.08v3.26l-1.09,1.1v2.15l1.09,1.1h2.19V358l1.07,1.11H320V358l1.1-2.16v-2.19h2.17v-1.08l1.09,1.08,3.27-1.08h1.07l2.19-1.07,1.08-1.1-1.08-1.08v-1.11h6.51l1.09,1.11v1.08l1.08,1.1,1.1,1.07v4.34h1.08V358H344v2.19l-1.08,1.08v3.27l-1.1,2.16v1.09l1.1,2.18-1.1,1.08,1.1,2.18v1.08l1.08,2.19v1.09l-1.08,2.16,1.08,1.09L345,381.9l1.1,1.08v6.54l-1.1,3.23v1.12L342.89,396l-1.1,2.18,1.1,1.08v4.37l1.08,1.07V408l1.08,3.27h2.19l1.07-1.1h2.18l1.09,1.1h2.16l1.09,1.07,1.1,1.1,1.09,2.18,1.07,1.08,1.11,2.17v3.27l1.07,1.08v2.18l-2.18-1.09L357,425.39v1.09l1.07,1.09h2.18v3.27l-1.07,1.08v3.25L357,437.33l-1.09,1.1-2.19,1.09h-2.16l-1.09,1.08,1.09,1.09h1.09V445l-1.09,1.08v2.19l1.09,2.16,1.07,2.18v1.09l1.09,1.07V458l-1.09,1.09v5.43l2.19,1.09,1.09,1.09-1.09,1.09v3.25l-1.1,2.19-2.16,2.16v1.08l-2.17,1.11-1.11,1.08v3.27l-2.15,2.17-1.1,2.17-1.09,2.17L344,489.54H342.9l-1.11-1.09-1.08,1.09,1.08,1.09,1.11,1.08L344,492.8l1.08,2.18,1.09,1.09,5.44,4.33-1.08,3.27" style="fill:#f9f9b4;stroke:#a07600;stroke-miterlimit:10;stroke-width:3px"/><path id="map_background-67" data-name="map background-67" d="M636.43,531.93h3.27l1.07-1.08h1.1l1.08,1.08L644,533h1.09v-1.1h1.08v-3.25L644,526.51l1.09-1.09,1.08-1.08h1.1l2.16-2.19,2.18-1.08v-3.26l1.08-2.18h2.19l2.17-1.08h1.07l1.11-1.1,1.08-1.08,1.08,1.08,1.09,1.1,1.09,2.17,1.08,1.09V520l-1.08,2.17-1.09,2.19-1.09,2.17v4.33l1.09,1.08h1.09l3.25,1.1H669l2.18,1.09h1.1v1.07l1.07,1.1h1.1l2.15,1.08,1.1,1.08h7.61l2.18,1.09v1.09l-2.18,2.18-1.09,1.08,1.09,1.1-1.09,1.09v3.24l1.09,2.18v1.09l1.09,1.09v1.08l1.09,1.08v1.09h3.25l1.11-1.09,1.07-1.08,1.08-2.17h3.28v1.09h-1.09l-1.09,1.08v1.08l1.09,1.09h1.09L696.23,558l-1.09,1.1-1.1,1.07H693l-1.07,1.1,1.07,1.09H694l1.1,1.09,2.18,1.06h1.07l2.19,2.19v4.37l1.08,2.15h1.09l1.08,2.19v2.17l-1.08,1.09v1.07l1.08,1.11,2.19,1.07h2.16l1.1,1.09v3.26l1.08,1.1v1.08l1.08,1.09,2.18,1.08h1.08l1.09,1.09V595h3.26l2.18,1.08,2.18,1.1-1.09,1.07v1.09l-1.09,1.1,1.09,3.25v1.09l-1.09,1.11-1.09,1.06v2.2l-1.09,1.08L718,611.29h-2.17l-1.09-1.08-1.08-1.08-1.09-1.1v-1.1l-1.09,1.1h-1.08l-1.07,1.1v13l1.07,2.18-1.07,1.09v1.09l-1.11,2.17h-1.09L706,629.77h-1.1l-2.17-1.08-1.09,1.08-1.08,2.17v3.28h-1.09l-1.1-1.09h-2.16l-1.09,1.09H693l-1.07-1.09-1.11-1.1-2.17-1.09-1.09-1.09-1.09-1.08h-3.26v2.17h-1.09L681,633h-3.25v-1.09h-1.09l-1.09-1.09-2.17,1.09v2.19h2.17v1.09l-1.07,1.07-1.1,1.09v2.17l1.1,1.09v1.08l1.07,2.2V645l-2.17,1.08h-1.07L671.24,645l-1.1,1.08h-1.08l-1.07,1.1h-1.11l-1.07-1.1h-4.36L660.37,645v-2.17l-1.08-1.1H656l-1.08,1.1h-2.18l-2.16-1.1h-1.1l-2.16-1.07h-5.45l-2.17-1.09-2.17-2.18-2.18-1.09-1.07-1.07-1.11-4.36-1.09-2.17h-3.26l-2.18-1.09-2.16-1.08-1.1-1.09-1.08-2.18-1.08-1.09-1.09-1.08L618,620l-1.07-3.26-1.09-1.1-2.19-1.08h-1.07l-1.08-1.09h-1.09l-2.18-1.08-1.09-2.17H606l-2.17-1.08V608l-1.1-1.1-1.1-1.06-1.08-1.11-2.17-2.17v-1.08l-1.08-2.19v-2.16L596.22,595l-1.08-1.09L593,592.81h-1.11l-2.15-1.09-1.1,1.09-1.09,1.08h-1.08L584.25,595h-1.08v-2.17l-1.1-1.09,1.1-2.17v-4.36l-1.1-1.08H581L579.88,583h-1.07l-1.09,1.09v4.35l-1.09,1.09h-1.09l-1.08-1.09-1.09-1.08h-2.18l-1.08-1.1L569,584.11h-1.09l-1.09-2.18-1.09-1.06v-2.19h-2.16l-1.11-1.09v-1.08H561.4v-3.27l-1.09-1.07v-1.08L559.23,570h-2.18l-2.17-2.16v-1.1l-1.08-1.09h-2.19l-1.09-1.09-2.17-1.07v-1.09l-2.17-1.09-1.07-1.1L544,559.12h-2.18l-1.07,1.07h-1.08l-1.09-1.07h-3.27l-3.25-1.1L531,556.93l-2.16-1.09-2.17-2.16-1.11-1.09-1.07-1.09-2.18-1.07-1.09-1.11-1.09-1.08-2.17-1.1-1.09-1.06L515.75,545v-3.26h-1.08l-1.11-1.11-1.09-2.17-1.07-1.08v-3.24l-1.1-2.2-1.09-2.17V527.6l-1.09-1.09L507,525.42v-4.35l-1.1-1.09-2.17-2.17,1.1-2.18-1.1-2.18V508l-1.09-1.1V501.5l1.09-1.09v-3.26l2.17-1.08v-2.2l-1.07-1.07-1.1-3.26-1.09-1.09-1.07-1.08v-5.44l1.07-1.09v-3.26l-1.07-1.1,1.07-1.09h1.09l1.1-1.08h1.07l1.1-1.08V470l-1.1-1.1v-6.51l-1.07-1.1v-4.34l-1.1-1.1-1.09-1.1-1.07-1.06h-1.09l-1.11-1.09v-4.35l-1.07-1.11L497.27,446,496.16,445h-4.34L490.71,446l-2.16,1.08L487.47,446V445h-1.1l-1.08-2.16h-2.17v-1.1L482,442.8h-3.23l-1.1-1.1H476.6v-1.09h1.08v-1.08h-2.16l-1.09-1.09v-3.26h-1.08v-1.09L472.27,433h-1.09l-1.09-1.08v-1.08l1.09-1.11,1.09-1.08h1.08l2.18-1.08v-4.35l1.08-1.09V416.7l-1.08-1.08-1.09-1.11-2.17-1.07h-1.09l-1.09-1.1v-1.07H469l-1.09-1.1v-4.36l1.09,1.11,1.09-1.11h2.18l1.09-1.08h2.17v1.08l1.08,1.11h1.07v-1.11h1.11l1.08,1.11L481,408h2.18l1.08-1.07v-1.11l-1.08-1.08,1.08-2.19v-1.07l1.09-1.08h1.08l2.18,1.08h1.09v-3.25L488.56,396v-4.36l-1.08-1.07-1.1-1.09v-1.1h3.27v-2.16h-1.09v-4.35l-1.08-1.09-1.1,1.09-1.08-1.09-1.09-1.09H482v1.09L481,381.91V383l1.07,1.1L481,385.17h-2.16l-1.11,1.09H476.6v-1.09h-4.34v-1.08h-1.09l-1.08-1.1v-1.08l1.08-1.09v-3.26l1.09-1.09v-2.18l-2.17-1.08H469v1.08l-1.1,1.09v3.27l1.1,1.08v2.18h-2.18v-1.09l-1.09-1.09v-2.17l-1.09-2.18h-2.17v2.18l-1.09,1.09v1.08l-1.07,1.09-1.1,1.09-1.08-1.09v-4.35h-3.26l-1.08-1.09H452.7V371l1.09-1.09-1.09-2.17,1.09-1.09,1.08,1.09,2.17,1.1h1.1v-1.09L457,365.6v-1.07h2.17l1.11-1.1v-3.26h-1.09l-2.18-1.09L456,358l-1.09,1.1h-1.08l-1.1-1.1v-1.09l-1.08-2.16h2.18l1.08,1.09v-3.27l-1.08-1.08-1.09-1.09-1.08,1.09h-1.11l-1.08-1.09-1.08-1.09h-1.1l-1.09,1.09-1.07-1.09L444,350.38h-1.08v-1.09h-1.09v1.09l1.09,1.09v4.35l-1.09,1.07v2.19l-1.1,1.09h-1.13v-1.09h-2.16v-5.45h3.26v-1.08h-3.26l-1.08,1.08-1.09-1.08v-2.17l1.09-1.09v-1.11l1.08-1.07,1.09-1.08,2.17-1.1v-1.08l-1.1-1.07-1.07-1.1h-2.18v1.1l-1.08,2.16V346h-4.35l-1.1-1.1h-2.16l-1.09-2.16v-1.1l-1.09,1.1h-1.1l-1.08,1.07-1.08,1.09v-3.26h-2.19L419,340.6v-1.09l-1.09-1.08,1.09-1.09v-1.1h3.27l1.08-1.08-1.08-1.08h-4.36V333L419,331.9h1.08l1.1-1.09,1.09-1.09V323.2l-1.09-1.09V321l-1.1,1.09h-2.17l-1.08-2.18h-1.09v-1.09h6.53l1.08,1.09h1.09l1.09-1.09,1.09-1.08,1.09-1.08v-2.17l-1.09-1.09H425.5v-3.3h2.18l1.08-1.07V308H425.5v-1.09l1.09-1.09h2.17l1.09,1.09,1.09,1.09,1.08,1.09,1.08,1.07h1.12v-1.07l1.08-3.25h1.08l1.09-1.09v-1.08l-1.09-1.09,1.09-1.08v-1.1l-1.09-1.09-1.08-1.07,1.08-1.09h2.18v-2.18l1.07,1.09h1.1l1.09,1.09H444V296l-1.08-1.09h-1.09v-1.09l-1.09-1.07v-1.1h1.09l1.09,1.1H444l1.1,1.07v1.09l1.07,1.09h1.09l1.1,1.09,1.08,1.09,1.08-1.09h1.1l1.08,1.09v2.16l1.09,2.18h-1.09l-1.08,1.09-1.1,1.08h1.1v1.09l1.08,1.09v3.23l1.09,1.11L456,313.4l1.07,1.09,1.1,1.09,1.08,1.08h1.1V315.6l-1.1-2.18-1.08-1.08v-1.09h1.08l1.1,1.09h2.16l1.09,1.08v3.26h7.61v3.24h1.09l2.17,1.09h1.09v2.18l1.08,1.1v2.16l1.08,1.09h1.11v-2.17l1.08-1.08h5.43l1.08,1.08h1.1v1.08h1.08l1.09-1.08v1.08h2.18v-1.08h1.09l1.08,1.08h1.08l1.09,1.09v1.09h1.11v-2.18h2.14l1.11-1.08,1.09,1.08v1.09l-1.09,1.09h-1.11v1.08h2.2l1.07-1.08H506v1.08l-1.08,1.1-1.1,1.08V333l1.1,1.09h-1.1v2.16h-1.09v2.19l1.09,1.08-1.09,1.1v1.08l-1.07,1.09h-3.26v1.08h3.26l1.07,1.09h1.09l1.1,1.1H506v4.34l1.09,1.1,1.08,1.07-1.08,1.08v2.19l1.08,2.16-1.08,2.19L506,361.25h-2.18v2.16l-1.09,1.11h-2.16l-1.11,1.07,1.11,1.09h1.09l1.07-1.09h2.19v-1.07l1.08-1.11,1.09-1.08v1.08h1.08v2.18h1.09l1.09-1.07,1.1-1.11,1.08,1.11h1.08v3.26h3.26l1.09-1.08H519l1.08-1.1h1.09v2.18h1.09l2.18-1.08h1.07v1.08L524.45,370h-1.09L522.27,371h1.09l1.09,1.11v2.15h-4.36l1.09,1.1h1.09l1.09,1.09v2.18l-1.09,1.07h-1.09l-1.09,1.09v1.08L519,383v1.1h-2.18l-1.08-2.18v-3.26l-1.08-2.18v-1.09l-1.1-1.09-1.09-1.08v-1.08L511.4,371v-2.16h-1.09v1.07L509.22,371v3.25h-1.09l1.09,1.1,1.09,1.09h1.09v2.18h-1.09v2.17l1.09,1.09V383h-1.09l-1.09,1.11v2.16l-1.09,1.08h3.28v1.09l-1.1,1.1,1.1,1.09v1.07h1.07l1.09,1.08h1.11l2.15,1.12,1.09,1.07L519,396v2.18l-1.09,1.07v3.25l2.17,1.12,1.09,2.15h1.09v4.35h1.09l1.09,1.1h1.07l1.1,1.07v1.1l-1.1,2.18,1.1,1.08v5.44l1.09,1.08,1.08,2.18h1.09v2.17l-1.09,1.08-1.08,1.08-1.09,1.11h-1.09v4.34l-1.07,1.09-1.09,2.17v3.26l1.09,1.1,1.07,1.07v3.26h4.36l1.08,1.11,1.11,1.08,1.08,1.07v2.19h-3.27v2.16l1.08,1.09V458l1.11,3.26,1.08,2.18,1.08,1.08,1.09,1.08,2.17,2.18,1.1,1.09,1.09-1.09h3.25v1.09L544,470h4.35l1.1,1.07,1.07,1.09v-1.09h3.28L554.9,470h2.17l1.08,1.07h4.35l1.11,1.09,1.07-1.09,1.09,1.09,1.08,1.09v1.08l1.1,1.08,1.09,1.09,1.08,1.1h2.18v1.09l1.08,2.17h1.09l1.08,1.09,1.09,1.09,1.1,1.08v2.16l1.08,2.18H581l2.18-1.08h2.16v2.17l-1.08,1.08-1.08,1.09-1.1,2.16L581,495l-1.1,2.16v5.44l2.18,1.08h4.35l1.08,1.11,1.09-1.11,2.19-1.08,1.07-1.08v2.16l1.09,1.11v1.07l-2.16,3.27-1.08,1.09h1.08l1.07,1.08L593,510.2H594l1.09,1.08h1.08l2.17,1.08h1.09v-1.08l1.08-1.08,1.09,1.08h1.09l1.11,1.08,2.16,1.09,1.08,2.18,2.17,1.09h2.19l1.08,1.08,1.07,2.17,1.11,1.09v1.08h2.17l1.07,2.19v1.09l-1.07,1.09H619l1.1,1.08v1.08h1.08v-1.08h1.08l1.08,1.08v1.09l-1.08,1.08h4.35v1.08l1.09,1.1,2.19-1.1h5.42v-1.08Z" style="fill:#f9f9b4;stroke:#a07600;stroke-miterlimit:10;stroke-width:3px"/><path id="map_background-64" data-name="map background-64" d="M548.37,563.46v7.61l-1.08,1.09-1.08-1.09v-2.18L545.13,570H544v1.09l-1.09,1.09v2.16l-1.08,1.09h-1.1l-1.08,2.2-1.09,1.06v2.19l1.09,1.07h1.08l1.1,1.09v2.17h-2.19l-1.09,1.09h-3.26l-1.1,1.09v6.52h-1.07L532.06,595H531v2.18l1.09,2.17h-3.27l-1.09-1.08-1.06,1.08h-1.1l-1.07-1.08v-2.18L523.39,595l-1.1-1.09v-1.08l1.1-1.09v-1.09l-1.1-1.08-1.09-1.09H519L518,589.55l-1.1,2.17-1.07,1.09-1.09,1.08H512.5V595l-2.16,2.18-2.19,1.09L506,599.33v2.16l-1.09,2.18v1.08l-1.08,1.1-1.09,1.1v2.16l1.09,1.09,1.08,1.09-1.08,1.07-1.09,1.09h-1.08l-2.18,1.09-1.09,2.18v4.34l-1.08,1.09H493v-1.09h-2.18L488.59,620h-1.1l-2.19,1.07-1.08,1.09-2.18,2.2L481,625.43l-2.17,2.16-1.11,1.1v1.08h-6.51l-3.27-1.08h-5.41l-2.18,1.08H459.2l-1.08,1.07-1.07,1.1H452.7l-2.18,1.1-1.09,1.09-1.08,1.08-2.19-1.08h-1.05L442.93,633h-1.1l-1.08-1.1h-4.36l-1.08,1.1H431l-1.09,1.09v1.08l-1.09,1.08,1.09,1.09h4.36l1.08,2.16v1.1l1.08,1.09v2.18L435.31,645l1.08,1.08h1.08v2.17l-1.08,1.08-1.08,1.09h-2.18L431,651.52v1.08l-1.09,1.09v2.17l-1.09,1.08v1.11h1.09l1.09,1.07-1.09,1.09v2.18l2.17,1.07h1.09l1.1,2.19v2.16l-1.1,1.1V670L432,668.91h-2.17L428.78,670l-1.08,1.09h-2.17l-1.1,1.08h-2.17v-1.08h-2.18v1.08H419l-1.08-1.08V670h-1.09l-1.09-1.09-1.1,1.09-1.07,1.09h-4.34L407,672.17h-3.26l-2.18-1.08v-4.36l1.09-1.08v-2.19l-1.09-1.07v-3.27l-1.08-2.18v-1.08l-1.09-2.17-1.09-1.09h-8.7l-1.08-1.08-1.09-1.11-1.09-1.09H385.3l-1.09-1.08L383.13,645l-1.1-1.08H381l-1.09-1.11v-2.16l-1.09-1.1,2.18-3.26v-4.34h-2.18l-1.07-1.1h-2.19l-1.07,1.1h-1.12v-2.17l-1.07-2.17,1.07-2.17v-3.27L372.25,620V618.9l1.07-3.26,1.1-2.18V610.2l-1.1-1.08L371.15,608,370.06,607v-4.37L369,600.42l-1.08-2.17v-1.09l-1.11-3.27-1.08-1.08-1.08-2.17-1.09-2.18v-1.07l-1.09-2.18L361.37,583l1.08-2.16v-6.54l-2.18-2.16-1.07-1.09L358.11,570l-2.18-1.09h-2.17l-1.09-1.09-2.17-1.09H344l-1.06-1.08h-2.19v1.08l-1.08,1.09h-1.09l-2.18-2.17v-2.19l1.09-1.1,1.09-2.17V558l-1.09-2.17-1.09-2.19-1.09-1.07-1.07-2.18v-3.26l1.07-3.26v-2.18l1.09-1.09-2.16-3.26v-2.18L332,534.11v-2.2l-1.09-2.16v-1.09l1.09-1.07v-2.18l.27-.13,1.92-1,1.07-2.17,1.09-1.1h3.27v1.1l1.08,1.09,1.09-2.19h1.1l-1.1-2.16-1.09-2.17v-1.1l1.09-1.06,1.1,1.06v1.1l1.06-2.16v-1.09l1.1-2.19v-2.16l1.1-1.08,1.08-1.1h1.07l1.1-2.16,1.09-1.1,1.08-3.26-5.42-4.35-1.1-1.1L344,492.81l-1.07-1.1-1.1-1.08-1.09-1.1,1.09-1.06,1.1,1.06H344l1.09-1.06,1.1-2.19,1.08-2.17,2.17-2.17v-3.27l1.09-1.09,2.17-1.1v-1.07l2.17-2.17,1.09-2.18v-3.27l1.09-1.08-1.09-1.11-2.17-1.07V459.1l1.09-1.08v-3.28l-1.09-1.07v-1.1l-1.09-2.17-1.09-2.16v-2.19l1.09-1.09v-3.25h-1.09l-1.08-1.11,1.08-1.07h2.18l2.17-1.09,1.09-1.1,2.19-2.16v-3.27l1.07-1.07v-3.28h-2.17L357,426.48V425.4l1.09-1.08,2.17,1.08v-2.19l-1.07-1.08v-3.27l-1.1-2.17L357,415.6l-1.09-2.17-1.09-1.08-1.08-1.1h-2.18l-1.08-1.09h-2.19l-1.07,1.09h-2.18L344,408v-3.26l-1.06-1.07v-4.37l-1.11-1.08,1.11-2.15,2.15-2.2v-1.1l1.1-3.24V383l-1.1-1.08L344,380.82l-1.06-1.09,1.06-2.16v-1.09l2.19-1.09h2.15l2.2-2.18h4.34l1.09-1.09L357,371l3.25-1.08h1.1l3.26,1.08,1.08,1.09,2.19,1.09,2.15,1.09,2.19,2.18,1.08,2.18h-1.08l-1.09,2.16-1.1,3.26v4.35l1.1,1.1,1.09,1.09-1.09,2.15v5.46l1.09,1.07h1.08l2.17,1.09h1.1v1.09h1.09l1.08,1.07v1.12H377.7v2.15l1.08,1.12,1.08,1.06H382l1.09,1.1v1.08l1.08,2.18h1.1l1.07-1.1h15.23l1.09-2.16v-2.18l-1.09-1.12v1.12h-2.18v-2.19h-1.09l-1.08-2.19-1.08-1.08h-1.1l-1.1-2.17V395l1.1-2.2v-2.16l-1.1-1.08,1.1-1.1h1.1v-1.09l1.08-1.08v-1.08l1.08-1.11h1.09l1.1-1.08,2.16-1.08h18.48l1.1,1.08,1.09,1.08,1.07-1.08,1.1,1.08,1.08,1.11v2.16h1.09v1.09l1.08,2.18,1.09,2.16,1.09,1.1,1.08,2.19,1.09,1.07v2.17l1.1,2.17,1.08,1.08,2.16,2.19,1.1,2.19,2.17,1.07h4.37l2.16-1.07,1.1-1.12h2.17l1.09-1.07h7.59l1.11,1.07h7.59v4.36l1.11,1.08h1.08v1.11l1.08,1.08h1.1l2.16,1.08,1.1,1.09,1.08,1.09v5.43l-1.08,1.08v4.36l-2.18,1.09h-1.08l-1.1,1.08-1.08,1.1v1.07l1.08,1.09h1.1l1.08,1.1v1.07h1.08v3.26l1.1,1.09h2.16v1.07h-1.08v1.11h1.08l1.11,1.09h3.24l1.09-1.09v1.09h2.18l1.09,2.17h1.09V446l1.08,1.08,2.18-1.08,1.09-1.08h4.34l1.1,1.08,1.07,1.08,1.09,1.11v4.32l1.1,1.1h1.09l1.07,1.07,1.09,1.09,1.08,1.1v4.34l1.09,1.1v6.51l1.09,1.09v3.28L506,474.3h-1.09l-1.08,1.09h-1.09l-1.07,1.08,1.07,1.1v3.26l-1.07,1.09v5.44l1.07,1.09,1.09,1.07,1.08,3.28,1.09,1.07v2.19l-2.17,1.08v3.26l-1.09,1.1v5.42l1.09,1.1v5.44l1.08,2.15-1.08,2.19L506,520l1.09,1.09v4.36l1.07,1.1,1.11,1.08v2.17l1.09,2.16,1.09,2.19v3.26l1.07,1.08,1.09,2.18,1.1,1.09h1.09V545l1.07,1.09,1.1,1.09,2.16,1.09,1.09,1.07,1.09,1.1,2.18,1.09,1.07,1.09,1.12,1.08,2.15,2.18L531,557l1.09,1.08,3.26,1.1h3.26l1.09,1.07h1.08l1.1-1.07H544l1.11,1.07,1.08,1.1,2.16,1.08Z" style="fill:#f9f9b4;stroke:#a07600;stroke-miterlimit:10;stroke-width:3px"/></svg>