<svg id="Layer_1" data-name="Layer 1" xmlns="http://www.w3.org/2000/svg" viewBox="0 0 900 1366"><title>alldivs</title><path id="map_background-18" data-name="map background-18" d="M462.4,653.73l5.73,4.58L470.4,656l5.77,1.13,1.17,2.3,2.29,1.15,2.29-1.15,1.16-1.15-1.16-3.45h10.35v-2.29l2.27-2.3-1.15-2.3,3.44-2.29,2.33-2.29,2.28,1.15v-2.29h3.44v-3.46l-1.15-1.14v-1.18l1.15-3.44,1.18-2.29,1.11-1.14h3.44v2.29l1.14,2.29,1.16,1.16,1.15,1.14,1.13-2.3,1.16-1.14,3.45-2.29,2.3,1.14,5.7-3.42-1.12-2.32L527.8,625h4.64v2.31l1.13,1.17h1.16l2.28,3.42,2.31-2.29,5.75-3.45,3.44,1.15,1.13-2.31h6.91l1.13,1.16H560l1.15,2.32,3.42-1.17,2.28,1.17L568,627.3,569.2,625,568,622.71l-2.28-1.16V619.3l2.28-1.17h2.29l1.15,1.17v3.44h1.15l3.45,1.15h2.29l2.3-2.31V619.3h1.15l1.14,2.28v1.15h1.16l3.44,1.16,2.28,1.13,2.31,1.16,2.29,1.14,1.13,1.17,1.18,1.14h1.14l2.31,1.14h1.14l1.15-1.14h6.88l2.3-1.14v-1.17l-1.14-1.14,1.14-1.16,1.15-1.13h1.13v3.43h2.32l1.15-1.14,1.14-1.16H622l1.17,1.16h1.12l1.17-1.16-2.29-1.13,1.12-1.16,1.17-1.15h5.74l1.15-2.28L633.5,617V602.07h-1.16l-1.15-1.15-2.27-1.15v-1.18l1.12-1.13,4.57-3.46,1.18,1.14v2.32H645l2.3-1.17,2.28-2.29,1.15-1.13,1.15-2.32,1.13-2.28,1.18-1.16,2.3-2.3,1.13-1.14,1.15-2.3-1.15-1.15-1.13-1.15,2.28-1.13v-9.19h-3.44l-1.14-1.13v-6.9l1.14-1.14,2.29,1.14,5.77,1.16L664.5,563l1.15,1.15h2.28l2.31,1.15,2.3-1.15,1.15-1.15,1.14-2.3,1.14-1.14,1.15-1.15h4.57l1.18,1.15,1.1,1.14,1.18,1.16h1.15l1.15-1.16h3.45l1.12-2.29h2.28l1.18-1.15h1.18l2.29,1.15,3.44-1.15h2.28l2.29-1.14,2.33,1.14h3.41l1.15,2.3,1.15-1.15,1.15-2.29v-2.31L715,552.69l-1.15-2.3-1.15-2.31v-1.14l1.15-2.3,1.15-2.29V540l1.15-1.14L715,537.76l2.34-2.31h1.12l1.17,2.31,1.1,2.28,1.18-1.14,1.14-1.14,1.14-2.31v-1.13l-1.14-1.16,2.3-2.28h1.16l1.14-1.17,2.29,1.17h2.3l2.29-1.17h1.15v-1.15h1.17l1.13-1.15v-1.15l-2.3-1.14,1.17-1.15h3.43l1.14-2.28,4.62,1.14,4.59,1.14h3.44l1.14,1.15v8l1.14,4.6,1.15,5.73,1.16,1.15,1.13,1.16,2.27,1.14v3.44l-2.27,3.44-1.13,2.31v1.14l1.13,2.3,2.27,1.14V563l-2.27,3.44-1.13,2.29v3.46l1.13,1.15,2.27,1.16,2.33,1.13-2.33,4.6L761,582.54l-2.29,2.28-1.16,3.46-2.29,1.13v1.15l-1.14,2.32-2.34,4.59-1.1,2.28-2.31,1.16-1.15,2.29v3.45L746,607.79l-1.17,1.14L746,610.1v1.14l-1.17,2.28L743.73,617l-1.15,1.14-1.16,2.31v2.3l1.16,1.15v4.6l-1.16,3.43v3.45l-2.3,5.74L738,648l-1.13,4.6-1.17,4.59-1.15,5.75v5.74l-1.14,5.72v33.32h-5.74v-3.44h-2.3l-2.3-1.16-2.32,1.16-3.39-2.32v-2.28L715,698.51l-1.15-2.3-2.29,1.14-2.27-2.29h-3.45l1.12-2.3-1.12-1.14-2.32-2.3-2.29,1.16-1.14,1.14L699,692.76l-1.18,1.14-3.47,1.16v4.59l2.36,1.15,1.11,1.13-1.11,2.32H694.3v1.14l-1.1,3.46,2.28,1.13v4.58H693.2l1.1,3.47v2.28l2.36,1.15v2.31l1.11,1.13,1.18,1.16-2.29,1.16v2.28l-1.18,1.15h1.18l1.11,1.15,1.18,1.14,1.14,2.31,1.14,2.3L699,739.84v2.29l1.14,1.15,2.3,2.29,1.13,1.16L702.39,749l-1.16,2.29L699,752.47l-1.19-2.3L695.48,749l-2.27,1.15h-5.75l-1.15,2.3-1.15,3.45v1.15l1.15,1.15-1.15,1.15L684,760.51l-1.11,1.16-1.17,1.13v2.31l-2.3,2.3-1.13,1.15,1.13,1.14v1.15l-2.28,2.29H676l-2.28,1.14h-2.32l-1.14-1.14-1.16,1.14-1.14,2.3-2.28,1.16-1.16,1.14H662.2l-2.3-1.14h-4.59L653,778.88l-3.43-1.14H639.24l-2.3-1.16h-3.43l-1.16-1.14-1.15,1.14h-2.27l-1.18-2.3-2.29-1.14-2.28,1.14L622,775.44l-2.27-1.16V772l-1.17-1.14h-1.14l-1.15-1.15L614,772h-2.29l-2.3,1.15v5.74h-1.14l-1.14-2.3h-1.15v-3.44L603.62,772l-2.27,1.15-1.14,1.14L599,775.44v1.14l2.31,1.16L602.5,780l1.12,1.14h2.32v2.3l1.15,1.16,2.28,2.28h-2.28v2.3l1.14,1.15,1.14,2.29,2.3,2.29,1.15,1.17,3.45,2.3v3.43L615.13,803v2.29l1.14,2.29-1.14,1.14-2.31-1.14-3.45-1.15-1.14-2.3L605.94,803h-2.32l-1.13-3.44,2.29-1.13-1.17-2.3-1.12-2.3L599,792.67l-4.59-2.29-2.29,1.14L591,792.67l-3.45,1.16v2.3l-1.15,1.15-2.29,1.15h-2.3l-2.29,2.27-3.44,1.16,2.28,8,2.3,6.91,3.45,9.16,3.45,11.48v2.3l-2.29,6.89L583,854.69l-2.29,9.18-2.3,10.33-4.59,18.38v1.14l1.13,1.15v4.59l-1.13,1.15v2.29l-1.15,1.15,1.15,2.3-1.15,1.14v1.15l-2.3,1.15L569.21,911H568l-2.28-1.16L564.58,911l-1.15,1.13h-2.27l-2.32-2.29-1.15-2.3-1.13-1.14v-2.3l-1.17-1.15-1.16-2.29V898.3L553.12,896v-4.6l-1.18-1.15-2.29-1.15L548.52,888h-2.33l-2.28-1.14v-2.32l-1.13-1.14h-1.17l-1.11-2.31-3.48-2.3v-2.28l2.31-1.16v2.31h1.17l1.11-1.15V873H540.5v-3.45h4.56l-2.3-2.3-1.17-2.3-2.28,1.16h-1.14V862.7l2.31-1.13h-2.31l-2.32,1.13-1.12,1.15v2.3l-2.3,1.15-1.11,2.29-1.17,1.13-3.44,1.16h-1.18L524.4,873l-2.28-3.45L521,868.43l-1.17-1.14h-1.17l-1.15-1.15h-5.72L510.63,865l-2.29-1.15-21.81-12.63,3.41,16.08,2.33,8v4.57l1.12,3.47v3.44l1.14,4.59v3.47l1.18,3.43,1.11,5.75v5.74h-4.56l-2.33,1.16h-3.41l-1.16-1.16h-3.45l-2.29-1.15-1.19-1.15-2.28-1.15-3.43-1.14h-2.34l-2.27-3.44V900.6L467,899.45l-2.3,1.15h-3.46l-1.13-1.15-1.16-2.31-1.17-2.29v-1.14l-1.13-2.3V888l-1.15-2.29-1.13-3.43-1.17-1.17v-2.3L452,877.63v-1.14l-2.31-2.31L448.62,873v-3.45l1.11-1.16-1.11-2.29v-4.56l-1.17,1.13L444,863.86,442.86,865l-1.14,1.16-3.43,4.57,1.12,2.32,1.16,1.14v1.14l1.15,2.31v3.43l2.28,1.17v1.14l1.16,2.29L444,886.82v3.44l-1.14,1.15-1.14,1.16-3.44-2.31-1.17-3.44v-2.31L436,882.23l-1.16-2.33h-2.29l-1.16-2.27v-3.45L430.22,873l-2.28-2.32-1.17-4.57-1.13-2.3-1.17-2.28-1.15-1.17v-4.59l-1.13-2.3v-3.45l1.13-5.74-1.13-3.44L421,838.6v-6.91L419.9,826l-1.13-3.43v-3.47l-1.19-3.42v-8l-1.15-2.3,1.15-2.29v-4.59l-2.3-2.3-1.14-1.17L413,792.65v-2.29l1.14-2.29v-5.76l2.29-1.14,1.15-2.29v-2.3l-1.15-2.3V769.7l-1.15-1.15h-1.14V764l-2.29-3.44v-1.15l1.15-1.15,1.14-1.15L413,755.92l-1.15-2.31v-2.3l1.15-4.57v-8l2.28-1.13,2.3-1.14,1.19-2.31L419.9,733l-1.13-2.29-1.19-1.15-1.15-2.28v-6.91h-2.29L413,719.18v-3.45l-1.15-2.29,1.15-1.15,3.43-1.14h3.47l2.29-1.16,1.13-1.13,1.14-2.32V703.1l2.3-1.16,3.45-1.13v-1.15l1.16-2.3,1.15-1.14v-3.45l-2.31-1.14h-2.27v-1.15l2.27-3.44,3.44-2.32,3.45,1.18,1.18,1.14,1.12-2.32,1.16-1.14H437.1L436,681.3l-1.16-1.16v-3.45l-1.16-1.14-2.28,1.14-1.16-1.14-1.14-1.16,1.14-2.28V671l1.16-2.3-1.16-2.31-1.14-1.15-2.31-1.14-2.3-1.14h-1.15l-3.42,1.14-1.12,2.29h-2.34l1.15-2.29,2.31-3.44,3.42-3.45,1.15-2.3,2.3-1.13,1.17-1.16,2.28-2.3h2.31l1.12,2.3,1.17,2.29V656h-1.17l-2.28,1.13h-4.6v1.15l2.31,1.15h3.45l1.13,1.15,2.32,2.3,2.31-1.15,2.28,1.15H444l1.16,2.27v1.16l1.15,1.17,2.3,2.26,1.12-1.12,1.18-2.31,1.13-2.29-1.13-1.14,1.13-2.3,3.45-2.3,1.15,1.15,2.3-1.15,2.28-1.15Z" style="fill:#f9c27a;stroke:#ed2f11;stroke-miterlimit:10;stroke-width:3px"/><path id="map_background-19" data-name="map background-19" d="M741.4,521.67l2.31-3.44h-4.6l-1.14-2.3-1.14-2.29v-8l-1.16-1.16-1.14-1.13v-1.19l1.14-1.13H738l1.14-1.15v-5.73l-1.14-2.3V489.5l-2.31-1.15-1.14-1.13v-2.3l1.14-1.15,1.16-3.44,2.28-2.3h2.29l1.17,3.45,2.29,1.13h3.44l1.14-3.42,4.6,1.14,1.14,2.28,3.45-1.13,1.15-1.15-1.15-3.44,4.62-2.3,1.12,3.44h2.31l2.31,2.3h2.25l1.19,2.28,2.29,2.31v3.43h8l1.12,2.32,1.17,2.28-1.17,2.31,2.32,2.28h2.27v-1.13l-1.12-2.3v-3.44l1.12-2.32,4.62,6.91,2.28-1.15,2.29,1.15,2.32,4.57h3.45l1.13,2.28h2.29l3.46,3.47L808,507.86l1.14,3.44,2.29,1.16,1.16-3.44h4.6l3.45,2.28v-3.44h1.15l2.31-3.43,4.56,2.29-1.13,2.3,2.32,1.15h3.45l-1.18-3.45,2.29-1.14,1.15-1.15H839l1.16-4.6V496.4h4.57l1.15,2.28h3.48l1.12,1.15,3.43-2.29,1.17,1.15,3.43-1.15H862l1.15-2.28,2.28-2.32v-4.6l-2.28-2.26v-2.32l1.14-2.29h3.46L866.58,478v-1.13l-2.29-2.31-1.14-1.15L862,471.12h-1.16l1.16-2.29v-5.72l-3.46-1.17,1.19-4.57v-4.62l-4.62,3.47v3.43h-5.72l-2.3-1.15h-4.63v-1.13l-1.14-3.45,1.14-2.3,1.15-1.15,3.48,2.28h3.42l1.15-1.13-1.15-3.44-2.27-2.3-1.15-1.15-2.32-3.45-3.45,2.3H839L837.85,447h-5.74l-2.26-2.3-1.19-1.15v-3.45l-2.28-2.28v-6.91l1.14-4.59,1.14-3.44v-1.16l1.19-2.28v-4.6l1.13-2.3-1.13-1.14-1.19-1.14-1.14,1.14h-1.14l-1.17-1.14h-3.42l-2.28-1.14H816l-1.13-2.29-1.14-1.16h-1.17l-2.27-1.16L808,405.7h-1.14l-1.15-1.16h-4.59L800,403.4l-1.18-2.31h-3.43L794.24,400h-1.15l-1.16,1.14h-4.57L786.2,400V398.8l1.16-2.29,1.12-2.3h1.17l1.15-1.14v-4.59l-1.15-1.15-2.29-1.16-5.75-2.29h-3.45L775.87,385l-1.14,1.15-1.15,2.31h-2.33l-1.11,1.14-2.31-1.14-9.19-2.31h-3.45L752.88,385l-1.15-1.14-1.12-1.15H748.3l-5.74-1.15-2.31-1.15-1.15-2.29L734.51,377l-3.45-1.12-1.13-1.17-1.16,1.17-2.28-1.17v-3.45l-2.31-1.14-2.29-1.16-2.29-1.15h-1.14v-3.45l1.16-1.14h2.29l2.29,1.14h3.45l-2.29-2.28H723l-3.41-1.15-2.28-1.14h-5.77v1.14h-2.27l-1.16,1.15v1.14h-2.29l-1.19-1.14-1.14-1.15v-1.14l-2.29-1.16h-3.45l-2.29-1.14-1.17-1.14,1.17-1.16L692,354h-3.44l-2.32-1.13-1.11-1.16L684,350.58h-3.41V346l1.13-1.15V343.7h1.17l1.11-1.15-2.28-1.14-1.13-1.15-1.17-1.13L677.11,338l-2.3-1.13h-1.14l-2.29-1.15-1.14-1.16h-2.33l-2.27-2.29h-1.15l-1.17-1.16h-3.45l-2.27-1.14-1.15-1.15h-1.17l-1.12-1.16H653l-1.14,1.16-1.14-1.16-3.43-1.14h-4.61l-4.57,1.14h-4.6L630,328.78h-2.31l-1.13,1.15-1.15,1.14L622,327.62l-3.45-1.14H617.4l-3.47,1.14-2.28,1.16-2.3,1.15-1.14,2.3-2.31,1.13-1.13,1.16h-6.89v-2.29l-1.15-1.16h-3.45L591,329.93H580.65l-2.3-1.15-2.29,1.15h-1.17l-2.28-1.15h-3.43l-2.35,1.15h-3.42l-2.28,1.14H560l-2.33,1.16h-3.45l-1.13,1.13h-2.3l-1.15-1.13-1.15,1.13h-2.31l-3.43,1.16h-6.9l-2.29-1.16-5.76-1.13h-3.39l-2.3,2.29L521,335.68h-4.6l-1.16,1.15L514.07,338l-2.31-1.13L508.33,338h-3.46l-2.31,1.17-1.13,1.13H498l-1.16-1.13h-3.45L492.26,338h-1.21l-1.13-1.13-1.12-1.15-1.17-1.16-1.14-1.16-1.15,1.16h-1.16V338l-1.12,1.17-1.17,2.28-1.18,1.14v2.32l1.18,2.28v2.31h-1.18l-1.1,1.14h-1.19L475,349.46H472.7l-2.32-1.14h-1.13V346h-6.87v4.57l3.45,2.29,3.43,2.3,2.29,2.29,1.16,2.3,1.15,3.44-1.15,2.29v2.29l-1.16,2.31-1.16,2.3,1.16,1.14-1.16,2.32,1.16,3.44v2.28l1.16,2.3,2.3,2.3,2.29,3.45,1.13,1.14v1.14l1.19,1.16-1.19,1.14-1.13,1.15-1.15-1.15h-5.76l-1.13,2.31-1.15-1.16H467l-2.29,1.16-1.18-1.16-1.13,1.16-1.15,1.14h-2.3V400H455.5l-2.3,1.14-1.15,2.31,1.15,1.14V408l1.16,1.16-2.31,2.29-2.32-1.14h-2.27v2.28h1.16v1.15l1.12,2.33,2.31-1.18,1.15,2.3v2.31l-2.29,1.15-2.29-2.32h-2.3l-2.3,2.32v2.28l1.15,1.15h1.15l2.3,1.17,2.29-1.17,2.29,1.17,1.16,1.12v2.31l-1.16,1.15,1.16,1.14,1.15,1.15,2.27,1.15-1.12,1.15v2.29H453.2l-2.29-1.14-1.17-2.3-1.12-1.15L445.17,431,444,432.11l1.15,1.15,1.15,2.3,2.3,1.14-1.16,2.3,3.45,1.14,2.29,1.15,2.3-2.29h1.15l4.59,1.14v4.6h-2.3v1.15l1.16,2.3h1.14l1.15,1.14,2.31,2.3,1.13,1.13,2.28,1.17-2.28,3.45-1.13,2.28h-2.31v1.15l1.13,1.14H467l1.12,2.31-3.41,2.29-1.19,1.16-2.28-2.29h-3.46l-2.27,1.13v2.3l1.15,4.59v5.75l2.29,1.15,2.29,1.15v2.29H455.5l-1.15,1.15v1.16h4.59l1.16,1.13-1.16,2.29-1.17,1.17h-3.42l-1.16,1.13,1.16,1.15v3.46l1.15,1.14,1.15,1.15,1.12,1.14h3.46l1.16,1.15v2.32l-1.16,2.29-1.13,1.13v1.14l-1.16,1.17-2.29,1.15-1.15-1.15-1.15-1.17v-4.57H450.9l-1.17,1.14,1.17,2.29v2.31l-1.17,2.28h-2.27l-2.29,1.16L444,514.78l-1.15,1.16-1.14,1.13v5.77l1.14,2.29,1.15,1.13v4.58l-1.15,2.29-1.14,2.31v1.15l1.14,2.28,3.45,1.16h2.3v8l1.12,1.17v2.29l-1.12,1.13h-1.16l-2.29-1.13h-2.3l-1.14-1.14-1.15-1.15h-1.16l-1.12,2.29v1.13l-1.18,1.16H436l-2.31-1.16-1.14,1.16L431.36,555v1.15H436l1.14,1.13,1.18,1.16-1.18,1.15v1.14l2.3,1.16,3.45-1.16,2.3,1.16,2.29,1.14,1.16,1.15,1.12,2.29v1.16l1.17,1.14v1.16L449.74,571l-1.12,1.15v2.29l-1.16,4.6v2.31l1.16,2.29,1.12,2.29v1.16l-1.12,1.15h-3.45l-2.3-1.15-1.14,1.15-1.15,1.14-1.16,2.3v1.15l1.16,2.29,1.15,1.14v3.43l-1.15,3.47-3.46,9.19,3.46-1.15-1.16,3.43-2.3,2.3L436,619.26l3.44,1.16-1.12,3.44L436,625l-3.45-2.29-1.17,1.15L430.23,625l1.13,2.29H436l1.14,1.16L436,630.76h2.32v3.43l2.28,1.16,2.29,1.14,2.3-2.29,4.57,2.29-1.12,2.31,3.43,1.15,1.15,2.29h2.31l1.15,2.31v2.27L455.51,648l-2.31,3.43,2.3,1.15,2.27-2.31,5.75,2.31-1.13,1.14,5.73,4.6,2.28-2.3,5.76,1.15,1.15,2.3,2.32,1.15,2.27-1.15,1.18-1.15-1.18-3.45h10.36v-2.29l2.23-2.31L493.36,648l3.45-2.32,2.31-2.29,2.3,1.17v-2.31h3.44V638.8l-1.18-1.15V636.5l1.18-3.45,1.18-2.28,1.1-1.14h3.46v2.27l1.15,2.31,1.15,1.16,1.15,1.13,1.14-2.29,1.15-1.16,3.46-2.28,2.3,1.13,5.7-3.43-1.13-2.28L527.8,625h4.64v2.29l1.12,1.16h1.17L537,631.9l2.31-2.27,5.74-3.44,3.44,1.12,1.15-2.29h6.88l1.15,1.17H560l1.13,2.28,3.43-1.16,2.27,1.16,1.19-1.16,1.16-2.29L568,622.73l-2.29-1.13v-2.32l2.29-1.16h2.28l1.16,1.16v3.45h1.15l3.45,1.15h2.29l2.3-2.28v-2.31h1.16l1.13,2.31v1.14h1.16l3.44,1.14,2.29,1.15,2.3,1.16,2.3,1.13,1.13,1.16,1.17,1.16h1.15l2.31,1.14h1.14l1.15-1.14h6.88l2.3-1.16v-1.16l-1.14-1.13,1.14-1.16,1.15-1.15h1.13v3.44h2.31l1.16-1.13,1.12-1.16H622l1.16,1.16h1.11l1.18-1.16-2.29-1.15,1.11-1.14,1.18-1.14h5.75l1.14-2.31,1.16-2.3V602.07h-1.16l-1.14-1.15-2.28-1.17v-1.13l1.1-1.14,4.57-3.45,1.19,1.15v2.3H645l2.3-1.16,2.28-2.29,1.15-1.15,1.14-2.3,1.14-2.29,1.17-1.16,2.29-2.3,1.15-1.14,1.14-2.29-1.14-1.16-1.15-1.14,2.29-1.16v-9.19h-3.46l-1.12-1.13v-6.9l1.12-1.14,2.32,1.14,5.72,1.16,1.17,1.14,1.15,1.15h2.27l2.33,1.15,2.29-1.15,1.13-1.15,1.15-2.3,1.16-1.14,1.13-1.15h4.6l1.17,1.15,1.11,1.14,1.18,1.16h1.11l1.17-1.16h3.45l1.14-2.29h2.28l1.17-1.16h1.17l2.3,1.16,3.45-1.16h2.26l2.31-1.14,2.32,1.14h3.41l1.15,2.31,1.16-1.15,1.14-2.3v-2.3L715,552.67l-1.16-2.27-1.15-2.33v-1.13l1.15-2.3,1.16-2.29v-2.3l1.14-1.16L715,537.75l2.32-2.29h1.12l1.16,2.29,1.13,2.3,1.16-1.16,1.12-1.14,1.18-2.29v-1.14L723,533.15l2.34-2.29h1.15l1.14-1.16,2.3,1.16h2.29l2.29-1.16h1.14v-1.13h1.16l1.15-1.15v-1.16l-2.31-1.13,1.16-1.17h3.43Z" style="fill:#f9c27a;stroke:#ed2f11;stroke-miterlimit:10;stroke-width:3px"/><path id="map_background-20" data-name="map background-20" d="M206.35,644.87l1.1,4.58-1.1.82v-1.14h-1.19L202.88,648v-2.32h-1.15l-1.15-1.13h-3.46l1.19,2.28V648l1.15,1.14-1.15,1.14-1.19,1.15,1.19,1.16,1.15,1.15,2.27,1.14L204,656h2.31l2.28,1.15h1.15v1.15l-1.15,2.31,1.15,1.14,1.12,1.14,1.2,1.15-1.2,1.15h-1.12l-1.15,2.31v2.28l2.27-1.14,1.2,1.14v2.3l1.1,1.14h1.15l1.2,1.14h1.11l1.16,1.16,1.14,1.13h2.31l1.14-1.13h2.3l1.16,2.31,1.11-4.61,4.61-2.28,1.14,2.28,5.74-1.14v-3.44l2.29-2.29,1.16-2.31h2.28v-2.29l2.29-3.45L244.2,656l2.29-2.28,2.32-1.15,1.16,2.29v2.3l-1.16,1.15h2.3l1.15,3.45h1.14l2.3,1.14,2.3-2.28-2.3-2.31,1.15-1.15,1.15-3.43,2.29-1.16,1.18-3.44,1.11-2.31-3.44-1.15,1.15-2.29,1.18-3.44,3.4,1.14v-5.74L263.72,633v-2.29l1.15-2.29,1.15,1.16,2.31,1.14,2.29-3.46,3.45,1.16,3.46-3.45,1.16-1.14-2.33-2.28,2.33-2.3,1.13-1.17,1.14-2.27,1.16,3.44v2.3l1.12,2.28,2.33-1.15v-2.29l1.13-2.32,2.32-3.43,2.28-1.15v-2.28H289l-1.12-1.15-1.2-2.29,1.2-1.16h3.39l2.27,3.45h2.33l3.45-1.17V605.5l4.6,1.14-1.16,3.46,1.16,3.42v2.33l3.44-1.18,3.45,1.18L312,617h1.16l2.31,3.46L320,617l-2.28-2.3,3.42-3.43h2.3l1.18,3.43-1.18,2.3v2.32l1.18,1.14,2.26-3.46,1.17-1.12L329.2,617l1.11,2.32L328,621.58l2.27,4.59h3.46l2.29-5.74,2.3,1.15,2.29-1.15,1.17,1.15,2.29,2.28,1.14-3.44,2.3-2.32,2.29-1.13,1.14,2.31,2.29,2.3,3.46-2.3,1.19-2.31h5.67v3.45l3.49,1.16h2.28l2.32-2.3h3.45l1.14,2.3-1.14,2.28,1.14,1.14h1.15l1.15-1.14v-3.44l2.29,1.15,1.15,1.14,1.15,2.29-2.29,1.16v3.45h2.29l1.17-1.16,2.27-1.16,1.12-3.43-2.26-1.15,2.26-5.74h1.19v3.45l1.12,3.44,1.18,1.14v-3.43l1.15-2.3h1.13l2.29,1.15-1.13,3.43,3.43,3.43,2.32,2.32,2.28,1.14,1.14-1.14-2.3-2.32-3.44-4.56,1.15-2.29,1.17-2.32,2.28-2.27,1.14,1.13,2.29-1.13V617l1.16,1.14v1.18l1.14,2.29v2.29l1.18,1.14h5.71l2.3-1.14h1.18l1.14-3.44H410.7l-1.1-2.32,1.1-2.27h4.6l2.3-1.17,1.18-1.15,1.14,1.15v3.44l1.15,1.17,2.27,3.43,2.32-1.13,1.13,1.13H428l-1.16-2.29,2.3-2.32,1.15-2.26h4.6v-3.43h2.29l3.47-9.2,1.13-3.46v-3.43l-1.13-1.15-1.18-2.28V591.7l1.18-2.29,1.13-1.15,1.15-1.15,2.3,1.15h3.45l1.12-1.15V586l-1.12-2.28-1.16-2.3v-2.3l1.16-4.58v-2.31l1.12-1.15,1.17-1.14v-1.16l-1.17-1.14v-1.15l-1.12-2.29L447.47,563l-2.29-1.14-2.3-1.16-3.46,1.16-2.29-1.16v-1.14l1.17-1.15-1.17-1.16L436,556.11h-4.61V555l1.15-1.16,1.15-1.14L436,553.8h1.13l1.17-1.14v-1.15l1.13-2.29h1.17l1.14,1.14,1.14,1.15h2.31l2.29,1.15h1.16l1.12-1.15v-2.29l-1.12-1.17v-8h-2.3l-3.45-1.16-1.15-2.29v-1.15l1.15-2.31,1.15-2.29v-4.59l-1.15-1.14-1.15-2.29v-5.76l1.15-1.14,1.15-1.16,1.15-2.28,2.29-1.17h2.28l1.17-2.28v-2.27l-1.17-2.29,1.17-1.14h3.46v4.57l1.13,1.15,1.16,1.14L459,509l1.16-1.15v-1.14l1.13-1.14,1.16-2.29V501l-1.16-1.14H457.8l-1.12-1.16-1.16-1.15-1.13-1.14V493l-1.17-1.16,1.17-1.14h3.41l1.16-1.15,1.16-2.3L459,486.1h-4.57v-1.16l1.13-1.15h5.74v-2.28l-2.3-1.16-2.28-1.16v-5.73l-1.16-4.6v-2.3l2.28-1.17h3.45l2.3,2.31,1.17-1.14,3.41-2.3L467,462h-3.49l-1.14-1.16v-1.15h2.3l1.13-2.28,2.29-3.44-2.29-1.16-1.13-1.14-2.3-2.31-1.16-1.14h-1.13l-1.17-2.3v-1.14h2.3v-4.6L456.67,439h-1.16l-2.3,2.29-2.29-1.15L447.48,439l1.16-2.29-2.3-1.15-1.15-2.29L444,432.1l1.15-1.15,3.45,1.15,1.11,1.17,1.18,2.29,2.29,1.15h3.46V434.4l1.12-1.13-2.28-1.17L454.39,431l-1.17-1.14,1.17-1.14v-2.31l-1.17-1.14-2.29-1.14-2.29,1.14-2.3-1.14h-1.15L444,422.92v-2.29l2.3-2.3h2.3l2.29,2.3,2.29-1.15v-2.3l-1.16-2.29-2.31,1.16-1.11-2.31v-1.16h-1.16V410.3h2.27l2.31,1.14,2.32-2.29L453.21,408v-3.44l-1.16-1.14,1.16-2.31,2.3-1.14H459v-2.3h2.3l1.16-1.15,1.14-1.15,1.16,1.15,2.31-1.15h1.11l1.15,1.15,1.16-2.32h5.73l1.17,1.17,1.11-1.17,1.2-1.12-1.2-1.14v-1.16l-1.11-1.15L475,386.17l-2.3-2.29-1.15-2.3v-2.29l-1.13-3.44,1.13-2.3-1.13-1.16,1.13-2.29,1.15-2.31v-2.27l1.17-2.32-1.17-3.43-1.15-2.3-2.29-2.3-3.44-2.3-3.43-2.28h-1.16l-1.13,2.28H459L457.79,354v1.16l-1.12,2.3h-2.29l-2.32,1.15-2.31-1.15h-1.11l-2.31,1.15h-1.15L444,359.77v1.14l-1.15,1.15h-1.15l-1.13-1.15h-2.29L436,362.06l-2.31,1.14v1.15l-1.15,1.17-2.29,1.13-1.15-1.13-2.3-1.17h-3.45l-1.13-1.15,1.13-2.29v-2.29l-1.13-2.3v-1.15L421.07,354h-2.28l-1.18,1.16h-1.15V354h-2.28L413,355.17h-1.17L410.69,354V348.3l1.17-1.16L410.69,346h-1.1l2.27-3.46,1.16-1.15,1.14-1.14h3.43v-1.14l-1.15-2.3-4.56,1.13H405l-4.57,1.17H398.1l-2.29,4.56L398.1,346h-5.72l-1.15,1.14-2.3,3.44-1.18,1.13-6.86,2.3-4.6,1.16h-3.46l-8-1.16-2.3,1.16h-1.13l-1.18,2.3v2.29H348.71v1.14H343v-1.14l1.13-1.15v-1.14L343,356.3l1.13-3.44L343,351.7h-1.16l-3.46,1.16h-8l-2.27-1.16-1.17-1.13-1.13-1.15H322.3l-1.15-2.29L320,343.67l-2.28-1.15-1.16-1.14v1.14l-1.13,1.15h-4.6l-1.17,1.15h-2.28l-1.14-1.15H304l-1.16-1.15-2.31,1.15h-5.72l-1.19-2.29-1.12-1.15V339.1H289l-2.32,2.28h-1.12v-1.15h-9.2V339.1H275.2l-1.12-1.17-1.17-1.13-3.39-2.31H256.85l-3.44-1.16V332.2l1.12-1.16-1.12-2.29L250,327.59l-2.31-1.14H246.5l-1.12-1.15-1.17-2.3h-3.44l-2.29,1.14v1.16h-2.31l-1.11,1.15v1.14l-1.18,1.16h-5.72L227,327.59h-2.27l-1.18,1.16-1.12-1.16h-1.14L219,326.45H204.05l-3.46,1.14h-3.46l-2.27,1.16h-9.17l-2.33-1.16-1.14,1.16h-4.59l-3.46,1.15h-8l-2.29-1.15h-4.57L157,327.59h-11.5l-1.17,1.16-1.13,1.15-2.32,1.16h-2.28l-1.19,1.15h-2.29l-2.3,1.14h-5.74l-1.14,1.15h-2.31l-2.27,1.16-1.16-1.16H119l-1.13,1.16-1.17,1.15h-4.56l-2.29,1.13h-2.32l-2.28,1.17-1.14,1.14-3.44,1.15H96.08l-4.56,1.14h-1.2l-1.15,1.15,1.15,4.61,2.34,1.14-1.15,2.28L90.32,354,88,352.88,86.92,354l-1.17,1.16-2.31,1.15,1.18,1.15-1.18,4.59v8l1.18,1.15v1.15l-1.18,1.15L81.17,377l1.16,1.15,1.11,2.29,3.48,1.15,2.25,2.3L91.51,385v10.35l2.28,2.3-1.13,1.14L90.32,400l-1.15-1.16H86.92L85.75,400l-1.13-1.16-3.43-2.29L80,395.37,78.9,394.2H73.15L72,395.37l1.15,1.15V400l1.12,1.14-1.12,1.16L72,403.42v8h1.15v3.46h9.19l1.11,1.16v1.13h2.32v1.15h2.28v2.3H86.94l-2.3,1.14H80l-1.09,1.15-1.17,1.16H75.42v1.14l-1.17,1.14-1.13,1.16v3.4l1.13,2.32,1.17,2.29L80,437.83v5.74l-1.1,1.15H77.7L76.55,447v1.14l2.32,1.14v1.15l-1.17,2.29v1.16h1.17l1.1,1.14v1.16l1.2,1.15,2.26-1.15,1.18-1.16,2.3,1.16L88,457.36v1.14l1.14,1.14,1.16,2.3,1.18,1.16,1.15,1.15-1.15,1.13v2.31L90.32,470l-1.16,1.15H88v2.31H85.76l-2.32-1.14H82.33l-1.15,1.14L80,475.73h2.35l1.11-1.16v6.92l1.19,1.11-1.19,2.31v3.44h1.19l2.3,1.16v1.15H88l1.14-1.15,1.16-2.3h1.18v1.14h1.15l1.13-1.14h2.3l1.15,1.14h1.12l1.18,1.16,1.16-1.16,1.13,1.16,1.15,1.15,1.16,1.14v3.46l1.14,1.14,1.13,1.14,1.15,3.45H111v-1.14h1.18l1.17-1.16h2.27l1.13,1.16V501l1.17,1.13-1.17,1.18-1.13-1.18,2.3,2.32h2.29l1.16,1.15h1.14v-1.15l1.13-1.14v-1.18l1.16-1.13,1.16-2.3,1.13-1.15v-3.43l2.33-1.14h3.41v2.3h2.3l1.16,1.14,1.13-1.14H142l1.14,1.14v1.14l1.12-1.14,1.18-1.14h1.12l1.19,1.14,1.15,1.14,1.1,1.15,1.19,1.15V501h1.15l1.12,1.13,1.18,1.19h1.12l3.47,1.13,2.29,4.6,1.15,2.28v1.17l-1.15,2.28v2.3l1.15,1.16,2.3,3.45V524l1.13,1.16,1.18,1.14h3.43l1.15,1.15v1.15L173,529.7v1.16L171.89,532h-2.32l-1.14,1.13v2.3l-1.13,1.15-1.17,1.16,1.17,1.13v2.31l-1.17,3.44v2.3l3.44,4.6,1.16,1.15h1.15l1.13,1.14v2.31l1.14,1.13h1.18l3.41-1.13h3.46V555l-1.13-1.16v-2.29l-1.15-1.15h-2.31l-1.15-1.14-1.12-1.17,1.12-2.27,3.46-1.16,1.15-1.15,1.13-1.14v-2.3l-1.13-1.16v-2.31l2.27-1.15v-2.31L184.5,532l1.17-2.32h3.45V532l2.28,1.13,1.14,1.17h2.3l1.14,4.57v5.75l-1.14,2.29-2.3,2.31-1.14,1.14-1.14,2.3v3.45L188,557.25l2.31,1.16h2.28l1.17,1.15L196,560.7v1.16L194.84,563v1.15l-1.13,1.15h-3.45v1.14h-1.15l-2.34,2.29,2.34,3.46h-5.77l-1.14-2.3L181.07,571l-1.15,1.16-3.46,1.14v2.29l1.15,1.15h5.74l1.15,1.17v3.43l2.27-1.15H188v4.59H184.5v-1.14h-2.3v3.44l2.3,2.3v1.15l-1.15,1.14-1.15,1.16L179.92,594l-1.18,1.14H188v3.45h2.31l2.28-2.3,1.17-1.15L196,594h3.48l2.27,1.14,2.31,2.31,3.41,4.59h1.18V600.9l1.15-1.17,2.32,2.32v1.14l1.09-1.14,1.16-1.15,1.19-1.17,2.27-1.13,1.15-1.14,1.09-2.31V594l1.22,1.14v1.15l1.14,1.16h1.13v2.27h-1.13l1.13,3.46-1.13,2.3h-2.35l-2.24,1.14L219,607.8l1.09,2.29h2.36v1.15h1.12l2.33,1.15h2.29l1.11,1.13-1.11,1.14V617l1.11,2.32-1.11,2.29H227l-2.28,2.29h-1.17l-1.12-1.15-2.36-1.14H219V625l1.09,1.16h1.22l2.26,1.13,1.18,3.45-3.44,3.45-1.22,1.15H219V634.2h-3.42l-1.2,1.15-2.25,1.14-1.2,1.16v8l-4.54-1.13Z" style="fill:#f9c27a;stroke:#ed2f11;stroke-miterlimit:10;stroke-width:3px"/><path id="map_background-24" data-name="map background-24" d="M225.86,677.84l1.13-4.59,4.61-2.3,1.12,2.3,5.75-1.16v-3.44l2.31-2.29,1.13-2.3h2.29v-2.29l2.28-3.45L244.2,656l2.28-2.28,2.34-1.16,1.16,2.29v2.3l-1.16,1.15h2.29l1.14,3.45h1.16l2.29,1.14,2.31-2.28-2.31-2.31,1.12-1.15,1.19-3.43,2.28-1.15,1.17-3.45,1.13-2.31-3.44-1.15,1.14-2.28,1.17-3.45,3.41,1.14v-5.72l-1.14-2.31v-2.3l1.14-2.27,1.15,1.14,2.32,1.13,2.29-3.45,3.45,1.18,3.43-3.47,1.16-1.16-2.32-2.28,2.32-2.3,1.13-1.17,1.15-2.28,1.15,3.44v2.3l1.11,2.28,2.35-1.15v-2.28l1.1-2.32,2.34-3.44,2.28-1.15v-2.28H289l-1.14-1.14-1.2-2.3,1.2-1.15h3.42l2.28,3.45h2.32l3.45-1.18v-3.43l4.61,1.16-1.16,3.46,1.16,3.42v2.32l3.45-1.18,3.43,1.18L312,617h1.14l2.32,3.44L320,617l-2.29-2.32,3.43-3.43h2.29l1.18,3.43L323.41,617v2.3l1.18,1.14,2.27-3.44,1.15-1.14,1.17,1.14,1.13,2.3-2.3,2.3,2.3,4.59h3.45l2.28-5.75,2.3,1.15,2.29-1.15,1.16,1.15,2.3,2.28,1.14-3.43,2.31-2.32,2.27-1.13,1.15,2.3,2.3,2.3,3.47-2.3,1.16-2.3h5.68v3.45l3.49,1.15h2.29l2.3-2.3h3.47l1.12,2.3-1.12,2.28,1.12,1.16h1.17l1.14-1.16v-3.44l2.28,1.16L382,622.7l1.18,2.31-2.31,1.15v3.44h2.31l1.17-1.14,2.27-1.18,1.13-3.43-2.28-1.15,2.28-5.73h1.18v3.44l1.12,3.44,1.16,1.16v-3.44l1.17-2.3h1.13l2.29,1.14-1.14,3.44,3.44,3.43,2.29,2.32,2.29,1.14,1.16-1.14-2.29-2.32-3.45-4.57,1.15-2.29,1.14-2.31,2.29-2.27L403.8,617l2.28-1.14V617l1.16,1.13v1.17l1.15,2.3v2.28l1.18,1.16h5.7l2.3-1.16h1.19l1.15-3.44h-9.23l-1.11-2.31,1.11-2.27h4.6l2.3-1.18,1.19-1.14,1.15,1.14v3.45l1.1,1.17,2.3,3.43,2.32-1.13,1.13,1.13h1.17l-1.17-2.29,2.3-2.31,1.15-2.27h4.59v-3.45h2.3l3.46-1.16-1.17,3.43L437.11,617l-1.14,2.3,3.43,1.14-1.12,3.44L436,625l-3.45-2.31-1.17,1.15L430.22,625l1.13,2.27H436l1.14,1.18L436,630.75h2.31v3.45l2.29,1.15,2.28,1.14,2.31-2.29,4.56,2.29-1.12,2.31,3.4,1.14,1.19,2.29h2.3l1.15,2.31v2.28L455.49,648l-2.3,3.44,2.3,1.15,2.28-2.31,5.75,2.31-1.15,1.15-1.16,3.43-2.28,1.15-2.29,1.15-1.15-1.15L452,660.62l-1.1,2.28,1.1,1.15-1.1,2.3-1.17,2.29-1.12,1.14-2.3-2.28-1.15-1.15v-1.14L444,662.92h-3.43l-2.29-1.14L436,662.92l-2.31-2.28-1.14-1.16h-3.45l-2.3-1.15v-1.15h4.56l2.32-1.15h1.15v-1.17l-1.15-2.29-1.14-2.31H430.2l-2.28,2.31-1.17,1.15-2.3,1.14-1.14,2.29-3.41,3.46-2.34,3.44-1.14,2.3h2.33l1.15-2.3,3.41-1.16h1.15l2.3,1.16,2.3,1.14,1.15,1.16,1.13,2.29L430.21,671v1.13l-1.15,2.29,1.15,1.15,1.13,1.15,2.31-1.15,1.15,1.15v3.46l1.16,1.16,1.14,2.28h3.46l-1.17,1.14L438.27,687l-1.17-1.14-3.45-1.18L430.21,687l-2.28,3.44v1.15h2.28l2.3,1.15v3.45l-1.17,1.13-1.13,2.3v1.15L426.76,702l-2.3,1.14v3.45l-1.15,2.3L422.18,710l-2.28,1.15h-3.48L413,712.28l-1.14,1.14,1.14,2.3v3.46l1.15,1.13h2.29v6.9l1.14,2.29,1.19,1.15L419.9,733l-1.15,1.13-1.19,2.32-2.29,1.15L413,738.68v8.06l-1.14,4.57v2.29l1.14,2.31,1.15,1.15L413,758.21l-1.14,1.15v1.14l2.29,3.45v4.6h1.13l1.16,1.13v4.59l1.14,2.31v2.29l-1.14,2.29-2.29,1.16V788L413,790.35v2.29l1.15,2.31,1.13,1.15,2.3,2.29V803l-1.14,2.28,1.14,2.31v8l1.19,3.43v3.47l1.15,3.43,1.11,5.74v6.89l1.16,2.3,1.14,3.45-1.14,5.73v3.46l1.14,2.29v4.59l1.14,1.16,1.17,2.29,1.13,2.3,1.17,4.59,2.28,2.3,1.13,1.14v3.44l1.18,2.29h2.28l1.16,2.32,1.14,2.29v2.29l1.17,3.45v2.3L437.09,896v1.14l1.17,2.3v3.45L437.09,904v2.3l-2.3,2.29-2.28,3.46,1.14,1.14,1.14,2.3v2.3l1.16,3.45V927l-1.16,2.3v2.28l-2.28,1.17-2.31,1.14L429.06,935h-1.14l-1.17,1.15h-3.44l-2.3,1.15-1.11-1.15h-2.34L416.42,935h-1.15L413,936.17l-1.15,1.15,1.15,2.3,1.15,1.15v1.15L413,943.07v2.29h-1.15l-2.28,2.29h-2.33l-2.29-1.14-1.15-1.15h-1.14l-1.13,1.15h-8l-1.13,1.14h-1.16L390,946.51h-1.12l-2.32,1.14h-1.15l-1.11-1.14-1.17-1.15H382l-5.73-1.15-1.12-1.14L374,941.92h-5.74l-5.74-1.15h-2.32v-3.45l-1.13-1.15-1.13,1.15h-3.47l-1.17-1.15L351,935h-3.41l-1.13,1.15h-5.79L339.54,935h-2.32l-1.16,1.15H334.9V935l-1.12-1.13h-2.3L330.33,935l-1.13-1.13v-1.14L328,931.58l-1.15-1.17h-4.61l-4.57-1.11h-4.62l-1.14,1.11H301.58l-1.13,1.17v4.62l1.13,2.33L300.45,942l1.13,4.59v1.14l2.34,1.14,1.13,3.47,2.31,3.42,3.43,4.6,1.13,2.29-1.13,3.45v2.3l-1.17,3.45-1.12,3.43-1.14,2.29L304,981l-2.33,3.45-1.14,2.29v5.76l1.14,1.14v4.6l1.17,1.14v4.6h-1.17l-2.27-1.15-1.14-1.14-2.32-1.15-2.32-2.3-1.12,1.14h-5.77l-1.11,1.16-3.45-1.16L281,997.05l-1.16-1.15h-1.12l-1.17-1.14h-1.15l-2.29-1.16-2.29,1.16-5.77-2.3-1.15-1.14h-2.28l-1.13-1.16h-1.17V989l1.17-1.14,1.13-1.18v-4.57L261.46,981h1.13l2.28,1.17h2.31l1.15-2.31-1.15-2.31v-2.29l1.15-1.14,1.16-1.14v-5.76l-1.16-1.13-1.15-1.14L266,963.74v-2.26l-1.15-1.16V958h-2.28l-1.13-1.12h-4.64l-1.13-1.17v-9.18l1.13-2.3,1.19-2.29V940.8l1.14-1.16-1.14-2.3h-4.6l-1.16,1.17-1.14,1.13-2.29-1.13-2.34-1.17v-4.57l1.18-2.33v-2.28L250,927l3.43,1.14h1.12l1.16-1.14,1.13-1.16,1.19-1.13-1.19-1.17-1.13,1.17h-1.16l-1.12-1.17v-1.13h-4.59l-1.16-1.15v-9.19h-4.59v-2.3l1.13-1.15,2.28-2.3v-1.15l1.18-2.29,1.15-1.14,1.17-1.15v-9.19l1.12-1.15h2.3l2.29-2.31,2.31-1.14,3.45-1.15h1.13l1.14-1.14h3.46l1.15,2.29,1.16-1.15v-8H266l-1.15,1.14h-4.57l-1.14,1.15-2.32,1.16-1.13,1.16h-4.59L250,881.08v-4.57l2.27-1.16,1.15-2.29v-3.47h3.42l1.18,2.32h1.14l2.31-1.15v-2.31l-1.17-2.28h2.3l1.14,1.15h1.14l1.15-1.15,1.17-2.3,2.31-1.15,1.13-1.14h1.16l1.12,1.14,1.17-1.14v-3.46l2.29-2.29v-5.75l-2.29-1.14v-3.45l-1.17-1.14-2.28-1.16L268.34,842h-3.47l-2.28,1.16-1.13,1.16-2.31,2.28v1.16l-2.32,2.29-2.3,3.45V857l-1.12,2.3v4.6L255.7,865v1.16h-3.44l-1.15,1.16H250l-2.32-1.16h-8L236.16,865l-3.44-1.13-2.29-1.15h-2.28l-3.44-1.14h-8.06l-4.57-1.16-2.31-1.15-2.32-1.15-2.29-2.3L204,853.53l-3.45-4.59-2.29-3.45,1.15-1.14h1.14l1.13-1.16,1.16-1.16,2.29-2.28,2.29-2.31,1.18-2.27v-4.6l-1.18-1.15h-2.29l-3.45,1.15-2.27,2.3L197.11,834l-4.6,1.16-1.11,1.14-1.15-1.14v-6.91l1.15-2.3,2.3-5.73,2.28-3.44V814.5l1.13-1.16h11.52l3.45,1.16h3.43l2.31,1.14,3.44,1.15H227l1.16-1.15,1.11-1.14v-6.9l-1.11-2.3-2.28-3.45-2.33-3.44L221.26,795l-3.44-3.43,2.22-3.47L219,786.93h5.74l2.28,1.14,4.61-5.73,1.13-1.16h4.59l1.14-1.14-1.14-1.15-1.17-2.29-2.29-2.3-1.14-1.13v-2.3l-1.13-2.3h-1.16v-2.29l-1.18-1.15L227,764l-1.12,1.15-1.16,1.15h-1.17l-2.27-1.15-2.3-2.31,1.08-2.29v-3.45l-2.22-2.29h4.59l1.12,1.15h2.32l1.13-1.15,1.16,1.15h1.11v-4.6h2.33l-1.16-3.44v-5.75l-1.17-4.56-1.11-1.15v-1.2L227,733l-1.13-2.31v-2.28l-1.16-1.17-1.17-2.3-1.12-1.13h-5.77l-1.13,1.13v1.15l1.13,2.32h1.18v1.13H220l1.21,1.15L220,731.81h-4.54l-1.15-1.15-1.17-1.15-1.11-1.13h-1.19l-1.12,2.28-1.14,3.44v1.14l-1.18,2.32h-1.11L204,738.68v1.16L202.85,741h-1.17l-1.12-2.32v-3.44l1.12-2.27,1.17-1.16,3.46-1.15,1.12-1.15h-2.3l-2.28-1.14h-4.57l-1.18-1.16L196,726.06h-2.28l-1.19,1.15-3.41,2.3-1.15,1.15h-2.29l-1.15-2.28v-2.32l3.44-4.58,2.3-1.16,1.15-1.13,1.11-2.3,2.32-1.16h2.28l1.18,1.16,1.15,3.43-1.15,2.31,1.15,1.15,1.14-2.3,2.29-1.16,2.29-3.43,2.29-3.46,2.32-2.28,3.42-3.45,1.17-1.15V705.4l2.28-2.31,1.18-1.14,1.14-5.73v-1.17l1.09-2.29,1.21-3.46L222.4,687v-1.14l1.13-2.32v-1.15l1.16-1.13,1.16-1.16L227,679v-1.15Z" style="fill:#f9c27a;stroke:#ed2f11;stroke-miterlimit:10;stroke-width:3px"/></svg>