<svg id="Layer_1" data-name="Layer 1" xmlns="http://www.w3.org/2000/svg" viewBox="0 0 900 1366"><title>alldivs</title><path id="map_background-38" data-name="map background-38" d="M659.08,1201.15h-4.21l-6.33-5.27-3.19-5.24-4.21-7.4-5.26-3.16h-6.33l-5.26,1-4.22-4.21-3.16-1-4.23-3.16v-3.16l3.16-3.14,3.16-2.1,5.27-4.23,5.26-3.16,2.11-7.38-3.16-4.21-5.26-2.12-6.33-4.19v-1.09l-1-3.13,1-4.21,3.16-7.39,3.15-6.34,2.1-7.38,3.16-7.37,2.12-5.26-1.05-4.24-3.16-4.19-3.15-4.24-2.11-5.26-3.16-5.28-3.15-4.22-3.15-4.23-2.12-3.13,1-5.31,1.07-3.15,3.14-2.12,2.12-2.07,7.38-5.31,4.19-3.16,1-4.19-1-8.43-1.05-4.22v-5.25l2.11-2.11,2.12-3.17,2.1-2.1,3.15-2.1v-1.06l1.06-3.15,1-3.14,1-2.13,1-2.1,3.16-6.35,1-3.13,2.12-1.06h4.22l3.15-1h3.15l4.21,1,4.22,2.1,2.11,1.06,2.12,1.05,1,3.15,2.11,4.23,2.13,2.12,2.08,3.13,1.06,2.12v6.32l-1.06,5.26,2.13,1.06,1,1,2.12,1.06h6.33l2.1,2.1-2.1,4.24-2.14,4.21-2.1,4.22-4.23,5.26-3.16,3.15-3.14,4.25-2.1,4.21v2.12l-1.06,4.22,1.06,2.1,2.1-1.06h6.32v2.14l-4.19,1.05-2.12,2.08v8.43l1.06,5.28,2.09,6.31,2.12,5.28L679,1101.06l1.05,8.44-1.05,5.27-2.11,5.27-2.11,3.15-4.22,1.06-3.15,2.1-1.06,4.23,1.06,6.33,3.15,2.12,3.14,4.19-1,4.24-2.12,3.13-3.15,5.3-2.12,5.27v4.21l1,5.25,1.06,4.21-1.06,4.24-1,5.27-2.09,6.33-2.13,8.43Zm28.45-5.26-2.11,4.24h-1l-2.11,2.09v3.14l2.11,2.13,2.11,1.07,2.1,3.13,1,5.27,2.11,1v1l3.16,2.11v4.23l2.12,3.15h4.22l3.15-1,4.21-2.11,2.12-4.23h1v2.1l-2.11,3.18-2.1,5.26-1.06,4.22-1,5.27v3.13l4.23-1,5.25-2.09,2.12-2.11,2.12-2.09,5.24-2.15h1.06l4.22-3.14,2.12-1.06,1-1,1.06-2.1,1.05-3.15,1-2.13,2.13-2.07v-4.25l2.1-3.13-1.06-4.19-5.25-3.2-6.33-4.21-3.19-2.09-1-4.22,1-4.23,2.14-3.16,3.15-2.13,3.15-2.08,3.16-2.13,2.13-2.09v-1l-1.06-3.16-9.48-5.27-2.12-2.1-3.15-3.16,1-4.22,6.33-2.12,3.15-1,3.16-2.14v-5.25l-2.1-4.2-2.12-4.23-1-4.21-1-2.1-2.1-3.17-4.23-3.16-4.21-2.1-4.24-3.17-5.25-6.33-3.16-3.14-1-4.24-2.13-5.26-2.1-4.22-2.12-3.15-4.22-4.24h-3.16l-5.26,1.06-3.15,1v1l-1,3.15-1.06,6.35v11.58l-1,3.16-2.11,4.22-3.16,2.12-3.15,1.05-3.15,2.12,1,4.19,4.21,3.15,3.18,2.14,1,4.19-1,5.26-2.14,3.16-2.09,2.13-2.12,4.19-1.05,5.27-1,5.27v4.19l1,4.23,1.05,4.21v2.13l-1.05,5.26-2.12,5.27-2.12,4.21-1,3.15-2.12,4.22-4.22,2.13-2.1,1.07-3.18,2.09-1,3.13,3.17,3.18,2.08,4.2v7.38l2.13,1,9.5,3.17,4.22,2.09,2.09-1v3.17l1.06,3.13,4.21,1.08,2.11,1,4.22,1h2.11l2.12-1H696l2.12-1,1-1.08v-1l-1-2.09-3.16-1.07-1.05-5.27-1-3.15v-3.15l-1.06-1.07-2.12-2.09-2.11-2.11v-3.18l-1-2.1-1-2.09-1-1-4.22-3.16-2.11-4.21,1-3.16,3.15-2.14,2.11-1,1-3.15v-3.16l-3.15-5.29-1.06-3.14-1-2.09,2.11-2.1,2.11-2.12,3.14-2.12h1.06l1-1,1.06-1,1-1v-4.22l-1-3.16v-2.11l2.12-1,1-2.12v-2.11l1-3.16v-3.18l1.05-2.07,1.06-2.14,1-1v2.08l-1,2.11-1.06,3.17v4.24l-1.05,3.14-1,3.15v3.16l-2.11,7.36-3.16,2.12-3.15,2.1-2.1,4.21,2.1,5.29,2.1,4.21,0,5.26ZM751.82,1218l3.17-3.16,2.1-3.16,2.11-3.13-1.05-4.26v-2.09L756,1197l-1-6.34-1.06-5.27-1-6.32-1.06-6.32-1-6.34-1-7.38-2.11-5.24-2.1-6.33-2.12-6.34-2.12-3.18-3.15-2.09-4.22-1-1,2.11,2.12,4.22,1,5.24,2.11,5.28v3.14l-3.15,3.17-4.22,1-3.15,3.16-1,3.16,7.38,4.21,3.14,3.15,3.16,6.34-3.16,3.14-4.22,3.16-4.21,2.11-2.11,3.16-1.06,6.34,5.28,3.16,4.22,2.1,4.21,3.14,4.23,4.23-1,4.21,1,5.29,2.12,2.09Zm-131.73-34.78-1-4.22-3.16-2.12-3.16-2.11-2.11-2.1v-4.2l5.27-4.22,5.27-3.15,4.21-3.18,3.15-3.18v-4.19l-2.09-3.13-2.11-2.12-4.23-2.12-3.15-2.1-2.1-1-1.06,1-1,1-1.05,4.24-1.06,3.15-2.1,4.25-1,2.11-1.06,5.27-1,5.25,1,7.38,3.15,5.26,2.13,2.09,3.15,2.12,3.15,1.07Zm-20,39,1-10.53,2.12-7.38,3.16-5.27,1.06-6.33v-4.22l-2.13-5.26L603.2,1178l-2.11-2.11-2.11,5.25v17.93l-1.05,5.27v6.33l-1.06,4.22v6.32l1.06,2.09Zm60.06,56.91,4.24-1,4.22-1,3.13-2.12,3.16-1,2.12-3.18v-3.17l-2.12-4.24-5.27-4.21-5.24-4.23-5.27-4.2-3.15-4.19-3.19-5.27-4.21-5.28-5.24-4.19-4.21-7.39v-3.16l2.09-7.38,2.12-4.21,2.1-3.17,1-2.09,2.1-3.16-2.1-3.16-4.21-6.31-3.14-4.25-3.17-3.13-4.22-2.14-6.34,1-4.21,1.07h-1l-3.16,4.2-3.16,4.22-1,2.13-1,4.19-2.12,5.27-2.1,5.26-1.05,5.27-1,8.41,2.1,6.35,3.15,5.25,3.16,4.23H618l2.11-1-1,3.16,1,2.09,5.27,5.27,3.16,3.15,2.11,3.14v4.24l1.05,4.2-1.05,5.27-1,6.34,6.33,2.12h5.26l5.26-1,2.11,2.1,1.05,1,1,2.13Zm-6.31-52.68v-4.24l-2.11-4.2-2.11-3.15-2.11-1.07-2.11,1.07-2.11,2.11v5.24l4.22,3.17,2.11,1.06,3.14,1Zm-31.61,74.82h7.35l3.16-2.1,1.06-3.16-2.13-3.17-5.25-4.21-3.16-2.1-3.16-3.16-1.05-3.16,1.05-4.21,3.16-3.16,2.1-2.12,1.06-3.14,1-5.28v-4.24l-1-2.11-2.11-4.22-4.23-3.15-3.16-2.09-3.15-2.15-4.23-2.06-2.09-2.15-2.11-2.09-2.13-3.18-2.12-2.09h-6.3l-2.1,5.27-1.06,2.09-2.11,5.27,1.07,3.16,1,5.27,1.06,1,2.1,6.33,2.11,3.17H600l1.05,1v3.13l1,1.06,1,3.16,4.24,2.1,1,2.13,1,1v2.1h-2.09l-1.07,4.25-1,1-1.06,2.11h-1l-1,3.17-1,1.06v1l1,3.17,5.29,4.19,10.52,2.11Zm164.39-486.9-1.06-1-1-1h-1l-4.21-1.07v-1l-2.14-1H772.9v1l-5.26,1-1-1h-5.26l-1.05,1-1.06,1.07-2.1-2.11h-1.06l-1-1V807l1-3.16,4.24-3.15h1.05l5.26-3.14,4.23-2.14h1v-1l3.14-1.07v-1h3.16l2.1,3.13h1.06v-1l3.16,1h2.1v-4.19h1V780.7l-1-1.05-2.11,1.05h-6.33l-1.06-1.05,1.06-2.11v-3.17l1.05-1-1.05-1.08H777.1l-2.1-2.1-1-1.06h3.14l1.06,1.06,4.19-1.06h5.28l2.1-1,1-1.06v-1h1v-1l-1-3.18h-1v-2.11l-1-1-1-1.07h-7.4v-1l1.06-1.05,2.11-2.11,1-2.12,2.11-2.11,1.06-1V747l2.1-1v-1l-2.1-3.17v-2.11l-1.06-2.1-2.11-4.23v-1.06l-3.15,2.14-1.06,1-2.1,1.07H767.62l-5.26-3.17-1.06-1.06-2.11-1H756l-5.26,2.1h-4.19l-2.11-2.1-1.05-1.06v-2.1l-3.16-1h-1l-2.12-2.12-1-2.1-2.1-2.12-1.06-2.11v-1h3.16l2.11,2.13v-5.27h5.28l1-2.11,2.11,1,1.06,1.07h2.11l2.1-1.07-2.1-3.14-1.06-1V707h2.13l3.15,1,2.1,1.05,1.06-1.05v-2.1L755,704.87l-2.12-1-1.06-1.05-1-1.07-2.13-1-2.1-2.14-1.05-2.09v-1.05l-1.06-2.11-1-1v-1.05l-2.13-1-1-1L738.14,688l-1-1H734l-2.12-1h-4.19l-1-1.07,1-1v-2.1l1-2.11v-1.07l2.12-5.26h1.05v-1.07l-1.05-2.1L728.68,668h-5.29l-2.12,1.06h-2.09V668l1.05-2.11,1-2.08-1-1v-1l-2.11,1h-1l-2.1,1-2.11,1-2.12,1V668l-1,3.17v1h-1.06l-2.11-1-1-1-1-1.05v5.26l1,1.06-2.12,2.08v1.08l-1,1v3.15l-1.05,1.07h-1l-1,2.13h-2.11L695,688l-1,2.1v1l-1,2.11H695v-1h2.12v2.1l-1.05,1-1,1v2.1l-2.11,1.06h-1l-1,1.06h-2.11v2.11l1,1h1l2.1-2.13,1,1.07,1,1v1l-1,1.07-1,1-2.1-1h-2.11l-1.06,1h-2.09V709h2.09l2.12,2.11-3.16,1-1,1-1-1h-2.11v2.12l-1,1.05-1.06,1h-2.11v-2.09l-1-2.12-1.05-2.11h-1l-1,1v3.15l-2.11,1.05-1.05-1.05h-6.36v1.05l-2.12,1-1,2.1v3.18l3.17,2.12,1,1,2.13,2.11,2.12,3.17-1.06,3.16V745.9l-1,1v9.47h-4.22l-1,1.06v2.1l-1,2.11-1.06,1.05-1,2.13-1.05,1-1,2.13,1,3.15v4.21l1.05,1.06-1.05,1H655l-2.11-1V767L650.76,768l-1,2.09-1.05,1-2.13,1-2.1-2.1-2.1-1.06-2.11-1H638.1l-1.05,3.15v2.13l-1,3.14-1,3.14-2.11,6.34-1,2.09H629.7v1.06l1,2.11v3.17h1l1.05,1-1.05,1-1,1.09-1-1.09-1.07-1v-1l-1-1.06-2.11,1.06-1,1h1l1,1v2.14l2.09,2.12h1.07l1.05,1,1,1v1.07l-1,1L628.6,807l-2.1,1-2.11,1.07-1-1.07H620.2l-2.12,1.07v1l1,1,1.06,2.12,2.1,1-2.1,2.12,1,3.16v3.14l-1,1.05-1.06-1.05h-1L616,821.74l-1.05-1v-1.08h-1l-1-2.11h-1l-1.06,2.11-1.05,1v2.13l-1,1v1l-1,1.06,1,2.1,1,3.15v6.33l-2.09,1.05-2.12,2.11-2.11,2.11v7.36l-1.05,1.06v5.27l2.11,2.1,3.17,4.22,2.09,3.16,3.16,4.24,1,2.09,1.05,2.11,2.1,2.11,3.18,7.37,1,4.23,1.06,6.32,2.1,7.4,2.11,8.42v5.29l1.05,3.14,1,3.15V926l1.06,4.23,1,3.16,1,4.25,3.15,6.33,2.1,4.19,3.17,4.22,2.12,4.23v4.23l1,5.27v4.21l2.09,8.44v2.11l1,2.12,2.14-4.23v-2.12l1,2.12-1,2.11v4.22l2.09,1.06,2.11-1.06L656,984l2.11,1.07h4.21l3.14,1.06,2.13,2.1,3.14,2.11,2.13,3.15,2.1,4.23,3.15,4.22,2.11,3.14,1.06,2.12v8.44l1,3.16,3.16,1,2.1-1h3.16l2.1,1,1.06,2.13-1.06,4.21-4.21,7.37-3.15,4.24-2.12,4.19-2.1,4.22-3.17,3.18-2.1,3.16-2.12,2.1-1,3.13,1,1.08H676l2.1-1.08,3.17,1.08,1,2.09-1,2.11-2.11,1.06H678.1v1l-2.1,2.12v5.25l2.1,7.4,1.06,5.23,3.14,5.28,1.05,1,2.12,1h3.15l3.15-2.11,1-8.43v-7.35l-1-9.5-2.1-5.28-1-3.15,1-2.09,1-2.1h1l4.21,1h2.14l1-5.24,1.06-6.34,2.1-3.16,1,1.06v1l-1,6.35-1,2.12v2.08l-1,3.19-1.05,2.08H695l-2.11-1v3.16l1,4.19,1.05,2.11v1l1,8.44v5.26l-1,1,1,4.19,1.06,1.06,1.07,3.16,2.1,5.25,1,1,3.15,4.23,1,2.12,1.06,3.15,1,3.16,2.1,3.13,1.05,2.14,5.27,6.31,4.22,2.13,2.12,1v-1l2.08-5.28,4.24-6.33,2.12-5.25,2.09-4.24-1.05-5.27-2.1-3.15-1-8.43,1-1,3.15-3.13v-10.6l-1.05-5.23-2.1-5.25-2.1-2.14-2.13-2.09v-6.34l-2.1-5.27-1.05-6.35v-6.33l1.05-3.13V1023l-1.05-4.2-4.23-3.16-5.26-4.22-5.26-4.23-1-3.17-1-4.21V986.09l-1.05-6.34,2.11-2.1h.76l3.14-1.06,1.37-3.16v2.12l-1.06,1.05-2.11,2.11-3.14,1v3.17l2.11,5.26v10.57l1,2.1,1.06,3.13,3.15,3.17,6.35,6.34,5.23,5.26,1.06,2.1v12.66l1.06,7.37,1,3.17v5.28l1,4.19,1,2.15,3.15,3.16,2.12,5.25,1,5.23v5.31l-1,5.27-1.05,3.13-3.14,2.1-1.06,2.1,1.06,4.23,3.14,3.16,3.16,4.22-1,5.27-2.11,5.26-2.11,5.26-2.11,2.12-2.1,2.11-1,3.17v2.09h1l6.32,2.13,4.22-2.13,4.23-1,5.26-7.4,5.26-5.24,3.15-3.16v-4.23l1.06-6.31-1.06-7.36,1.06-6.34v-7.38l1-8.43-1-5.25-2.11-4.26-2.13-2.08-7.35-7.39-1.06-2.12-1-3.15v-10.54l1-5.27v-5.27l2.11-3.15,2.1-6.35,3.17-6.33,2.11-5.24,3.16-4.23,2.11-5.26,2.11-3.15,2.11-2.11,1.05-2.13,3.15-6.31,1-4.23v-3.15l-4.22-7.36-3.16-3.19-2.11-2.1-1-4.21v-3.16l1-4.19,1.05-3.15,1-4.23-1-1,3.16,1v5.27l2.1-1.05,4.21-3.18,3.16-2.1,5.27-2.11,6.33-1,5.27-2.1,4.21-5.27-1-1.08v-1l-1.06-2.13-1-1.05h-2.12l-1-1h-4.2l-3.17,1-2.1,1.05H775l-2.11-1.05h-2.1l-2.11-1-2.12-1.07-2.1-2.11v-2.09l-1.05-2.13v-3.17l1.05-3.14,2.1-2.12h12.65L781.3,906h1l3.16,1,3.16,1.05,7.37,2.1,3.16,1.05h3.16l1-1.05V907l-2.09-2.13-1-1-1.07,1h-2.1L793.93,906l-1-2.1h-8.45l-1.05-1.06-1.07-1,1.07-1.06,2.09-3.17,4.24-3.15,1-2.11,3.15-5.25,2.11-3.17,2.12-4.21,1-1v-2.13l1.07-1.05v-3.15l1-2.1v-6.35h1.05v-2.09l-1.05-1.08-1-1L796,858.55v-1l-6.31-1.06h-1.06l-6.34-1v-4.2l1.06-5.25v-4.23h1v-6.31h-2.13l-2.1-1-6.31-3.18h-1.07l-2.1-2.09h-1.06L767.54,827l1.05-1h-1.05l1.05-5.29,1-2.11,2.13-1,1,1,1.06,1.05H776l2.1,4.22v2.13l4.21-2.13,3.15-3.16,2.14-1,1-1.05,1.06-1-3.07-3.11-1.06-1-1-1h-1l-4.21-1.07v-1l-2.14-1.05h-4.19v1.05l-5.26,1-1-1h-5.27l-1,1-1.06,1.07-2.1-2.1h-1.06L755,809.16v-2.11l1.05-3.16,4.24-3.15h1.05l5.26-3.14,4.22-2.14h1.06v-1l3.13-1.06v-1.05h3.17" style="fill:#cdffca;stroke:#006837;stroke-miterlimit:10;stroke-width:3px"/><path id="map_background-46" data-name="map background-46" d="M491,280.25l2.6.87,2.1,1.06,1.07,1.05v3.16l1,2.11,1.06,2.11,2.1,1.05,1.06,2.11v1.06l1.06,3.17,1,1.05,3.17,4.22,2.1,1,3.17,3.16,2.11,1,1,2.12v3.16H520l2.11,1.05,2.1,2.11h3.19l-2.12,3.18-1.07,2.09-2.1,1.06v3.16L521,325.4l-2.08,1.05v3.15l-1.06,1.07v3.16L516.81,337v2.12l-1.06,2.09-1,1.07-1.05,2.09v3.17l-1,3.17-1.07,2.09-1,2.12v1l2.11,1.05-1.07,1-1,4.22v1.07l-2.11,2.11h-3.18l-1,1.05-2.1,1.06L501,369.65l-1.06,2.12-1,1.08-1,1v4.22l-2.12,1.06-1.06,2.1-1,1.05-1.06,2.12v3.15l1.06,2.12,1,1-1,2.11-1.06,1.05,2.1,1.06h1.06v2.11l-1.06,2.11h-2.1l-1.05,1v1.07l1.05,1,2.1,4.22v7.39l-1,2.1-1.06,1,1.06,2.11v2.12l-1.06,1h-2.11v2.12h-1l-1.06,1-1.07,1.07-2.09,2.1-2.11,3.16h-1L481,430.78l-1,1.05-1.06,1.06-1.06-1.06-2.1-1.05-2.11-1h-2.11v3.16l3.17,1.05v2.11h3.15l-3.15,4.22-2.12,2.11h-1.05v2.1l1.05,1.06h1.06l-1.06,1.06-3.15,1-1.06,1.06-1.05,2.12,2.11,1v1.06h-1.06L466.22,455l1.07,1,1,2.12-1,2.11-1.07,1v1.06h2.11l1.06,1.07,2.1,2.09-.24.38-1.86,2.77-1.07,2.13v6.31l1.07,1.06-1.07,1.06h-5.24L462,478.21H461v1.06l2.12,2.1,2.1,1.06v3.16l-2.1,1L462,487.7H461l-2.09,1-1.06-1h-2.12l-1.05,1-1,1-1.07,1.09h-1.06l-2.1-2.13-1.06-1v1l-1.05,3.17-1,3.15,1,2.12v1l-2.09,2.13v2.11l-1.07,1.05-1.06,1.05h-3.17l-2.11,1-2.11-1-1.06,1-2.1-1h-1.06l-1.05,1-1.05,1.06-1.06,1.07-3.16,1h-1l-1.07-1H422l-1-1.07-1.06,1.07-2.12,1v3.16h-2.09l-2.13-1.06h-1l-1.06,1.06-5.28-1.06L402,507.72l-2.12-1.07-1-1,1-1V501.4l-1-1v1h-1.06l-2.1-1-1.05-2.12-3.16-1-3.17-2.12-1.06-1H383l-2.1,1v1.06l-2.12,2.1-2.11,2.12-1-1.07-2.11,2.12-1.05,1.06-1.05-1.06v-1l2.1-1.06,1.06-2.1h2.1l1.06-1.06,2.11-2.1h1.06v-3.15l-1.06-2.13v-3.16l-1.06-2.1h-2.11l-1-1.05v-2.12l1-2.1,2.11-1.07,2.12-1,1.05-1.06,1.05-3.18v-1l-1.05-1v-2.11h-1.05l-1.06,1h-1.06l-2.11,1.07h-2.1l-2.11-1.07h-3.16v-1l1-2.11v-3.18l-1-1.05-1.06,1.05h-1.06v-1.05l-2.09-1H364l-1,2.1-1.07,1.08-1.05-1.08-2.1,1.08,1.06,2.09v1l3.16,2.11,1,1.06h2.12l1,1.06v1h-2.09L363,472.93h-2.12l-1,1.06-1.06,1v2.11l-1.06,1.06h-3.15l-1.06-1.06H342.94l-2.13,1.06-3.14,3.16-1.07,1.06-2.1,1.05v4.22l2.1,1v4.21L335.55,494l-1.05,1v2.12h1.05v2.11l1.05-1.06,2.12,1.06,2.08,1.07h2.12l-1.06,2.11,1.06,1.05v-1.05l1-1.06,2.12,1.06v2.1l1.05,1-1.05,1L345,508.78H344l-1-1.06-1.06,1.06h-5.28l-1.05,1-1,2.11h-1.05l-2.11-1.06-1.05-1.05-1-1h-1.06l-2.11-1.06h-3.16l-1.05-1.06h-1.06l-1,1.06h-3.15l-2.12,1.06-2.11-1.06H306v2.1l1.05-1h2.11v1l1.06,1.05h2.1v1.06h1.07v3.16l-1.07,1.08H311.3l-1.05,1h-1.06l-1.05,1.07v1l1.05,1.06,1.06-1.06v1.06l1.05,1-1.05,2.09-2.11,1.08L306,523.51h-2.11l-1.06,1.08-1.05,1v5.26h-3.17V533l-1.05,1v-1l-1-1.06-3.16-1.06-1.06-1h-5.27l-1.06,1v-1l-3.14-1.06-2.13,2.11-2.1,1.06v-2.11l-2.1-2.11-1.07-3.15h-1l-3.17,4.2-2.1,1.05-1.06-1.05,1.06-2.11,2.1-2.1-1.05-1.08L267,521.41,266,520.35l-2.11-3.17-2.11,2.12v4.19l-1.05,1.08v5.26l1.05,3.17,1.06,2.1-1.06,1.06h-9.47V535.1L251.22,534l-2.09,1.06h-1.06L246,534v-4.21h1v-2.11l-1-1.05-1.07-1.06-2.09-2.12-1.07-1h-2.1l-1.06,1-1,1.08h-3.17l-1.06-1.08-1-1-1-1h-1.08l-2.09-1.06H227l-2.11-1.06-1-1-2.12-1.07h-1.06v-2.1l1.06-1v-2.11l1.07-2.11V507.7l-2.13-1.06h-1l-2.12-1.06v-4.19l-1.06-1.05-1-1.07-2.11-1h-2.11v-6.31l1-1.05,1.07-1.09,1.06-1,2.09-1h2.1l-1.05,1-1.06,1h-1.05v2.14h5.26v3.14h3.18v-2.11l1-2.08v-1.09l-1-2.08v-2.1l1-1.06H227v1.06l-1.06,1v3.16l2.13,1.09h4.21l1-2.13v-1l1.06-2.12v-2.1l-1.06-1v-1.07l-1-1.06h-4.21V474l2.09-2.13v-1l-2.09-1.06L227,468.72v-1h1.07l2.09,1h3.16v-1l-1-1.07,1-1v-2.09l1.06-1.08,2.11,1.08h3.16v-1.09l1.07-3.16,5.26-2.1v3.16l-1.06,1H247l1.06-2.11,1.05-1v-2.13l1-2.1h3.17V455l1,2.1h3.18l2.11-2.1,1-2.11,1.05-1.06,3.18-1h1l2.11,1,1.05,2.11,2.11,1.06,1-1.06v-1l1.08-2.11h1l1,1.05,1.06,2.11h3.17l1,1.06,1.06,1,1.06-1V454l1.06-1.05,1,1.05v2.09h2.11v-1l1.05-1.06,1.05-1.05,2.1-1.06h1.06l1.06-2.1V448.7l1-3.16,1.07-3.16h4.21l1.06-1.07,2.09-1h1.06l2.11,1,3.17,2.12,1.05-2.12,2.1,1.07,1.07-1.07v-1l1-1.06v-1.06l-2.12-1h-2.1v-1.06l1.05-1.07h1l2.12,1.07,1,1.06,1.08,1,1.05,1.06h3.16v-7.39h1.06l3.16,1.07,1.05-3.16L325,427.62l-1.07-1.05-2.09-1.07-1.06-2.09h-1.06l-1.06,1-2.09,1.05-3.16,1.06,1-2.11,1-2.11h2.13l1-1.06v-1.05l-1-2.09v-1.09l2.1-1,1,1,1.06-1-1.06-2.1,1.06-2.12,2.1-1.06,1.07-2.11,1.05-3.15v-2.12L325,401.28V395l1.05-6.32v-2.11L325,383.35l-2.12-1.05-1.05-3.15V376l2.1-3.14L325,370.7l1.05-1.06,2.1-1h2.11l4.22,1,2.1,1.06h3.16v-1.06l1.05-1v-2.12l1.07-2.1,1.05-1.05,2.1-4.22V354.9l1.07-3.17,2.11-2.12,2.1-3.15,1.06-1,1,2.11,1.05-4.22,1.06-2.1V338l2.1-3.17,1.05-3.15-1.05-3.17-1-2.1-1.06-1.05h1.06l1-2.11,1.05-2.13,1.06-2.09V315.9l-1.06-1-2.09-1.05v-5.28l1-1v-3.16l-1-2.1v-3.15l1-2.13,2.11-6.32,2.1,3.16,2.12,2.11,1,2.12,2.12,1.05,2.1,1.05h1.06l2.12-1.05,1-2.13,2.11-2.09v-2.11l1.05-1.06,1.05-1.05,1.07-2.11-1.07-1.05-2.1-1.06-2.11-1.05-1-1.06v-1l2.09-1.05h1.06l2.1,1.05,1.07,2.11,1,1.06h3.17l2.1-1.06h1.05l2.11-1v-3.17l-2.11-1.06-2.1-1-2.1-3.15-1.06-3.16v-2.13l-1.05-2.1v-2.11l-1.05-1.06,1.05-2.11,1.05-2.09,1.06-1.05h5.27l1,1.05v2.09l-1,2.11-1.06,1.06,1.06,2.11h1l2.12-1.06h3.16v1.06l-1.05,2.1v3.18l1.05,1.05,4.22,1.07h1l1.06,2.09-1.06,2.1v2.12l1.06,1h3.17l1.06-1,1-1.06,1-1.06,1.06-1h1.06v1l1.06,2.12v2.1l-1.06,2.11-1.06,4.22-1.06,2.11v2.11l1.06,1.05L407.2,298l1.06,2.09,2.11-4.21v-2.11l-1.08-2.11v-1.05l1.08-1.05h2.11v-2.12l1-1.06h2.13l2.09-2.11h1.07l2.11,2.11,2.09,1.06,2.12-1.06,1-1.05v-4.22l1.07-1.06,1-1,2.11-1.06,1.05-1h1.06l1.06-1v-2.11l2.1-1h1.07l2.09,1,3.16,1.05h3.18l1-1.05,2.1-1,1.06-2.13,1.06-1h1l1.06-2.11h4.19l2.12,1.05,2.1,1.06,1.06-1.06,1.05-1.05,1-1.06,2.12-1.05h3.16l2.1,1.05,1,2.11,1.06,2.11,1.06,3.16,1,2.12,2.11,1.05h2.11l1.05,1h2.12l2.11,2.11h5.28Z" style="fill:#cdffca;stroke:#006837;stroke-miterlimit:10;stroke-width:3px"/><path id="map_background-47" data-name="map background-47" d="M527.36,317l-2.12,3.17-1.06,2.1-2.11,1.06v3.16l-1-1.05-2.11,1.05v3.16l-1.06,1.06v3.16l-1,3.17v2.11l-1.08,2.08-1,1.08-1.06,2.08v3.19l-1,3.16-1.07,2.08-1,2.14v1L512.6,357l-1.07,1.05-1,4.22v1.06l-2.09,2.11h-3.18l-1,1.05-2.11,1.07L501,369.65l-1,2.12-1.07,1.08-1.05,1v4.22l-2.1,1.07-1.06,2.08-1,1.07-1.06,2.12v3.15l1.06,2.1,1,1.05-1,2.09-1.06,1.07,2.1,1.06h1.06v2.11l-1.06,2.11h-2.1l-1.05,1.05v1.06l1.05,1,2.1,4.23v7.37l-1,2.11-1.06,1,1.06,2.11v2.11l-1.06,1.05h-2.12v2.12h-1l-1,1-1.07,1.06-2.11,2.12-2.1,3.15h-1l-1.07-1-1,1-1.07,1.07-1.06-1.07-2.08-1-2.12-1.05H471.5v3.17l3.16,1v2.12h3.16l-3.16,4.22-2.11,2.1H471.5v2.11l1.05,1.06h1.06l-1.06,1.05-3.16,1-1.06,1.06-1,2.11,2.1,1.06v1.06h-1.06l-2.11,2.1,1.07,1,1,2.13-1,2.1-1.07,1.06v1h2.11l1.06,1.07,2.11,2.1h3.16l2.11,1.05,2.11,1.06,1.06,1h-1.06l-1.06,1.07v2.08l2.12,2.14,1,1,1.06,1.08h1.06v4.19l2.1,2.12,2.11,2.09,3.14,1.06,1.08,1v1.07l1.05,1v1l1.05,1.09h2.11l1.05-1.09h1.06l1,1.09L500,493l1,1.07,1.07,2.09v3.17L501,500.34v1.06l1.07,1.05,2.11-1.05,1-1.06,2.11-1.06,1.07,1.06v2.11l1.05,2.1,1,1v4.24h1.06l2.11-2.11,2.1-1.06,1.07-1.06,2.1-1,1.05-1,1.06-1.06,1-1h1.08l1,2.11,1.06,2.08v2.12l2.12,1.06h2.09l1.06,1.05,2.11,1.06,1,1.05L535.8,513l1.06,2.1,1,1.08H540l1.06,1v1.07l2.1,1.06h1.07l2.09,1,2.12,2.09,1,2.13h3.16l2.1,1,2.12-1h5.27v-3.16l2.11,1v-2.09h1v-4.19l1.05-2.12V513l1-1.06,2.11-1.05h4.22l1.06-3.17v-3.18H579l1,1h3.17l1,2.12,1.06,1.06,3.15,1.05,2.13,2.11,1,2.12h1.06l1,1,1.06-2.1,1.05-1.06,1-1.05,1.06-3.17,1-1.06,1.05-2.1,1.06-1,2.1-1.06h1.06l1.05-2.11h4.21l2.12-1.06,1-3.17v-1.05H619L620.1,493l3.16,1.06h2.1l1.06,1.05h2.11l1.06-1.05h1l2.11,1.05v4.21l2.11,1.06h1l1.05,1.06,2.12,1.05h2.09l2.12,2.1,3.16,2.1h2.1l-2.1-3.14-2.12-2.11-2.09-1.06-2.11-1.06-1-1.06L637,496.1l-1.06-3.16v-3.17l-1-2.08-1.06-3.17-2.11-2.09v-1.07l-1.05-3.16,1.05-4.2v-2.13l-1.05-5.26v-3.14l-1-2.11-1.06-2.13v-2.09h3.16l3.17,1.06,2.1,1,1,1.06,1.07-1.06,1-1-1-3.17L637,451.87l-1.05-3.17-1.06-3.14-1.06-4.23V435l-1-3.16,1-4.2v-8.46h1.06l-1.06-2.11-1-2.09-2.11-2.11-3.17-2.12-4.2-3.16-3.17-2.1-4.22-2.11-2.1-1.06-3.17-2.1-2.1-1.05-3.17-1.06-2.11-1.05-2.1-1.06-2.1-1H594.8l-3.17,1-3.17,1.06-2.1,2.11h-2.11l-1,1.05H580l-1-2.11,1-2.11,1.07-3.18,2.1-1,3.16-2.1,1.07-1.05-1.07-1.06,4.23-2.13,3.15-1h6.32l2.12-2.12v-1.06l-1-1.05-2.11-1h-3.17l-3.16-1.07-1.06-1-2.11-1-1-2.12-1-2.11-1.07-2.12,1.07-3.16-1.07-2.11-1.05-4.21L582.15,357l-1-1.05L580,352.78h-2.09l-2.12-1h-1.05l-2.11-1H571.6l1.06-1.08v-2.09l2.11-1.07,2.12-1,3.14-3.16,1.07-2.12v-1L580,337v-2.11l-2.09-1.05-1.05-1.06h-1.06l-2.11-1.06h-3.16l-3.17-2.1h-9.47l-1-1.05-1.06-2.1v-2.12l1.06-1.06v-2.11l-2.13-1-2.09-2.1-3.16-2.13-2.1-2.1-1.08-2.1-2.08-1.05-1.08-2.12h-4.21l-2.09,2.12-3.18,1.05-2.09,2.1-2.13,2.1L527.36,317Z" style="fill:#cdffca;stroke:#006837;stroke-miterlimit:10;stroke-width:3px"/><path id="Path_1707" data-name="Path 1707" d="M256.42,391.27l-1.05-1.06h-2.13l-1,1.06-2.09,1.06v-1.06l1-2.11-1-1.06-3.17,1.06-3.17,3.17-1.05,3.15h-2.1l1,2.09,2.1,2.12h-1.05l-2.1,1.06-1.07-2.1-2.09-1.08-1.07-1-1,1v1.08l1,2.1-1,1-2.11-1h-2.12l-2.1-1.06v-2.12L228,395.48l1.06-1.05-2.12-2.1-1-1.06-2.11-1.06-2.1-3.15,1-2.12-2.08-1-2.13-1.08v2.12l-1,1.05h-3.18l1.06-2.09-1.06-2.11-2.09-1.05-1.06,2.08-3.16-1-1.06-2.1H210v-3.16l-3.15-1.06-1.07,1.06v-2.12h-2.08l-1.09-1.06,2.13-1.05v-1.06l-1.05-2.11H201.6L198.44,366l1.06-2.11-1.06-1-3.15,1-1.06,1.06h-2.1l-1-2.09,1-1.08V360.7l-3.17-1,1.06-1.08-2.11-2.09-1-4.22,2.09-1V349.1L187.91,347l-1-1-1.06-1.05-1.07-2.11h-3.16v-2.12l1.06-2.09,1.07-1.06,1-4.22h-3.15l-2.09-2.11,1-1.05,2.11-1.06h2.09l2.13-2.1v-1.05h-2.13l-1-1.05,1-2.11,1.07-1.07,1.06-1.05-1.06-2.11v-1l1.06-1.07,1-1.05,1.06-2.11h2.11l2.1-1,1.06,1h3.16l1.05,2.11,1.06-1.05,2.1-1.06,1.05-1,1.07-2.11,1.06-1.06h1l1.07,1.06,1.05-1.06L209,308V305.9h2.11l2.1-1.06,3.16-2.11h2.1l3.18-1,2.1-2.12,5.27-4.21,3.17-3.16,1-1.06h2.11l2.11-1h2.09l5.28-1.07,3.16-4.21v-1.06l1.05-2.1,1.07-1.06L249,279.55,248,278.48l-1-2.1,1-2.09v-4.21L250.1,269l1.05-1.06V264.8l-1.05-2.12v-1l1.05-1.06v-2.12l1-3.16,1-2.1,1.08-1.06v1.06l2.1,1h3.16l1.05-1,1.06-1.06h1.06l2.11,1.06,1-2.12V250l1-2.11v-2.12l1.08-3.16,1.05-2.1,1-3.17,1.06-2.09,1.06-3.18,1-2.09,2.11-1.05h1.05l2.11-3.17,1-2.12,1.07-1h4.21l1.06,1,1,1.06h2.11l2.11-1.06,1.05-1h2.11l2.09,2.09,2.13,1.06h4.22l1-1.06,1.05-2.09H306l1.05-1.07h1.05l1.06,2.1v2.12l2.12,1,1,1.06L314.4,229v4.2l-1.09,2.12-1,3.14-1,2.12v2.1l-1.06,2.13-1.06,2.09v1l1.06,1.06h2.1l3.18-2.11,1-1.06,1.08-1,1.05-2.13,1.06-1.06,1,1.06,2.11,2.13V249l-1.06,2.1,1.06,2.12,2.11,3.16,1.06,2.1,1.06,2.11,1,1.07v1l1.05,2.11,2.11,1.06h1.05l2.1-2.1,1.07-2.1,1-3.18,1.06-2.1,1.05-2.12,1.05-2.1h3.17l1.06,1.06,2.1,2.1,1.05,1.06h1.06l1.05-2.12,1.06-1v-2.12l1-1,1.06-1.05h1.05V250l-1.05,3.17-1.06,2.1-1,3.16-2.11,2.11-1.06,2.1L346,264.77l1.05,1.06,3.17,1.05,2.12,1,1,1.06v2.12l1.06,2.11v8.45l1.05,2.1,1.06,3.17V288l-2.11,6.32-1.06,2.11v3.15l1.06,2.12v3.15l-1.06,1.06v5.27l2.11,1.06,1.06,1v3.16l-1.06,2.11-1.05,2.11-1.06,2.12h-1l1,1.05,1.06,2.11,1.05,3.16-1.05,3.16-2.1,3.17v3.16l-1.06,2.09-1.06,4.23-1.05-2.1-1.06,1L346,347l-2.1,2.11-1.07,3.18v4.22l-2.11,4.19-1.05,1.06-1.06,2.11V366l-1.05,1v1.07h-3.16l-2.1-1.07-4.22-1H326l-2.1,1-1.06,1.07-1.06,2.12-2.09,3.15v3.17l1,3.15,2.11,1.06,1.06,3.16V386l-1.06,6.35v6.32l1.06,2.1v2.11L322.82,406l-1.06,2.13-2.09,1.06-1.06,2.11,1.06,2.1-1.06,1-1.05-1-2.1,1v1.08l1,2.09v1.05l-1,1h-2.14l-1.05,2.12-1,2.11,3.17-1.07,2.08-1,1.07-1h1.06l1.06,2.08,2.09,1.07,1.05,1.05,1.06,2.1-1.05,3.17-3.15-1.06h-1.06v7.38h-3.15l-1-1.05-1.09-1.06-1-1-2.1-1.07h-1.06l-1.06,1.07v1h2.12l2.1,1.06v1.05l-1,1.07v1l-1.06,1.06-2.12-1.06-1,2.12-3.17-2.12-2.11-1h-1.06l-2.1,1-1.05,1.06h-4.21l-1.06,3.16-1.05,3.16v1.06l-1.06,2.11h-1L287,450.3l-1,1-1.06,1.06v1.05h-2.11v-2.11l-1.06-1-1,1v1.07l-1.07,1-1.05-1-1-1.07h-3.19l-1.05-2.1-1-1.05h-1.06l-1.06,2.11v1.05l-1,1.06L267,451.35l-1.05-2.1-2.11-1.05h-1.05l-3.17,1.05-1.07,1.05-1,2.11-2.1,2.11h-3.18l-1-2.11v-1.07H248l-1,2.11v2.12l-1.06,1-1.05,2.12h-2.11l1-1.05v-3.17l-5.26,2.09v-2.09l-1.06-1.07v-2.1l1.06-1v-1.06h-2.12l-1-1.05v-1.06L234.27,445l1.06-1-1.06-1.06h-1v-3.16h1l1.06-1.06,2.11-1,1.06-1.07-2.12-1.05-1-1.06v-2.11l1-1.05V429.2h1.06v-2.11l1.06-1v-5.26l1-3.18h4.22v1.05l1.05,1h2.12v3.16h1v-1l1.05-2.12h1.07l1,1.08,1-1.08,1,1.08,1.08-2.13-2.13-1.05v-7.38l-1-2.1V406l1-2.09,1-1.06,1.08-2.11h1l1.06-1.06v-1h-2.1l1-2.09v-4.23l1.06-1.06" style="fill:#cdffca;stroke:#006837;stroke-miterlimit:10;stroke-width:3px"/><path id="map_background-44" data-name="map background-44" d="M231.21,157.83h3.17l1-1.05,2.11-1h4.22l1.07,1,1.05,2.11,1.06,3.15,2.09,3.17,2.12,1.06h1.05l1.05-2.12v-5.26l1-2.11,1.07-2.11,1-1.06,2.11-1.05h3.17l2.11,2.11,1.05,1.07,1.05,2.09,1.06,3.17v1l-1.06,5.29,1.06,2.1v3.14l2.1,2.13,2.11,2.09h1.06v-1l1.06-3.19,2.11-1h1.05l2.1,1,4.21,1.07,3.17,1.06,2.11,2.09,2.11,2.11,2.11,1.06,1.05,3.16,2.11,2.11v1.05l1.06,1.06v4.21l-1.06,3.17-1,3.15L291.29,200h-2.13l-2.11,1h-6.33l-1-1-1.06,1-1.05,1.06,1.05,1.05v1l2.1,1.05,1.06,2.11h2.11L286,206.3l1.05-1.05,2.11-1.05,2.11-1.06,2.11-1,3.16,1,2.12,1.06v3.16l-2.11,3.16-2.1,2.11h-2.11l-1.06,1.05-2.11,1.06-1.05,2.11v5.26l-1.06,2.11,0,1.09,0,0h-4.19l-1.06,1-1.07,2.12-2.1,3.17h-1.05l-2.11,1.05-1.05,2.09-1.05,3.19-1.06,2.1-1.05,3.16-1.06,2.12-1,3.15v2.1l-1.05,2.12v1.06l-1.06,2.09-2.1-1.05h-1.06l-1.05,1.05-1,1.06h-3.16l-2.12-1.06v-1.05l-1.06,1.05-1,2.12-1,3.15v2.12l-1.06,1v1.06l1.06,2.11v3.16l-1.06,1-2.11,1.07v4.22l-1,2.09,1,2.12,1.06,1.06,1.05,1-1.05,1.06-1.06,2.11v1.06L247,291.67l-5.27,1.06h-2.1l-2.12,1h-2.11l-1,1.06L231.23,298,226,302.2l-2.1,2.12-3.16,1h-2.12l-3.16,2.11-2.12,1.06h-2.11v2.12l-1,1.05-1.07,1.05-1-1.05H207l-1,1.05-1.08,2.11-1,1.05-2.12,1-1,1.07-1.05-2.12h-3.16l-1.06-1.05-2.1,1.05h-2.11L190.11,318l-1.05,1L188,320.13v1l1.05,2.12-1.05,1-1.08,1.06-1,2.12,1,1h2.13v1.05l-2.13,2.11h-2.09l-2.11,1-1,1.06,2.11,2.11V337h-5.26L177.46,338H176.4l-2.1,2.12-2.1-1.05L169,340.16l1.05-2.12L168,337H164.8V338l-1.05,1.07h-2.1L160.59,338l-3.17,1.07v-3.17l1.06-2.11,1-1.06h2.13l1-1,1.06-11.59v-1.07h-1.06l-3.17,1.07h-2.1l-4.22,1-3.14,1.07L149,319.06V315.9l-2.11-1,1.07-3.17,1-1.05,2.12-1.05,1-1.07,1-2.09,1.08-1.07v-4.2l1-1.06-1-2.09-1.08-2.12h-1v-8.43l-1-5.27h1v-5.26l1-2.12,2.12-1.05V272.7l1-1.06v-1.05l-2.09,1.05v-1.05l1-1v-1.07l-1-1.05v-5.25l1-2.12,2.1-1.06-1.06-2.11v-6.33H153.2l-3.14-1.05-2.11-1v-1.05l-1.06-1v-1.05l3.17,1.05h5.27l3.16-3.17V240h4.21v-3.17h2.1l-1-1.05-1.06-2.11-3.17-1.06v-1.06h2.13l3.14,2.1,1.06-2.1h1.07l1-1.06-1-3.17-1.07-1.05-2.11-1-1.05-1.06-2.11-2.11v-5.26l2.11-3.17v-2.1l-1-1-1.06-1.08-2.1,1.08-1.06,2.11-1.07-1.06v-2.13l-1-2.09,1-1.06,2.13-1,1-1.05,1.06-1.06h4.21l4.22,3.15,2.11,1.06,1.06-2.1-2.12-1.05v-2.1l1.06-2.11,2.1,1,6.35-1v4.21h1v2.1l5.27-3.16h1l3.16,1.06,2.11,1.05,1.07-1.05h2.1l2.11-1.06L196.42,201v-2.11l1.06-1.06,4.21-1.05h1.07l2.09-2.09,1.07-2.11L207,190.5l1.05-1.06,1-1.05,4.21,2.11h2.12l1-1.06-2.1-1.05-1.07-1.06,1.07-1.05-1.07-1.06v-1.05l2.12-1.06,1-1.05,2.1,1.05,1.07-1.05h1l3.17-1v1l3.15,1.05,1,1.06h1.06V181L228,178.9l2.1-1.06v-4.21h1.07l2.1,1.06v-2.12l-1.05-2.1V163.1l-1-1.06h-1.07l-1-2.11v-2.11Z" style="fill:#cdffca;stroke:#006837;stroke-miterlimit:10;stroke-width:3px"/><path id="map_background-49" data-name="map background-49" d="M471.24,465.94l-1.86,2.78-1.06,2.11v6.32l1.06,1.05-1.06,1.06h-5.24L462,478.2H461v1.06l2.13,2.11,2.09,1.05v3.16l-2.09,1L462,487.68H461l-2.08,1.06-1.07-1.06h-2.1l-1.06,1.06-1.05,1-1.07,1.08h-1l-2.1-2.12-1.06-1.06v1.06l-1.05,3.16-1.05,3.16,1.05,2.12v1l-2.1,2.12v2.11l-1.07,1.06-1,1.05h-3.17l-2.1,1-2.11-1-1.05,1-2.1-1h-1.07l-1,1-1.06,1-1,1.08-3.16,1h-1.07l-1.05-1H422l-1.05-1.08-1,1.08-2.11,1v3.17h-2.1l-2.12-1.06h-1l-1.07,1.06-5.27-1.06L402,507.71l-2.12-1.08-1.05-1,1.05-1V501.4l-1.05-1.07v1.07h-1l-2.11-1.07-1.06-2.11-3.16-1-3.17-2.12L387.18,494H383l-2.09,1.06v1.05l-2.12,2.11-2.1,2.11-1.06-1.06-2.09,2.13-1.06,1-1.06-1v-1.07l2.12-1.06,1-2.09h2.11l1.06-1.07L379.8,494h1.07v-3.14l-1.07-2.12v-3.16l-1.05-2.11h-2.1l-1.06-1.05v-2.11l1.06-2.12,2.1-1.05,2.12-1,1-1.07,1-3.16v-1l-1-1.07v-2.09h-1l-1.07,1h-1.05l-2.1,1.06h-2.11l-2.1-1.06h-3.17v-1l1.05-2.11v-3.17l-1.05-1.05-1,1.05h-1.06v-1l-2.09-1.05H364l-1,2.1-1.08,1.06-1-1.06-2.12,1.06,1.07,2.11v1l3.16,2.11,1.05,1.06h2.1l1.05,1.06v1h-2.09L363,472.94h-2.11L359.79,474l-1.06,1v2.11l-1.06,1h-3.15l-1.07-1H342.92l-2.11,1-3.15,3.17-1.06,1.06-2.11,1.05v4.19l2.11,1.06V493l-1,1.05-1.06,1.06v2.12h1.06v2.09l1-1,2.12,1,2.09,1.06h2.12l-1.06,2.11,1.06,1.06v-1.07l1.05-1,2.11,1v2.11l1.06,1-1.06,1-1,2.12H344l-1.05-1-1.06,1h-5.28l-1,1.07-1.06,2.1h-1.05l-2.1-1.06-1.06-1-1-1.07h-1.06l-2.1-1H322.9l-1.06-1.08h-1.06l-1,1.08h-3.16l-2.12,1-2.1-1H306v2.11l1.06-1.07h2.1v1.07l1.05,1h2.12v1.06h1.06v3.14l-1.06,1.11H311.3l-1.06,1h-1.05l-1,1.06v1l1,1.07,1.05-1.07v1.07l1.06,1-1.06,2.08-2.09,1.08L306,523.49h-2.1l-1.06,1.08-1.05,1.06v5.25l4.21-1h4.21l1.06,2.11v3.19l1.06,1-1.06,1.05v3.18h2.12v-2.1h1.05l1,1,1.06-1,1.05,1v1.08l1.05,1.06,1.06,1,3.16,2.12h3.17l1.05-1.05,1.05-1.06,1.06-1h4.2l1.06-2.14,1.06-1,1-1.08h2.12v1.08l1.06,1h1v-1l-1-1.08v-1.05h2.1v3.16h1.05v-1h4.22l2.09,1v2.14h-2.09L345,540.4h-2.11v2.09l1.06,1.07v2.09l-1.06,4.25-1.05,1-1.06,2.1v2.11l1.06,1.05-2.1,1.06v-3.19L338.71,552l-2.12-1h-4.21L331.33,553v1.05l-1.06,2.11-2.11,1.06h-2.1l-1.06,1v1.07h-2.1l-1.06,1-1.06,1.05-1,1.06v4.21h-2.11l-1.05-1,1.05,2.09,1,2.09V573l-1,2.13v1h-1.05l-2.12-1-1,2.1-1.06,1.06v2.1l-1.06,2.1h-3.16l-1.05,1.07L306,585.7v1l-1,2.11-1.05,1.08L302.87,591l-1.05,1h-1.05l-1.06,1.05h-1L295.51,592v3.18h-4.22l-1.05,1h-1.06v2.1l2.11,1.07v3.16l-2.11,1-2.11,1.08v1L286,607.83l1.05,1,1.06,3.16v1.06l2.11,1,1.05,1.05v8.43l1,1.06,1.06,2.09h1.06l1.05,1.07v1l-2.12,2.1v3.16l-1.05,1.06-1,2.1-1.05,1.06,1.05,2.11,2.1,1.07v3.14h-3.15l-2.11-1.06H285l-3.16-1h-2.1v-1h-1.06l-1.06-1.07v2.11l1.06,1,3.16,2.13H285l1.05,2.1v5.26l1.06,2.1,1.06,1.06,1,1.05-1,1L286,659.45l-2.1,1.06-1,1.06-1.07,2.1V669l1.07,4.22v2.08h1l1-1v-1L286,672.1h3.16l1.06,1.08,1.06-1.08,1-2.1h3.18l3.16,1,1.05,1.06-1.05,3.16v3.18l-1.07,1-1,1-1.05,1.05,1.05,1,1,1.07,2.12,1.06,3.16,1.07,2.12,1v1.06l1,1,1.06-1,1.06-1.06,1-1h1.05V689L309.2,690v1l2.11,1,1.06-1,1.06-1,1-1.07h1l2.12,2.11v1l1,1.06,1.07-1.06h1l1.06-1,1.06-1,1-1.07h2.12l1.05,1.07,1.05,2.09,2.11,1.06h1.06v-1.06l1.05-1V689h1.05V690l1.06,1.05h3.17V690l2.11-1.06,2.1,2.11H344v-7.38l-1.06-1.06-1.05-3.15v-1H345l3.17-1.08h6.32l2.12,2.12,1,1,2.12,2.09,1.06,1.07H364l1.06,2.13h1l2.11-5.29,2.1-1v2.11l-1,3.16,1,1.08h2.12l2.1-1.08,1.05-1.06h1.06l3.15,1.06H383v-2.13H384l1.06-1v1l2.1,2.13,2.12,2.1,2.09,1.07,1.06,1h5.27l1.06-1v-3.17l-2.11-1.06-1.06-1.06h-1.05l1.05-1h2.11l1.06-1.06,1-1,1.05-1H402v2.09l-1.07,1.06-1.05,1v1.06l1.05,1.06,1.07,1.08H403l2.1,1h1.06l1,1.07,1.07,1,1,2.11v1l2.12,5.28,2.1,2.1v2.11l1.06,2.1v2.12h-2.1l-2.1-1.05-2.12-1.07-1.07-1-2.1-2.11L404,699.5h-1L402,701.61l-2.13,4.22v2.1l3.18,2.12,2.1,2.1,2.1,2.12,1.06,2.08v1.07l-1.06,2.12v2.11l-2.1,4.19v1l1.05,2.13,1,2.11,1.06,3.16,2.12,2.1,2.11,2.1,1,2.1h1.06l1.06,1.07,1-1.07h1.05v-1l1.06-1.06h1.05v1.06h1.05l1.05,1H423l1.05,2.12v3.18H423L422,748l-2.1,1-1,1.06-3.17,2.11v2.1l1,1.07,1.05,1v1.05h2.11l3.16-2.1v-1.07l2.12-1,1-3.17,1.07-1.06h1.05v-1l1.06-1.07h3.16l1.05,1.07h1.05l2.12-1.07h1l1.06,1.07,1.05,1H442l1.06-1h1l1.08-1.07,2.1-1h2.11v-1.07l1.05-1.06h2.09l2.12-1h1.07l1-1.05h1.06l1.07-1.06v-1.05l1-1.06v-1h3.18l2.08-1.06,1.06-1.07,1.07-2.1,1-2.1,1.06,1h2.11l1.05,1.06,1.06,1.06h1.06v-4.23h1.05l2.09-1V728h1.06L480,729l2.1,1h1.06v-3.17l1-3.13h1.06l1,1,1.07,1.07v1l2.11,1.07h4.21l-2.1,2.1-1.08,1.07h-2.08v2.1h6.3l2.13,1.06h1l3.16,1h1.05l1.06,1.06v1.06l-1.06,1-1.05,2.1v1.07h4.2l2.12-1.07h2.11l2.11-1,1.07-1.06,1-1,1.06-1.06v-1.06l-1.06-2.1,1.06-2.1v-1.08l1-2.09v-1.07l1.06-1v-3.17h-1.06l-2.1-2.1h-1l1-2.13,1.06-2.1h1l1.06-2.08v-2.12L515.76,709l-2.1-4.22v-2.11l-1-2.11-2.12-1.06-1.06-3.16,1.06-1.05v-1h2.12l2.09-1.06h3.17l2.1-1.06,1-1v-1l2.12-2.11,3.15-1.06h1.07l3.15,1.06h2.11l2.11-1.06v-2.11l1-1,2.09-1.07,1.07-1v-3.15l1-1.07,1.07-2.11h2.08l2.12-1h3.15l1-1,1.06-1.09,1.06-2.09v-7.38l1.06-2.1v-3.17l1.06-2.11,2.1-3.17,1.05-2.07,4.23-2.13,2.08,1,1.06,1.09h1.06l2.11,5.24,2.11,3.14,1.06,1.08,3.15,5.25,1.06,4.24v5.27l2.11,2.1v1l2.1,3.17,2.11,1.06,2.11,3.16,1,1.07,2.11,2.1h1.06l1,1,3.17,1.07,1.06-1.07h1l1-1v-1.06l1.06-2.1v-1.06l3.17-2.1,2.09-1.06h2.12l1-1,2.11-1,1.07-1.07h1.06l1-1,1.06-1.06,1.06-1h1v-1.06l2.12-3.18,1.06-2.12v-4.19l-1.06-1.06v-1l-2.12,1-1,3.16-3.16,2.08-1,1.08-3.18,1-1-1v-3.18l-2.12-1.06-1-1-1-2.1v-2.12H598v-1.07l-1.05-1-1-1.06H594.8v-3.15h-1l-2.12-1.06h-1V651l1-1-3.16-1.09-1-1-2.11-2.11-1.06-3.16-2.1-3.17-2.12-1-1-1.06H576.9l-3.18,1.06H571.6l-2.09,1h-1l-1.06-1-2.11,2.11v-3.17l-1.06-1-2.09-2.12-1-2.11v-4.19l-1.07,1L559,630l-1-1-1.06-1v-4.22l-1.05-2.1H560v-2.12H559l-3.15-1.07-1.08-1V611l1.08-1.07v-2.09l-1.08-3.15v-2.11l1.08-2.12v-3.17h-1.08l-2.09,2.13-1.06,1-2.11,1-1.05,2.1v2.12l-2.13,2.11-1,2.09-1,1.07-1.07,1-1,1.06h-4.22l-1-1.06-1.06-1-1,1v4.23l-1.05-1.07-1.06-2.1-1-1.06h-2.12l-1.06-1,1.06-4.22,1-3.18v-3.15l-1-4.21L528.4,591l-3.15-5.29,5.26-3.17h5.27l1.06,2.1h1l1.06-1h1l2.11,1,2.12-1v-1.07l1-1-1-1.06-1.07-1.06-3.16-1v-2.11l1.07-1,1-2.13,1-1h-2.09v-1.07l1-1.06,1-1v-2.12l1.07-2.11,1-2.1,1-1.06-1-3.17v-3.15l1-3.17v-6.33l1.08-2.08-2.12-2.11-1-1.06,1-1.07,1-1,3.17-1.07,2.12-2.09-2.12-1.07-2.09-2.1V530.9l-1.08-2.11v-2.1l3.17-2.11-1-2.12-2.13-2.09-2.08-1.07h-1.08l-2.08-1v-1.07l-1.07-1h-2.12l-1-1.1L535.78,513l-2.11-1.07-1-1.05-2.11-1.05-1.06-1.06h-2.09l-2.11-1v-2.13l-1.07-2.09-1-2.09h-1.07l-1.05,1-1,1.05-1.05,1.06-2.11,1-1.06,1-2.1,1.08-2.11,2.1h-1.05v-4.23l-1.06-1-1-2.11v-2.11l-1.07-1.06-2.12,1.06-1,1.07-2.12,1-1.06-1v-1.07l1.06-1.06v-3.16L501,494,499.94,493l-1.06-2.09-1-1.08h-1l-1.06,1.08h-2.1l-1.06-1.08v-1l-1.05-1.06v-1.06l-1.07-1-3.15-1.06-2.11-2.1-2.1-2.11v-4.2H482L481,475l-1-1-2.13-2.13v-2.1l1.06-1h1.07l-1.07-1.05-2.1-1.07-2.1-1h-3.17Z" style="fill:#cdffca;stroke:#006837;stroke-miterlimit:10;stroke-width:3px"/><path id="map_background-50" data-name="map background-50" d="M704.4,669h-2.11l-1,1v1h-2.12v-1L697,665.79l-2.11,1.07h-3.16l-2.1-1.07-2.12,1.07-1.06,1-2.09-1-5.28-1.07L677,664.73h-3.17l-1,2.12-2.12,1-1.07-1-1-1.06-1.07-1.06-4.21-1h-4.21l-1.06,2.1-1,2.1V669l-1,1-2.13,1-2.1,1h-2.12l-2.1,1.09h-1.07l-1-2.13V669h-2.11v3.15l-1,1.09-1.07,1v1l-1,1.06L638,675.28h-2.1l-1-1-2.11-1-2.11-2.13-1.06-2.1-1-2.11-1.06-1.06-1.05-2.1v-2.1l-1-1.06h-2.11l-2.11-1.07-1-1H618l-1.06,1-1,1.07-1.06,1.06-2.11,1-1,3.15-3.18,2.1-1,1.07-3.17,1-1.06-1V665.8l-2.1-1.06-1.06-1-1-2.1v-2.13h-1v-1.05l-1.06-1.06-1-1.06h-1.06v-3.15h-1l-2.11-1.06h-1V651l1-1-3.17-1.09-1-1-2.11-2.1-1.06-3.17-2.1-3.16L580,638.39l-1-1h-2.11l-3.17,1h-2.12l-2.09,1.06h-1l-1.06-1.06-2.11,2.12v-3.17l-1.06-1-2.09-2.12-1-2.12v-4.19l-1.07,1-1.06,1-1-1-1-1v-4.21l-1.06-2.1H560v-2.11h-1.06l-3.15-1.09-1.07-1V611l1.07-1.07v-2.1l-1.07-3.15v-2.12l1.07-2.12v-3.17h-1.07l-2.09,2.13-1.06,1-2.1,1.06-1.06,2.1v2.12l-2.11,2.11-1.06,2.1-1,1.06-1.07,1-1,1.07h-4.22l-1-1.07-1.05-1-1.06,1v4.23l-1.05-1.07-1-2.09-1.05-1.07h-2.12l-1.06-1,1.06-4.21,1-3.18v-3.15l-1-4.21L528.38,591l-3.15-5.28,5.26-3.16h5.28l1.05,2.09h1l1.06-1h1l2.13,1,2.11-1v-1.06l1-1.06-1-1-1.08-1.07-3.16-1v-2.11l1.07-1.06,1.05-2.12,1-1H541V571l1.05-1.07,1-1v-2.11l1.07-2.1,1-2.11,1.06-1.06-1.06-3.16v-3.15L546.3,552v-6.33l1.06-2.08-2.12-2.11-1-1.06,1-1.08,1.06-1,3.17-1.08,2.1-2.09-2.1-1.06L547.36,532V530.9l-1.06-2.11v-2.1l2.89-1.92.28-.18h3.16l2.09,1.06,2.13-1.06h5.27v-3.16l2.09,1v-2.1h1.06v-4.2l1.05-2.11V513l1.06-1.07,2.11-1h4.22l1-3.16v-3.16H579l1,1h3.18l1,2.12,1,1,3.16,1.07,2.12,2.09,1,2.13h1.06l1.06,1,1-2.08,1.06-1.07,1-1,1.06-3.16,1.06-1.06,1-2.11,1.06-1,2.1-1.06h1.07l1-2.11h4.19l2.14-1.06,1-3.16v-1.06H619l1.07-2.11,3.16,1.07h2.1l1,1h2.11l1.06-1h1.05l2.11,1v4.22l2.11,1.06h1.06l1,1.06,2.14,1.05h2.09l2.11,2.1,3.15,2.11h2.12v3.16l1.05,2.1,1,2.13v1l-1,2.13-1.05,2.11-2.12,2.12-1,2.08-2.11,3.19-1,2.1v1.05l-1.07,1.06v4.22h7.39l2.09-1.06h3.17l3.17-1,2.11-1.06h2.1l1-1.05h5.28l2.1,1.05v3.17l-1,2.09-1.07,2.11v3.16l1.07,2.12v2.11l1,2.11,2.1,2.11V553l-1,1-2.09,2.12v2.11l-1.07,1.06v3.16l1.07,2.11v1.06l1,2.1,3.18,3.15,1,1.06h2.12l2.1-1.06,3.17-2.1,2.1-3.15,1.06-1.06,3.15-2.11,2.12-1.06h2.1l2.11-1.06h2.09l3.18-1h3.17l3.14,1,1.07,1.06,1.06,1.06,1,1.05v1.06l-1,1.06-2.13,1H697l-3.17,1.06h-1l-2.12,1.06-1,1L688.54,572l1.08,2.1,1,2.12,1.05,1,2.11,1.07,2.09,2.11,1.08,1,1.06,2.12v4.19L697,589.92,694.88,591h-2.09l-1.07-1.06L690.67,591H687.5l-2.1,1-2.1,1-3.14,1.08-1.07,1.07-1,1v1L677,598.35l-1-1.05-2.13-1v-1l-1-1.07-1.08-1.06-1-1.05v-1l1-3.18v-2.1l-1-1.07h-2.07l-1.07,1.07-1,2.1-1.06,2.12-1,1.06,1,2.09v1l1.06,2.11,1,1,1.07,2.12,2.09,3.16,2.12,1,1,2.12,2.12,1,2.1,1.06,2.11,1,2.11,2.11,2.11,1h3.15l2.12,1.06-1.08,4.2,1.08,1,3.16,1.08,1,1.05,1,1.07-1,2.1-1,1.05h-1.06l-1,1-1.05,2.11v1l1.05,2.12,1,2.11h3.16l3.17,1h1l1.06,1.05,1.06,2.11v1l1,3.18V651l1.05,1.05,1,2.12,2.11,1h1.07l1,1,3.18,1.05h1l3.18,1.06,3.16,1.05,2.1,1.06v1.06l-1,1.06v-1.06l-2.1,1.06h-1.06l-2.13,1-2.1,1-2.1,1.07v2.1l-1.05,3.16v1.05h-1.06l-2.1-1.05-1.08-1Z" style="fill:#cdffca;stroke:#006837;stroke-miterlimit:10;stroke-width:3px"/><path id="map_background-52" data-name="map background-52" d="M545.26,1036.76l-1-3.15,1-5.27,2.11-4.22,1-4.25,2.12-3.13-1.06-3.16-2.1-3.13-2.12-3.19-1-6.31,2.09-5.28,1.06-4.22,2.1-5.26,1-2.11,2.1-2.12,1.06,2.12,1.05,4.23,3.16,8.43,3.17,2.14,1.05,1,2.09,2.12v1.05l1,3.13,1,2.14h1.06l1,3.15,1,1,1.07,2.1,1,4.24,1,2.1-1,3.18-1,3.16-2.1,2.08-3.17,1-3.13,2.12h-4.25l-3.17,1.05-3.15,1-2.12,1-3.16,1.06h-1v0h0ZM508.4,1170.62v-20l1.05-3.14-1.05-3.15,1.05-3.18,3.16-3.16,2.1-4.21,2.12-2.1,1-4.21,1.07-2.13,2.11-3.14,2.11-2.12,2.11-2.14-2.11-6.32-1.06-1-3.14-1.06-2.11-2.11-2.11-2.11-3.18-2.12-2.09-1v-7.37l-2.11-2.13-2.13,1.05-2.09,2.11-2.11-2.11v-4.19l2.11-4.24v-3.13l-1.05-5.27-1-6.34-1.05-4.22h-3.15v1.07l-3.17,3.13-2.1,4.25-3.14,4.19-3.16,3.15-2.11,3.13-2.12,3.2-1.05,3.13-1,4.19-1.06,2.15,1.06,2.08,6.33,1,4.22,2.1,4.2,1.06,2.13,1,2.11,2.12,1.05,2.1,1.05,4.24,1.05,3.13,2.12,3.16,2.09,3.16,1.05,2.1,1.05,2.13-1.05,2.1h-2.1l-3.16-1H498l-2.11-2.11-2.13-1-3.17-2.11-2.08-1-2.13,1-1.05,2.1-1,3.17,1,3.15,2.1,5.27,1.07,2.11,2.08,3.13,1.06,3.17,5.27,8.44,9.47,15.8,1.06,1v1Zm-3.18-43.21-1-3.17-3.17-2.1-1-4.26-2.11-7.34-2.12-3.17-3.15-1h-2.11l-3.16-1-2.11-1.06-3.16-2.1h-5.28l-2.1,2.1-1.05,2.12-2.11,2.13-2.09,1-1.07,2.11,2.13,1.06,3.14-1.06,3.15-1h8.44l1,1,3.17,4.19v1.08l1.05,3.15,2.11,2.12,2.1,2.1,3.17,2.12,2.11,1.05h2.11l3.16,0Zm78,15.79,1-1.06,1-1.05,2.12-5.25,1.05-4.22,2.12-4.19v-2.14l2.1-2.11,1-1,1.06-2.13-2.12-3.16-3.15-3.14-2.11-3.16-1-2.08-1.05-2.13-1-3.18v-5.25l-1-3.16-2.1-3.15-1.07-2.1-1-2.14-1-2.11-4.22-1-2.12,1-1,2.11-1.07,5.26v3.17l2.12,7.37,1,2.12,3.14,4.19,2.13,2.12,3.16,1,2.1,1.07,2.11,1,1,1V1120l-1,2.13-2.11,3.14-3.17,2.13-2.09,1-2.12,2.14-2.1,2.09-1.05,2.11v3.13l1.05,2.15,3.17,2.08,1.05,1h5.26v0Zm-13.69-10.55h-2.11l-2.11-1-1-1-5.27-1-1.06-2.11,1.06-4.24,2.11-2.11,2.1-1,3.16-1,3.15-1.07,3.16-3.14,1.06-1h1l1.05-1.07,7.39,3.13,1,1.08h1.06v1l-1.06,2.13-1,2.13-2.11,2.09-4.22,3.17-3.16,2.11-2.11,2.11Zm12.65,73.78-2.12-2.1-3.15-2.1-1-2.1h-3.19l-3.14,1h-3.16l-6.33-2.08,1.05-4.24,1.06-4.22-3.17-5.28-5.27-2.1-3.16-2.12-2.11-3.14-1-5.27v-4.21l3.13-3.16,1.05-4.21-1.05-4.23,1.05-3.14v-5.29l-1.05-6.34v-7.35l1.05-1.06v-2.11l2.12-2.09,2.1-1.07,4.23,3.16,3.14,2.11,3.17,1v1l3.14,4.22,3.15,7.39,4.24,7.34,2.11,2.14,2.11,4.23,5.25,8.42,1.07,2.1v12.67l-1.07,3.14,1.07,8.44v3.16l-1.07,3.15-2.12,2.1Zm-76.94,61.14H502.1l-2.13-2.12-1.07-3.17-3.15-5.25-1.05-6.35-2.1-6.34v-4.21l5.27-9.48,2.09-3.15,2.13-2.11,4.21-3.17,3.16-2.07,4.21-2.12,2.1-1.07,2.12,2.13-2.12,3.13-2.1,4.24-1,4.21v4.22l-2.11,6.33-2.11,4.23-3.17,3.17-1.05,6.31,1.05,4.24,1.05,3.14v3.17Zm-6.32,45.32-3.16-2.13-1-3.17,1-5.25,1.06-5.27,1.05-4.22,1-3.13,3.18,1,1,3.17,3.16,2.1,2.12,3.16,1.05,3.15-1.05,5.25-2.12,2.14-2.09,1-2.11,1ZM614.82,661.58l1-1,1-1.06,1.05-1h2.12l1,1,2.11,1.06h2.1l1.06,1v2.12l1,2.09,1.06,1.07,1,2.1,1.06,2.1,2.12,2.13,2.1,1,1.05,1H638l2.12,1.06,1-1.06v-1l1-1,1.05-1.07V669h2.12v2.11l1,2.12h1.07l2.1-1.07h2.11l2.09-1,2.12-1.06,1.06-1v-1.06l1-2.12,1-2.09h4.22l4.22,1,1.06,1,1,1.07,1,1,2.12-1,1-2.13H677l2.12,1,5.26,1.06,2.12,1,1-1,2.12-1.06,2.1,1.06h3.16L697,665.8l2.11,4.22v1.06h2.11V670l1-1h2.1v5.28l1,1-2.11,2.1v1.05l-1,1.07v3.13l-1,1.06h-1.05l-1,2.14H697l-2.12,2.1-1,2.1v1l-1,2.12h2.09v-1H697v2.09l-1.06,1-1.05,1.05v2.1l-2.09,1h-1.08l-1.05,1.06h-2.11v2.1l1,1.05h1l2.12-2.11,1.05,1,1,1.05v1l-1,1.06-1.05,1-2.12-1h-2.11l-1.06,1H685.4V709h2.09l2.13,2.1-3.15,1.05-1.05,1.06-1.06-1.06h-2.09v2.12l-1,1-1.06,1.05h-2.1v-2.09l-1-2.13L676,710h-1.06l-1,1v3.17l-2.11,1-1-1h-6.32v1l-2.12,1.05-1,2.1v3.18l3.16,2.1,1,1,2.11,2.11,2.12,3.16-1,3.16v12.67l-1,1v9.46h-4.23l-1.05,1.06v2.1l-1,2.13-1,1-1.05,2.12-1,1.05L657.05,768l1.05,3.15v4.19l1,1.05-1,1H655l-2.12-1v-9.51l-2.11,1.06-1,2.11-1,1.05-2.14,1-2.1-2.1L642.3,769l-2.12-1h-2.11l-1,3.16v2.09L636,776.32l-1,3.14-2.11,6.35-1.05,2.09h-2.11V789l1.05,2.1v3.15h1l1,1.06-1,1-1,1.08-1.05-1.08-1-1v-1.06l-1-1-2.11,1-1.05,1.06h1.05l1,1v2.15l2.12,2.11h1l1,1.05,1.06,1v1.06l-1.06,1-2.1,2.13-2.12,1.05-2.1,1-1-1h-3.15l-2.12,1V810l1,1.05,1.07,2.11,2.1,1-2.1,2.12,1.05,3.17v3.16l-1.05,1-1.07-1h-1L616,821.62l-1.05-1v-1.06h-1l-1.05-2.12h-1l-1,2.12-1.06,1.06v2.11l-1,1v1l-1,1.06,1,2.1,1,3.16v6.29l-2.08,1.07-2.12,2.11-2.11,2.09-3.16,1.07-1,3.13v4.24l-1.06,4.2v1.07l3.15,3.16,3.18,2.1,1.05,3.16,1,3.15,2.13,2.11,1,2.11,2.13,3.16,2.1,4.21,2.11,3.15v3.17l1,3.17,2.11,6.34,1.07,4.19,1,5.27,2.12,6.34-1,3.16,1,5.24v4.26l1.05,2.08v6.34l1,4.19,1,3.16,1.05,4.23,1,4.22,3.16,4.2,1.05,2.12,2.11,4.22,2.11,3.13,1.05,3.18v5.25l-1.05,2.13,1.05,4.22,1.06,2.11,1,2.12,1.06,3.15-1.06,5.24v2.13l-3.14,5.27L636,998.63l-3.14,5.24-3.17,4.24-4.22,6.31-2.11,3.17-1,2.09v7.4l1,4.22v7.37h-1l-2.1-1.05-1.07-2.12-2.11-1v1l-1,2.12v3.13l-2.11,3.16-3.15,3.16-3.15,4.21-2.11,4.24-2.11,4.21,1,4.24,1.05,3.16,3.16,6.31,3.15,4.19,3.15,5.29,1.05,3.16,2.11,5.27,1,4.19,1.07,6.34-1.07,5.27-2.11,4.21-4.22,10.56-2.1,4.19-2.11,3.16-2.12,5.27-1,6.31-1,4.24-1,5.25-2.13,3.18-1,3.14-2.12,2.1-2.09,1.07h-1.07l-2.1-1.07-3.17-5.25-1-4.24v-5.2l1-3.18,1.07-4.19,1-2.12,2.12-4.21,2.12-3.14,1-3.17,1-4.24-1-3.16v-2.1l-2.11-3.16-1-1.05-3.16-4.21-2.12-5.29-1.05-1-1-3.15v-2.1l-1.05-4.22-1-3.18-1-3.13-1.05-3.18v-3.16l-1-3.13-1.06-3.16-1-4.22L577,1063l-1.06-1-1-6.35-2.13-5.26v-1l-1-5.31v-5.28l1-3.15v-1l2.13-3.15,1-2.11V1025l1.06-1-2.12-5.27-1.06-2.11-2.11-3.17v-1l-2.1-5.26-1-1.07-1-4.19-1.06-2.11-3.15-3.16-2.1-1-2.12-2.1-1-3.15L556,986v-1l-1.06-5.27,1.06-3.15,1-3.18v-1l1.06-4.2v-9.5l-1.06-2.1-3.15-3.16-1-2.09v-1.07l-1.06-2.1,1.06-2.11v-4.23l-1.06-3.13v-2.08l-1-4.19V920.78l-1.05-3.17-1-4.24v-1l-5.28,4.19,1.07,2.13v10.56l1,3.13,1,4.2v5.27l1.06,4.23-1.06,3.14,1.06,3.16,1.05,3.16,1,3.16,2.11,3.13v1.1l1,4.19,1,3.14-1,3.16v2.14l-1,3.15-3.15,4.22V985l-1.05,2.11-1.06,2.09v3.16l-1,2.12-1,1-3.16,3.17v2.12l-2.12,2.1v4.21l2.12,1.06,4.2,4.2,1,2.1v6.33l-1,2.09v2.15l-2.12,2.1-4.21,1h1v3.15l1.06,2.12,1,6.33,1,1h4.24l4.22-1,3.14-2.11,3.18-2.12h1l2.12-1,2.09,1h1v10.55l-1,4.23v7.37l2.12,3.14,1,2.12,1.06,3.16,1.05,2.09,1,2.12v4.23l-1,2.1-1.05,2.11-2.12,2.09-1.05,2.13v3.16l1.05,1-1.05,2.13v2.11l-1,4.19v2.14l1,2.09,2.11,3.15,2.13,2.12,1,1.07,1.06,2.09-1.06,5.28-1,2.07-2.13,1.06-2.11,1-2.09,1.07-2.12,1.05-3.16,1L554.9,1122l-2.09,2.1-1,3.17-2.11,4.19-1,3.16-1.05,4.21v7.36l-1.06,4.22,1.06,3.18,1.05,2.11v4.19l-3.17,5.27-2.12,4.22,1.07,3.15,2.09,4.21,2.13,6.33,2.1,2.11,2.12,2.11,3.16,1,3.15,1.07v2.1l-1,5.27v4.2l2.1,2.14,2.12,1h8.43l1,1v1.06l-1,2.13-3.15,3.13-3.17,3.16-2.09,5.3-1.05,4.19-1,3.15v2.1l-2.1,1.06-1.06,1,1.06,1v13.7l2.1,1,3.14,1.06,2.12,2.11,1,2.09,1.06,3.15,1,3.19,2.11,2.1v1l-1,3.15-2.1,2.13-2.13,2.08-3.13,3.21h-5.27l-2.13,2.09-1,2.13v6.32l-1,1.07v4.21l-3.15,3.17-2.11,2.09-3.15,3.13-2.11,1.1L540.2,1300l-2.1,1-4.22,1v1.06l-4.23-1.06-3.14-2.09-2.12-3.17-2.1-3.14-1-3.16-2.11-2.1-1-1v-3.13l1-1.07-1-1-2.13,1-1,1.07h-2.1l-1.06-2.13-1.05-4.23-1-4.19v-5.3l-1.05-6.32-2.12-5.27v-3.16l1-4.21,4.23-6.33,1.06-2.11,1-3.17v-6.31l1-3.16,2.11-2.1,1.05-2.12,1-1.08,1-3.12,1.05-6.36,1-4.19v-4.24l-1-3.13-1.05-4.23v-2.11l-1-2.1v-1.06l1-1v-1.06l-1-2.1-4.22-6.35-1-3.13v-4.26l-1-5.26v-14.78l-1.07-5.25v-3.15l2.13-4.23v-3.14l2.09-4.21,2.13-4.2,2.1-4.24,2.11-3.16,2.1-3.16,1.06-1,2.11-2.13v-3.13l-2.11-3.17-3.16-2.11-3.16-2.1-2.11-1.06-1-3.16-2.09-1.05-2.13-1-1-4.23v-4.19l-2.1-2.11-3.17,1h-2.11v-3.17l1.06-4.19v-10.54l-1.06-3.16-2.11-2.09-3.15-4.23v-2.11l1-2.09,1.05-3.18,2.11-4.24,2.13-2.06,2.09-1.07,2.13-2.12v-3.17l-3.17,3.15-1.05,1-2.13,1.06-2.11,2.1-1.05,1-1,1.06-2.11,1-2.09-1-1.06-1.06-1.05-2.07h-1.06l1.06-1.07v-1l1.05-2.11,1.06-2.1-1.06-4.23-2.13-2.1-2.08-2.12-2.13-2.09-2.12-3.17,4.23-3.17,3.15-2.09,2.12-1.07,1.05-1,1-1.05v-1.06l1.06-1v-3.17l-2.12-2.12-3.14-2.07-5.27,1-2.11,1h-3.15l-2.12-1V1006l-1.05-4.2-3.14-3.15-1.05-1.07-2.11-1-1.05-2.11-3.14-3.17-2.13-3.13v-3.09h1.06l1.05-1.06,1.05,1.06,2.11,1,2.11,1,2.11-1H476v-6.33l-1.05-3.16-1-3.17-1.05-3.16-2.11-2.07h-2.11l-2.11,1-2.12,1h-4.21v-1h-1l1-2.12,2.11-2.1,2.11-1,1-1,1.06-1.1v-2.09l1.06-2.11v-2.11l-2.14-4.19-2.08-3.18L461.2,945l-1.05-4.22v-3.14l1.05-1.06v-1.05l1.05-1.06v-1.06h2.12l1-1h1.06l2.11-1.07,2.1-1-1.05-2.13-2.09-2.1,2.09-2.07h3.16l2.11-1.08h1l2.1-1h1.06l2.12-1v-1.08l1-2.09-3.15-1.07L476,914.49l-3.16-1-1.05-1.05-2.18-2.14-1-4.19-2.12-6.35-1.05-7.37v-4.26L463.27,886l-2.13-1.05-1.05-3.15-1-2.11,2.09-3.16,1.05-1v-2.1l2.11-1.06,1.05-1h4.21l1-1.05,1-2.11V866l1-3.17v-6.3l-1-3.16-2.11-1.05h-2.09l-2.14-1h-2.09v-3.17l5.25-1.05,2.11-1h1.05v-1.06l-1.05-2.1-2.11-2.1-2.11-1-2.11-2.13v-2.1l1-1,1.06-1.06,1.06-3.15-1.06-2.11,1.06-1.05h1l2.11,1.05,1.05,1.06,1,3.15h1.05l2.11,1-1.05,2.12v2.1l-3.15,1.06v2.12l1,1,1.05,1.06,2.11,1.07h2.1l2.13,1h4.2l1.05-1-1.05-1.07-2.11-1.06H480l-2.15-1,2.15-1,1-2.13,3.15-1.05,1-1,2.11-1,1.05-1.06,2.09-1-1-2.12-1-1.05-1.05-1.06-1.06-1.05h-1.05l-2.11-1h-2.11l-2.12-1.07h-1.05l-2.1-2.09-2.11-1.07v-1l-1-1.05,1-2.12v-5.25l-1-2.12V807l-1.05-2.13v-7.34h1.05v2.1l1,2.12v2.1l1.05,2.1,1,1.06,2.1,1h1.05l2.12-1h1l2.11,1v1l2.1,2.11,1.05,2.11v1h1.06l2.08,1.06,1.07-1.06,2.12-2.1,1-2.11V806h1l-1-1.05-1-2.1v-3.14l1-1,1-1,2.11,1H500l2.11-1v-1.07l1.06-1v-1.06l-1.06-3.15,2.13-1v-2.11l-1-1-5.27-1L495.78,785l-1-1V781.8l3.16-4.23v-3.15l-5.26-1-2.13-1.06-1-2.1,3.15-2.09V766l-1.05-2.12-4.22-2.09-1-1.08v-1.05l-2.1-1-2.12,1h-3.16l-4.21-2.1v-9.5l-2.12-1-1.05,1-1,1v1.06h-4.27l-1.06-1.06-1-1,1-1v-1h1.06v-1l1.05-1.07,1.05-1,1-3.18v-1l-1-2.11h-3.18l1.06-1.05,1.05-2.1,1-2.1,1.05,1h2.12l1.05,1.06,1,1.06h1v-4.22h1.05l2.1-1v-1h1l1.07,1,2.09,1H483V727l1-3.14h1.06l1,1L487.2,726v1l2.12,1.07h4.22l-2.12,2.1-1.06,1.06h-2.08v2.11h6.32l2.12,1h1l3.17,1H502l1,1.07v1.05l-1,1-1.05,2.12v1h4.21l2.11-1h2.13l2.1-1.07,1.06-1,1.05-1,1-1.06v-1.06l-1-2.1,1-2.1v-1.07l1-2.1V727l1.05-1v-3.17h-1.06l-2.09-2.11h-1.05l1.05-2.13,1-2.1h1l1-2.09v-2.11l-1-3.13-2.09-4.23v-2.1l-1.05-2.11-2.13-1.05-1-3.16,1-1v-1h2.11l2.09-1h3.15l2.1-1,1-1.07v-1l2.11-2.1,3.15-1.06h1.05l3.15,1.06h2.1l2.13-1.06V685l1-1.06,2.1-1.06,1-1v-3.16l1.05-1.06,1.06-2.1H543l2.11-1.05h3.17l1.05-1,1-1.06,1-2.12v-7.38l1.05-2.11v-3.19l1-2.08,2.12-3.16,1-2.1,4.23-2.11,2.1,1,1,1.07h1.05l2.12,5.25,2.1,3.15,1.06,1,3.14,5.25,1.06,4.24v5.26l2.12,2.13v1l2.1,3.17,2.1,1,2.13,3.17,1,1.07,2.11,2.09h1.06l1,1,3.17,1.05,1-1.05h1l1.05-1v-1.05l1.06-2.11v-1.05l3.15-2.11,2.09-1H603l1.07-1,2.08-1.06,1.06-1.06h1l1-1,1.06-1.06,1-1.05h1.05v-1l2.12-3.18,1-2.1v-4.28l-1-1.05v-1.08h.15v-.1h.09Z" style="fill:#cdffca;stroke:#006837;stroke-miterlimit:10;stroke-width:3px"/><path id="map_background-51" data-name="map background-51" d="M380.87,1057.83h1l1,4.24,1,4.19,3.17,2.1,3.16,3.18,3.15,3.17,2.11,2.08,4.21,3.18,3.18,1,2.09,3.17,2.12,2.1,2.09,4.22,1.07,2.09-1.07,1.05H403l-1.05,1.06v4.21L403,1101l1,4.24,1,1,2.12,3.14,2.09,1,1.07,1,3.15,5.27,2.12,2.12,4.21,1,2.11,2.14,2.11,2.1v3.16l-2.11,2.13-2.11,2.09-2.11,1-1.05,2.11v7.37l1.05,4.22,2.11,4.22v5.29l-2.11,6.32-3.16,3.15-2.1,2.11-2.11,3.16-2.12,3.16-1,3.13,1,4.23v8.48l1,3.14,3.17,2.13,2.11,3.14,2.11,1h4.22l5.25-1,5.28,2.13,6.33,2.09,2.12,1.08-2.12,4.19-2.11,4.22-1.05,2.08-2.11,4.25-1.05,3.14v14.76l-2.11,3.16-2.09,4.2-2.12,5.28-1.06,4.2-2.11,5.27-1,1-2.09,2.1h-2.13l-4.22-1h-2.11l-1.05-1.06-2.1-1-2.13-1-3.13-1-4.24-1-5.26-3.14-3.14-2.12v-4.22l1-6.31,1.05-7.38-1.05-6.34-1-5.23-2.13-4.26-3.16-5.24-2.1-3.16V1198l1-6.33,2.12-4.23,1-3.13,1.05-1.07h2.12l2.1,2.11,5.27-2.11h3.15l1-2.11-2.09-3.15-1.06-1.06v-4.19l-1-2.11,3.15-2.11,1.05-3.15,2.14-3.16,1-3.17,1-2.09,1.05-4.21-1.05-3.18-3.13-8.44-1.08-3.16,2.14-4.19,1-2.11v-3.16l-1,3.16-1,1-1.08,3.17-1,2.09,1,3.16,1.08,3.18,1,1,1,2.11v3.14l1.05,2.14-1.05,4.21-1,3.16-2.14,2.1-1,2.13-2.12,3.13-1,1-1.06,1v7.37l2.13,3.15-1.05,2.1-2.1,1.06-1.06,1.07h-2.12l-1-1.07-1.05-1.06-1.05-2.1,1.05-4.2,1.05-4.23v-7.34l1-6.35-1-6.33-1.05-5.27-6.34-9.48-3.16-2.11-2.09-5.24-3.16-5.32-1-5.27-1.06-5.26v-4.22l1.06-5.27,2.08-4.19,2.13-2.11,4.21-4.25,2.09-3.13h1.06l1.05-1,2.1-1,1.06-1.09,1-1h1.05v-1.06l1-1,1.05-1.05,1.06-2.11-1.06-2.1-2.12-1.06-2.09-1-4.23,1-2.12,1.06-2.09-2.13-2.13-2.08-1-2.14v-2.1l1-4.21,1-2.11,1.07-3.16-1.07-1v-2.12h1.07v0h0v0h0ZM485.2,1250.7l1-3.18v-7.37l1.06-3.13v-3.18l1.06-3.18,2.07-4.22,2.14-2.11,2.09-3.16,2.12-3.14,1.06-1,5.25-5.27,4.21-3.13,1.06-1.07,1.05-1,1-3.13,1.05-1.07V1197l-1.05-1.06-1-1-1.05-2.14v-5.25l-2.11-3.15-1.07-2.13-1-4.22-1.06-1.06-1-1-2.13-3.16-1.05-2.11h-1.05l-2.12-3.15-3.14-2.11-4.22-6.34v-6.3l-1.05-1-1-1.06-1.05-2.11-1.06-3.14-1-4.24-1.06-1-1-1-2.12-3.18-1.05-1-1-1.06v-5.27l2.09-3.15,1.06-2.1H481v-1l2.12-2.13,1-3.16-1-1.07-1.06-1-2.1-1h-2.12l-3.16,2.07-4.22,2.12H467.3l-2.14-1-2.09-3.13L462,1112.7l-3.15-4.19h-3.16l-1,1-1,3.15,1,3.14,1,2.12,2.11,3.17,2.11,2.12,2.11,5.25v4.23l-1.06,3.15-2.09,2.1-1.05,2.13-2.1,2.09-1.06,2.13-3.16,4.19-1,3.17-1.05,3.13,1.05,2.13,3.15,1,3.16,1,3.16,3.15v5.28l-2.11,2.1-4.23,3.17-2.11,2.09-5.27,3.17-2.11,2.1,1.06,4.24,5.27,1,4.21,1.06h3.15l2.12,3.16,1,3.14,2.13,3.16,4.23,3.16h3.13l3.17-1.06,2.1,1.06,5.27,4.24v4.19l-1.05,3.16-3.15,4.19-2.13,3.17-1.05,4.19,1.05,3.18,1,4.21v5.25l2.1,1.05H482L481,1237l-2.11,1-2.09,1-1.06,2.12,2.1,2.1,2.13,4.21,3.15,3.18,1.05,2.09ZM454.62,1335l4.23-1.06h2.09l2.13-1.06,3.15-2.11,2.11-2.07v-4.22l-1.05-1-2.13-1v-1.07l3.17,1.07h7.38l2.1,1,1.05,1,2.13-1,1-3.16-1-3.17-1.05-2.09,1.05-4.24-1.05-2.12-2.12-1-4.21-1-3.17-1.07h-3.14l-3.17-1-1-2.14,1-4.17,1.05,4.17h9.5V1297l1.05-4.22,1-2.11,1-3.15,1.05-3.15-1.05-2.11,2.13-1,1-4.22v-2.12l-1-7.36-3.17-8.43-2.11-6.35-3.15-8.44v-10.48l1-5.29-2.11-5.29v-4.19l1.05-4.21,3.16-3.17,2.12-2.1,2.09-3.17-2.09-4.22-3.15-1-5.27,1h-3.17l-2.09-2.07-3.17-3.17-2.11-2.11-2.1-3.16h-5.27l-4.22-2.12-2.11-1-3.17-3.16v-5.26l4.25-4.21,4.21-4.24,3.13-3.13,3.18-1.07h2.1l-1-5.27-3.15-1-3.16-1.05-4.22-1.06-4.22-2.11-3.16-1-2.11-3.18-2.12-2.11-1-2.11-3.15-2.11h-7.36l-2.12,1.06,1.05,5.25,1.06,4.22v3.17l-3.17,6.33-3.14,3.14-2.12,3.16-2.1,3.16-2.11,2.11v8.42l2.11,5.27,4.22,2.1,3.14,3.17h4.22l4.23-1.07,4.22-1,6.33,1,3.15,1.07,2.11,3.17,1.06,3.15-2.12,3.13-2.13,2.14-3.14,4.19-1,5.28-1.05,5.23v6.34l-1.05,7.41-1.05,4.19-2.12,2.11-2.11,3.16-1.05,1v2.12l1.05,1.05,1,1,1,3.15,1.05,9.5v1l1.05,3.14,1,1.07,3.17,4.23,2.12,3.15v1l1,3.18,1.06,3.16v6.31l1.05,1.07,1.05,1,1.06,2.11h1v6.31l-1,2.12-1.06,2.09-1.05,2.11-2.12,3.16-2.1,2.13-1,2.1-2.1,3.16-1.06,2.1-1,3.17-1,3.13v3.19l2.1,1,2.12,2.11,2.11,1,1.06,1.06h14.73l-.05.08ZM404,1299.17l2.11-1,2.11-4.25,1.05-4.19,3.18-1,1-3.18-1-4.19-5.29-8.44-3.15-4.24-3.16-2.11-6.3-2.09-5.27-2.12-3.16-3.15-2.13-6.35-1-6.33v-6.34l1.05-7.37v-6.31l-4.22-5.29-3.15-4.21-3.14-8.43v-12.67l-2.12-1H369.3l-2.12,1v1l-4.2,4.21-1.06,7.4,3.17,7.34,5.24,4.26,1.06,6.32-2.1,7.39v6.29l-2.13,7.38-2.09,5.24-1.05,9.51,3.14,4.19,5.29,3.15,4.21,2.13,5.27,8.43,2.09,3.16,2.13,3.15,1,4.23,3.17,4.21,3.15,2.11,3.15,2.12H404v.07Zm8.44-560.67-2.11-2.09-2.11-2.1-1.05-3.17-1-2.12-1.06-2.12v-1l2.13-4.19v-2.12l1-2.11v-1.07l-1-2.09-2.13-2.11L403,710.05l-3.17-2.12v-2.08l2.13-4.24,1-2.13h1.05l1,1.08,2.13,2.09,1,1.05,2.11,1,2.11,1.08h2.11v-2.14l-1.05-2.12v-2.11l-2.09-2.08-2.13-5.29V691l-1-2.1-1.05-1-1.06-1.06h-1.05l-2.08-1.05H402l-1.07-1-1.05-1.07v-1.07l1.05-1L402,680.5v-2.09h-1.07l-1.05,1.05-1,1-1,1.06h-2.12l-1,1h1l1.05,1.07,2.12,1.06v3.15l-1,1h-5.28l-1-1-2.1-1-2.12-2.1-2.1-2.15v-1l-1.06,1h-1v2.15h-3.18l-3.13-1.06h-1.05l-1,1.06-2.12,1h-2.1l-1-1,1-3.16v-2.11l-2.1,1-2.11,5.29h-1l-1.06-2.13H361l-1.05-1.07-2.12-2.09-1-1-2.11-2.15h-6.31l-3.19,1.08h-3.18v1.05l1.07,3.13,1,1.07V691h-2.11l-2.09-2.1-2.1,1.05v1h-3.17l-1.05-1v-1.05h-1V691l-1.05,1v1h-1.05l-2.1-1-1-2.11-1-1.05h-2.12L323,690l-1,1-1.05,1h-1l-1.06,1-1.05-1v-1l-2.12-2.1h-1.05l-1.05,1-1.05,1-1.05,1-2.11-1v-1l1-1v-3.15h-1l-1,1-1.05,1.06-1.05,1-1-1h-1.05l-1.05,1L302,690,301,691l2.11,1v1L301,695.21l2.11,4.19,1.05,1.09h1.06v1l1,4.26,3.16,3.15,1-1.08h2.1v1.08l2.1,1,2.14,1,2.08-1,1.06-1,1.05-1.08H323l1,1.08h1.05l1.05,3.13v2.11l2.11,2.1,1,3.17,2.1,3.13v1.06l1.05,1,1.06,3.17-1.06,1L331.44,732l-1.05,2.15v5.24l-1.05,1.05h-1v5.3l1,5.22v3.18l-1,1.05-2.11-1.05-1.05,1.05-2.11,1-2.11,1.07-2.12,1.06v3.14h-3.18l-1,1.05h-1.05v3.15l1.05,1.06-1.05,1h-3.17l-1,1L308.26,771h-1v2.11l1,2.1,1.05,1.06,1,2.08v1.06l-1,2.11v5.27l2.11,1,3.15,3.18v2.09l2.13,2.13,4.2,3.15L324,800.5l4.23,2.08,2.1,4.25v5.27h-3.15l-1,1-2.12,1v3.16l-1,2.12v3.18l-1,1-1,2.11H318.8l-1.05,1.05V829l-3.16,1,1,1.08,1.08,2.08v2.12l1,3.16v1.07l3.16,3.13,3.15,1.05h1l2.11,1,2.13,2.11v1.06l-1.06,2.1-1,3.17-3.15,2.1-3.15,2.13-1.05,3.13v2.12l2.11,2.13,1,3.14v2.12l-1,3.16,1,3.14h3.16l2.11,1,2.11,2.11,1,2.1,1,3.16,2.11,2.11V889l1.05,1v11.59l1,4.2,2.11,4.22,1.05,3.15,3.15,3.16,3.16,1,1.05,2.11,1.06-2.11,2.08,1.05,2.14,3.16,1,1,2.1,1.08,2.11,1h-1l-2.11-1-2.11-1.08h-1.05l-2.11-3.13h-1l-1.06,1.06-2.1,2.07v4.23l-1.05,1,2.11,2.12-1,2.12-1,1.05,2.11,2.13,1.05,2.11v4.21h-1.05l-1,1.06-3.17,1H341l-2.1,3.14L336.74,948l-1,1-1.05,1.06v1.07l3.16,3.13,3.15,1.07,3.16,3.14v4.25l-1,1L342,964.83l-2.09,1L338.88,969H341l2.12,2.11v2.1L342,974.3l-1,2.11,1,5.26-1,3.15V989l1,4.24,2.13-1h3.15l2.11,2.1,1.05,1.06,3.17,4.22,5.26,6.3-1.05,2.14-1,1.05H354.7l-3.15-1.05-2.12-1.06-5.27,2.13v2.11l2.12,2.1,2.11,2.12,4.22,2.1,2.12,1.05,1,1,1.06,2.12-3.18,3.16-1,1,2.11,1.06,3.12-3.16H360l2.1,1.05,1,2.11v3.13l1,6.34,2.11,3.15,3.17,4.21,2.1,4.24,2.12,2.12,3.15,3.13,3.13,3.16,1.08,1h3.14l1.06,3.16,1,3.16,3.18,3.16,3.13,3.14,3.16,3.16,3.17,3.15,4.23,2.11,3.14,3.16,3.14,3.14,2.13,4.25,2.09,3.13-2.09,2.13-3.17,1H405.2l-1.05,4.23,2.12,4.21,3.15,4.24,3.17,2.11,4.22,4.19,3.14,2.12,4.23,3.16,3.16,5.25v4.26l-3.16,2.11-3.17,3.15-2.08,2.12,5.25,7.38,2.1-1.07h5.28l3.14,3.15,2.13,4.23,5.26,3.18h2.11l2.11-5.29,5.27-2.12,1.05-5.26,3.14-4.19,4.23-4.23-1.05-1-1.05-4.2-1.07-3.16-3.13-5.27-2.12-4.23-4.22-5.27-2.1-5.27-2.12-2.09-1-5.27,7.37,10.53h5.27l3.15-2.1,3.15-1.06,4.22,2.13,3.17-2.13,3.15-3.16-1-6.31,2.11-5.26,3.16-5.28,4.22-5.27,4.21-5.26,5.26-5.26,3.17-5.26v-4.2l-3.17-4.22-1-1.09-1.06-2.11v-3.07l2.11-1,2.12-3.16v-3.16l-3.15-3.13-2.13-2.14-3.13-2.1-1.06-3.16v-2.09l4.21-4.23,4.22-2.11,2.13-3.16,1-2.1-2.09-1.05v-1.07l-3.15,1.07-3.16,1.05h-4.22l-1.05-1.05-1-1.07-2.1-2.1-1.05-2.08V1005l-1.05-2.11-2.11-3.15-2.11-2.12-3.13-3.15-1.07-3.15-2.11-2.13-1-4.19,1-1,1.05-1,1.05,1h1.06l1,1,2.11,1,2.11,1.05,2.11-1.05h1v-6.33l-1.05-3.16-1.05-3.17-1-3.15-2.11-2.07h-2.12l-2.11,1-2.11,1h-4.21v-1H459l1-2.12,2.09-2.1,2.13-1,1-1.05,1.06-1.08v-2.1l1.06-2.11v-2.09l-2.14-4.21-2.09-3.18L461.07,945l-1.05-4.2v-3.15l1.05-1.06v-1l1-1v-1.08h2.13l1-1h1.06l2.11-1.05,2.11-1-1.05-2.12-2.09-2.1,2.09-2.08h3.16l2.11-1.08h1.05l2.09-1H479l2.11-1V919.7l1-2.1L479,916.54l-3.15-2.1-3.16-1.06-1-1-2.12-2.13-1-4.21-2.11-6.35-1.06-7.37V888l-2.09-2.12-2.13-1L460,881.68l-1-2.1,2.09-3.16,1-1v-2.09l2.13-1.06,1-1.06h4.21l1.05-1,1-2.12v-2.11l1.05-3.16v-6.27l-1.05-3.16-2.11-1h-2.09l-2.14-1.07h-2.09V848l5.26-1.06,2.11-1h1.05v-1.07l-1.05-2.09-2.11-2.1-2.11-1-2.11-2.14v-2.1l1-1,1.06-1.08,1.06-3.16L466.3,828l1.06-1.06h1l2.11,1.06,1.05,1.05,1,3.14h1l2.12,1-1,2.11v2.11l-3.15,1v2.11l1,1,1.05,1.08,2.11,1.06h2.1l2.13,1h4.19l1.06-1-1.06-1.06-2.11-1.08H480l-2.13-1,2.13-1,1.05-2.14,3.15-1,1.06-1.06,2.09-1.05,1.07-1.06,2.09-1-1.05-2.12-1-1L487.34,828l-1-1.06h-1l-2.11-1H481l-2.11-1.07h-1.06l-2.09-2.09-2.12-1.05v-1l-1.05-1,1.05-2.13v-5.23l-1.05-2.13v-3.15l-1-2.14v-7.34h1v2.1l1.05,2.11v2.12l1.05,2.08,1.05,1.08,2.09,1h1.06l2.11-1h1l2.12,1v1.07l2.1,2.09,1,2.11v1h1.07l2.08,1.07,1.07-1.07,2.09-2.08,1.05-2.13v-4.22h1l-1-1-1.05-2.11v-3.14l1.05-1,1-1,2.11,1h2.1l2.11-1v-1.05l1.05-1v-1L502,791.21l2.12-1.07V788l-1-1-5.26-1-2.12-1.07-1.05-1v-2.12l3.17-4.23v-3.16l-5.26-1-2.13-1.07-1-2.08,3.17-2.11v-2.11l-1.05-2.11-4.23-2.11-1.05-1.06v-1l-2.1-1-2.11,1h-3.16l-4.21-2.1V748l-2.12-1.06-1,1.06-1.05,1v1.05h-4.2L465.21,749l-1-1,1-1.06v-1h1.05v-1.06l1.07-1.06,1-1,1.05-3.16v-1l-1.05-2.09h-3.18l-2.09,1.05h-3.16v1l-1,1.05v1l-1,1.06h-1.08l-1,1.05h-1.05l-2.1,1h-2.11l-1.06,1.06v1.06h-2.09l-2.1,1L444.16,748h-1l-1.05,1H440l-1.05-1-1.05-1.06h-1L434.7,748h-1.05l-1-1.06h-3.17l-1,1.06v1h-1.05l-1.06,1.06-1,3.15-2.11,1v1.05L420,757.44h-2.11v-1.07l-1.05-1-1.05-1.05v-2.11l3.17-2.11,1.05-1,2.11-1,1.05-2.09h1v-3.16l-1-2.12h-1.05l-1-1.05H420v-1h-1l-1.07,1v1.05h-1l-1,1-1.05-1h-1.06Z" style="fill:#cdffca;stroke:#006837;stroke-miterlimit:10;stroke-width:3px"/><path id="Path_1698" data-name="Path 1698" d="M413.52,740.61h1.06l1.05,1.06,1.05-1.06h1.05v-1.05l1.07-1.06h1v1.06h1.05l1.06,1.05H423l1.06,2.12v3.18H423L422,748l-2.11,1-1,1.07-3.18,2.1v2.11l1.06,1,1.05,1v1.07h2.11l3.16-2.11v-1.06l2.11-1,1.05-3.16,1.06-1.07h1v-1l1.05-1.07h3.17l1.06,1.07h1l2.12-1.07h1.05l1.06,1.07,1.05,1H442l1-1h1.06l1.06-1.07,2.1-1h2.1v-1.07l1.06-1.07h2.11l2.1-1h1.05l1-1.05h1.07l1.07-1.06v-1.06l1-1v-1h3.17l2.09-1.06h3.17l1.05,2.09v1l-1,3.17-1,1-1.07,1.07v1.07h-1.06v1L464.11,748l1.05,1,1.06,1.07h4.22V749l1.05-1,1.06-1.07,2.11,1.07v9.48l4.2,2.09H482l2.11-1,2.1,1v1.06l1.05,1.06,4.23,2.11,1.05,2.1V768l-3.17,2.11,1.05,2.08,2.12,1.09,5.27,1v3.17l-3.17,4.22v2.12l1.06,1,2.11,1.07,5.27,1,1.06,1v2.11l-2.12,1.07,1.06,3.16v1l-1.06,1v1.1l-2.11,1h-2.1l-2.11-1-1.06,1-1.06,1v3.15l1.06,2.1,1.06,1.06h-1.06v4.24l-1.06,2.11-2.09,2.09-1.07,1.08-2.09-1.08H487.3v-1l-1.06-2.11-2.1-2.1v-1.06L482,807h-1l-2.11,1h-1.06l-2.1-1-1-1.07-1.07-2.09v-2.12l-1-2.11v-2.09h-1.06v7.34l1.06,2.14v3.16l1,2.11v5.25l-1,2.12,1,1.06v1l2.12,1.07,2.1,2.09h1.06L481,826h2.12l2.11,1h1l1.06,1.07,1.07,1.07,1,1,1,2.11-2.08,1.05-1.07,1.08-2.09,1-1.07,1.07-3.16,1-1,2.13-2.13,1,2.13,1H482l2.1,1.08,1.07,1.06-1.07,1h-4.2l-2.13-1h-2.09l-2.12-1.06-1.05-1.08-1.05-1v-2.11l3.16-1.06v-2.11l1.06-2.11-2.12-1.05h-1.05l-1.05-3.15-1.06-1.06L468.33,827h-1l-1.07,1.07,1.07,2.09-1.07,3.16-1.05,1.08-1.05,1v2.1l2.11,2.13,2.11,1,2.11,2.1,1.05,2.1V846h-1.05l-2.11,1-5.27,1.06v3.16h2.1l2.13,1.07h2.09l2.11,1,1.05,3.17v6.31L471.5,866v2.11l-1.06,2.12-1.05,1h-4.22l-1.05,1.06L462,873.41v2.09L461,876.56l-2.09,3.16,1,2.1L461,885l2.12,1,2.09,2.11v4.21l1.06,7.37,2.11,6.34,1.06,4.21,2.11,2.12,1.05,1,3.16,1.06,3.16,2.1,3.16,1.07-1,2.1v1.07l-2.11,1h-1.06l-2.1,1h-1L472.55,924h-3.17l-2.09,2.08,2.09,2.1,1.06,2.12-2.11,1.05-2.11,1.07h-1.06l-1.05,1H462v1.08l-1.05,1.05v1l-1,1.07v3.17l1,4.19,2.12,3.17,2.1,3.18,2.13,4.2v2.09l-1.07,2.1v2.1L465.16,963l-1.05,1-2.12,1-2.09,2.1-1,2.11h1v1.05h4.21l2.11-1.05,2.11-1h2.11l2.11,2.07,1.05,3.16,1.06,3.17,1.06,3.16v6.33h-1.06l-2.11,1.05-2.11-1.05-2.11-1.06-1-1.05h-1.07l-1.06-1-1.05,1-1.05,1.05,1.05,4.19,2.11,2.12,1.07,3.16,3.15,3.16,2.11,2.12,2.11,3.16,1,2.11v5.28l1.05,2.08,2.1,2.11,1.07,1.07,1,1.06h4.23l3.16-1.06,3.16-1.07v1.07l2.09,1.06-1,2.1-2.12,3.16-4.21,2.11L482,1028.3v2.09l1.06,3.18,3.15,2.09,2.12,2.13,3.16,3.14v3.17l-2.12,3.16-2.11,1.06v3.14l1.07,2.11,1,1.09,3.17,4.22v4.19l-3.17,5.27-5.27,5.26-4.2,5.27-4.22,5.27-3.16,5.29-2.11,5.26,1.05,6.31-3.16,3.16-3.17,2.13-4.22-2.13-3.15,1.07-3.17,2.1h-5.27L442,1096.79l1.06,5.27,2.11,2.1,2.11,5.27,4.21,5.27,2.11,4.22,3.14,5.27,1.07,3.17,1.07,4.19,1,1.06-4.22,4.21-3.15,4.2-1.06,5.26-5.27,2.12-2.11,5.28H442l-5.26-3.17-2.12-4.23-3.15-3.15h-5.28l-2.1,1.07-5.26-7.39,2.08-2.1,3.17-3.17,3.17-2.1v-4.17l-3.17-5.25-4.21-3.17-3.16-2.11-4.21-4.2-3.18-2.1-3.15-4.24L404,1100l1.06-4.22h3.16l3.17-1,2.1-2.13-2.1-3.14-2.12-4.24-3.16-3.15-3.14-3.17-4.22-2.11-3.17-3.16-3.17-3.17-3.15-3.15-3.18-3.16-1-3.16-1.06-3.17h-3.15l-1.08-1.07-3.14-3.16-3.17-3.13-2.11-2.12-2.1-4.22-3.17-4.22-2.11-3.15-1.05-6.35v-3.13l-1.06-2.11-2.09-1.06h-2.11l-3.16,3.17-2.11-1.08,1.05-1,3.17-3.18-1.06-2.11-1.05-1-2.11-1.06-4.2-2.1-2.12-2.11-2.11-2.1v-2.1l5.26-2.13,2.12,1.07,3.16,1.06h2.11l1.05-1.06,1.05-2.14-5.26-6.3-3.18-4.21-1-1.06-2.11-2.1H344l-2.12,1-1.05-4.23v-4.19l1.05-3.17-1.05-5.26,1.05-2.11,1.06-1.06v-2.1l-2.11-2.11h-2.1l1.05-3.16,2.1-1,1.06-1.05,1.06-1v-4.24l-3.17-3.15-3.15-1.07-3.17-3.14v-1.08l1.06-1.06,1-1,2.11-1,2.1-3.15h1.05l3.18-1,1.05-1.08h1.05v-4.19l-1.05-2.11L344,933.49l1.06-1,1.05-2.12L344,928.21l1.06-1V923l2.1-2.08,1.07-1.07h1l2.12,3.15h1.05l2.11,1.09,2.11,1h1.05l-2.11-1-2.1-1.09-1.06-1-2.12-3.16-2.09-1-1.07,2.1-1.05-2.1-3.16-1.06-3.17-3.17-1.05-3.16-2.11-4.21-1.06-4.2V890.28l-1-1.06v-2.11L332.37,885l-1.05-3.17-1.06-2.1-2.1-2.11-2.11-1h-3.16l-1.06-3.15,1.06-3.17v-2.12L321.83,865l-2.1-2.12v-2.12l1.06-3.14,3.15-2.12,3.17-2.1,1.05-3.17,1.07-2.1V847l-2.12-2.11-2.11-1h-1.06l-3.15-1.06-3.17-3.14v-1.07l-1-3.16v-2.12l-1.08-2.09-1.05-1.07,3.17-1V827l1-1h2.12l1.05-2.11,1.05-1v-3.17l1.06-2.12v-3.16l2.11-1.06,1.05-1h3.16V807l-2.1-4.24-4.22-2.08-3.16-2.12-4.19-3.16-2.13-2.12v-2.09L311.3,788l-2.11-1v-5.28l1.05-2.1v-1.07l-1.05-2.08-1-1.07-1.06-2.09v-2.11h1.06l1-2.14,1.05-1h3.18l1-1-1-1.07v-3.16h1l1-1h3.16v-3.15l2.13-1.07,2.1-1.07,2.11-1,1.05-1,2.11,1,1.07-1v-3.18l-1.07-5.23v-5.3h1.07l1-1.05v-5.25l1.07-2.14,1-3.15,1.06-1-1.06-3.17-1-1v-1.06l-2.1-3.14-1.07-3.18-2.11-2.09v-2.11L325,709h-1.06l-1.05-1.08h-2.1L319.73,709l-1.07,1-2.08,1.05-2.13-1.05-2.1-1v-1.08h-2.12L309.18,709,306,705.86l-1-4.24v-1h-1.06l-1.05-1.08-2.11-4.19,2.11-2.12v-1.06l-2.11-1.06,1-1.05,1.07-1,1.05-1H305l1,1,1.06-1,1.05-1.07,1.05-1h1.05V689l-1.05,1v1.05l2.11,1.06,1.06-1.06,1.06-1.05,1-1h1l2.13,2.1v1.06l1,1.05,1.08-1.05h1l1.05-1.06,1.05-1.05,1.06-1h2.11l1.05,1,1.06,2.11,2.1,1.05h1.06v-1.05l1.05-1.06V689h1.06v1l1,1.05h3.17V690l2.1-1,2.1,2.1H344V683.7l-1.06-1.07-1.06-3.13v-1H345l3.18-1.08h6.32l2.11,2.13,1,1,2.12,2.1,1,1.06H364l1.07,2.14h1l2.11-5.3,2.1-1v2.1l-1,3.17,1,1.06h2.12l2.11-1.06,1-1.07h1.06l3.15,1.07h3.16v-2.13H384l1.06-1v1l2.1,2.13,2.13,2.1,2.09,1.07,1.05,1h5.27l1.07-1v-3.17l-2.13-1.06-1-1.07h-1l1-1h2.11l1.06-1.06,1-1,1.05-1h1.07v2.09l-1.07,1.06-1.05,1v1.06l1.05,1.07,1.07,1.07H403l2.09,1h1.06l1.05,1.08,1.05,1,1.05,2.11v1.06l2.12,5.29,2.09,2.08v2.11l1.06,2.11v2.13h-2.1l-2.1-1.07-2.12-1.06-1.05-1-2.12-2.1L404,699.51h-1l-1.06,2.11-2.12,4.24v2.08l3.18,2.12,2.09,2.11,2.12,2.11,1.05,2.09v1.06l-1.05,2.12v2.12l-2.12,4.19v1l1.06,2.12,1.05,2.12,1.05,3.17,2.12,2.1,2.11,2.09,1,2.11" style="fill:#cdffca;stroke:#006837;stroke-miterlimit:10;stroke-width:3px"/><path id="map_background-70" data-name="map background-70" d="M287.06,224.71l1.06-2.1v-5.27l1-2.13,2.11-1,1.06-1h2.1l2.12-2.13,2.09-3.14v-3.16l-2.09-1.06-3.17-1-2.11,1-2.11,1.06-2.1,1.05-1.06,1-2.1,1.06h-2.11l-1.06-2.11-2.1-1.05v-1.06l-1.06-1,1.06-1.06,1.07-1.05,1,1.05h6.33l2.1-1.05h2.11l1.06-2.13,1.05-3.14,1.05-3.16v-4.23l-1.05-1v-1.05l-2.11-2.11-1-3.17-2.1-1.05L286,177.28l-2.1-2.11-3.17-1-4.2-1.05-2.11-1h-1.07l-2.1,1-1.05,3.17v1h-1.06l-2.1-2.11-2.11-2.1v-3.16l-1.05-2.1,1.05-5.28v-1.05l-1.05-3.17-1.06-2.1-1.05-1.05L259.66,153H256.5l-2.12,1.05-1,1.07-1.06,2.1-1.06,2.11v5.27l-1.05,2.1h-1L247,165.69l-2.11-3.17-1.05-3.16-1-2.11-1.06-1h-4.21l-2.11,1-1,1.06h-3.15l1-5.27h-2.12v-3.17l1.08-2.09,2.08,1h4.23l2.11-2.11,6.31,1.07-2.09-4.22-2.12-1.06-1-4.19,3.16-2.12-1.06-1.05L240.7,133l-2.12,3.17h-2.11l-1.05,2.12h-3.16L228,140.4h-2.11v-5.27H228l1-2.12,1.06-2.09v-3.16l1.08-1.06,1-2.1,1-2.12v-1h-1l-1-1.08v-6.3L230.14,113H228L227,112v-2.12l1.06-1.06,2.1-1,1.08-1.06v-2.11h-1.08L227,105.62l-1.05-1.06-1.06-1V99.29l1.06-3.17L227,93V89.8L228,87.71,227,86.65l-1.05-1.06H221.7l-1,1.06-3.16,2.11-2.12,2.1V85.59l-2.09-1.06-1.07-1.06-3.15-1,3.15-2.1V79.26l2.14-1,2.08-2.11h3.17L220.65,75l1.06-1,3.15-2.11L228,69.78l4.22-3.15,1.05-1.07,1.06-2.1V61.35l-1.06-2.11-1.05-3.17-2.12-3.15L228,50.81l1-2.1V35l1.06,3.16v2.11l1.08,3.16,1,2.12,1.05,2.1v1.06l2.11,3.16L236.46,54,237.52,55l3.16,4.22,3.17,3.17,1,2.09L247,66.63l3.16,2.11,2.1,2.11,1.07,1.05,3.15,1L258.59,74l2.1,1,2.12,1.06,2.11,1.06h8.42l2.11,1h1.06l3.17,1h2.09l2.11,1.07h1.06l1,1L287,83.48h3.17l2.11-1,1.05-1.06h2.11l1.06,1.06v3.16l-2.12,1.06-1.05,1.06v1.05h1.05l2.12-1.05,2.08-1.06,2.14-1.06,3.15-1.06,2.1-1.06h2.12l1.06-1h1V77.17h-1v-1l1-1.07h1.06l2.12-1h2.08v2.11l-1,1v2.1l1,1.06,2.13-1.06,1-1,1.07-1.06,2.12-1h2.09l1.06,1,2.11,1.06,3.15,1h7.4l2.09,1.06h10.55l2.11,1h1.05l2.11,1.06V81.37h1.06l2.11,2.1,1,3.17,1.05,5.26L364,98.23l2.11,5.28,1.05,7.36,2.12,4.22,1,4.21,1.07,2.13,1.06,3.15,1.05,3.16,1.06,3.17v4.21l2.1,4.21,1.06,5.27,2.08,3.17,1.09,3.16,1,2.1,3.16,1,3.15,1.07,3.19,1.06h4.2v5.26l1.05,1h11.59l3.17,1.06h1.05l2.11,2.11,3.15,1,3.16,1.06,4.22,1.05h5.27l3.17-2.12,1-2.09,1.06-3.17,2.11-2.11h1.05l1.06,1.05,1.05,2.11,1.06,2.12,1,5.26,1.06,3.16v2.11l1.06,1.06,1,3.15,1.06,1,2.1,1.07h1.06l2.11-2.12,2.1-1.06,1.05-2.09,3.17-1.06,1.05-1.06,1.05-1,1-2.12v-2.09l1.08-3.16,1-4.22,2.11-4.22,1.07-1.05h1l3.16,1.05,2.11,1,2.11,1.06,3.16,1.05,3.16,1.06,4.21,1,2.12,1.05,2.09,1.07h2.12l2.1,1.05,2.12,2.11,1.05,1.05,2.1,3.16,1.06,2.1,1.06,2.12,3.15,2.1,2.11,1.05,2.12,1h2.08l2.13,2.11,1.06,3.17,2.1,2.1,2.11,2.11,3.16,2.12h1.06v3.16l1,2.1v2.1l-1,1.07-1.06,1L521,198.33h-1v4.24l-1.05,3.15H520l1,1.05v2.11l1.07,1.06v2.11l-3.15,3.18-1.06,1.06-1.05,1.06v8.43l-1.06,1.05-1,1-2.11,1.06L511.52,230v2.11l-1,1.05-1.06,1,1.06,2.11-1.06,3.16-2.12,3.17L505.2,249l-1,2.12v1l2.11,2.11v1.07l-1.07,3.16-1,1.05h-4.22l-2.09,1.05-1.06,2.11,1.06,1H501l1.06,1.07v1.05L499.94,269l-1.05,2.11v2.12l-3.16,2.11-3.16,2.1-1.05,1-1.07,2.11H485.2l-2.11-2.11H481l-1-1h-2.12l-2.1-1.05-1.06-2.11-1-3.17L472.54,269l-1.05-2.1-2.1-1.06h-3.17l-2.11,1.06-1.05,1.05L462,269l-1.05,1-2.09-1-2.12-1.05h-4.2l-1.06,2.1h-1l-1.06,1.06-1.06,2.12-2.1,1.05-1,1.06H442l-3.16-1.06-2.09-1.05h-1.06l-2.11,1.05v2.11l-1.06,1.05h-1.05l-1.06,1-2.11,1.06-1,1.05-1.08,1.06v4.21l-1.05,1.05L423,288l-2.12-1.07-2.08-2.11h-1.07l-2.09,2.11h-2.13l-1,1.07v2.11h-2.11l-1.07,1.05v1.06l1.07,2.1v2.11l-2.11,4.21-1.05-2.1-1.06-2.11-1.06-1.06v-2.1l1.06-2.11,1.06-4.22,1.05-2.11v-2.1l-1.05-2.12V279.5h-1.06l-1.06,1.06L404,281.61l-1,1.07-1.06,1h-3.17l-1.07-1v-2.12l1.07-2.11-1.07-2.1h-1l-4.22-1.05-1-1.06v-3.17l1-2.11v-1h-3.15l-2.12,1h-1l-1.06-2.09,1.06-1.07,1-2.12v-2.09l-1-1.06h-5.27l-1.08,1.06-1,2.09-1,2.12,1,1.07V269l1,2.11v2.12l1.08,3.16,2.1,3.15,2.1,1.05,2.11,1.06v3.16l-2.11,1.05H384l-2.1,1.06h-3.16l-1.05-1.06-1.06-2.11-2.1-1h-1.07l-2.11,1v1.06l1.07,1.05,2.11,1.06,2.1,1.06,1.06,1-1.06,2.12-1.06,1.06-1,1v2.1l-2.11,2.11-1.06,2.12-2.11,1H368.2l-2.11-1L364,298.48l-1-2.11-2.12-2.11-2.1-3.16v-1.05l-1.06-3.17-1.05-2.11v-8.42l-1.05-2.11v-2.12l-1.05-1.05L352.4,270,349.23,269l-1-1,1-2.11,1.06-2.13,2.11-2.09,1.06-3.15,1.06-2.12,1.05-3.15v-1.06h-1.05l-1.06,1.07-1.06,1v2.12l-1,1.05-1.06,2.11h-1.06l-1-1.05-2.11-2.12-1.07-1h-3.15l-1.07,2.1-1.05,2.11-1.05,2.1-1.05,3.17-1.06,2.11L334.48,269h-1.05l-2.11-1-1.06-2.11v-1.05l-1-1.07-1.06-2.1-1.06-2.1L325,256.33l-1.05-2.11,1.05-2.11v-4.19l-2.11-2.12-1-1.06-1.06,1.06-1,2.12-1.07,1-1,1.06-3.18,2.1h-2.1l-1.06-1.05v-1l1.06-2.1,1.07-2.12v-2.11l1-2.1,1.05-3.16,1.08-2.12v-4.2l-2.12-1.06-1-1.05-2.12-1.06v-2.1l-1.06-2.11h-1.05l-1.05,1.06h-1.06L306,227.88,305,229h-4.21l-2.13-1.07-2.09-2.09h-2.12l-1.05,1.05-2.11,1h-2.11l-1.05-1-1.08-1Z" style="fill:#cdffca;stroke:#006837;stroke-miterlimit:10;stroke-width:3px"/></svg>