<svg id="Layer_1" data-name="Layer 1" xmlns="http://www.w3.org/2000/svg" viewBox="0 0 900 1366"><title>alldivs</title><path id="map_background-11" data-name="map background-11" d="M55.07,729.54l2.58-1.29,2.59-1.3v-2.59l1.3-2.59,2.59-1.29,1.29-1.29H69l2.59-1.3h2.59V715.3H65.75L63.16,714l-3.56-2.59L56,710.12l-3.56-2.59-2.59-2.59-2.27-1.29L45,701.06v-2.59l-2.59-1.29-2.59-2.59L38.56,692v-4.86L36,683.58,33.38,680l-1.29-3.56-1.3-1.29v-3.56l-1.29-3.56-1.3-2.59-1.29-2.27v-.65l2.59-1.29h2.59V660l1.29-2.58,3.56-2.59H40.5l-1.29-3.56v-2.59l-1.3-1.3L35.32,646,34,643.77v-8.41l1.29-2.59,1.3-2.59v-8.42L34,616.91l-1.3-2.59L31.44,613l-1.3-2.59-1.29-1.29-1.3-3.56V603l-1.29-2.59V593L25,590.37l-1.29-2.27-1.29-2.59V582l-1.3-2.59v-6.15h1.3l1.29-1.29,1.29-1.3v-6.15l-1.29-3.56v-7.44H22.38l-1.3,1.29-1.29-1.29-1.3-1.3-1.29-2.58-1.3-1.3v-3.56l1.3-2.59,1.29-1.29v-1.3l1.3-1.29,2.59-3.56v-1.3l-1.3-4.85v-12.3h1.3v-2.59L25,510.1l1.3-1.3,2.59-3.56L31.44,504v-2.59L34,500.07l1.29-1.3v-1.3l1.3-1.29-1.3-2.59V491l1.3-1.29,1.29-2.59v-1.3l1.3-1.29,1.29-1.3v-1.29l1.3-1.3,1.29-1.29,1.29-2.59,1.3-2.59L47,470.61v-1.29l1.3-2.59,1.29-2.59,2.59-1.3h2.59l2.59-1.29,3.56,1.29h11l1.29-1.29,1.29-1.3,1.3-1.29v-1.3l2.59-2.58h1.29l-1.29-2.59v-1.3l-1.3-2.59L75.78,446v-2.59l1.29-1.29v-2.59l1.3-3.56,1.29-1.3L81,432.1l-1.3-1.3v-2.59l-2.59,1.3-2.26-1.3-1.3-1.29v-2.59l-1.29-2.59v-6.15L69.63,412v-1.3l-1.29-2.59v-3.56l-1-1-1.29-1.29v-2.59l-1.29-1.3v-1.29l-1.3-2.59-1.29-1.29V392l-1.3-1.29v-1.3l2.59-1.29,1.3-1.3,2.58-1.29,1.3-1.3L70,382.9l1.3-1.3h1.29V378l2.59-1.29,1.3-1.3,1.29-1.29h3.56l2.59,1.29,7.45-2.59,1.29-1.29L93.9,369v-3.56l1.3-2.59v-6.15l-1.3-1.29H92.61v-1.3H90V352.8l1.3-1.3v-2.59L90,347.62v1H88.73l-1.3-1.3V346h4.86l2.59,1.29,2.59,1.3h1.29l2.59,2.59,2.59,1.29,1.29,1.3,2.59,1.29,2.59,1.3h6.15l2.59,1.29h-3.24l1.3,2.59v6.15l-1.3,1.62-1.29,1.29v1.3l-1.3,1.29-1.29,1.3v1.62l1.29,2.59v6.14l1.3,1.3-1.3,1.29V391l1.3,1.29v3.56l1.29,1.3h1.3l1.29,2.59,2.59,4.85v1.3l-1.29,2.59v4.85l2.59,1.3h1.29l2.59,1.29v1.3l1.3,1.29-1.3,1.3v1.29H125l-1.3,1.29-1.29,1.3v1l-1.3,1.29-1.29,1.3,4.85,2.59h2.59l1.3,1.29h1.29l2.59,1.3h7.45l2.58,1.29H146l2.27-1.29,1.3-1.3,2.58-2.59,3.56-4.85,3.57-2.59,2.58-1.29h1.3l2.59,1.29h1.29l1.3,1.29h2.59l1.29,1.3h2.59l1.3,1.29h2.58l1.3-1.29h2.59v2.59l1.29,1.29-3.56,2.59L179,432.74l-2.59,3.56-2.59,2.59-1.29,2.59v2.59l-1.3,2.59V448l-3.56,1.3h-3.56l-2.59,1.29-1.29,2.59-2.59,11-1.3,3.56-1.29,3.56-1.3,4.85-2.26,6.15-1.3,2.27v3.56l-1.29,2.59v2.59l1.29,2.59h7.45l1.29,2.59,2.59,1.29v2.59l-1.29,1.29-2.59,2.59v2.59l-1.3,4.86V515l1.3,2.59v1.3l-1.3,3.56v1.29l-1.29,1.3h-1.3v2.59l1.3,3.56-1.3,2.58,1.3,1.3,1.29,2.59,1.3,3.56v2.59l2.59,3.56,1.29,1.29,2.59,2.59,1.29,2.59v2.59l1.3,2.59-1.3,1.29v4.86l2.59,1.29,1.3,1.3-3.56,3.56-4.53-2.59-2.59,2.59-1.3,1.3v6.14h-9.71L145,580v2.59l-1.29,2.59v2.59l2.59,1.29h4.85v1.3L149.9,593l-1.3,1.29v2.59l1.3,1.29,1.29,2.59v2.59l-1.29,2.59,4.85,1.3,1.3,1.29,1.29,2.59v9.71l-1.29,3.56,2.59,2.59h2.26l1.3-1.29,1.29-1.3,1.3-1.29h2.59l1.29-1.3,2.59,1.3,2.59,1.29h2.59l1.29,2.59,1.3,2.59v6.15l1.29,3.56,1.3,1.29,1.29,2.59h2.59l1.3,1.3,1.29,1.29H193l1.29,1.3,1.3,1.29v1h1.29l2.59-1.29,3.56-1.3,2.59-1.29h1.29l1.3,1.29,1.29,1.3,1.3,1.29,1.29,1.3h6.15l2.59,1.29h4.86l1.29-1.29,1.3-3.56h1.29l1.29,1.29v1.3l-2.58,2.59,1.29,1.29h1.29l2.59-1.29,2.59-1.3h1.3l1.29,1.3h2.59l2.59,1.29,1.3,1.3h12.29l2.59,1.29h2.59l1.3-1.29h2.59l3.56-1.3h3.56l2.59,1.3,2.59,1.29,1.29-1.29,1.3,1.29v1.29h4.85l1.3,1.3h1.29l1.29-1.3,1.3-1.29,2.59-1.29,2.59,1.29v4.85h2.59l3.56,1.3,2.59,2.59,2.59,1.29,2.26,1.3H315l2.59,1.29h1.29l1.3-2.59,2.58,1.3h2.59l1.3,1.29,2.59,1.3,4.85,3.56-2.59-1.3H324l-1.3,2.59v1.3l-1.29,2.59V680l-1.29,1.3h-1.3l-1.29,1.29-1.3,1.29v1.3h2.59l2.59-1.3H324l1.29,1.3L324,686.49l-2.59,2.59-1.29,1.3h-1.3v4.85l-1.29,1.3-1.3,1.29h-6.15v3.56l1.3,1.3L312.7,704v1.3l1.3,1.29v1.3h-2.59l-2.59-1.3h-2.59l-2.59,1.3h-1.29l-1.3,1.29-2.59,3.56v4.86l-1.29,2.58V726l-2.59,1.3h-1.3l-3.56,1.29-1.29,2.59-1.3,2.59L285.84,735h-1.3l-1.29-2.59-2.59-2.59h-8.42l-1.29,1.3-1.29,1.29H266.1l-1.3-2.59-2.59-1.29-1.29-1.29h-3.56l-1.3,1.29h-1.29l-6.15,2.59-1.3,1.29-1.29,1.3-1.3,1.29-3.56,1.3-3.56,1.29-4.85,1.3h-7.45l-2.59,1.29-1.29,2.59v2.59l-1.3,2.59v1.29h-1.29l-1.29,1.3-1.3,1.29-1.29,1.3-1.3,2.59-2.59,1.29-2.59,1.3-2.59,2.59-2.59,1.29v1.3L202,766.11v2.59l-2.27,1.3-2.59,1.29h-2.58l-2.59,1.3h-2.59l-2.59-1.3L185.5,770l-1.29-2.59-1.3-2.59V760h-1.29L179,758.67h-3.56l-2.59-1.29v-2.27l-1.29-1.29-1.3-1.3L169,751.23h-1.3l-2.59,1.29-2.59-1.29h-1.29l1.29,2.59,1.3,1.29-1.3,1.29-1.29,1.3h-2.59l-1.3,1.29-1.29,1.3v2.59l-2.59,1.29-1.29-1.29-1.3-2.59h-1.29v1.29l1.29,2.59h-2.59l-2.59-1.29-1.29-1.3-1.3-1.29h-2.59l-2.58,2.59-1.3,2.59v2.59l1.3,4.85v7.45l1.29,1.29,1.29,2.59,2.59,1.29h1.3l1.29,1.3,2.59,3.56V793l1.3,1.29-1.3,3.56L147,800.42l-2.59,1.3h-3.56l-1.3-1.3H137L133.39,804l-2.59,3.56v4.86l1.3,2.59v1.29l-1.3,2.59-2.58,1.3-6.15-1.3h-3.56v3.56l1.29,1.3V825l-1.29,1.3h-1.3l1.3,2.58,1.29,1.3,1.29,2.59,1.3,1.29-1.3,1.3-1.29-1.3-1.29-1.29h-1.3l-1.29,2.59v1.29l-1.3,1.3-1.29,1.29v1.3h-3.56l-1.3,1.29,1.3,1.3h1.29l1.3,1.29h1.29l-2.59,1.3-3.56,2.58-1.29,1.3,1.29,1.29,1.3,1.3v1.29l-1.3,1.3h5.18l-1.3,1.29-1.29,1.3-1.3,1.29-1.29-1.29h-1.3v7.44l-1.29,1.3-1.29,1.29-1.3,1.3H96.17l-1.29-1.3-1.3-2.59L91,863.54v-7.45L89.7,854.8V840.56L88.4,838l-1.29-2.59v-1.29l-1.3-1.3-1.29-1.29-1.3-2.27v-6.15l1.3-1.29,1-1,1.29-1.3h6.15l1.3-1.29V792.66l2.59-1.3h1.29l1.3-1.29h1.29l1.3-1.3,1.29-2.59L102,783.59l-1.3-1.29H99.41l-1.3-2.59v-7.44L95.52,771H94.23l-1.3-1.29v-1.3l-1.29-2.59-1.29-1.29-1.3-1.3-1.29-2.59v-1.29L89.05,758h3.56l1.3-1.3,1.29-1.29,1.29-2.59v-1.3L95.2,749l-2.59-1.29-1.29-1.3v-9.71L90,734.07l-1.29-2.58-2.59-1.3V728.9H82.58l-1.3,2.59L80,732.78l-2.59,2.59-1.3-1.3-1.29-2.58-1.3-1.3-1.29-1.29-3.56-1.3v1.3l-1.29,2.59-1.3,1.29v1.29H63.48v-1.29l-2.59-2.59L59.6,728.9H57Z" style="fill:#f9dcdc;stroke:#ad0bad;stroke-miterlimit:10;stroke-width:3px"/><path id="map_background-12" data-name="map background-12" d="M328.56,669.66l-4.85-3.56-2.59-1.29-1.3-1.29h-2.59l-2.59-1.3-1.29,2.59h-1.29l-2.59-1.29h-4.86l-2.26-1.3-2.59-1.29-2.59-2.59-3.56-1.3h-2.27v-4.85l-2.59-1.3-2.59,1.3-1.29,1.29-1.3,1.3h-1.29l-1.3-1.3h-4.85v-1.29l-1.3-1.3-1.29,1.3-2.59-1.3-2.59-1.29H264.8l-3.56,1.29h-2.59l-1.29,1.3h-2.59l-2.59-1.3h-12.3l-1.3-1.29L236,648.3h-.32L234.38,647h-1.3l-2.59,1.29-2.59,1.3h-1.29l-1.3-1.3,2.59-2.59v-1.29l-1.29-1.3H226l-1.29,3.56-1.3,1.3h-4.85l-2.59-1.3h-6.15l-1.3-1.29-1.29-1.29-1.3-1.3-1.29-1.29h-1.3l-2.59,1.29-3.56,1.3-2.58,1.29h-1.3V644.1L192,642.8l-1.3-1.29h-3.56l-1.29-1.3-1.3-1.29h-2.59l-1.29-2.59-1.3-1.3-1.29-3.56v-4.53l-1.3-2.59-1.29-2.59h-2.59l-2.59-1.29-2.59-1.3-1.29,1.3h-2.59l-1.3,1.29-1.29,1.3-1.3,1.29h-2.59l-2.59-2.59,1.3-3.56v-9.71l-1.3-2.59-1.29-1.29-4.86-1.3,1.3-2.59v-2.59l-1.3-2.58-1.29-1.3v-2.59l1.29-1.29,1.3-2.59v.32H145l-2.26-1.29v-2.59l1.29-2.59V579l2.59-1.3h9.71v-6.47l1.3-1.29,2.59-2.59,2.59-2.59,3.56-3.56-1.3-1.3-2.59-1.29v-4.86l1.3-1.29-1.3-2.59v-2.59l-1.29-2.59-2.59-2.59-1.3-1.29-2.59-3.56V534.7l-1.29-3.56-1.29-2.59-1.3-1.3,1.3-2.59-1.3-3.56v-2.59h1.3l1.29-1.29v-1.3l1.29-3.56v-1.29l-1.29-2.59v-1.29l1.29-4.86v-2.59l2.59-2.59,1.3-1.29v-2.59l-2.59-1.3-1.3-2.59h-7.44L146,487.12v.65l1.29-2.59v-3.56L148.6,479l2.27-6.15,1.3-4.86,1.29-3.56,1.29-3.56,2.59-11,1.3-2.59,2.59-1.3h3.56l3.56-1.29v-1.3l1.29-2.59v-2.59l1.3-2.58,2.59-2.59,2.59-3.56,1.29-2.59,3.56-2.59,1.3,1.29,1.29-1.29,1.3-2.59,1.29-1.3h6.15l2.59,1.3,2.59,1.29,1.29,2.59v1.3l1.3,3.56-1.3,1.29,2.59,1.3,1.3,1.29h3.88l1.3,1.29,2.58-1.29,1.3-1.29H213l3.56,2.59,3.56,1.29,1.3,2.59,6.15,2.59,2.59,1.29h2.59l2.59,1.3h6.15l1.29,2.59,2.59,2.59,2.59,2.59,2.59,1.29,2.59,2.59,2.59,1.29,3.56,1.3,3.56,1.29,2.59,1.3,3.56,3.56,2.59,2.59h11l4.86,1.29,4.85-1.29L294.9,469h9.71l3.56,1.3,1.3,1.29,2.58,1.3,1.3,1.29h1.29l2.59,1.3,2.59,1.29h1.3l3.56,1.29H326l2.59,1.3h3.56v1.29l1.3,1.3h1.29l2.59-1.3,1.29-1.29h2.59l1.3,1.29,2.59,1.3h6.15l1.29,1.29,1.3,1.3h2.59l-1.3,1.29,1.3,1.3v6.15l-1.3,2.59v2.59L353.81,501v2.59l1.29,2.59,1.3,1.3-1.3,2.59v1.29l1.3,1.3L359,514v2.59l-1.3,4.86L356.4,524v8.42l-1.3,4.85-1.29,3.57,1.29,2.58,2.59,2.59h3.56l1.3,1.3,1.29,1.29,2.59,2.59,1.29,2.59h2.59l1.3-1.29,1.29-2.59,1.3-1.3,1.29,1.3,1.3,1.29v1.3h2.59v2.59l-1.3,1.29h-2.59l-1.29-1.29-1.3,1.29-3.56,1.3h-1.29v7.44l-1.3,1.29L365.46,569l-1.3,1.3h-1.29l-1.3,1.29h-1.29l-2.59,1.3-2.59,1.29v-1.29h-2.59V570.3l-1.29-1.3,1.29-2.59-1.29-1.29h-1.3v1.29l-1.29,1.3v2.59L346,571.59v1.3l-2.59,1.29h-4.21l-1.29,1.3-1.3,1.29v1.3l-1.29,2.59,1.29,2.26,2.59,1.3v3.56L338,589.07v1.3l1.29,1.29,1.3,1.29v2.59l1.29,2.59v7.45l-1.29,1.29v2.59l-1.3,1.3L338,612.05v3.56l-1.3,1.3v1.29l-1.29,1.29v1.3l-1.3,1.29,1.3,1.3V626l1.29,1.29,1.3,1.3,1.29-1.3V626l1.3-1.3h1.29l1.3,2.59v1.3h1.29l1.3,1.29h2.59l1.29,2.59,1.29,1.3,1.3,1.29v2.59l-1.3,1.29h-2.58l-2.59-1.29h-3.56l-2.59,1.29v1.3l-1.3,1.29v1.3l1.3,1.29,1.29,2.59,1.3,1.3,1.29,1.29,1.29,1.3v2.59l-1.29,2.58-1.29,4.86v3.56l-1.3,2.59v4.85l-1.62-5.82-1.29,1.3-2.59,1.29-1.3,1.29Z" style="fill:#f9dcdc;stroke:#ad0bad;stroke-miterlimit:10;stroke-width:3px"/><path id="map_background-13" data-name="map background-13" d="M328.56,669.66h6.15l1.3-1.29,2.59-1.29,1.29-1.3,1.29-2.59v-4.85l1.3-2.59v-3.56l1.29-4.86,1.3-2.59v-2.59l-1.3-1.29-1.29-1.3-1.3-1.29-1.29-2.59-1.29-1.29v-1.3l1.29-1.29v-1.3l2.59-1.29h3.88L349,630.5h2.59l1.3-1.29v-2.59l-1.3-1.3L350.25,624l-1.3-2.59h-3.23l-1.3-1.3h-1.29v-1.29l-1.3-2.59h-1.29l-1.3,1.3v1.29L338,620.14l-1.3-1.29-1.29-1.29v-.33l-1.3-1.29,1.3-1.3v-1.29l1.29-1.3v-1.29l1.3-1.3V605.9l1.29-1.29,1.3-1.3v-2.59l1.29-1.29V592l-1.29-2.59v-2.59l-1.3-1.3L338,584.22v-1.3l1.29-1.29v-3.56l-2.59-1.3-1.29-2.59,1.29-2.59v.33l1.3-1.3,1.29-1.29h1.3l2.59-1.3v-1.29l2.59-1.3v-2.58l1.29-1.3v-1.29h1.3l1.29,1.29-1.29,2.59,1.29,1.29V568h2.59v1.3l2.59-1.3,2.59-1.29h1.29l1.3-1.3h1.29l1.3-1.29,1.29-2.59,1.3-1.29v-7.45h1l3.56-1.29,1.29-1.3,1.3,1.3h2.59l1.29-1.3v-2.59h-2.59v-1.29l-1.29-1.3-1.3-1.29-1.29,1.29-1.3,2.59-1.29,1.3h-2.59l-1.3-2.59-2.59-2.59-1.29-1.3L358,541.17h-3.57l-2.58-2.59-1.3-2.59,1.3-3.56,1.29-4.85v-8.42l1.29-2.59,1.3-4.85v-2.59l-2.59-1.3-1.29-1.29v.64l1.29-2.58-1.29-1.3-1.3-2.59v-2.59l1.3-2.59v-2.59l1.29-2.59v-6.14l-1.29-1.3,1.29-1.29h8.42l1.29,1.29h3.56l2.59,1.3h1.29l2.27,1.29h2.59l1.29,1.29,3.56,1.3,1.3-1.3,2.59-1.29h1.29l2.59-1.29h2.59L393,485.5l1.3,1.29,2.58,1.3,1.3,2.59,2.59,2.59,2.59,2.59,2.59,1.29,3.56,1.3,2.59,2.59,2.59,2.58H416l2.59,1.3H427l2.58,1.29h4.86l1.29,1.3,1.3,1.29,1.29,1.3,2.59,1.29h2.59l1.3,1.3h3.56l1.29,1.29,2.59,1.3h4.86v-2.59l1.29-1.3,2.59-1.29,6.15-2.59,6.15-1.3,3.56-1.29,1.29-1.3,1.3-1.29H482l2.59-3.56,2.59,1.29h2.59V496.5l1.29,1.3h1.29l2.59,1.29,1.3-1.29h17.15v1.29h6.15l1.3-1.29h1.29l1.3,1.29H527v-1.62h4.85l1.3-1.29h9.71l1.29-1.29,2.59,2.58-2.59,4.86-1.29,2.59v7.44l-1.3,2.59v12l-2.26,3.56v8.41l-1.3,3.56v2.59l-2.59,1.3-1.29,2.59-1.3,1.29-1.29,2.59v9.71l1.29,1.3h1.3v-3.56l1.29-1.3,1.3-2.59,2.59-2.59,1.29,1.3v3.56l1.3,2.59v1.62l1.29,2.58L541.86,568l-1.3,1.3v4.85l-1.29,1.3v2.59l1.29,2.59-1.29,4.85h-3.56l1.29-2.59v-1.29l-1.29-1.3-1.3-1.29h-1.29l-1.3,1.29,1.3,2.59-1.3,1.3h-8.09l1.3-2.59L520.17,579v2.59H514l1.3-2.59-2.59-1.3-1.3-1.29v-2.59l-1.29-1.29h-1.3l-1.29-1.3v-2.59l-1.3-1.29-2.59-2.59v1.29l-2.58,1.3v-3.56l2.58-1.3H505l-1.3-1.29-1.29-1.3h-6.15l-1.29,1.3v4.85h-4.86l-2.59-1.29h-1.29l-1.3,1.29-2.59-1.29L481,566.09l-1.3,2.59h-2.59l-2.58,1.3h-1.3v-2.59h-4.85l-2.59-1.3-1.3,1.3h-8.41l-1.3,2.59,1.3,1.29v4.86h6.15l3.56,1.29,1.29,1.29L465.8,580l-1.3,1.29,1.3,2.59,1.29,1.3v1.29l2.59,1.3,2.59-1.3,2.59,1.3v2.59l4.85-1.3,1.3,1.3v3.56l-2.27,1.29-1.29,1.3-1.3,1.29v2.59h6.15L481,603v1.29l1.29,1.3v2.59L481,610.76l1.29,1.29h2.59v1.3l1.3,2.59v1.29h1.29l3.56-1.29v2.58l-2.26,1.3-2.59,4.85v6.15l1.29,2.59V637h1.3l2.59-1.29,1.29-1.3,1.29-1.29h1.3l1.29,1.29-1.29,1.3L494,637v1.3h4.86l1.29,1.29,1.3,1.3h1.29v2.59l-1.29,1.29v-1.29h-2.59l-1.29,1.29v7.45l1.29,2.59h1.29v2.58l1.3,2.59v1.3l-1.3,1.29v2.59l-2.58,1.3v1.29l1.29,2.59,1.29,2.59h6.15l1.3,1.29,2.59-1.29H515v4.85l1.3,1.3,1.29,1.29v1.3h-1.29l-1.3,2.59,1.3,2.59v1.29l1.29,1.3V692h-1.29l-1.3,1.29,1.3,1.3v1.29l-1.3,1.29h-3.56v2.59H514l1.3,1.3h2.59l1.29,1.29,1.29-1.29,1.3-1.3h1.29l1.3,1.3H527v1.29l1.29,1.3L527,704.94h-3.24v2.59h-1.29v2.59l-1.3,1.3v1.29h-2.59L516,714l-1.29,1.3-1.3,1.29v2.59l1.3,1.3,1.29-1.3,1.3-1.29,1.29-1.3,1.3-1.29,1.29-1.3h1.3v2.59l1.29,2.27h2.59l2.59-1.29h2.59v1.29l1.29,1.29,1.3,1.3,1.29-1.3,1.3-1.29h2.59v1.29l1.29,1.3v1.29l1.3,1.3h3.56v2.59l1.29,1.29,1.3,1.3h2.59l1.29-1.3,1.29-1.29h2.27l1.3,2.59v2.59h7.44l2.59-1.3,1.29-1.29,1.3-1.3,1.29-1.29,1.3-1.3,2.59-1.29h1.29l-1.29,3.56,2.59-1.3V725h8.41l1.3,1.29h1.29l1.29-1.29H592v1.29l1.3,1.3h1.29v1.29l-1.29,1.3H592l-1.29,1.29v1.3l2.59,1.29,1.29,1.3,2.27,1.29,1.29,1.3,1.3,1.29v3.56l-1.3,2.59H591.7v-1.29l-1.29-1.3-1.3-1.29-2.59,1.29-1.29,1.3v1.29l1.29,2.59v1.29l-1.29,1.3-1.3,1.29,3.56,1.3,2.59,1.29h2.59l1.3,1.3,1.29,1.29v4.86h3.56v7.44l-1.29,1.3h-4.86l-1.29,1.29-2.92-5.82-1.29,2.59L585.88,770l-1.3,2.59-1.29,1.29v4.86l1.29,1.29,3.56,1.3v1.29l1.3,1.3-1.3,3.56-1.29,1.29-1.3,3.56v4.86l1.3,1.29,1.29,1.3,1.3,1.29v1.3l2.58,1.29,1.3,1.3,1.29,2.59,1.3,2.58,1.29,1.3h1.3l2.59-1.3,1.29,2.59h1.3l2.59-1.29h1.29l1.3,2.59v4.85l1.29,1.3,1.29,1.29h1.3v-1.29l1.29,1.29h4.86v2.59l1.29,1.3-1.29,4.85v3.56l-1.3,2.59h4.86l2.59,1.3h2.59l1.29-1.3v-1.29l-1.29-1.3v-2.91l1.29-1.3,1.3,1.3,1.29,1.29,1.3,2.59h1.29l2.59,1.3H638v1.29l1.3,2.59v1.3l1.29,1.29v1.3l-1.29,1.29v2.59L638,849l-1.29,1.3v1.29h2.59v3.56h1.29l1.3-1.29h2.59l2.26-1.3-3.23-2.26V849h2.59l1.29,1.3h1.3V849l1.29-1.29,2.59,2.27-1.29,1.29v2.59l-1.3,2.59-1.29,1.29-2.27,2.59v1.3h1.3l1.29,1.29v1.3l-2.59,2.59v6.15l-1.29,2.59v1.29l-1.3-3.56-1.29,2.59-1.3,1.29,1.3,1.3v2.26l-1.3,1.3-1.29,1.29v4.86h-1.3l-1.29,1.29v6.15l-3.56-1.29h-11l-1.29-1.3h-3.56l-1.3,1.3v3.56l-1.29,1.29-1.3-1.29-1.29-1.3-1.3-2.59-1.29,1.3v4.85l-1.29,3.56-1.3,2.59-1.29,2.59H605l-1.29,1.3-1.3,1.29V914l-2.59,1.3h-1.62l-1.29-2.59-1.29-1.3v-6.15l-1.3-1.29H593l-1.3-1.3v-1.29l-1.29-1.3h-1.3v-1.29l1.3-2.59-1.3-2.59,1.3-1.29-1.3-1.3h-3.56v1.3L583,893.64l-1.29,1.29h-1.3l-1.29,2.59h-.33l-1.29,1.3-1.29,1.29,2.26,1.3-1.29,1.29V904l1.29,1.29v3.56l-1.29,1.3h-1.3l-1.29,1.29,2.59,2.59v2.59l-1.3,2.59-3.56,1.29H571v-1.29h-2l-2.58-1.3-1.3-1.29-2.59-1.29-1.29-1.3-2.59-1.29h-3.56l-1.3,1.29v-2.59l1.3-1.29h-3.56l-1.3,1.29L549,908.85l-1.3-1.29L546.39,905l-2.59-1.3h-1.3l-1.29-1.29v-1.3h-1.3l-2.58-1.29L536,898.5h-1.29l-1.3,1.29h-6.15L526,902.38l-1.3,1.29v2.59l-1.29,1.3-1.3,1.29-2.59,1.3v3.56l1.3,3.56v2.59l1.29,3.56L524.7,926,527,928.6l2.59,2.59,4.85,1.29,2.59,1.29,3.56,1.3h2.59l3.56,1.29H548l2.59,1.3,1.29,1.29,1.3,1.3,2.26,4.85,1.3,1.3H558v4.85l-1.29,3.56v2.59l-1.3,4.86v4.85l-1.29,2.59-1.3,2.59-1.29,2.59,1.29,2.59-1.29,2.59-1.3,1.29-.65-1.61-1.29,2.58L547,985.88l-1.3,1.3-1.29,2.59v1.29l1.29,2.59,2.59,2.59,1.29,2.59,1.3,2.59,1.29,1.3,1.3,2.58,1.29,1.3,1.3,1.29,1.29,1.3,1.3,1.29v17.16l2.26,3.56,1.3,2.59v3.56h-3.56l-1.3-1.3-2.59-1.29-1.29-1.3h-1.3l-4.85-1.29h-2.59l-1.29,1.29h-3.57l-1.29,1.3-2.59,1.29-1.29,1.3h-1.3l-1.29,1.29h-1.3l-.65-.65-1.29,1.3-1.29,1.29-1.3,1.3-1.29,1.29h-2.59l-2.59,1.3-2.59-1.3-1.3-1.29-1.29-2.59-1.3-1.3h-2.58l-1.3-1.29-1.29-1.29-1.3-1.3-1.29-1.29-1.3-1.3v-3.24L503,1027h-1.3l-1.29-1.29-1.3-1.3-1.29-1.29h-1.3l-3.56-1.3-1.29-1.29-1.3-1.3h1.3l1.29-1.29v-1.3l1.3-1.29,1.29-2.59v-2.59H492l-1.29-1.29-1.3-1.3-2.59-1.29-1.29-1.3H475.18l-2.59-1.29-1.29-1.3-1.3-1.29-1.29-1.3h-1.3l-1.29-1.29-.65.65-1.29-2.59-1.3-1.3h-1.29l-1.3-1.29-2.26-1.3-1.3-2.59h-11l-3.56,2.59-2.59,2.59v3.56l-1.3,2.59,1.3,3.56v2.59l-1.3,2.59-1.29-1.29H435.7l-2.59,2.58-2.59,2.59-1.3,2.59-1.29,2.59-1.3,1.3-3.56,3.56h-2.59l-1.29-1.3-1.3-1.29-1.29-2.59H413l-1.3,1.29v1.3l-3.56,1.29-1.29,1.3-2.59-1.3-1.29-1.29-1.3-1.3v-4.85l-1.29-1.3v-1.29h-2.59V1014l-2.59,1.3H391l-2.59-1.3h-6.15l-2.27,2.59-3.56,2.59-4.85,3.56-4.86,3.56h-1.29l-2.59-2.59h-2.59l-2.59-1.29h-4.85l-1.3-1.3-1.29-2.58v-7.45l-1.3-2.59-1.29-2.59-1.3-2.59-1.29-3.56L342.48,995h-1.29l-1.3-1.3h-2.27l-1.29-2.59L335,989.77v-9.71l1.29-6.15,1.29-3.56,1.3-3.56,1.29-2.59,2.59-11,1.3-3.57,1.29-2.58h-4.85l-2.27-1.3-2.59-1.29,1.3-1.3v-2.59h-1V938l-1.3-1.29-1.29-1.3V934.1h-1.3v.32h-1.29v-3.56l-1.3-1.29-1.29-1.3-1.3-1.29-3.56-2.59v-4.86l1.3-1.29,3.56,1.29,1.29-1.29,1.3-2.59,1.29-1.29,1.3-1.3h1.29l3.56-3.56,1.3-1.29,1.29-1.3-1.29-2.59H336l-1.3,1.3h-2.59L330.83,903v-1.3l-2.59-2.59-1.3-2.59h-.64l-2.59-1.29-1.3,1.29h-2.59V893l1.3-1.29h1.29v-1.3l-2.26-1.29-2.59-1.3L315,886.52h-2.59l-1.3-1.29-1.29-2.59v-1.3h-2.91l-2.59,2.59-2.59-4.85-1.3-2.59V873.9h-1.29l-1.3-1.3h-2.59L293.93,870v-3.56L292.64,859v-2.59l-1.3-2.59,1.3-1.29,1.29-2.59v-1.3h-4.85l-1.3-1.29v-1.3l-3.56-3.56-1.29-2.26-1.95.32V838l1.3-1.29v-1.3l1.29-2.59v-7.44h4.86v-1.3l1.29-2.59,2.59-1.29,1.3-2.59-1.3-1.3v-9.7l-1.29-1.3-1.3-1.29v-8.42L288.43,793l1.29-2.59-1.29-2.59-1.3-1.29-1.29-2.59-1.3-2.59v-5.5l-1.29-2.59-1.3-2.59-1.29-2.59V764.5l1.29-2.59,1.3-2.59v-2.59l-2.59-2.59H262.21l-1.29-3.56V746.7l2.59-1.3v-6.15l-1.3-3.56-2.59-3.56L257,729.54l-1.94-5.5h-.32l1.61-.65h1.3L259,722.1h3.56l1.3,1.29,2.59,1.3,1.29,2.59h3.89l1.29-1.3,1.3-1.29h8.41l2.59,2.59,1.3,2.59h1.29l1.29-1.3,1.3-2.59,1.29-2.59,3.56-1.29h1.3l2.59-1.3v-6.15l1.29-2.59v-4.85l2.59-3.56,1.3-1.3h1.29l2.59-1.29h2.27l2.59,1.29h2.58v-1l-1.29-1.29v-1.3L313,697.5l-1.3-1.29v-3.57H313l1.29-1.29,1.29-1.29V685.2h1.3l1.29-1.29,2.27-2.59,1.29-1.3-1.29-1.29h-3.88L314,680h-2.59v-1.29l1.29-1.3,1.3-1.29h1.29l1.3-1.3v-1.29l1.29-2.59v-1.3l1.3-2.58h7.44l1.29.64Z" style="fill:#f9dcdc;stroke:#ad0bad;stroke-miterlimit:10;stroke-width:3px"/><path id="map_background-16" data-name="map background-16" d="M716.64,838l2.59-1.29,1.29,1.29h1.29l1.3-1.29,1.29-1.3h1.3l1.29-1.29v-1.3l2.27,1.3h1.29l1.3,2.59,1.29,2.58,2.59,1.3,1.3-1.3,2.59-1.29,1.29-1.29,1.3,1.29,1.29,1.29h2.59l2.26-1.29,1.3-1.29h1.29l1.3,1.29,1.29-2.59H761l1.29-1.29v-1.3L761,829.23v-1.29h1.29l1.3-1.3,1.29-2.59,2.59-1.29,1.3-1.3,1.29,1.3h1.29v2.59L770,826.64v3.56h2.59l4.85-1.29h11l1.29,2.59,2.59,1.29,2.59,1.3h2.59l1.3,2.59,1.29,1.29H805l2.58,1.29,1.3-1.29h1.29v-1.29l-1.29-2.59-1.3-1.3h1.3l1.29,1.3h7.45l2.59-1.3,1.29-2.59,2.59-2.59,1.3-2.59-2.59-2.59-1.3-2.58v-5.18h1.3l1.29-1.3,1.3,1.3,1.29,1.29h7.45l1.29,1.3,2.59,1.29,2.59,1.29,1.29-1.29,1.3-1.29,2.59-1.3,1.29-1.29,1.3-1.3,2.59,1.3,1.29,1.29,6.15,2.59,4.86,1.29v-8.41l1.29-1.3,2.27-1.29,1.29-1.29h3.56v1.29H873l1.29-1.29,3.56-3.56-1.29-3.57-2.59-1.29h-1.3l-1.29-1.29v-3.56h1.29l2.59,1.29,1.3,1.29h1.29l2.59-2.58h1.3l1.29-2.59-1.29-2.59v-2.59l1.29-1.3-1.29-1.29h-2.59l-2.59-1.3h-1.3v-1.29h-2.59l-1.29-2.59-1.3-1.29,2.27-1.3h2.59l1.29-2.59L874.91,770h1.29v-2.59h-1.29l-1.3-1.29v-1.3l-1.29-1.29v1.29l-1.3,2.59-1.29,1.3L867.14,770l-1.29,1.3-1.3,1.29-1.29,1.29v-1.29L860.67,770l-1.3,1.3v1.29h-1.29l-3.56-4.85-2.59-2.59-2.27-1.3H846.1l-2.59,1.3-1.29,1.29L839.63,769H837v-3.56h-9.71l1.29-1.3,2.59-1.29,1.3-1.29,1.29-1.3v-.65l-2.59-2.59v-3.56h2.59v1.3h3.56v-4.86h-1.29l-2.27,1.3v-3.56l-1.29-1.3h-6.15l-1.3-1.29v-2.59l3.56-1.3,1.3-1.29,1.29-1.29,1.3,2.58h6.15l-2.59-3.56,2.59-2.59H840v-1.29h3.56l1.3-1.29v-1.3l1.29-1.29v-1.3l-2.59-1.29-1.29-1.3H840l-2.59-1.29,2.59-1.3V720.8l1.3-2.59,1.29-1.29,2.59-2.59,1.3-2.59v-6.15l-1.3-4.85h-2.59l-1.29-1.3-2.59-1.29v-2.59H835.1l-1.3,2.59-1.29,1.29V702l-2.59,1.3v2.59l1.29,1.29v2.59l-1.29,1.29-1.3,1.3-3.56,1.29-1.29,2.59,1.29,1.3,1.3,1.29H829l1.29,1.3v2.59l1.3,1.29v1.29H828l-3.56,1.3h-1.3l-1.29-1.3v-2.58l-1.3-1.3h-1.29l-1.3-1.29-3.56-4.86v-2.59l1.3-3.56v-2.59l-1.3-1.29,1.3-1.3,1.29-1.29v-2.59l1.3-1.3h2.59l1.29-1.29v-1.29l-1.29-1.3v-1.29l-1.3-1.3h-7.77L810.5,691l-1.3-1.3v-2.59l-2.59-3.56-1.29-1.29V679.7l1.29-2.59v-1.3l-1.29-2.58-2.59-4.86-3.56-1.29h-1.29l-1.3-1.3-1.29-1.29H794v-1.3l-1.29-1.29-1.3-1.3-1.29-1.29-1.3-1.3h-1.29l-1.3,1.3-1.29,1.29v-1.29l-1.3-1.3h-4.85l-1.3,1.3-1.29-1.3h-2.27v-2.59h-3.56l-2.59,1.3v3.56l-1.29,1.29v4.21l-1.29,1.3v1.29l-1.3,1.29V671H762.6l-1.3-1.3h-2.59l-2.59-2.58,1.3,1.29,1.29-1.29-1.29-1.3v-1.29l-1.3-1.3h-2.26l-1.3,1.3h-1.29v1.29h-3.56l-1.3-3.56-1.29-1.29-1.3-1.3v-3.56l-1.29-1.29-1.3-1.3-1.29-1.29-1.29,1.29-1.3-1.29h0l-1.29-1.3h-2.59l-1.3,1.3h-1.29v-1.3h-1.3l-1.29,2.59-1.3,1.3H725.7v-1.3l-2.59-1.29h-1.3v-3.56l1.3-2.59-1.3-1.3V637.3l-1.29,1.29h-2.59l1.3-2.59,1.29-1.29h1.29L724.4,636H727v-2.59h1.3l1.29-1.29,1.3-2.59v-2.59l1.29-1.29-1.29-1.3-1.3-1.29-1.29-2.59-1.3-1.3v-1.29l-1.29-1.3-2.59-1.29-1.3,1.29-2.58,1.3-1.3-1.3v-1.29l-1.29-1.3h-1.3V612.7l1.3-2.59v.65l-2.59-1.3v-1.29l1.29-2.59h1.3l1.29-1.3v-6.15l-4.85-2.58-1.3-2.59-1.29-2.59v-3.56l1.29-1.3,1.3-1.29v-1.3h2.59l1.29-1.29,1.29-1.3h4.86L725.7,579H727v-2.59H724.4v-1.3h-2.59v-1.29l-1.29-1.29h-9.71V569h-1.29v-6.8l1.29-1.3,1.29-1.29-1.29-1.3v-3.88l-1.29-1.29,1.29-1.3H717l1.29,1.3,1.3,1.29,3.56,2.59,1.29,1.29,1.3-1.29H728l1.3,1.29,2.59-1.29,1.29-1.3-2.59-2.58v-11L728,540.85l-2.26-2.59-3.56-1.3-1.3-2.59-1.29-1.29,2.59-3.56,1.29-1.3v-1.29l-1.29-1.3v-8.41l1.29-4.86-1.29-1.29,2.59-1.3,1.29-1.29,1.3-1.29,2.26,1.29,1.3-2.59,1.29-2.59L729.58,502l-1.29-4.86h-.65l-2.59,1.3H720.2l-2.59,1.29L715,501l-3.56,1.29h-9.71l-3.56,1.29H695.6L693,502.33V501H683.3l-2.59,1.29-2.59,2.59-2.59-1.3-2.59,2.59-1.29-1.29-3.56,1.29h-3.56L661,503.62H653.2l-2.59-1.29-1.3-2.59H648l-2.27,2.59L642.19,501l1.3-2.59v-1l-1.3,1.3-2.59-1.3-1.29-1.29v-2.59H637l-1.29,1.3h-1.94l-1.3-1.3-1.29-1.29-1.3-1.3-2.26,1.3-1.3,1.29h-2.26l-2.59,1.3-1.3,1.29-1.29,1.29v1.3l1.29,1.29-1.29,1.3h-3.56l-1.3,1.29h-2.59l-2.58-1.29-1.3,1.29H605V504h2.27l1.29,1.29v2.27h-2.59l-1.29,1.29-1.3-1.29-2.59-1.3v-1.29l-1.29-1.3h-1.3l-2.58-1.29-1.3-1.29H593l-1.3,1.29v1.29l-1.29,1.3-1.3-1.3h-.65v1.3l-1.29,2.59v1.29l-3.56-2.59v-2.59h-3.56L577.46,501l1.29-1.3,1.3-1.29H573.9L572.61,501l-1.3,1.29L570,501l-1.3-2.59v-3.56l1.3-2.59-1.3-1.3v-8.41l-1.29,1.29-1.3,2.59v2.59l-1.29,1.29h-2.59l-1.3,1.3v1.29h-2.59l-1.29-1.29-1.3,1.29-1.29,1.3,1.29,1.29v2.59l-3.56-1.29-1.29,1.29-1.29,1.3-2.59-1.3h-3.56l-1.3-1.29-1.29,1.29L538.3,503l-1.3,2.59V513l-1.29,2.59v12l-2.59,3.56v8.41l-1.3,3.56v2.59l-2.59,1.3-1.29,2.58-1.29,1.3-1.3,2.59v9.71l1.3,1.29h1.29v-3.56l1.29-1.29,1.3-2.59,2.59-2.59,1.29,1.29v3.56l1.3,2.59v1.62l1.29,2.59-1.29,2.59-1.3,1.3v4.85l-1.29,1.3v2.58l1.29,2.59-1.29,4.86h-3.56l1.29-2.59v-1.3L529.56,581l-1.3-1.29H527l-1.3,1.29,1.3,2.59-1.3,1.29h-1.94l1.3-2.59-4.86-2.58v2.58H514l1.3-2.58-2.59-1.3-1.3-1.29v-2.59l-1.29-1.3h-1.3l-1.29-1.29v-2.59l-1.3-1.3-2.59-2.59v1.3L501.08,568v-3.56l2.58-1.29H505l-1.3-1.3-1.29-1.29h-6.15l-1.29,1.29v4.86h-4.86l-2.59-1.3h-1.29l-1.3,1.3-2.59-1.3-1.29,1.3-1.3,2.59h-1.29l-2.59,1.29h-1.3V568h-4.85l-2.59-1.29L465.8,568h-8.42l-1.29,2.59,1.29,1.3v4.85h6.15l3.56,1.3,1.3,1.29-1.3,1.3L465.8,582l1.29,2.59,1.3,1.3v1.29l2.58,1.29,2.59-1.29,2.59,1.29V591l4.86-1.29L482.3,591v3.56l-2.26,1.3-1.3,1.29-1.29,1.3v2.59h6.15l-1.3,2.59v1.29l1.3,1.3v2.58l-1.3,2.59,1.3,1.3h2.59V614l1.29,2.59v1.3h1.3l3.56-1.3v2.59l-2.27,1.3-2.59,4.85v6.15l1.3,2.59v3.56h1.29l2.59-1.29L494,635l1.3-1.29h1.29l1.3,1.29-1.3,1.3-1.29,1.29v1.3h4.85l1.3,1.29,1.29,1.29H504v2.59l-1.3,1.3v-1.3H500.1l-1.29,1.3v7.44l1.29,2.59h1.3V658l1.29,2.59v1.3l-1.29,1.29v2.59l-2.59,1.29v1.3L500.1,671l1.3,2.59h6.15l1.29,1.29,2.59-1.29h4.86v4.85l1.29,1.3,1.3,1.29v1.3h-1.3l-1.29,2.59,1.29,2.58v1.3l1.3,1.29v2.59h-1.3l-1.29,1.3,1.29,1.29v1.3l-1.29,1.29h-3.56v2.59H515l1.3,1.3h2.59l1.29,1.29,1.3-1.29,1.29-1.3h1.29l1.3,1.3h2.59V703l1.29,1.29-1.29,1.3h-4.21v2.27h-1.29v2.58l-1.3,1.3V713h-2.59l-2.59,1.3-1.29,1.29-1.3,1.3v2.26l1.3,1.3,1.29-1.3,1.3-1.29,1.29-1.3,1.3-1.29,1.29-1.3h1.3v2.59l1.29,2.27h2.59l2.59-1.29h2.59v1.29l1.29,1.29,1.3,1.3,1.29-1.3,1.3-1.29h2.59v1.29l1.29,1.3v1.29l1.3,1.3h3.56v2.59l1.29,1.29,1.3,1.3h2.59l1.29-1.3,1.29-1.29h2.27l1.3,2.59v2.59h7.44l2.59-1.3,1.29-1.29,1.3-1.3,1.29-1.29,1.3-1.3,2.59-1.29h1.29l-1.29,3.56,2.59-1.3V725h8.41l1.3,1.29h1.29l1.29-1.29H592v1.29l1.3,1.3h1.29v1.29l-1.29,1.3H592l-1.29,1.29v1.3l2.59,1.29,1.29,1.3,2.59,1.29,1.3,1.3,1.29,1.29v3.56l-1.29,2.59h-6.15v-1.29l-1.3-1.3-1.29-1.29-2.27,1.29-1.29,1.3v1.29l1.29,2.59v1.29l-1.29,1.3-1.3,1.29,3.56,1.3,2.59,1.29h2.59l1.3,1.3,1.29,1.29v4.86h3.56v7.44l-1.29,1.3h-4.86l-1.29,1.29-3.89-5.82-1.29,2.59L585.88,770l-1.3,2.59-1.29,1.29v4.86l1.29,1.29,3.56,1.3v1.29l1.3,1.3-1.3,3.56-1.29,1.29-1.3,3.56v4.86l1.3,1.29,1.29,1.3,1.3,1.29v1.3l2.58,1.29,1.3,1.3,1.29,2.59,1.3,2.58,1.29,1.3h1.3l2.59-1.3,1.29,2.59h1.3l2.59-1.29h1.29l1.3,2.59v4.85l1.29,1.3,1.29,1.29h1.3v-1.29l1.29,1.29h4.86v2.59l1.29,1.3-1.29,4.85v3.56l-1.3,2.59h4.86l2.59,1.3h2.26l1.3-1.3v-1.29l-1.3-1.3v-2.91l1.3-1.3,1.29,1.3,1.3,1.29,1.29,2.59h1.3l2.59,1.3h1.29v1.29l1.3,2.59v1.3l1.29,1.29v1.3L639,845.09v2.59l-1.3,1.29-1.29,1.3v1.29H639v3.56h1.29l1.3-1.29h2.58l2.27-1.3-2.91-2.26V849h2.59l1.29,1.3h1.3V849l1.29-1.29h2.59l2.27,2.59h3.56l2.59,1.29h1.29l1.29-2.59h1.3l1.29-1.29v-1.29h1.3l1.29-1.3-1.29-1.29v-1.3l1.29-1.29,3.56-1.3,1.3,1.3,1.29,1.29,1.3,1.3,2.59-1.3,2.59,1.3H684l1.29-1.3v-1.29l1.29-1.3,2.59-1.29,3.56,1.29h4.86l1.29,1.3v2.59l1.3-1.3v-1.29l1.29-1.3,2.59-1.29,1.3-1.3V836l-1.3-1.3v-3.88h2.59l1.3-1.29,1.29,1.29h1.3l1.29-1.29,1.29,1.29,1.3,1.29v2.59l1.29,2.59,1,.65Z" style="fill:#f9dcdc;stroke:#ad0bad;stroke-miterlimit:10;stroke-width:3px"/></svg>