<svg id="Layer_1" data-name="Layer 1" xmlns="http://www.w3.org/2000/svg" viewBox="0 0 900 1366"><title>alldivs</title><path id="map_background-3" data-name="map background-3" d="M486.82,547.06l-1.05,2.06-1,1v2.06h-2.07l-1,1h-1l-1,1v4.14l1,3.1v2.07l1,1,2.07,1h1v1.05l-1,2.06h-1.05l-2.06-1v-1l-1,1-1,1-1.05,3.09v1l1.05,2.05,1,1h1l1,1,1,1h-1l-1,1v1l-1,1v4.13h-2.09v1l1.05,1,1,1v3.09l-1,2.07-1.05,3.11-1,2.06-1,1-1,1-1,4.11V607l1,2.07,2.06,1h2.07l1-2.08,1-1h2.06l2.07,1h1v-6.19l1.05-2.07h1l1-1v-2.06l2.08-1,2.06,1h3.11v-1l2.06-1h1v-3.12l1.05-1,1-1h6.22l1-1,1-2.06,2.06-1h1l1,1,1,1h1.07l2,1,1,1h1l2.06-1,1-1,1-1h4.14l2.06,1v3.11l-1,2.07-1,2.07v1l1,2.06,1,1.05v3.1l1,1h1l1,1v1L531.24,607l-1,2.07-1,1,2.06,1h2.08v3.1l-2.08,1-2.06,1-1,2.08,1,1,1,1,2.07-1,1-2.08,2,1h2.08l1,1,2.07,2.05,1,1h4.14v-1l-1-1h-1.05l-2.07-2.07h3.12l1,1h4.13v-1l-1-1-1-1h-1v-1l1-1,1-1,1-1v-1l1-1h1v3.1H554l1-1h1l1-1h2.07v5.16l-1,1-1,1v2.07l-1,1-1,1-1,2.08h-1l-1.05,1v4.14l-1,1V637l1,2,1.05,1.06,2,1,1,1,1-1h1l1-1,1-2.1v-1l2.07,1h1l1,1,1,2.07v2.07l-1,2.07v1l-1,1h-2.06l-1.05-1-1-1h-2.07l-2.08,1,1,1v4.13l-1,1h-2l-2.08-2.08-1,1-1,1v1l-2.05-1h-3.12v1l-1,2.05v2.08l-1,1-2.06,1.05-1,1-1-1h-2.08l-2,2.06v2.07l1,2.06V668l1,1-1,1v8.25l-1,2.08-1,2.07v1l1,1,1,1,1,1.06,1.06,1V700l-1.06,1h-2v3.1l-1,3.11-1,2.06-1,1-1-1h-2.07l-1,2.06-2.07,1-2.07,1-3.1-1-1-1H514.7l-2,1h-1l-1-2.08-2.06-1-1-2.06H505.4l-1-1-1-2.06v-2.08l-1-1-1-1-2,1-1,1-1,1-1,1H494l-2.05-1v-2.07l-1-1,1-1H494v-1L492,695.88l-2.07-2.07h-6.2l-2.07-2.06-1-1-2.07-1-2.07-1.05-1-1-2.06-1-2.08,1-.18.87h0l-.87-.88-1,1h-2.06l-1-1-2.06-1-1-1.05-1-1v-1l-2.07,1h-1l-1-2.06v-1l-2.07-1-1.05-2.08v-1l-1-4.13v-2.08L451.66,669l-1-2.07-1-1v-1l-1.05-2.08v-3.08l-1-1.06-2.07-1h-2.08l-2.05,1H437.2l-1-1v-1h-1l-1,1v3.1h-1l-2.07-1v-1.06l-1-2-2.07-1-2.07-1-1-1-1-2.07h-2.08l-1-1h-3.1l-4.14,1h-2.05l-3.1,1h-3.11l-1-1-1-1-1-1,1-1,1-2.06v-3.11l-3.12-1-1-2L399,639v-3.09l-1.05-1-2.05-1.07-2.07,1.07-1.05,1-1,1v1l-2.06,2.09H387.6l-1,1-2.08,1v1l-1,1.05-2.06-1.05-3.09-1-1-1-2.07-1L373.12,638l-1-1h-1L369,638v6.23l-1.05,1h-4.13l-1,1h-1l-1-1-1-2.07-2.07,1.05-1,1h-2.06l-1,1-1,1,1,1v3.1l-1,2.08v2.05l-2.07,1v1h2.07l1,2.07v3.08h-3.1l-1,1h-1v-1l1-1v-1l-2.06-1h-1v-1.06h-1l-2.08,1.06-2,1-1-1-1,1H337l-2.06,2-2.07,1h-1l-1-1v-1h-2.08l-1,2.07v1l-1,1-1.05,1h-4.11l-1-3.08-1-1-1-1-1-2.06v-1.05l1-1,1-1-1-1v-2.05l-1-3.12v-4.11l1-1h1v-4.13l-1-1h-1l-1-1.06v-4.11l1-1.06,1-1v-1l-1-2.08h-3.11v-1l-1-1h-2.06l-2.08-1-2.05,1h-3.13l-2.05,3.09v2.07l-1,1L298.74,636h-1l-1,1h-2.06l-1-1v-3.12l1-1v-2.07l-1-1-1.06-1-2-1-1-1.06h-6.21l-3.11,1.06-1-1.06-2.06-1-2.06-1h-3.12l-2.06-1-2.07-1-2.06-2.05h-1v-3.12l-1.05-2.06,1.05-1v-2.07l-1.05-1-2-1h-4.17l-1.05,1-2,1-2.08-1h-3.1l-1,1h-1l-1,1-2.07-2.06V607l1-1v-4.13h-3.1v-2.07l1-1,1-1.05,2.07-1h2.08l2.05,1v2.08l-1,1,1,2.06,1,1,2.07,1h2.07v-1l2.07-1V600.8l-1.05-1,1.05-2.08,1-1V594.6l1-1-1-1H255.3l-1-1-1-1h-1l-1,1v3.11l-1,1h-2.05l-1-2.07v-1H245l-1-1-1-1-1-2.06h-1l-2.05-1h-1.05l-2,1-2.08-1h-1l-1,2.08-1,1h-2.07l-2.06,1-2.07,1-1-1-1-1v-1l1-1,2.06-1,1.05-2.06,1-1,1.05-1h1l1,1,1-1-1-1v-2.05l1-2.08V576l1-1h1l2.07-1v-4.12l1-2.07v-1h-2.05l-2.07,1v1l-1,1h-1l-2.08-1v-1l-1-1h-5.16l-1-1.05,1-2.07,1-2.07,1-1v-2.07l-1-1v1l-1,1-1,2.07h-1l-2,1-1.05-1-1-2.07-1-1h3.1l1-2.06-1-1V554.3h3.08l2.07,1.05,1-1.05v-1l1,1,2.06,1.05v2h2.08v1l2.07,1,1-2.07,1-2h7.23l-1-2.07-1-2.08-2.09-1-1-1,1-1h2.09l3.09,1,1,1,1,1L246,554.3v1h3.1l1-3.1v-3.11l-1-1V546h1l2.08-2,2.08-2.08,1-2,1-2.09,1.05-1v-1l-1.05-2.07-1-2v-3.13l-1-1v-1l1-1,1-1,3.11-1-1-7.26-1-1L256.32,513l-2-2.05-1-1.06-2.06-1-2.08-1-2.05,1H245l-1,1-2.06,1.06h-1V513l1,2.08v2.06h-3.1l-2.08-1-2.05-1L232.57,513l-1-2.05v-5.18l1-3.09,1-1.06v-2.06l-1-2.05-1-2.08-2.06-1h-3.11l-2.07-1-1,2.08h-3.11l-1-1-1,1L215,497.46l-1-1v-1.06l1-1v-1l1-1,1-1h1l1-1,1-1h1l1,1,1,1h1v-5.17l1-1h-1l-1-1-1-1v-1l1-2.06,1-1,1-1h1v-1.05l1-2.05,1-1h2.08l2.07,1,1-1,1-1v-3.11l1-2.06v-1h1l1-1v-3.1l1.05-1,2-1,1-1.05v-1l-1-1-2-1h-3.11l-1-1-1-1v-4.12l1-1.05,1-1,1-1,1-1v-2.06l1-2.08,2.06-1,1-3.1h-2.07v-2.06l-1-1v-6.2l-1-1,1-3.1V423l1-1-1-1-1-1v-3.1l-1-1v-2.09h2.08l2.06-2.05,4.13-2.06,1-2.07v-7.23l-1-1,1-1-1-2.07-1-1-1-1-1-1-1-1v-1l-2-1.06v-5.15l-1.05-1v-4.13h1.05l1-1.05h3.1l4.14,1.05,3.08-1.05,1-1-1-1v-1l1-1,1-1v-1l1-1h4.14l2.05,1h2.09l2.05-1v3.08l1.05,1,2-1,3.1,1h2.06l2.08,1H276l2.07,1h3.11l-1.05,1-1,1.05v2.06l1,1h1.05l1-1v-1h1l1-1h3.1l2.06,1h1l1,2.06v1l-1,1-1,3.11h1v1h7.23l2.06-1h1v-1.05h1l1-1h1l1.05-1v-4.15h5.17l2.05-1,1.05-1,1-2.07,1.05-1h1l2.08-1.05,2.06,1.05h5.15l2.09-1.05,2.06,1.05h2.07l1,1H339l1,1,1.05,1,3.1-2.07v-1l1-1,1-1h6.21l2.07,1h1l2.06-1h1l2.07,1,1,1,1,1,2.06,1,2.07,1H369l1,1.05v5.16l1,1h5.15v1l1.06,2.09,1,1h1v-1l1-2.09,1-1,1-1,2.07,1h1l1.05-1,1-1,1,1v3.11l1,1h2.06l1,1h1l2.07,1.05,2,1,2.08,1h2.08l1-1h2.06l1-1,1-1.05v-1l1-3.12,2.06-2.06,2.06-2.07,1-1v-1l1-2.08v-1l1-1,3.1-1.05,1-1h1l1,1h1v2.08l1,2.06H430v5.18h3.1l1,1v3.11l1,1h6.22v-2.09h3.1l1,1.06h1l1,1,3.1,1,1,1.05v3.09l1.05,1h1l2.07,1,.19.39.82,1.68v3.11l-1,2.06v3.09h2.06v3.11l-1,1-1,1,1,2.05v1h1l1,2.06,2.06,1.05,1,2.06V422l1,2.08v7.23l-1,3.1-1,5.16-1,1-1,3.11,1,1,1,2.06,1,2.06V451l1,1h1l1,1v2.08l-1,2.06v1l1,1,1,1.06,1,1v2.07l1,2h2.07v-2l-1-1.05-1-2,1-1.06h2.07v-1l-1-1-1-2.06v-1l1-1h3.1l1-1h4.15l1,1h2.07l2.07,2.08,2.05,1h2.08l1,2.07,1-1,1-1h5.17l1,1v1l-1,1-1,1.05v1l1,1,1,2.08,1,1v1l-1,1-2.05,1-1.05,1h4.14l-1,1v3.09h-1l-1,1-1,2.05-1,3.13,1,2.06V484l1,1,1,3.11-1,2.06-2.08,1h-2.06v3.09l1,2.09v5.14l-2.07,2.08v1l1,1v3.1l1,2.08V514l-1,4.12v3.1l-1,3.11,1,1v1l1,2.07,1,1v3.11l-1,1-1,2.06-1,1v1l-1,1.06-1,1-2.08,1v1h-1l1,1L486.8,545v2.08Z" style="fill:#bbc8ca;stroke:#0c4d93;stroke-miterlimit:10;stroke-width:3px"/><path id="map_background-6" data-name="map background-6" d="M616,434.41l-1,1-1,1-1,2.07-1,1h-2.07l-1,2.05-1,1.05-1,1h-1l-2.07,1v2.06l1,2.06V451l-1,2.05h-1l-1,2.08-1,2.06v6.21l-1,2-1,1-1,1.05-1,1H594.3l-1-1h-1l-1-1.05-1-1-1-1v-1l-2.07,1v1l1,1,2,1.05v1l-2,1-2.08,1v1l-1,2.06-1,1-1,1-1,1-1,1h-1v1h2.06l1,1v1h-6.2V484l1,1,1.06,1v1H575.7l-1-1-1,2.08v1l-1,1-1,1v4.13l1,1.05,2.06,1v4.12l1,1v3.09l-1,1h-1l-1-1-1-1v-2.07l-1-1-2.08,1H545.71l1-2.08,1-1v-2.05l-1-1-2.07-1.05-1.05-1h-2.07l-1-1-1-1h-2.06l-1,4.14h-1l-2,1h-1l-1,1,1,1v4.15l1,1v2.06l-1,1-1,1-1,1-1,1.06v5.15h1l1,2.08v3.1h1l1,2.08v2l1,1h1v4.15l-1,2.07-1,1h-3.11l-1-1-1-1-2.08,2.06-1,2.06,2.06,1v1l1,1.07v1h1l1-1,1,1v1l-2.06,1-4.14,1h-3.11l-1-1-1,1-1,1h-1l-1,1-1,1-1,1.05-1-2.07h-4.13l-1,1v2.08h-1l-1,1h-7.24v1l-1,2.06h-1.05l-1-1-1-1h1V548.1h-7.23l-1.87-.94-.19-.09V545l-1.05-2.08-1-1h1v-1l2.08-1,1-1,1-1.07v-1l1-1,1-2.06,1-1v-3.11l-1-1-1-2.07v-1l-1-1,1-3.1v-3.09l1-4.14V510.9l-1-2.08v-3.11l-1-1v-1l2.07-2.07v-5.16l-1-2.07v-3.11H493l2.07-1,1-2-1-3.11-1-1V482l-1-2.06,1-3.11,1-2.07,1-1h1v-3.09l1.05-1H494l1-1,2.05-1,1.05-1.05v-1l-1.05-1-1-2.09-1-1v-1l1-1,1-1.05v-1l-1-1H491l-1,1-1,1-1-2.06h-2.08l-2-1L481.64,453h-2.07l-1-1h-4.13l-1,1h-3.11l-1,1.05v1l1,2.06,1,1v1.05h-2.08l-1,1,1,2,1,1.05v2h-2.07l-1-2v-2.07l-1.05-1-1-1-1-1.05v-1l1-2.06V453l-1-1h-1l-1-1v-2.07l-1-2.06-1-2.07-1-1,1-3.12,1-1,1-5.17,1-3.1v-7.22L462,422V420l-1-2.06-2.07-1-1-2.07h-1v-1l-1-2.07,1-1,1-1v-3.1H455.8v-3.11l1-2.06v-3.1l-.82-1.67-.2-.39,1-3.11V391l1-1,1-3.1,2.07-1h1l1,1,1,2.08h1l1-1h1v-3.11h-2.07l1-1v-1h1l-1-2.08v-2.07l-1,1.05H463l-1-1.05-1-2.06v-1l1-2.06-1-2.06v-1h3.1l1,1,1,1h2.06l2.07-1,2.07-1-1-1v-5.15l-2.07-2.08v-8.3l1-2,1-2.07h1l1-1,1-1h2.05l2.07-1,2.07-1.05v-4.13l1-2.06v-1h1v-1h6.21l2.07,2.07,2.06,3.09,2.08,1v1l1,1,3.1,1.05,1.05,1h1l1-1v-1.05h1l2.06-1v-3.1l1,1h1.05l1,1,1,1v1h2.06l2.06,1,1,1h4.14v1l1,1,1,1,2.05-1v-3.1h1l1-1h1l1,1,1,2.06,1,1,2,2.07v1l2.08,1,1,1.06h1l1,1v2.06l1,1,1,1,1-1h2.07l1-1h3.1l1,1h1l1-1-1-2.06v-1l1-1.06v-1h1l1,2.08h1v1l1.05,1,1-1H556l1-1v-1.05l-1-1v-1h1v-1h1v-1h3.12l1,1h1v1h2.08v1h-2.08l1,1h1l1,1.06,1,1,1,1h1.06l1,1,1,1h4.14l1-1,1-2.07,1.06-1,1,1,1,1-1,2.06,1,1,2.06,1,1-1v1l1,1-1,1.05,1,2.05-5.17,4.13v3.12l-1,2.06-1.06,1,1.06,3.09v2.07l-3.11,2.08-1.05,1v1l2.08,1h3.11l1,1v6.21h2.06l1,1v1h3.1l2.07,1.05,1,2.05,1.05,2.08v2.05l-1.05,1v2.07l1.05,2.07h2.07l2.06-1,1,1v2.06l1,1v1l2.07,4.13,1,2.06,1,1,1,1,1,1v5.17l1,2.07v1l1,1h1v-1l1-1,1,1v1l1-1h2.06v2.07H615l1,1,.5.54Z" style="fill:#bbc8ca;stroke:#0c4d93;stroke-miterlimit:10;stroke-width:3px"/><path id="map_background-9" data-name="map background-9" d="M221.2,787.87l3.1-2h4.13l2.07,1,2.07,1,3.1,1,2.06,1,3.1,2.07,1,1,4.13,2.05,2.07,2.08,3.1,1,2.07,1,1,1h2.06l2.06,1h1l1,2.08,2.06,2.06h9.3l1,1,3.09,7.25,2.08,3.11,1,3.09,2.07,4.13,1,2.08,2.06,4.13,5.17-15.52,1-1h2.06l3.11,1h3.11v4.15l1,1L307,823l1-3.09h7.25l1,1,1,1v3.12h2.07l2.06-1.05h2.07l2.05-1h2.09v1l1,1.05,1-1.05,1-1,1-2H339l3.1-1,4.13,1h4.14l2.07,1,2.06,1,1,1,1,1.05,2.07,2.06,2.07,1,1,2.08,2.06,3.1,1,2.07,1,3.09,1,2.08,1,4.12,1,4.14v9.31l-1,3.12v5.15l-1,3.1v4.14l1,3.08v2.07l1,3.12,1,2.06,1,2.06v1l2.06,3.12,1.05,2.06,1,1,3.11,4.14,3.09,3.09,1,2.07,2.06,2.07,3.11,2.07,2.06,2.07,1,1,3.09,1,2.07,1,2.05,1,2.08,1,2.08,1h8.25l2.06,1h1l3.12,1h2.06l2.06,1.05h1l1,1,1-1,2.07-4.14,1-1,1-1h5.16v-1l2.07-5.15,1.05-1.05,1-2.06v-4.15l1-1-1-1h-1l-1.05,1-3.08-1h-7.24l-1-1v-2.07l1-2.06h1l2.07-1v-3.12h-1l-1-1v-1l1-1h2.06v-7.25l-1-1-1-1,1-1,1-2.06v-3.11l-1-2.06v-1l1-1,1-1v-2.05l1-1.06,1.05,1.06v2.05l1,1h2.07l1-1,2-1,1.05,1h1v-4.15l1-1,1,1h3.12l1-1,1-1,1-2.05v-5.17H446.5l-1-1-1-1v-2.06l-1.05-2.08v-1l-1-1,1-1v-7.23h-1l-1-1h-9.3v-1.05l-1.05-1v-3.11l-1-2-1-2.1-1-1h-3.09l-1,1v4.15l-2.08,1-1-1v-3.1l-1-1v-1h-2.08v-1l-1-2.07,1-1v-1h2.08v-1l-1-3.1-1.05-1-1-2.06,1-3.12h2.09l1-3.08,1-2.08,1-1,2.07-2.08h9.29l3.11-1,2.06-2.08v-6.19l-1-1h-1l1-2v-2.08l2.08-3.1,1-1,1-2.06v-3.12l-1-1,1-1,1-2.06v-3.1h-2.05v-1l-1-1v-2.06l1-1.05,1-2.06,1-3.09-1-2.08-2.07-1-1-1v-1l1-2.05,1-1-1-2.08v-1l-1-2.08v-2l1-1v-2.09l1-1,1-1h3.11l1-1.05v-1l1-2.06V729l1-1.05,1.05-1h3.1v-2.06l1-1,1-2.09v-1h-1l-1,1h-1.05l-2.05,1h-4.14l-2.08,1h-1l-1-1v-3.1l-2.08-1h-3.11l-2.08-1,1-1v-2.08l1.05-1h3.1l2.07,1h1l-1-3.1v-1l1-1,2.08-1h1l2.07-1h5.18l2-1,2.08,1,2.07,2.07H461l1-1,1-1,2.07-2.07h1l3.1-1h1l1-1v-2.09l1-2v-2.07l-1-2.08v-1l-1-1,1-5.17v1l-1-1-1,1h-2.06l-1-1-2.06-1-1-1.06-1-1v-1l-2.07,1h-1l-1-2v-1l-2.06-1-1.05-2.08v-1.05l-1-4.11v-2.08L451.66,669l-1-2.09-1-1v-1l-1-2.06v-3.07l-1-1.06-2.07-1h-2.08l-2.05,1H437.2l-1-1v-1h-1.05l-1,1v3.1h-1l-2.06-1v-1.06l-1-2.06-2.07-1-2.07-1-1-1.05-1-2h-2.08l-1-1.06h-3.1l-4.14,1.06h-2.05l-3.1,1h-3.11l-1-1-1-1.06-1-1,1-1,1-2.07v-3.09L401,642.15l-1-2-1-1.06V636l-1.05-1-2.05-1.06-2.07,1.06-1.05,1-1,1v1l-2.06,2.09H387.6l-1,1-2.09,1v1.05l-1,1-2.07-1-3.08-1.05-1.05-1-2.06-1L373.12,638l-1-1h-1L369,638v6.21l-1,1h-4.15l-1,1h-1l-1-1-1-2.06-2.07,1-1,1h-2.06l-1,1-1,1,1,1v3.1l-1,2v2.07l-2.07,1v1h2.07l1,2.08v3.09h-3.09l-1,1h-1v-1l1-1v-1l-2-1h-1v-1.06h-1l-2.08,1.06-2.05,1-1-1-1,1H337l-2.06,2.07-2.07,1h-1l-1.05-1v-1h-2.07l-1,2.07v1l-1,1-1.05,1h-4.11l-1-3.09-1-1-1-1-1-2v-1l1-1,1-1-1-1v-2.07l-1-3.11V646.3l1-1h1v-4.15l-1-1h-1l-1-1.06v-4.11l1-1.06,1-1v-1l-1-2.08h-3.12v-1l-1-1h-2.05l-2.08-1-2.06,1h-3.12l-2.05,3.09v2.08l-1,1-2,2.09h-1l-1,1h-2.06l-1-1v-3.1l1-1v-2.08l-1-1-1.05-1-2.05-1-1-1h-6.2l-3.11,1-1-1-2.06-1-2.08-1h-3.11l-2.06-1-2.07-1-2.06-2h-4.13l-1,1-1,2.06-1,1-2.07,1v4.14l1.05,1-1.05,2.08-2,3.1-2.08,1-2.08-1-3.08-1-3.11,1-2.06,1v2l1,1,1,1.06,2.07,1,2.08,1h2l1-1V639l1-1h1l1,1h2.06l1-1h3.1l1-1,3.1-1,1,1v3.11l-2.08,1h-2.05l-1,2.08h-2.08l-2.06,1v3.1l1,1-1,1H249.1l-2.06-1v-2.07h-1l-2.07,1-1,1-2.07-1-2.05-1-3.11-1-2.07-1h-1l-1,1v2.07l-1,2.07v2.08l-2.08,1h-1l-1-1-1,1v1l1,1,1,1,1,1-1,1,1,1-1,1-2.06,1-2.06,1v3.11l1,2.05,1,1V669h-1l-1,1h-1l-2.08,2.06-2.05,1-5.18,3.1-3.09,1h-2.08l-1-1h-5.15l-2.08,1h-5.16l-1,1.05-1.06,3.09-2.06,2.06-2.07,1-1-1H184l-1,1-1,1,1,1.06-1,1-1,2.07-2.06,2.07h-7.25l-1,2v9.32l1,4.12,1,2.07v1l1,3.11v7.24l-1,2.06-1,3.1-1,3.1v4.14l1,2.06,1,3.1,1,2.08,1,3.09,2.09,3.11,1,2.07,2.07,2,1,1,1,1,3.11,2v2.08l1,2.07,1,2.07,1,1h1l2.06,4.14,1,2.07,2.07,1,1,1,2.08,3.11,1,1,2,1,1.05,1h1l2.07,2.06,2.07,1,1,1h1l1.06,1h1l2,1h1l2.06,1,2.08,1Z" style="fill:#bbc8ca;stroke:#0c4d93;stroke-miterlimit:10;stroke-width:3px"/><path id="map_background-8" data-name="map background-8" d="M217.06,561.53l1.05,1,2-1h1l1-2.07,1-1v-1l1,1v2.06l-1,1-1,2.08-1,2,1,1.05h5.15l1.05,1v1l2.07,1h1l1-1v-1l2.07-1h2.06v1l-1,2.07v4.13l-2.07,1h-1l-1,1v2.07l-1,2.06v2.08l1,1-1,1-1-1h-1l-1,1-1,1-1,2.07-2.07,1-1,1v1l1,1,1,1,2.08-1,2.05-1h2.07l1-1,1-2.07h1l2.07,1,2-1h1.05l2.05,1h1l1,2.06,1,1,1,1H247v1.05l1,2.06h2.06l1-1v-3.1l1-1h1l1,1,1,1h3.12l1,1.05-1,1v2l-1,1-1,2.07,1,1v2.07l-2.08,1v1h-2l-2.07-1-1-1-1-2.07,1-1V597.7l-2.06-1H246l-2.07,1-1,1-1,1v2.08H245V606l-1,1v3.1l2.07,2.06,1-1h1l1-1h3.11l2.07,1,2.06-1,1-1h4.14l2.05,1,1.05,1v2.06l-1.05,1,1.05,2.07v3.11h-3.11l-1,1-1,2.07-1,1-2.06,1v4.14l1,1-1,2.09-2.07,3.1-2.07,1-2.07-1-3.09-1.06-3.12,1.06-2.06,1v2l1,1,1,1.06,2.07,1,2.08,1h2.06l1-1V639l1-1h1l1,1h2.07l1-1h3.1l1-1,3.1-1,1,1v3.13l-2.08,1h-2.05l-1,2.08h-2.07l-2.06,1v3.09l1,1-1,1h-7.24l-2.06-1v-2.06h-1l-2.07,1-1,1-2.08-1-2.05-1-3.1-1-2.08-1h-1l-1,1v2.07l-1,2.07v2.08l-2.08,1h-1l-1-1-1,1v1l1,1,1,1,1,1-1,1,1,1-1,1-2,1-2.07,1v3.11l1,2.05,1,1v1h-1l-1,1h-1l-2.07,2.07-2.06,1-5.17,3.1-3.09,1h-2.09l-1-1h-5.17l-2.09,1h-5.17l-1,1.05-1.06,3.11-2.06,2.06-2.07,1-1-1H184l-1,1-1,1,1,1.05-1,1-1,2.06-2.06,2.08h-7.25l-1,2v9.32l1,4.12,1.06,2.06v1l1,3.09v7.25l-1,2.07-1.06,3.1-1,3.09v4.15l1,2.06,1.06,3.09,1,2.08,1,3.1,2.07,3.1,1,2.08,2.07,2,1,1,1.05,1,3.1,2v2.07l1,2.07,1,2.07,1,1h1l2.06,4.14,1,2.07,2.07,1,1,1,2.07,3.1,1,1,2.05,1,1,1h1l2.07,2,2.07,1.05,1,1h1l1,1h1l2.06,1h1l2.07,1,2.08,1,3.09,3.1h-2.07l-1,1h-1l-2.05,1-2.08,1h-3.08l-2.1-1H195.35l-3.1-1h-3.1l-2.08-2.06-2-1-2.08-1-3.09-2.07-2.07-2.07-2.06-3.1-3.1-2-3.1-3.11-2.08-1-2.06-2.06-2.07-3.1-2.06-2.08-1-2.07v-1l-1-2.07-3.08-2.07-2.08-1-1-1.05-1-1-2.07-1h-2.07l-2.07-1h-3.08l-4.11-2.06H131.3l-1-1-2.06-1.05-3.1-1-3.1-1-1-1-1-2.06-1-2.07v-1l-1-2.07-1-1-2.07-2.08-1-1L111.67,731l-1-1.06-1-1-2.09-1-1-1-2.06-2.07h-2.07l-2.08-1-2.05-1-1-2.07-1-1-2.07-2.09-1-2.05-2.07-1-1-1-1-2.05-1-2.07-3.09-2.06-3.11-3.1-1-2.09-2.07-1-1-2-1-2.08-1-1-1-2.08-1-1-1-4.14-1-2-3.09-4.14-1-2.06-1-3.13-1-2-2.07-3.09L61,670.05,60,668l-1-2.05-1-1-1-1-1-2.07-1-2.06-1-1.05-1-2.06-1-2.06-2.06-2.07-3.1-1-1-2.08-2.08-1-2.07-2.06-1-1-2.06-2-1-2.08v-1l1-1.05,1-1,1-1,2.07-2,2.07-2.08,2.07-2.07,1-3.1,2.08-2.09,2-1,2.07-1,2.08-2.08L58,619.43,60,617.35l1-1,1.05-2.06,1-1v-2.06l1-2.07,2-4.14v-2.05h-1l-1-1v-2.08l1-1v-1l2.06-1v-2.06h-1l-1-1v-3.12l1-1h1l1,1,2-1,1-1,1-3.1,2.06-1h1l1,1h5.17V575l1-2.07v-2.06l2.08-2.08,2.05-2L89,564.64h1l1,1v2.08l1,2.07,1,3.09,1,1,1-1,1-1v-1l-1-2.08v-9.29h1l1.06-1v-1l1-2h1v-1l1-1v-1l1-2.07h1l1,1h5.18v-3.1l2-2.08h2.08l1-1-1-1h-3.09l-1-1-1-1v-6.2l-1-1-2.06-1v-1l1-1,1-1h1l1,1h3.09v-1l-1-2.1h-1l-1-1-1-1h-2l-1-1v-2l-1-2.09-3.1-2-1-1-1-1v-5.18l-1-2.06,1-2.08v-1h1l1,1,2.07,1,1,1,1-1,2.06-1v-1l1-1h1l1-1.05v-1l1-1,2.07-2.08,1,1,1,1.05,1-1.05v-1l1-2.07,3.08,1H122l3.1-1,2.05-1,2.06-1.05h4.14l3.09-1,2.08,1,1,1.05v1l1,1,1,2.08v1l1,2.05,2.06,1.05,2.07,3.09,3.1,2.1L152,514l2.06,3.09,1,4.12,1,4.13-1,4.15-1,4.12-1,3.1,1,2.08h2.09v-1l1-1v-5.15l2.06-2.07v-1.06h1.05v2.1l1,1v1h3.09l1,1,1-1h3.1l1,1,1,2.07h-1v1l1,2.08,1.06,2.07,2.05-1,1-1,1-1,1-1v-1h3.1v3.12l1.05,2.06,1,1H185l1-1,1-1v-1l2.07-2.09,1-1,1-1v-1l1-1V529.5l-1-2.07h-4.14v-2.08l-1-1H184l-1-1v-5.18h4.14V514h1l1-1.06-1-1v-1l1-1.05v-2.08l1-1,2.06-1h1.05l1-1,1,1h1l1-1v-1l1.05-1,1-1h1v1l1.06,1,1,1,1,1h2.09l1,1,1,1h3.12l1-1H214l2.06-1,1-1v-4.14h-1v-2.06l-1-1,3.1-2.08,1-1,1,1h3.1l1-2.06,2.08,1h3.09l2.06,1,1,2.08,1,2v2.08l-1,1.05-1,3.1v5.18l1,2,2.07,2.08,2.06,1,2.07,1.05h3.11V515l-1-2.08v-2h1l2.06-1.05,1-1.05h2.08l2.06-1,2.06,1,2.07,1.05,1,1.05,2.06,2,1,2.08,1,1,1,7.26-3.1,1-1,1-1,1v1.05l1,1v3.13l1,2,1,2.07v1l-1,1-1,2.06-1,2.07L252.21,544l-2.07,2h-1v2.08l1,1v3.11l-1,3.11H246v-1l-2.07-3.11-1-1-1-1-3.09-1H236.7l-1,1,1,1,2.08,1,1,2.07,1,2.08H233.6l-1,2-1,2.07-2.06-1v-1h-2.09v-2l-2-1-1-1v1l-1,1-2.06-1h-3.09v1l1,1-1,2.07H215l1,1Z" style="fill:#bbc8ca;stroke:#0c4d93;stroke-miterlimit:10;stroke-width:3px"/><path id="map_background-10" data-name="map background-10" d="M486.82,547.06l.19.1,1.86.94h7.24v2.06h-1l1,1,1,1.05h1l1-2.07v-1h7.24l1-1h1V546l1-1h4.13l1,2.07,1.06-1,1-1,1-1h1l1-1.05,1-1,1,1H525l4.14-1,2.06-1v-1l-1-1-1,1h-1v-1l-1-1.06v-1l-2.07-1,1-2.07,2.08-2,1,1,1,1h3.11l1-1,1-2.07v-4.15h-1l-1-1v-2l-1-2.09h-1v-3.1l-1-2.06h-1V510.9l1-1.06,1-1,1-1,1-1v-2.08l-1-1v-4.14l-1-1,1-1h1l2-1h1.06l1-4.14h2.06l1,1,1,1h2.07l1.06,1,2.06,1.06,1,1v2.05l-1,1-1,2.08h22.73l2.08-1.06,1,1.06v2.05l1,1,1,1h1l1-1v-3.09l-1-1.06v-4.11l-2.06-1-1-1.06v-4.12l1-1,1-1v-1l1-2.07,1,1h3.11v-1l-1.06-1-1-1v-3.1h6.2v-1l-1-1h-2.06v-1h1l1-1.05,1-1,1-1,1-1,1-2.05v-1l2.07-1,2.06-1v-1l-2.06-1-1-1v-1l2.05-1v1l1,1,1,1,1.05,1h1l1,1h2.08l1-1,1-1,1-1,1-2v-6.21l1-2.06,1.05-2.08h1l1-2.06v-2.08l-1-2.06v-2.07l2.06-1h1l1-1,1-1,1-2.06h2.07l1-1,1-2.07,1-1,1-1,.5-1.54.53-.55,2.06-2.07,3.1-4.13v-2.05l2.08-1.06,1-1,3.1-1,1-1h1l2.06,1h1l1,1h2.07l1-1,2.07-1h3.1l1,1L646,423h1l1,1.06-1,1L645,427.16l-1.06,1h-1l-1,1v1H646l1,1,1-1,2.06,1,1,2.07,2.05,1v1h3.11l1.05,1h-1.05l-1,1-1,1v3.1l1,2.07v1l1,1h2.05l1.06,1,2.05,1,2.07,1,1,1,1,1.05v1l1,2v1h1l1-2.08v-6.2l1-1h2.06l1,1h2l-1-2.06-1-1v-1l1-1.05H676l2,1.05h1.06v-2.07l4.11,2.07,1,2.06v3.1l1,1h1v-2.06l1-1h1l2-1h2.08l1,1h-1v1h1l1-1,1-1h2.06l1,1-1,1-1,1-1,2.06V452l1,1h2.06v-2.05l-1-1.05,1-1,1,1,1,1.05h3.1l-1,1-1,1h-1l2.06,1h4.13v-3.09l1.07-1,3.07,1h1.05l1-1,1,1,1,3.09v1h1l1,1,1,1h2.06v1h1l1,1h2.06l1,1.05,2.06,1H739l2.06,1h7.24l1-1,1,1h1l1-2.05h5.17l2.07-1.05h2.07l2-1,1-1,3.11-1,1,1H771l3.09,1,2.08,2.09,2.07,1,1,1,2.07,1h1l1-1,1-1v-1l2.06-1.05h1v5.17l1,2.06v3.1l1,2.08,1,2.05,1,2.08v6.19l1.05,2.08v2.07l1,3.1,1,1,1,2.07,1,1,1,2.08,2.07,4.13v7.25l-1.05,2.06-1,2.08v7.21l1,2.06,2.06,1,1.07,1v2.07l1,3.1h-3.09l-3.1,2.06-1,2.08v1h-2.06l-2.08,1v2.07l1.05,2.06,1,2.08,1,3.09V546l1,1,1,3.1,2.06,3.1,2.05,3.11v4.11l1.07,2.06,2.05,2.09,2.07,1v2.06l2.06,2.08,2,1,2.09,2.07,3.1,2.06,3.11,1.05,3.09,2.06,2.07,1H831v2.08h-2.06l-2.1,1h-3.06l-1,1-2.07,1-1,2.08v2.06l-2.07,1-2.07,1h-7.23l-2.06-1h-2.07l-3.12-1h-2.05l-1,2.06-1,1v2.08l1,1-1,2.06-1,2.06-1,1-1,1-1,2.06v1l1,1v1l-1,1h-3.13l-1,2.07,1,1,1,2.06v3.11l-1,1-1,1-2.07,1-1,1-1,1-1-1-2.06,1-1.05,1-1,1v1h1l2.07,1h1l1,2.07v1l-1,1h-2.06l-2.07,1-1,1-1,2.07v2.07l-1,2.07-1.06,1-1-2h-2l-1.05-1h-2l-1,2.07v1h-1l-1-2-1-2.09v-2.05h-1.05v-1l-1-1h-1l-1-1h-1l-1,1H754.5l-1-1h-2.09l-1,1-1,1h-2.07v-4.13l-1-1.06v-1l-1,1-1,1.06-1,1v2.06l1,1,1,2.07v2.07l-2.08,1V639h-1l-1.05,1-1,3.09,1,1.05,1.05,1-1.05,1v3.1l-1,1v2.09h5.18v1l-1,1-2,1v1H741v3.11l2.06,3.08v4.13h-1l-1.05,1-1,1v1l1,1h2.06l1-1,1,1,1,1h1l2.07-2.06,2.07,1h2.07l1-1,1,1,2.06,1,1,1,2.08,1h2.07l-1,2.06,1,1,1,2.06-1,1,1,2.06v1l1,2.07v2.08l-1,2.08v7.24l-2,1.05-1,1-1,1v2.06h-1l-1,1h-2.06l-1,1-1,1-2.07,1h-1l-1,1h-1l-1-2.07-1-1-1-1-3.09-1.05v1.05l-1.05,1,1.05,1-1.05,1h-1l-1-1v-1l-2.07-1h-1l-1-2.07-1-2.06-1-1h-1l-1,1V701l1,1v1.05l1,1,1,1-1,1h-1l-1-1h-1l-1-1v-1h-2.07l-1,1h-1l-2.06-1-2.07-1.05-1-1h-3.1l-1,1h-2.07l-2.08-1H709l-1,1H705.9l-1,1.05v4.14l-2.08-1H699.7l-1,1-1-1-2.07-1-2.06-1h-8.27v-2.08l-1-2h-1L680.07,698H678l-1,1-1,1v2l-2.07,1.05h-4.14l-1-1.05-1-1-2.06-1-2.07,1h-5.18l-1-1h-5.16l-2.07-1h-1l-1-2.08h-1L643.9,699V696.9l-1-1-1-3.11-1-1-1.05-2.06-1-3.1v-3.1l1-4.13h-2.07l-2.07-1-2.06,1h-3.11v-1l-1-2.06,1-2.06v-2.07l-1-1-2.08,1h-1v-2.07l-1-2.08-2.08-1h-4.13l-1-1h-1l-1,1-2.08-1-2.06-1h-4.12v1L605.66,669H603.6l-1,1,1,1,1,1,2.06,1v1l-1,1-1,2.08h-1l-2.07,1-1,2.08-1,1v4.11l-1,1.06h-2l-1,1h-2.07l-1-1-1.05-1.06-1-1-1-2.07-1-2.06v-9.32H586l-1,1.05v2.06l-1,1h-1v-3.08h-1l-1-1.05h-2.06v-1l1-1h1v-4.13h2.06l1-1,2-2.07-1-1h-2.07v-2.09l-1-1-1,1h-1l-2.09-1v-1l-1-4.11-1,1h-1l-2.06,2.05h-1l-2.06-1v1l-1,1-1,2.06,1,1,1,1v2.06h-2.07V667l-1,1h-4.14l-2.07,2.08h-1l-1-1v-1l1-1v-1l-2.07-1-2.07-1V661.8l-1-2.06-1-2.07-1.05-2.08H553v-3.08h2l1-1V647.3l-1-1,2.07-1h2.07l1,1,1,1h2.06l1-1v-1l1-2.07V641.1l-1-2.08-1-1h-1l-2.07-1v1l-1,2.09-1,1h-1l-1,1-1-1-2-1-1-1.05-1-2v-6.19l1-1v-4.15l1-1h1l1-2.09,1-1,1-1v-2.08l1-1,1-1v-5.17h-2.07l-1,1h-1l-1,1h-2.06v-3.1h-1l-1,1v1l-1,1-1,1-1,1v1h1l1,1,1,1v1h-4.13l-1-1h-3.11l2.06,2.08h1.06l1,1v1h-4.14l-1-1-2.07-2.06-1-1h-2.08l-2.05-1-1,2.07-2.07,1-1-1-1-1,1-2.08,2.06-1,2.08-1v-3.1h-2.08l-2.06-1,1-1,1-2.06,2.08-2.08v-1l-1-1h-1l-1-1v-3.11l-1-1-1-2.06v-1l1-2.07,1-2.08v-3.1l-2.06-1H524l-1,1-1,1-2.06,1h-1l-1.05-1-2-1h-1.07l-1-1-1-1h-1l-2.06,1-1,2.06-1,1h-6.22l-1,1-1.05,1v3.11h-1l-2.06,1v1H493l-2.06-1-2.08,1v2.06l-1,1h-1l-1,2.06V608h-1l-2.07-1h-2.05l-1,1-1,2.08h-2.07l-2.06-1-1-2.06v-2.08l1-4.11,1-1,1-1,1-2.06,1-3.1,1-2.08V588.4l-1-1-1-1v-1h2.08v-4.13l1-1v-1l1-1h1l-1-1-1-1h-1l-1-1-1-2.06v-1l1-3.1,1-1,1-1v1l2.06,1h1.05l1-2.06v-1.05h-1l-2.07-1-1-1v-2.07l-1-3.09v-4.15l1-1h1l1-1h2.07v-2.07l1-1Z" style="fill:#bbc8ca;stroke:#0c4d93;stroke-miterlimit:10;stroke-width:3px"/><path id="map_background-21" data-name="map background-21" d="M634.61,802.34v-1.05l-2.07-1h-1l-2-1-1-2.07-1-1v-1h-4.13l-1-1-1-1V791l-2.07-4.13v-3.1l1-2.07v-2.06l1-1v-1h-3.11v-2.06l1-1v-5.17l-1-1h-1l-1-1h-2.08v-2.08l-1-1h-3.1l-1,1H606.7l-1-1h-1l-1-2.06v-1l1-1,1-1,1-2.07,1-1,2.06-1.05h2.07l1-1,1-1v-1l1-2.06,1-1,1-1v-2.09l1-1-1-1v-5.17l1-2.06,2.07-1,1-1,1-1,1-1,1-1v-1l1-2.07h1l1-1,1-1,1-2.06h1V721.7h1v-1l1-1,2.07-5.17v-2.07h2.06v-1l1-1-1-2.07,1-1,1,1v-3.08l1-1,1,1h1l1-1v-3.11l1-1v-1l3.11-2.08h1l1,2.08h1l2.07,1h5.17l1,1h5.18l2.05-1,2.08,1,1,1,1,1.06h4.14l2.08-1.06V700l1-1,1-1h2.1l3.08,2h1l1,2.06v2.08h8.26l2.07,1,2.06,1,1,1,1-1h3.09l2.08,1v-4.12l1-1.07H708l1-1h2.06l2.07,1h2.08l1-1h3.1l1,1,2.07,1.07,2.07,1h1l1-1h2.07v1l1,1h1l1,1h1l1-1-1-1-1-1v-1.07l-1-1v-2l1-1h1l1,1,1.05,2,1,2.09h1l2.06,1v1l1,1h1l1.05-1-1.05-1,1.05-1v-1.07l3.1,1.07,1,1,1,1,1,2.08h1l1-1h1l2.06-1,1-1,1-1h2.06l1-1.06h1V700l1-1,1-1,2.07-1.05v-7.22l1-2.08v-2.07l-1-2.08v-1l-1-2.07,1-1-1-2.08-1-1,1-2H760.7l-2.08-1.05-1-1-2.06-1-1-1-1,1h-2.06l-2.08-1-2.06,2.05h-1l-1-1-1-1-1,1H741l-1-1v-1l1-1,1.05-1h1v-4.11L741,659.74v-3.11h1.05v-1l2.06-1,1-1v-1H740v-2.07l1-1v-3.14l1.05-1-1.05-1-1-1,1-3.1,1.05-1.05h1v-3.09l2.08-1v-2.08l-1-2.06-1-1v-2.07l1-1,1-1,1-1v1l1,1v4.13h2.06l1-1,1-1h2.06l1,1h4.13l1-1h1l1,1h1l1,1v1h1v2.05l1,2.08,1,2.06h1v-1l1-2.06h2l1.06,1h2l1,2.06,1-1,1-2.06v-2.08l1-2.06,1-1,2.08-1h2.06l1-1v-1l-1-2.08h-1l-2.06-1h-1v-1l1-1,1.05-1,2.06-1,1,1,1-1,1-1,2.08-1,1-1,1.06-1v-3.12l-1.06-2-1-1,1-2.06h3.14l1-1v-1.05l-1-1v-1l1-2.07,1-1,1.05-1,1-2.06,1-2.07-1-1V591.5l1-1,1-2.07H801l3.12,1h2.06l2.07,1h7.24l4.14,2.06h2.08l1,1,2.06,2v1h2.05v-1l1.06-1,1-2.07v-1l3.08,1,1,1,1,1,1.07,2.06,1,1,2.05-2.06,1-1,1-2.07h3.07v1l2.09,1,1,2.06,1,2.07V607l1,1,2.05,1,1,2.07v1l-1,2.07-1,1-1,1h-3.1l-1,1v1l1,2.06,1,1,1,1,1,2.07v1l1,1h1l2.07,1v6.19l1,2.08h1l1.06,1,1,2-1,2.07-1.06,1h-1l-1,1h-1l-2.06,1v21.7l-1,1h-5.2l-1,1-1,1-1,1.06v5.14l1,2.07,1,1,1,1v1l1.06,2.07,1,2.06v3.1l1,1v6.21l-1,2.07-1,1.05-2.06,1-1,1v4.14l-1,2.07-1,1h-1l-2.05,1H834l-1,1h-1l-1,1-1,1h-1l1,3.1v5.17h-3.13v-1l-2,1-1,1v1l2.06,2.09,2.07,1h2.07v1H832l1,2,1,2.08-1,2.06v1l-1,2.07-2.06,2.07v2.06l-1,1v2.07h1l1-1h1l1-1v1l-1,1-1,2.06-1,2.08h-2.07l-1.06,1-1,1v4.14h-1l-2.06,1h-1l-2.07,2.08-1,2.06-1.05,1,1.05,2.06h2.07l1,2.07v6.2l1,2.08,1,4.13,1,2.06,2,1h2.1l2.06-1H834v1l1.07,5.17,1,3.1,1,4.13v4.14l-1,1-1,1L834,799.24l-1,1L831,802.35l-1,2.06-1,2.06v1l1,2.06,1,1,2.06,2.07,1,1,2.1,1,2.05,2.07,1,2.08v9.29l1,1,1,3.12,1,1,2.06,2.08,1,2.05v2.07l1,4.13v3.11l-1,4.13V853l-1,3.1-1.06,3.1v7.24l1.06,4.13,1,3.1,1,6.22,1,2,1,4.13,1,3.11,1,3.1v3.1l-1,1H847.5l-2.06,1h-2.1l-1,1v1l1,2.06,1.06,1,1,1h4.13l2.06-1h2.07l1,4.14,1,2.07,1,1,2.07,1,1,1,1.05,1v1L859.89,916l-1,2.06v8.26l1,2v3.11l1.05,2.06v1l1,2.07,1,2.07-1,5.16v1l-1,3.09-1.05,2.07-2.06,2.07-3.1,2.07-2.08,2.07-1,1v1l-1,1-2.05,1.05-1,1-1,1h-1l-1,1v1l-1.06,1-3.06,2.08H834l-2-1.05-1,1.05H828.9l-3.1,3.1-3.11,2.06-.07,0-3-2-2.07-1-2.07-1-2.05-1-2.06-2.07v-3.09l-1.08-1v-2.06l-1-1h-2.08l-1.05,1-1,1-1.06,1h-1V949.1L800,947v-1l-1.05-1-1-1-2-1-4.14-3.11-1-2.07-3.1-1h-2.07l-1-1-2.1-1h-4.11l-1-1-1.05-1H774.1l-1-1.05v-1l-1-1v-1H770l-1-1h-3.1l-2.06-1h-1l-1-1-1-1.06-1-1H757.6l-2.06-1-1-1h-3.1l-1-1h-2.05v1l-2.09,1-1-1-1-1-1-1v-1l1-1h2.06l1-1v-1l-1-1-2.06-1-2.06-1h-1v1l-1,1h-1v-2.05h-3.1l-1-1-1-1v2.07h-1l-1,1-1-2.07v-3.09l-1-2.06v-4.15l1-1v-1l1-1v-1h-1l-1-1v-2.08l1-1h3.1v-1l-1-1-1-1-2.08-1-1-1h-1l-1-1V885l1-2.06,1-1,1-1v-1l-1-1-2.06-1.05-2.07-2-1-1-1-1.05-1-2v-1h-2.07v1h-1l-1.05-1-1-1-1-1-2.08-1h-1v7.25h-5.19v-1h-2.06l-1-1-1-1v-3.11l-1-1v-2.07h3.09l2.06,1v-5.16l-1-1h-2.07l-1,1h-3.09l-1,1h-4.13l-1-1h-1v-2.08h4.13v-2.07l1-1h1V853l1-1v-7.24h-2.07l-1-1v-1l-1-1-1,1v1l-1,1h-2.06l-1.05,1v4.13h-3.09v1l-1,1h-1l-2.07-1v-3.1l1-2.06,1-1,1-2.07-1-2.06-1-1v-2.06l-1-1-1-1v-5.18h-1v-6.2l1-1h1l1-1v-1h-1l-1-2.06v-1.07l-1-2-1-2.08h-1l-1,1-2,1h-2.08l-2.07-1v-7.23l-2.07-1H665.6l-2.06-1h-1l-2.08-2.05-1-1-1-1.05-1-1-1-1h-1l-2.09,1h-1l-1,1-1,1.05-1-1.05h-6.19l-1-1-1,1h-1l-1,1.05h-4.14Z" style="fill:#bbc8ca;stroke:#0c4d93;stroke-miterlimit:10;stroke-width:3px"/><path id="map_background-30" data-name="map background-30" d="M604.63,764.09h1l1,1h2.08l1-1h3.1l1,1v2.09H616l1,1h1.05l1,1.06v5.15l-1,1.05v2.06h3.1v1l-1,1v2.06l-1,2.08v3.1l2.09,4.12V793l1,1,1,1h4.14v1l1,1,1,2.05,2,1h1l2.08,1v1.05h1v1l-1,2.07v2.07l-1,2.06-1.05,1-1,1h-4.14l-1,1-1,1h-2.09l-1,1-1,1-1,2.07v8.28l-1,1-1,1-1-1-2.07,1v1l-1,1-1,1-2.08,1v1l-1,3.11-2.07,1-1,2-1,2.08-2.07,2.06h-4.13l-1,1v1l-1,1-2.08,1v3.11h4.14V854l-1,2-1,2.08h-3.1v2.06l-1,1-1,1h-2.08l-1,1,1,1v5.18l-1,2.06-1,1-1,2.09-2.08,1h-2.07l-2.06,1-2.06,2.06-1,1-2.06,1-1.05-1h-6.2l-1,1-2.07,2.06-1,2.07-1,2.07-1,3.1-1,1v1l-2.07,2.06-4.15,1-2,1-3.11-1-3.1,1H534.33l-2.06,1-1,1-1,1h-1l-1-2.06v-1l-2.06,1h-1v1l1,1v1l-1,2.06-2.08,1H520.9l-3.1,1-4.11-1-1,1-1,1v1l-1,1v1h-1l-2.07-1h-2.08l-1-2.06-1-2.08-1-2.05v-5.17l-1-1-1-1h-1.06l-1,1-1,1-1,1-1,1H491l-1,1-2.07,1v2.07h1l2.06,1H493l1,1h-1l-1,1h-4.14v1h1l1,1,1,1h1v2.06l1,1V916l-1,2.07-1,1v1l-2.06-1h-1l-2.07-1H475.44L473.39,917h-7.25l-3.09-1L461,915l-1-1h-2.06l-2.06,1-1.06,1-1,1-2.08,1.05-1-1.05V915l1-1v-2.07h-2.05l-2.08,1h-1l-1,1.06v1h1v5.17h-1l-1,1h-2.08l-2.07,1-3.09,1-2.08,1-2.05,1.06-2.08,1h-1v-1l1-1.06,2.08-1v-3.09l-1-1H430l-1,1-2.07,1h-3.1l-1-2.07,1-1,2.06-4.13,1-1.05,1-1h5.18v-1l2.05-5.15,1-1,1-2.07v-4.12l1-1-1-1h-1l-1,1-3.08-1H424.8l-1-1v-2.08l1-2.07h1l2.07-1v-3.1h-1l-1-1v-1l1-1H429v-7.24l-1-1-1-1,1-1.05,1-2.06v-3.11l-1-2.05v-1l1-1,1-1v-2.07l1-1,1,1v2.07l1,1h2l1.05-1,2.05-1,1,1h1v-4.15l1.05-1,1,1h3.11l1-1,1-1,1-2.07v-5.16h-2.07l-1-1-1-1v-2l-1.05-2.08v-1l-1-1,1-1v-7.23h-1l-1-1h-9.3v-1l-1.05-1v-3.12l-1-2-1-2.09-1-1h-3.08l-1,1v4.14l-2.08,1-1-1V824l-1-1v-1h-2.09v-1l-1-2.08,1-1v-1h2.09v-1l-1-3.1-1.05-1-1-2.06,1-3.1h2.09l1-3.1,1-2.07,1-1,2.08-2.07h9.28l3.11-1,2.07-2.08v-6.2l-1-1h-1l1-2v-2.08l2.08-3.11,1.05-1,1-2.06v-3.11l-1-1,1-1,1-2.06v-3.09h-2v-1l-1.05-1v-2l1.05-1,1-2.06,1-3.11-1-2.06-2.07-1-1-1v-1l1-2.05,1.05-1-1.05-2.07v-1l-1-2.07v-2l1-1v-2.08l1.05-1,1-1h3.11l1-1.05v-1l1-2V729l1-1,1.05-1h3.1v-2.06l1-1,1-2.09v-1h-1l-1,1h-1.07l-2,1h-4.14l-2.08,1.06h-1l-1-1.06v-3.08l-2.08-1h-3.1l-2.07-1,1-1V714.5l1-1h3.1l2.08,1h1l-1-3.11v-1l1-1,2.08-1h1l2.06-1h5.19l2-1,2.08,1,2.06,2.06H461l1-1,1-1,2.07-2.08h1l3.11-1h1l1-1v-2.09l1-2.06v-2.07l-1-2.08v-1l-1-1,.85-4.28h0l.18-.89,2.08-1,2.06,1,1,1,2.08,1,2.06,1,1.05,1,2.06,2.06h6.2L492,695.9,494,698v1H492l-1,1,1,1v2.09l2.06,1h2.07l1-1,1-1.07,1-1,2.07-1,1,1,1,1v2.08l1,2.07,1,1h2.08l1,2.06,2.06,1,1,2.09h1l2-1.06h3.1l1,1.06,3.11,1,2.06-1,2.08-1.06,1-2.06h2.08l1,1,1-1,1-2.06,1-3.11v-3.1h2.05l1-1v-12.4l-1-1-1-1-1-1-1-1v-1l1-2.06,1-2.07v-8.27l1-1-1-1.06v-2.05l-1-2.07v-2.07l2.05-2.06h2.08l1,1,1-1,2.07-1.05,1-1v-2.08l1-2.06v-1h3.11l2.06,1v-1l1.05-1,1-1L553,652.5v3.08H551.9l1.05,2.08,1,2.07,1,2.06v2.07l2.08,1,2.07,1v1l-1,1V669l1,1h1l2.07-2.08h4.13l1-1v-4.13h2.07v-2.05l-1.05-1-1-1.05,1-2.06,1.05-1v-1l2.06,1h1l2.06-2.06h1l1-1,1,4.11v1l2.07,1h1l1-1,1,1v2.08H585l1,1L584,663.85l-1,1h-2.06V669h-1l-1,1v1h2.06l1,1h1v3.1h1l1-1v-2.06l1-1h2.06v9.31l1,2.07,1,2.06,1,1,1.05,1,1,1h2l1.05-1h2.07l1-1v-4.12l1-1,1-2.07,2.07-1h1l1-2.07,1-1v-1l-2.06-1-1-1-1-1,1-1h2.07l2.06-3.1v-1h4.14l2.07,1,2.07,1,1-1h1l1,1h4.13l2.08,1,1,2.08v2.06h1l2.08-1,1,1v2.07l-1,2.06,1,2.07v1h3.1l2.06-1,2.07,1h2.07l-1,4.11v3.12l1,3.08,1.05,2.07,1,1,1,3.12,1,1V700l-1,1v3.11l-1,1h-1l-1.05-1-1,1v3.11l-1-1-1,1,1,2.05-1,1v1.06H634.6v2.05l-2.08,5.18-1,1v1h-1v2.09h-1l-1,2.05-1,1-1,1h-1l-1,2.06v1l-1,1-1,1-1,1-1,1-2.06,1.05-1,2v5.18l1,1-1,1v2.06l-1,1-1,1-1,2.05v1l-1,1-1,1h-2.06l-2.06,1-1.05,1-1,2.08-1,1-1,1v1Z" style="fill:#bbc8ca;stroke:#0c4d93;stroke-miterlimit:10;stroke-width:3px"/><path id="map_background-31" data-name="map background-31" d="M664.57,1026.6h-4.15l-5.14,1h-1l-3.1-2.07-2.06-2.06-2.07-2.07-1-3.1-2.08-2.07h-2l-2.07-1-2.07-1-3.11-2.06-1-2.08-1-2.06-2.07-3.1-1-1-2.08-2.07-2.06-1h-2.08l-2-1-2.09-1-4.12-1-3.11-1-3.09-1-2.08-1-2.06-1-3.1-1h-1l-1,1-2.08,4.14-1,4.13-1.06,3.1V1007l-1,2.07-1,1-1,1-3.12,1-1,2.06-2.06,1-2.08,2.06h-1l-2.07-1-1-1-1-3.09-1-1V1009l-1-3.08-1-5.18-1-2.07-1-2.07-1-1h-1l-2.06,2.07-1,3.09-1,2.08-3.11,2.06h-5.16l-4.15-1-3.09-1-3.1-1-2.06-2.07h-1l-3.11-1H531.24l-1-1v-5.16h-4.11l-3.11-1-3.1-1-3.1-1-1-2.07-1.07-3.09-2-3.12-1-5.15-2.06-4.14v-4.13l-1-3.11-1-3.09-1-3.1-1-2.08-1-4.12-2.08-4.15-1-7.23-2.07-5.16-3.09-6.21-1-5.17L494,921.18l-2-2h-1l1-1,1-2.07V911.9l-1-1v-2.06h-1l-1-1-1-1h-1v-1H492l1-1h1l-1-1h-2.07l-2.06-1h-1v-2.07l2.06-1,1-1h4.14l1-1,1-1,1-1,1-1h1l1,1,1,1v5.17l1,2.06,1,2.07,1,2.07h2.08l2.07,1h1v-1l1-1v-1l1-1,1-1,4.13,1,3.11-1H523l2.08-1,1-2.07v-1l-1-1v-1h1l2.08-1v1l1,2.07h1l1-1,1-1,2.06-1h12.42l3.09-1,3.11,1,2-1,4.14-1,2.07-2.06v-1l1-1,1-3.1,1-2.08,1-2.06,2.07-2.07,1-1h6.2l1,1,2.05-1,1.06-1,2.05-2.08,2.07-1H585l2.08-1,1-2.09,1-1,1-2.08v-5.17l-1-1,1-1h2.08l1-1,1-1v-2.07h3.11l1-2.07,1-2.05v-3.11h-4.14V847.8l2.07-1,1-1v-1l1-1h4.13l2.07-2.06,1-2.08,1-2,2.08-1,1-3.11v-1l2.08-1,1-1,1-1v-1l2.07-1,1,1,1-1,1-1v-8.27l1-2.07,1-1,1-1h2.09l1-1,1-1h4.14l1-1,1-1,1-2.07v-2.06l1-2.05v-1h3.11l1-1h1.05l1-1.05,1,1.05h6.21l1,1,1-1,1-1.05h1l2.08-1h1l1,1,1,1.05,1,1,1,1,2.08,2.05h1l2.06,1h4.14l2.06,1v7.24l2.07,1H676l2-1,1-1h1l1,2.06,1,2.07v1l1,2.07h1v1l-1,1h-1l-1,1v6.21h1v5.16l1,1,1,1v2.06l1,1,1,2.06-1,2.08-1,1-1,2v3.12l2.08,1h1l1-1v-1h3.1v-4.13l1-1h2.08l1-1v-1l1-1,1,1v1l1,1h2.07V852l-1,1v3.09h-1l-1,1v2.07h-4.13v2.08h1l1,1h4.13l1-1h3.08l1.05-1h2.07l1,1v5.16l-2-1h-3.09v2.06l1,1v3.13l1.05,1,1,1h2v1.05h5.19v-7.25h1l2.05,1,1,1,1,1,1.05,1h1v-1h2.08v1l1,2,1,1.05,1,1,2.08,2,2.06,1,1,1v1l-1,1-1,1-1,2.06v2.08l1,1h1l1,1,2.07,1,1,1,1,1v1h-3.1l-1,1v2.07l1,1h1v1l-1,1v1l-1,1v4.14l1,2.07v3.08l1,2.07,1-1h1.05v-2.07l1,1,1,1.06H739V914h1l1-1.05v-1h1.05l2,1,2.07,1.05,1,1v1l-1,1h-2.07l-1,1v1l1,1,1,1,1,1.06,2.07-1.06v-1h2.07l1,1h3.1l1,1.06,2.08,1h2.07l1,1,1,1.05,1,1h1l2.07,1H769l1,1h2.07v1l1,1v1.05l1,1h2.07l1,1,1,1h4.11l2.09,1,1,1h2.07l3.09,1,1,2,4.14,3.12,2.07,1,1,1,1,1v1l3.1,2.06v12.41h1l1-1,1-1,1-1h2.06l1,1v2.07l1.08,1v3.1l2,2.09,2.05,1,2.07,1,2.07,1,3,2,.07,0-.07,0,.07,0-3.11,1L817.52,975l-2.07,2-3.09,2.07-2.09,2.07-1,2.06-1,1-1,6.16V1006l-1,2.06-1,1-1,2.07,1,2.07-1,1v1l1,2.06h3.08l1,1,1,2.06v3.11l1.08,4.14v5.16l-1.08,1V1038l-1,2.06-1,1v5.19h1l1-4.15,1.08-1v-1h1v4.13l1,1,1,1v1l1,2,1,2.08,1,2,3.11,2.07,1,2.07,2.07,2.07,1,2.06v2.08l1,1h-2.07l-1,2.07h-2.07l-4.15,1-1,1-2.05,3.1-2,2.06-1.08,2.07h-2l-4.13-1-2.05,1-4.15,1-5.16,1h-5.16v-1H773.08l-2.07,1-2,1h-4.15l-5.16-2.06h-1l-2.08,1-1,1-3.09,2.08h-9.32l-2.07-1v-3.12l-1-1-3.09,1-1-1h-2.06l-2.08-1h-4.13l-2.06,1-3.1-1-1-1-2.08-2.06-2.06-1L715.2,1069l-1-1-2.07-2.07h-1l-3.08-1-5.19-3.11-5.16-4.12-5.17-4.15-4.13-4.13-2.08-1-6.19-5.17-4.13-3.1-3.11-1-1-3.09-3.1-4.13-2.08-3.11-1-1Z" style="fill:#bbc8ca;stroke:#0c4d93;stroke-miterlimit:10;stroke-width:3px"/></svg>